<svg id="Layer_1" data-name="Layer 1" xmlns="http://www.w3.org/2000/svg" viewBox="0 0 85.82 78.97"><defs><style>.cls-1{fill:#231f20;}</style></defs><title>careers</title><path class="cls-1" d="M12.86,26.36l0,0S12.85,26.35,12.86,26.36Z"/><path class="cls-1" d="M13.05,26.37s-.08,0-.15,0h0C13,26.33,13.08,26.36,13.05,26.37Z"/><path class="cls-1" d="M26.52,19h0Z"/><polygon class="cls-1" points="26.56 18.77 26.56 18.77 26.56 18.78 26.56 18.77"/><path class="cls-1" d="M26.52,19l0-.06a.34.34,0,0,0,0-.19.32.32,0,0,1,0,.2Z"/><path class="cls-1" d="M26.36,18.56l.11.07a.28.28,0,0,1,.09.14.22.22,0,0,0,0,0,.33.33,0,0,0-.07-.11h0l-.1-.09-.17-.16-.12-.11L26,18.18l0,0h0s.07.05,0,.18l.13.09Z"/><path class="cls-1" d="M25.95,18.54a.52.52,0,0,0,.08-.2h0l-.08-.06,0,0h0s.08,0,0,.21-.14.07-.16.06l-.06.12S25.7,18.71,25.95,18.54Z"/><path class="cls-1" d="M41.24,29.55s-.07,0-.12,0h0C41.15,29.51,41.26,29.53,41.24,29.55Z"/><path class="cls-1" d="M41.08,29.53l0,0S41.07,29.52,41.08,29.53Z"/><path class="cls-1" d="M6.63,13.49h0l-.12-.12.09.18h0A0,0,0,0,0,6.63,13.49Z"/><path class="cls-1" d="M6.11,11.9v0l.18,1-.09-1v0h0A8.62,8.62,0,0,1,7.68,7.54,7.91,7.91,0,0,1,13,4.09a7.33,7.33,0,0,1,6,1.9,7.49,7.49,0,0,1,2.27,4.19,7,7,0,0,1,.1.8c0,.12,0,.29,0,.43v.38a7.52,7.52,0,0,1-.09.78v.08h0l.55.08h0l-.07.09-.13.19-.27.36-.18-.15A7.32,7.32,0,0,1,15,18.59a7.58,7.58,0,0,1-5.4-1.36,8.68,8.68,0,0,1-2.31-2.45,13,13,0,0,1-.68-1.23h0l-.07-.17c-.15-.37-.2-.41-.2-.41l.07.44h0a8.16,8.16,0,0,0,1.2,2.79A8.29,8.29,0,0,0,12,19.48a8.42,8.42,0,0,0,6.59-.78,8.74,8.74,0,0,0,3.9-4.93l0-.07v0a10.43,10.43,0,0,0,.3-2.05,8.25,8.25,0,0,0-.13-1.71,8.44,8.44,0,0,0-10-6.73A8.55,8.55,0,0,0,7.27,7.34a8.81,8.81,0,0,0-1.16,4.54Zm.49,1.72-.11-.11.12.11Z"/><path class="cls-1" d="M63.37,13.82a8.5,8.5,0,0,0,2.12,3.46,16.15,16.15,0,0,0,1.42,1.08,15.31,15.31,0,0,0,1.4.68l1.24.35a6.76,6.76,0,0,0,1,.11l.83.06-.83-.13a6.82,6.82,0,0,1-.94-.18l-1.18-.44c-.42-.19-.83-.49-1.29-.76a16.16,16.16,0,0,1-1.27-1.12,8,8,0,0,1-1.71-3.29,7.31,7.31,0,0,1-.24-2V11.4a1.1,1.1,0,0,0,0-.21L64,10.7a4.78,4.78,0,0,1,.19-1A7.15,7.15,0,0,1,65,8a6.69,6.69,0,0,1,1.12-1.45,10.39,10.39,0,0,1,1.35-1.07,10.23,10.23,0,0,1,1.41-.64,7.54,7.54,0,0,1,1.3-.32l1.2-.11a7.44,7.44,0,0,1,5.87,3.06c.24.44.5.86.71,1.28L78.35,10l.17,1.4c0,.3-.05.78-.07,1.15a7.34,7.34,0,0,1-1.52,3.68,7.5,7.5,0,0,1-2.14,1.94l-.48.32-.46.2-.79.35c-.48.17-.84.23-1.09.32a2.31,2.31,0,0,0-.6.23l.8-.06a6.58,6.58,0,0,0,.94-.1L74.39,19a15,15,0,0,0,1.41-.68,16.28,16.28,0,0,0,1.42-1.08,8.55,8.55,0,0,0,2.12-3.43,8,8,0,0,0,.42-2.14l0-.28,0-.32,0-.52a5.47,5.47,0,0,0-.13-1.05,8.12,8.12,0,0,0-.77-2.13A7.81,7.81,0,0,0,77.6,5.63a8.32,8.32,0,0,0-12.49,0A7.76,7.76,0,0,0,63.9,7.41a8.09,8.09,0,0,0-.77,2.08A5.6,5.6,0,0,0,63,10.6l0,.56c0,.12,0,.13,0,.34l0,.26A8.11,8.11,0,0,0,63.37,13.82Z"/><path class="cls-1" d="M85.71,29.74c0-1.43,0-2.83-.06-4.16,0-.66,0-1.31,0-1.94a10.45,10.45,0,0,0-.11-1.89,5.28,5.28,0,0,0-1.83-2.84,7.32,7.32,0,0,0-2.24-1.27,6.74,6.74,0,0,0-1.62-.36,5.24,5.24,0,0,0-.59,0,5.2,5.2,0,0,1,.59.05,6.75,6.75,0,0,1,1.59.43,7.17,7.17,0,0,1,2.13,1.34,5,5,0,0,1,1.62,2.74c0,4.52-.27,10.44-.39,16.32l-3.92-.93L81,30.43c0-1.15,0-2.19,0-3.12,0-.25,0-.48,0-.71s0-.18,0-.4a1.74,1.74,0,0,0-.15-.6,1.94,1.94,0,0,0-1.73-1.1.77.77,0,0,0-.79.75h0v0c0,.35,0,.63,0,.89,0,4.34-.06,8.23,0,11.76L72.23,38c2.67-10.56,3.89-16.09,4.43-18.95a23.79,23.79,0,0,0,2-1.34,1.14,1.14,0,0,0,.31-.37,2,2,0,0,1-.55.39c-.42.26-1.09.47-2,1a.27.27,0,0,0-.12.16v0l-2.54,9L72.25,25a.5.5,0,0,0,.11-.08l1-1.21.49-.58L74,23l0,0c.08-.09,0,0,.06-.08l.07-.12a1,1,0,0,0,.11-.57,2.44,2.44,0,0,0-.46-1.17,1.88,1.88,0,0,0-.32-.37,2.35,2.35,0,0,1,.36,1.54.66.66,0,0,1-.39.51l-.63.44L71.68,24l-.21,0h-.09v0h0l0,0-.08,0a12.9,12.9,0,0,0-.9-1.05l-.66-.65a1.28,1.28,0,0,1,0-.16,5.27,5.27,0,0,1,.44-1A11.1,11.1,0,0,0,71.66,21a6,6,0,0,0,1.08-.08c.49-.12.52-.35.53-.33a1.32,1.32,0,0,1-.27,0c-.11,0-.38-.1-.67-.2l-.52-.16a3.86,3.86,0,0,0-.65-.1,9.46,9.46,0,0,1-1.21-.22.52.52,0,0,0-.5.15h0a4.48,4.48,0,0,0-1.23,2.09,1.59,1.59,0,0,0,0,.45,1.42,1.42,0,0,0,.1.32,1.46,1.46,0,0,0,.2.29l.28.31.48.5c.25.25.62.59,1.06,1l.08.07a.45.45,0,0,0,.17.1l.36.1-.14.16-.48.58a2.38,2.38,0,0,1-.3.3s0,0,0,0h0a1.87,1.87,0,0,0,.34-.23c.26-.17.54-.49.94-.77h0a1.8,1.8,0,0,0,.51-.1l1,3.07c-.55,1.44-1.08,2.87-1.42,3.95-1-5.19-1.75-5.59-1.75-5.59l.63,7.24L64.65,17.83l6.17,20.46-6.58-.17c.11-4.69.19-8.88.19-11.62,0-.4,0-.8,0-1.2a.79.79,0,0,0-.79-.79H62.44a.79.79,0,0,0-.79.79h0c0,2.16,0,4.19,0,6.15l0-.28c-.08-2.88-.06-5.23-.23-7.37A7.19,7.19,0,0,0,59,19.42a3.72,3.72,0,0,1,1.23-.77,11.18,11.18,0,0,1,1.32-.43c.79-.21,1.37-.31,1.79-.4.84-.15,1-.2,1-.2a13.82,13.82,0,0,0-1.65.07,15.25,15.25,0,0,0-1.92.3,4.73,4.73,0,0,0-2.43,1.18.36.36,0,0,0,0,.5h0l0,0a6.76,6.76,0,0,1,2,3.63,6.73,6.73,0,0,0-2.17-3.2,9.15,9.15,0,0,0-2.77-1.58,8.4,8.4,0,0,0-2-.45,6.75,6.75,0,0,0-.74,0,6.56,6.56,0,0,1,.73.06,8.33,8.33,0,0,1,2,.52,9,9,0,0,1,2.67,1.64,6.35,6.35,0,0,1,2.07,3.4A11.48,11.48,0,0,1,60.24,26c0,.79,0,1.6-.06,2.43,0,1.68-.08,3.44-.12,5.25-.08,3.56-.16,7.28-.24,10.92l-5.23-.1c.06-3.55.11-6.86.16-9.7,0-1.61,0-3.07.05-4.39,0-.17,0-.34,0-.5v-.43a.92.92,0,0,0,0-.15,1.18,1.18,0,0,0-.09-.33,1.58,1.58,0,0,0-.08-.17l-.14-.26-.27-.43c-.37-.54-.7-1-1.08-1.46a.78.78,0,0,0-1.4.48v0c0,.28,0,.5,0,.71,0,6.07,0,11.46,0,16.38l-8.11.06c3.45-13.47,5.06-20.48,5.8-24.08,1.37-.88,2.25-1.27,2.62-1.63a1.59,1.59,0,0,0,.42-.46,2.6,2.6,0,0,1-.7.51c-.53.33-1.39.6-2.56,1.28a.27.27,0,0,0-.12.16v0l-2.18,7.8.51-2.18v0a.55.55,0,0,0-.85-.58l-1.39.94,0,0a3.72,3.72,0,0,0,.41-1.15,5.91,5.91,0,0,0,.12-1.73,1.29,1.29,0,0,0-.31-.8,1.1,1.1,0,0,1,.16.81,5.69,5.69,0,0,1-.47,1.58,3.57,3.57,0,0,1-.49.83,3.06,3.06,0,0,1-.87.49,5.65,5.65,0,0,1-1,.32,1.52,1.52,0,0,1-.38,0c-.39-.64-.75-1.2-1-1.57l-.88-1.13,0-.15v-.06l.06-.07.29-.33.35-.41a17.14,17.14,0,0,0,2-.08,8.47,8.47,0,0,0,1.35,0c.62-.11.66-.35.67-.33a1.72,1.72,0,0,1-.35,0A8.17,8.17,0,0,1,44,22c-.2-.06-.41-.13-.66-.19a4.71,4.71,0,0,0-.81-.12A12.19,12.19,0,0,1,41,21.46a.54.54,0,0,0-.48.12l-.05,0-.66.6-.32.3-.16.15a1.59,1.59,0,0,0-.23.24L39.46,24a.7.7,0,0,1-.39-.33.71.71,0,0,1-.07-.21h0s0,0,0,0v.73a.75.75,0,0,0,.09.26.71.71,0,0,0,.09.11l0,0c.37.53.7,1,.95,1.32s.73.92,1.25,1.54l0,.06,0,0a1.16,1.16,0,0,0,1,.3,1.37,1.37,0,0,0-.2.2c-.47.58-.71,1-.94,1.32a1.74,1.74,0,0,1-.22.25s0,0,0,0a1.31,1.31,0,0,0,.23-.19c.26-.26.58-.7,1.08-1.19,1.13-.47,2.52-1.14,4-1.94C45.29,29.51,44.1,33.1,43.58,35c-.24.9-.46,1.74-.67,2.55-1.42-7.13-2.14-7.71-2.14-7.71s.69,5.7,1.25,10.26l-5.3-19,5.64,23.22-.1.35-8.68-.18c.1-6.42.2-12.24.26-16.4a.75.75,0,0,0-.74-.76H31.58a.77.77,0,0,0-.78.76h0c0,1.28,0,2.39,0,3.35,0,4.62,0,8.85,0,12.77l-4.71,0c-.07-5.87-.13-11-.18-15.6q0-1.61-.06-3.13a7.56,7.56,0,0,1,.21-2.63,6.11,6.11,0,0,1,2.58-3.4h0s0,0,0,0a7.45,7.45,0,0,1,2.52-.91l2.84-.14a25.48,25.48,0,0,0,2,2.24,1.89,1.89,0,0,0,.52.34,3.43,3.43,0,0,1-.62-.61c-.4-.45-.87-1.21-1.67-2.22a.3.3,0,0,0-.23-.11h0L31.2,18h-.07a7.7,7.7,0,0,0-2.85.9s0,0,0,.06A6.77,6.77,0,0,0,25,23.73a9.31,9.31,0,0,1,.61-3.37,4,4,0,0,1,.6-1c.17-.2.27-.29.27-.29s-.11.09-.29.28a4,4,0,0,0-.66,1,10.56,10.56,0,0,0-.85,4.31L24,32.71c0-.42,0-.86,0-1.27,0-1.21-.08-2.38-.12-3.5q0-.86-.06-1.67a1.77,1.77,0,0,0-1.75-1.66.67.67,0,0,0-.68.65v0c-.09,3.33-.15,6.23-.16,8.32,0,1.49,0,2.91,0,4.3l-6,0c2.22-8.55,3.68-14.53,4.63-18.67a14.43,14.43,0,0,0,2.37-1.47h.64l.5.16,0-.17h.09a.18.18,0,0,0,.17-.17c.36.06.68.11,1,.16a6.15,6.15,0,0,1,1.2.41l-.14.31h0l.2-.42a5.34,5.34,0,0,0-1.2-.58c-.59-.18-1.25-.32-2.09-.54a.34.34,0,0,0-.4.21h-.07a.35.35,0,0,0-.26.1l0,0a4,4,0,0,1-1.08.64,13.76,13.76,0,0,0-1.48.73.38.38,0,0,0-.16.22v0L18,23a.54.54,0,0,0-.32-.21.55.55,0,0,0-.44.09L16.9,23a1.27,1.27,0,0,0,.2-.31,1.39,1.39,0,0,0,0-1,2.94,2.94,0,0,0-.29-.58,2.08,2.08,0,0,0-.38-.46,1.87,1.87,0,0,1,.25.52,1.73,1.73,0,0,1,0,1.3l-2.28,1.67a13.2,13.2,0,0,0-.95-1.11l-.68-.67-.16-.16-.06-.06a1.77,1.77,0,0,1,.18-.64,4.59,4.59,0,0,0,.93-.28l.4-.16a1.48,1.48,0,0,1,.21-.06s.09,0,.13,0a11.66,11.66,0,0,0,1.18-.08c.56-.11.59-.36.6-.34a3.23,3.23,0,0,1-1.1-.27,2.71,2.71,0,0,0-1.44-.15,4.65,4.65,0,0,1-1.21.11.47.47,0,0,0-.47.11l-.06.06a2.88,2.88,0,0,0-.69,1.05A1.63,1.63,0,0,0,11.26,23a2.9,2.9,0,0,0,.22.26l.14.15.26.28.44.46c.29.29.74.7,1.25,1.16-.24.34-.42.63-.56.81a1.92,1.92,0,0,1-.16.19s0,0,.06,0l.15-.13c.17-.16.39-.42.67-.71l0,0,.07.06a.66.66,0,0,0,.93-.06h0l.86-1c.45-.21.93-.45,1.42-.7-.95,2.6-1.92,5.37-2.32,6.86l-.38,1.45c-1.1-5.06-1.75-5.48-1.75-5.48l.9,8L7.56,17.83l6.13,20.33,0,.12-6.5-.17c.08-4.48.12-8.46.11-11.1q0-.87,0-1.72h0a.78.78,0,0,0-.78-.77h0a1.88,1.88,0,0,0-1.9,1.82l0-.15L2.95,34.63C2.07,29.41,1.36,25.48.8,22.55a3.17,3.17,0,0,1,.92-2.19,7,7,0,0,1,1.6-1.28A11.05,11.05,0,0,1,5.79,18c.6-.18,1-.25,1.2-.3l.27-.07a6.23,6.23,0,0,0-.68,0A9.19,9.19,0,0,0,4.72,18a9.2,9.2,0,0,0-2.67,1.25A4.29,4.29,0,0,0,0,22.57v.07L2.2,38.48v.06h0l0,.24a.65.65,0,0,0,1.29,0v0l0-.24h0v0L5.7,28.46c0,2.6.08,6.15.14,10.23h0a.69.69,0,0,0,.23.5.53.53,0,0,0-.08.27H6C6.13,53,6.25,65,6.25,65s.27-12.16.56-25.28l14.6.28c-.13,7.52-.22,14.34-.22,18.66,0,1.92,0,3.76,0,5.56H16.06C16,60.52,16,57,16,53.8c0-1.68,0-3.3,0-4.87q0-1.15,0-2.26v-.27a1.3,1.3,0,0,0,0-.34,1.08,1.08,0,0,0-.17-.31,1.78,1.78,0,0,0-.67-.48A3.43,3.43,0,0,0,13.75,45a.59.59,0,0,0-.62.56v.06c.12,9.31.28,15.36.43,19.29a56.65,56.65,0,0,0-7,.47l7.2.08a.37.37,0,0,0,.37-.37h0c0-4.83.11-11.61.18-18.76a1.74,1.74,0,0,1,.37.17l0,0h0v.65l0,2.63c0,1.76,0,3.52,0,5.25,0,3.5-.05,6.9-.08,10a.73.73,0,0,0,.72.73h0l6.69,0a.77.77,0,0,0,.77-.76h0c0-2.47,0-4.61,0-6.34,0-4.33-.06-11.3-.1-19.21h0a.66.66,0,0,0-.09-.31.75.75,0,0,0,.17-.45h0c0-2,0-3.72.05-5.07,0-.59,0-1.26,0-2l.49,7.09v0a.58.58,0,0,0,1.17,0c.15-4,.29-7.9.41-11.22,0,1,0,2,0,3.09,0,4.69-.09,9.68-.14,14.42a.66.66,0,0,0,.66.67h0l6.2.05a.72.72,0,0,0,.72-.71h0c0-3.68,0-7,0-9.78,0,3,0,6.34.07,9.78h0a.64.64,0,0,0,.32.54.54.54,0,0,0-.22.43h0c.14,17.08.26,32.2.26,32.2l.56-31.93L52,46.55c-.13,9.54-.22,18.18-.22,23.66,0,2.49,0,4.88,0,7.2H44.87c0-4.81,0-9.26-.06-13.38q0-3.2,0-6.14,0-1.45,0-2.85v-.35a1.33,1.33,0,0,0-.06-.37A1.17,1.17,0,0,0,44.5,54a2.13,2.13,0,0,0-.79-.56,4.19,4.19,0,0,0-1.55-.38.59.59,0,0,0-.61.56v.06c.12,11.76.28,19.4.43,24.35-7.82.24-8.9.47-8.9.47l9.08.08a.37.37,0,0,0,.38-.37h0c0-6.13.12-14.73.18-23.85a2.79,2.79,0,0,1,.68.29l.12.09s0,.07,0,.08v.82l0,3.31c0,2.21,0,4.43,0,6.61,0,4.4-.05,8.68-.08,12.64a.73.73,0,0,0,.73.73h0l8.43,0a.77.77,0,0,0,.77-.77h0c0-3.1,0-5.8,0-8,0-5.5-.06-14.3-.1-24.21h0a.69.69,0,0,0-.2-.48.7.7,0,0,0,.21-.49h0c0-3.42,0-6.63.05-9.49,0,2.89,0,6.1.07,9.49h0a.67.67,0,0,0,.68.67h0l6.2-.06h0a.62.62,0,0,0,.61-.62h0c0-3.42-.07-6.87-.1-10.18q.15,1.78.29,3.52l0,.27h0v.13a.66.66,0,0,0,1.31,0v0l0-.13h0c0-.07,0-.13,0-.2l.47-4.21q0,2.11,0,4.48h0a.68.68,0,0,0,.22.5.53.53,0,0,0-.08.27h0L63.34,65l.56-25.28L78.5,40c-.13,7.52-.22,14.34-.22,18.66,0,1.92,0,3.76,0,5.56H73.15c0-3.74,0-7.22-.06-10.46,0-1.68,0-3.3,0-4.87q0-1.15,0-2.26v-.28A1.09,1.09,0,0,0,73,46a1,1,0,0,0-.17-.31,1.8,1.8,0,0,0-.67-.48A3.45,3.45,0,0,0,70.84,45a.58.58,0,0,0-.61.56v.06c.12,9.31.28,15.36.43,19.29a56.63,56.63,0,0,0-7,.47l7.2.08a.37.37,0,0,0,.37-.37h0c0-4.84.12-11.61.18-18.76a1.77,1.77,0,0,1,.37.17l0,0h0v.65l0,2.63c0,1.76,0,3.52,0,5.25,0,3.5-.05,6.9-.08,10a.73.73,0,0,0,.72.73h0l6.69,0a.77.77,0,0,0,.77-.76h0c0-2.47,0-4.61,0-6.34,0-4.33-.06-11.3-.1-19.21h0a.66.66,0,0,0-.13-.37.68.68,0,0,0,.14-.39v0c0-.19,0-.36,0-.55a.67.67,0,0,0,.34.19l4.93,1h0a.63.63,0,0,0,.74-.49.58.58,0,0,0,0-.13C85.78,35.69,85.74,32.64,85.71,29.74ZM69.18,22.49h0ZM40.54,23.93h0S40.54,23.93,40.54,23.93ZM14.71,46.38h0ZM14,36.12a.66.66,0,0,0,.24,0l-.1.35ZM43.52,54.68s0,0,0,0Zm-1.1-13.15a.67.67,0,0,0,.47.12.66.66,0,0,0,.26-.11l-.36,1.29ZM71.8,46.38h0Zm-.39-10.15-.12.43-.17-.47A.71.71,0,0,0,71.41,36.23Zm0-12.2h0S71.37,24,71.37,24Z"/><path class="cls-1" d="M70,26.34h0S70,26.36,70,26.34Z"/><path class="cls-1" d="M70,26.34a.16.16,0,0,1,.12,0,.18.18,0,0,0-.12,0h0Z"/><path class="cls-1" d="M32.88,13.64a10.59,10.59,0,0,0,2.62,4.3,20.57,20.57,0,0,0,1.77,1.35,19.23,19.23,0,0,0,1.74.86l1.55.45a8.66,8.66,0,0,0,1.21.14l1,.08-1-.15a8.52,8.52,0,0,1-1.18-.21l-1.49-.54c-.53-.23-1.06-.61-1.64-.94a21.07,21.07,0,0,1-1.61-1.39,10.05,10.05,0,0,1-2.21-4.14,9.14,9.14,0,0,1-.33-2.5l0-.33a2.17,2.17,0,0,0,0-.28l.09-.62a6.11,6.11,0,0,1,.22-1.22,9.06,9.06,0,0,1,1-2.25,8.56,8.56,0,0,1,1.42-1.87,4.58,4.58,0,0,1,.85-.74c.3-.22.57-.47.87-.65a13,13,0,0,1,1.81-.85l.85-.25a2.67,2.67,0,0,1,.84-.18l1.62-.15a9.62,9.62,0,0,1,4.4,1.22A8.5,8.5,0,0,1,49,4a17.52,17.52,0,0,1,1.34,1.5c.31.57.64,1.11.91,1.65s.38,1.08.53,1.63.14,1.18.21,1.77c0,.42-.07,1-.1,1.49a5.49,5.49,0,0,1-.3,1.4,4.66,4.66,0,0,1-.45,1.26l-.55,1.11c-.22.33-.47.62-.68.92a8,8,0,0,1-1.39,1.45,7,7,0,0,1-1.36,1l-.61.39L46,19.8l-1,.41c-.6.2-1.06.25-1.38.35a3.51,3.51,0,0,0-.76.25l1-.08A8.28,8.28,0,0,0,45,20.6l1.58-.45c.56-.21,1.12-.55,1.75-.86a20.63,20.63,0,0,0,1.77-1.35,10.66,10.66,0,0,0,2.61-4.28,9.86,9.86,0,0,0,.5-2.66l0-.34,0-.39-.05-.65A6.77,6.77,0,0,0,53,8.31a10,10,0,0,0-1-2.63,9.59,9.59,0,0,0-1.51-2.2,5.46,5.46,0,0,0-.93-.89c-.33-.27-.63-.56-1-.79A13.71,13.71,0,0,0,46.55.73a11,11,0,0,0-2-.55C43.88.11,43.41,0,42.73,0L41.11.17a11.32,11.32,0,0,0-2,.55A13.62,13.62,0,0,0,37,1.8c-.34.23-.64.52-1,.79a5.45,5.45,0,0,0-.93.89,9.62,9.62,0,0,0-1.51,2.2,10,10,0,0,0-1,2.58,7,7,0,0,0-.18,1.37l-.06.69c0,.14,0,.17,0,.4l0,.32A9.88,9.88,0,0,0,32.88,13.64Z"/></svg>