<svg id="Layer_1" data-name="Layer 1" xmlns="http://www.w3.org/2000/svg" viewBox="0 0 84.29 75.51"><defs><style>.cls-1{fill:none;}</style></defs><title>click_collect</title><path d="M52.29,68.72,52,69,51.9,72l.39.41,3.61.14,1.57,0,1.45,0,.52-.52c0-1.26,0-1.65-.07-3.28l-.48-.47-2.39.09-2,.09-2,.1,6.08.6-.06,0,0,.06,0,.18,0,.4,0,.76,0,.68v.31c0,.09,0,0,0,0l.14-.15H56.71l-1.68,0-1.42.06-.61,0-.29,0-.11,0,0,0a3.5,3.5,0,0,1-.05-.45l-.06-.52c0-.32-.08-.59-.12-.81a8.68,8.68,0,0,0-.22-.94A1.41,1.41,0,0,0,52.29,68.72Z"/><path d="M14.55,35.19,17.13,44l4.54,15.2L25.26,58l-1.77-5.57-2.12-6.52L17.44,34l-2.75.91,2.66-.73,3.31,12,1.85,6.57,1.32,4.49-1.44.45-2.13-6.68-1.83-5.54c-1.07-3.18-1.86-5.39-2.44-6.93A19,19,0,0,0,14.55,35.19Z"/><path d="M12.35,56.05l.08.25A2.63,2.63,0,0,0,14.81,58a2.79,2.79,0,0,0,2.75-3.6A2.81,2.81,0,0,0,16,52.72a2.78,2.78,0,0,0-2.76.32,2.64,2.64,0,0,0-1,2.77l.08.25,0-.26a2.61,2.61,0,0,1,0-.69,2.34,2.34,0,0,1,1.2-1.6,2.07,2.07,0,0,1,2,.08,2.1,2.1,0,0,1,.88,1.18,1.88,1.88,0,0,1-.28,1.65,2,2,0,0,1-1.13.75,2.33,2.33,0,0,1-1.82-.35,4.87,4.87,0,0,1-.71-.61A.62.62,0,0,0,12.35,56.05Z"/><path class="cls-1" d="M.2,38.81,8,63.69l12.78-4L13,34.82ZM17.78,54.36a3.14,3.14,0,1,1-3.93-2.06A3.14,3.14,0,0,1,17.78,54.36Z"/><path d="M17.58,54.42l.06.29a3.05,3.05,0,0,1,0,.8,2.85,2.85,0,0,1-1.32,2,2.71,2.71,0,1,1-1.56-5,2.85,2.85,0,0,1,2.25.94,3,3,0,0,1,.45.66l.12.28-.07-.3a3.07,3.07,0,0,0-.36-.76A3.16,3.16,0,0,0,14.76,52a3.42,3.42,0,0,0-3.09,1.53,3.46,3.46,0,0,0-.43,2.88,3.65,3.65,0,0,0,2.48,2.41,3.5,3.5,0,0,0,2.64-.3A3.17,3.17,0,0,0,18,55.86a2.15,2.15,0,0,0-.29-1.24C17.63,54.44,17.58,54.42,17.58,54.42Z"/><path d="M0,38.87,7.64,64.3l13.81-4.22L17.75,48.42l-4.52-14L.14,38.6,12.91,35l4,13.75L18.73,55,20,59.34,8.31,63,6,55.9,4.06,50c-1.14-3.39-2-5.75-2.57-7.4A29.19,29.19,0,0,0,0,38.87Z"/><path d="M49.58,30.47l.27.31c.18.21.46.5.83.87a13.87,13.87,0,0,0,18.1.89l-.37,0-.08-.06.46,0A14.1,14.1,0,0,0,54.67,8.45a14.32,14.32,0,0,0-7.18,6.69,14,14,0,0,0-1.23,3.6,4.29,4.29,0,0,0-.1.52l-.1.78-.13,1c-.1.27.15.12.31.08l.51-.16,2.76-.87.14,0c.05,0,.09,0,.09-.09l.06-.28.09-.43c0-.18.07-.37.13-.55a11,11,0,0,1,.37-1.09,10.49,10.49,0,0,1,4.88-5.47,10.58,10.58,0,0,1,10.48.33,10.72,10.72,0,0,1,3.84,4.05,10.49,10.49,0,0,1,1.24,5.38A10.77,10.77,0,0,1,57.35,32a10.79,10.79,0,0,1-3.12-1.38,11.51,11.51,0,0,1-1.13-.85l-.24-.21-.32-.3a1.61,1.61,0,0,0-.39.1l-.29.09-2.18.69,2.19-.65a5.41,5.41,0,0,1,.65-.17l.29.28.24.22a11.59,11.59,0,0,0,1.12.88A10.92,10.92,0,0,0,66,31a11.24,11.24,0,0,0,4.21-14.75,11.42,11.42,0,0,0-15.36-4.91,11.67,11.67,0,0,0-4.17,3.62,11.81,11.81,0,0,0-1.25,2.31,12,12,0,0,0-.42,1.2c-.06.2-.1.41-.15.61l0,.15h0l-1.56.47s0,0,0,0h0l0-.25a3.74,3.74,0,0,1,.09-.48A13.13,13.13,0,0,1,54,10a13.14,13.14,0,0,1,13.33.5,13.2,13.2,0,0,1,4.2,4.34,13,13,0,0,1,1.78,5.19A13.4,13.4,0,0,1,68.38,32l.46,0L68.73,32l-.2-.1-.16.13a13.42,13.42,0,0,1-5.54,2.67,13.67,13.67,0,0,1-4.82.19,13.9,13.9,0,0,1-5.81-2.22A16.22,16.22,0,0,1,50,30.89C49.68,30.55,49.58,30.47,49.58,30.47Z"/><path d="M29.25,54.67a1.56,1.56,0,0,0,.19.41,1.74,1.74,0,0,0,1,.78,1.79,1.79,0,0,0,1,0l1-.31L35,54.75H35l.62-.09c.19,0,.37-.11.56-.16l1.17-.36,2.59-.79,6-1.84,3.37-1,.87-.27a2.67,2.67,0,0,0,.94-.45A2.39,2.39,0,0,0,52,47.85a3.55,3.55,0,0,0-.21-1l-.28-.93c-.11-.32-.17-.59-.31-1a2.48,2.48,0,0,0-.69-.92,2.44,2.44,0,0,0-2.23-.46L46.76,44l0,0,1.1-.33a5.41,5.41,0,0,0,.79-.28,2.45,2.45,0,0,0,.74-.56A2.48,2.48,0,0,0,50,41.16a7.57,7.57,0,0,0-.41-1.63A9.06,9.06,0,0,0,49.07,38a2.5,2.5,0,0,0-2.44-1.19,2.87,2.87,0,0,0-.46.1l-.38.12-1.06.32.06.17,1.09-.33.39-.12a2.82,2.82,0,0,0,.45-.19,2.51,2.51,0,0,0,.75-.63A2.54,2.54,0,0,0,48,34.34a2.9,2.9,0,0,0-.1-.48l-.12-.38-.23-.75L47.35,32a2.85,2.85,0,0,0-.39-.85,2.55,2.55,0,0,0-1.57-1,3.21,3.21,0,0,0-1.75.21l-.94.29.09.28,16-4.92a2.69,2.69,0,0,0,1.66-1.29,2.58,2.58,0,0,0,.32-1.13,3,3,0,0,0-.19-1.15l-.3-1-.16-.5a2.72,2.72,0,0,0-.22-.56A2.61,2.61,0,0,0,59,19.25a6.77,6.77,0,0,0-.67-.33c-.25-.06-.48-.09-.73-.12h.05a6.87,6.87,0,0,0-2.06.47l-1.88.59-4,1.25-8.58,2.71L22.78,29.65,22,33.88l-3.22,1L25.43,56l4-1.28-.27-.13.05.14,0-.14.26.13-4,1.19L19.33,35.21l3.08-.92.88-4.17,18.11-5.43,8.6-2.6,4-1.21,1.89-.57a8.34,8.34,0,0,1,1.61-.41h0L58,20l.35.18a1.47,1.47,0,0,1,.5.62l.09.18.08.26.15.51.3,1a1.53,1.53,0,0,1-1,2.18l-17,5.3L42,31.94l2.12-.67a2.61,2.61,0,0,1,.67-.16,1.5,1.5,0,0,1,1.45.86,7.17,7.17,0,0,1,.23.68l.24.75.24.74a1.56,1.56,0,0,1,.07.57,1.53,1.53,0,0,1-.46,1,2.39,2.39,0,0,1-1.11.52l-1.88.59.53,1.69,2.11-.67a2.26,2.26,0,0,1,.68-.15,1.56,1.56,0,0,1,.62.1,1.55,1.55,0,0,1,.87.84c.15.42.32,1,.47,1.46l.23.73a1.57,1.57,0,0,1,.06.58,1.6,1.6,0,0,1-1,1.32c-.16.07-.44.15-.66.22l-1.77.56.48,1.55,1.64-.52.6-.19a1.75,1.75,0,0,1,.5-.1,1.65,1.65,0,0,1,1.56.94c.24.63.47,1.43.7,2.11A1.7,1.7,0,0,1,50.94,49a1.67,1.67,0,0,1-.68.5c-.28.1-.62.21-.93.31l-1.81.59-3.29,1.08-5.36,1.77-2.12.71a10,10,0,0,1-1.79.52h0L31.9,55.53a2.87,2.87,0,0,1-1.07.27,1.71,1.71,0,0,1-.81-.23,1.76,1.76,0,0,1-.66-.68Z"/><path d="M60.17,27.52A5,5,0,0,1,59,27.36a.57.57,0,0,0-.42,0l-.35.11-.77.23-2.19.66c-.22.08-.51.16-.7.25l.67.46c.23.15.48.31.74.45s.4.21.63.32a9,9,0,0,0,2.67.74,9.26,9.26,0,0,0,8.47-3.77c.17-.23.32-.47.47-.73l.38-.77a6.92,6.92,0,0,0,.58-1.62,9.22,9.22,0,0,0-.78-6.57,9.29,9.29,0,0,0-9-4.89,9.17,9.17,0,0,0-4.43,1.61,9.35,9.35,0,0,0-2.1,2A8.93,8.93,0,0,0,52,17.16a22.63,22.63,0,0,0-1,2.37c-.05.08,0,0,.08,0l.17,0,.33-.09.68-.2,1.14-.36L55,18.37l.45-.14a.74.74,0,0,0,.17-.06l.12-.15.15-.19a6.09,6.09,0,0,1,.52-.54,6,6,0,0,1,1.23-.88,5.77,5.77,0,0,1,5.79.29,5.86,5.86,0,0,1,.87,9.13,6,6,0,0,1-2.87,1.56,6.15,6.15,0,0,1-.9.12l-.32,0h.32a6.11,6.11,0,0,0,5.92-6,6.35,6.35,0,0,0-2.7-5.28,6.43,6.43,0,0,0-6.46-.5,6.73,6.73,0,0,0-1.43,1,6.9,6.9,0,0,0-.61.6c-.12.13-.11.16-.17.16l-.34.1L53.16,18l-.33.09-.09,0c-.05,0-.12,0-.14,0a4.35,4.35,0,0,1,.26-.49,8,8,0,0,1,.77-1.15,8.42,8.42,0,0,1,1.9-1.74,8.33,8.33,0,0,1,3.91-1.38,8.28,8.28,0,0,1,8.64,5.9,8.09,8.09,0,0,1,0,4.62,4.13,4.13,0,0,1-.36,1,9.26,9.26,0,0,1-.45.93,8.5,8.5,0,0,1-9.6,3.84A9,9,0,0,1,55.87,29c-.77-.29.06-.37.36-.53L57.49,28l1-.37a.56.56,0,0,1,.41-.07l.33,0a3.94,3.94,0,0,0,.79,0Z"/><path class="cls-1" d="M80.44.32H30.68A3.48,3.48,0,0,0,27.2,3.8V25.42l4.16-1.29V4.48H79.76V65.7H31.36V58.79c-.14,0-.29,0-.43,0a4.69,4.69,0,0,1-2.56-.76v0H27.2V71.55A3.49,3.49,0,0,0,30.68,75H80.44a3.48,3.48,0,0,0,3.48-3.48V3.8A3.48,3.48,0,0,0,80.44.32ZM60.12,71.89a1.44,1.44,0,0,1-1.44,1.44H52.44A1.43,1.43,0,0,1,51,71.89V69.06a1.43,1.43,0,0,1,1.43-1.44h6.24a1.44,1.44,0,0,1,1.44,1.44Z"/><path d="M59.91,71.89a1.12,1.12,0,0,1-.07.37,1.2,1.2,0,0,1-.67.69,1.44,1.44,0,0,1-.69.08l-.94,0-2.12-.07-2.28-.07a4.28,4.28,0,0,1-1-.07.94.94,0,0,1-.53-.46,1.41,1.41,0,0,1-.09-.76l0-1,0-1.56a.9.9,0,0,1,.46-.78.86.86,0,0,1,.27-.1l.16,0h.25l1,0L58.25,68a1.86,1.86,0,0,1,.91.08,1.11,1.11,0,0,1,.55.54,1.89,1.89,0,0,1,.12.8l0,.82.06,1.65L60,70.25l.06-.82a2.22,2.22,0,0,0,0-.93,1.51,1.51,0,0,0-.67-.81,2.29,2.29,0,0,0-1.11-.24l-4.51-.27-1,0h-.25a2.09,2.09,0,0,0-.32,0,1.91,1.91,0,0,0-.61.18,2,2,0,0,0-1.09,1.74c0,.78,0,1.52,0,2.24v.52a2.18,2.18,0,0,0,.09.66,2,2,0,0,0,1.92,1.38l.84,0,1.51-.05c1.88-.08,3.15-.15,4.1-.29a1.43,1.43,0,0,0,.92-.68,1.14,1.14,0,0,0,.15-.59C60,71.94,59.9,71.89,59.91,71.89Z"/><path d="M80.44.11,57.9.06,33.47,0H31.74a10.63,10.63,0,0,0-1.81.07A3.82,3.82,0,0,0,27.1,2.52a5,5,0,0,0-.23,1.9V6.25q0,1.84,0,3.71l0,16,4.92-1.52c0-6.37,0-12.9,0-19.51L79.25,5l-.06,59c0,.31,0,.62,0,1.14l-47.31,0V58.25H31.8l-.3,0-.61,0a4.18,4.18,0,0,1-1.72-.39l-.26-.13-.13-.07-.21-.18H26.7l0,12.8c0,.54,0,1,0,1.61a4,4,0,0,0,3.47,3.53c.63.06,1.08,0,1.63,0h4.74l25.4,0,12.53,0,6.18,0a3.87,3.87,0,0,0,3.52-3.1,8.5,8.5,0,0,0,.07-1.57l0-22.9c0-14.39-.06-26.76-.08-35.54V4a3.85,3.85,0,0,0-.48-2A3.69,3.69,0,0,0,81.43.24a3.38,3.38,0,0,0-.74-.12h0a3.35,3.35,0,0,1,.73.13A3.67,3.67,0,0,1,83.63,2a3.78,3.78,0,0,1,.47,2V6.37l0,5.86L83.9,47.68c0,7.19-.07,14.88-.1,22.88a12.89,12.89,0,0,1,0,1.48,3.34,3.34,0,0,1-2.93,2.82c-2,0-4.08,0-6.14,0l-12.54-.05-25.45-.1c-2.1,0-4.26,0-6.3,0a3.12,3.12,0,0,1-2.79-2.74c0-.44,0-1,0-1.52l0-11.94h.18c.19,0,.45,0,.42,0h0l.21.13.31.16a5.13,5.13,0,0,0,2,.49c.08,0,.12,0,.15,0v1.47l0,5.43,49.42.11c0-.9,0-1.59,0-2.27,0-22.29,0-42.23,0-60.06L30.9,4,31,23.83,27.6,24.88l0-11.85,0-5.66V4.67c0-.44,0-.9,0-1.28a3.15,3.15,0,0,1,.36-1.12A3.18,3.18,0,0,1,29.63.8,3.38,3.38,0,0,1,30.75.61H32l4.68,0L45.09.52,68.23.33C78.7.2,80.44.11,80.44.11Z"/></svg>