<svg id="Layer_1" data-name="Layer 1" xmlns="http://www.w3.org/2000/svg" viewBox="0 0 125.75 85.53"><defs><style>.cls-1{fill:#231f20;}</style></defs><title>contactless_washing </title><path class="cls-1" d="M101.09,74.65a1.56,1.56,0,0,0-1.17-.51,1.56,1.56,0,0,1,1.17.56,1.5,1.5,0,0,1,.33.67,3.34,3.34,0,0,1,0,.76c0,.52,0,1.13,0,1.81h0a.23.23,0,0,1-.23.23c-13.74-.25-59.12-1.06-76-1.06a.45.45,0,0,1-.34-.16s-.08-.14-.08-.11,0-.11,0-.19v-.18c0-.42,0-.8,0-1.2,70-.05,75.21-1.13,75.21-1.13L71,73.94a.51.51,0,0,0,.21-.37v0a20.51,20.51,0,0,1,1.6-6.86c-.1.36-.21.71-.28,1A20.53,20.53,0,0,0,72,72c0,.5,0,.88,0,1.14s0,.38,0,.38,0-.13,0-.38,0-.65,0-1.15a20.54,20.54,0,0,1,.57-4.3,18.47,18.47,0,0,1,.66-2.05,16.21,16.21,0,0,1,1.6-2.59,14.18,14.18,0,0,1,8.23-5.23.42.42,0,1,0-.19-.81,13.32,13.32,0,0,0-7.54,4.53c-.19.24-.33.48-.5.72s-.29.33-.43.5a19.78,19.78,0,0,0-3.91,10.59l-15.87-.16a20.2,20.2,0,0,0-3.37-10.15,13.9,13.9,0,0,0-1.2-1.51A12.58,12.58,0,0,0,47.47,59a14.63,14.63,0,0,0-5.26-2.26h0a.69.69,0,0,0-.3,1.34h0A14.21,14.21,0,0,1,47,60.34a11.2,11.2,0,0,1,3,3.54,17.45,17.45,0,0,1,2,9L26.4,72.73c.43-6.29-1.8-14.08,4.14-16a6.42,6.42,0,0,1,1.91-.38h6.46l8.24,0,28.58-.1,11.84-.07c1.83,0,3.67,0,5.3,0a6.62,6.62,0,0,1,6.06,5.58A15.48,15.48,0,0,1,99,63.8q0,1.07,0,2.11c0,2.57.06,5,.08,7.28-23.92.31-26.75.67-26.75.67L99.5,74a.44.44,0,0,0,.44-.44h0c0-1.93,0-3.94,0-6q0-1.55,0-3.16A16.49,16.49,0,0,0,99.83,61a7.69,7.69,0,0,0-4.35-5.41A8,8,0,0,0,91.89,55h-.3a.51.51,0,0,0,0-.18l-1-5.41.79,2.34-.56-3.28.67-.14a.11.11,0,0,0,.09-.11v0a1,1,0,0,1,.45-.81c.16-.12.66-.07,1-.09l2.42-.06c1.18,0,2.29-.08,3.19-.15l.31,2.53.09.68v.1a5.7,5.7,0,0,1-.64.33c-.66.3-1.3.55-1.86.76a6.5,6.5,0,0,1-.74.24l-.75.12L93,52.1c-.53,0-.88.2-1.14-.12v0c-.27-.23-.38-.25-.38-.25l.19.36,0-.13c.15.47.41.43.57.51a4,4,0,0,0,.58.12,14.07,14.07,0,0,0,1.44.11c.54,0,1.12,0,1.75,0a10.66,10.66,0,0,0,2-.43,11.6,11.6,0,0,0,1.94-.72,1.84,1.84,0,0,0,.61-.46.89.89,0,0,0,.19-.46,1,1,0,0,0,0-.18v-.09l0-.23-.07-.91-.27-2.94,0-.26a.82.82,0,0,0-.9-.73h0c-1,.12-2.41.32-4,.56L93,46.27l-.6.09a1.62,1.62,0,0,0-.83.33A1.68,1.68,0,0,0,91,47.8l-.34.13,0,0a.44.44,0,0,0-.2.19L90,45.72a11.92,11.92,0,0,0-.87-2.82,17.51,17.51,0,0,0-6.59-7.5,17.26,17.26,0,0,0-6.29-2.51,11.94,11.94,0,0,0-2.5-.22,12,12,0,0,1,2.49.28A17.79,17.79,0,0,1,88.7,43.11a24.28,24.28,0,0,1,1.22,5.65l.4,2.6-1-3.42-1-3.52A14.43,14.43,0,0,0,86.82,41a15.69,15.69,0,0,0-12.24-7.47l-12.93-.15-4.61,0h-.47c3.7-.08,6.65-.13,8.93-.22,7.22-.24,8.26-.44,8.26-.44l-17.49-.14-4,0c-.68,0-1.4,0-2.11,0a14.58,14.58,0,0,0-2.22.28,17,17,0,0,0-8.12,4.32A16.18,16.18,0,0,0,35,45.46l-.52,2.91v0a.49.49,0,0,0-.16-.4L34,47.71a.93.93,0,0,0-.21-.27,1.64,1.64,0,0,0-.27-.18,3.83,3.83,0,0,0-.45-.2c-.29-.1-.55-.18-.81-.25-.51-.14-1-.23-1.34-.31L30,46.35l-.35,0,.34.1.87.3c.36.14.79.3,1.27.51.23.1.48.22.72.35a2.31,2.31,0,0,1,.58.42v.12l.22.27-.59,2.69a.47.47,0,0,0-.42.31l0,.15a1.23,1.23,0,0,1-.3.48.33.33,0,0,1-.14.1c-1.1-.29-2.07-.53-2.75-.66-1.35-.26-2.53-.47-3.61-.65L26,48.88c0-.35,0-.72.05-1.1,0-.15,0-.3,0-.45a20.14,20.14,0,0,1,2.3-.59,4.31,4.31,0,0,0,1.35-.44s-.33,0-.82-.06a20.67,20.67,0,0,0-2.09,0c-.22,0-.44,0-.69.07l-.39.08a1,1,0,0,0-.55.31A.7.7,0,0,0,25,47v.09l0,.18-.06.36-.12.73-.46,3a.68.68,0,0,0,.51.76h.06c1.71.4,3.27.74,4.25.93l2.82.48H32a1.58,1.58,0,0,0,1.38-.69,2.71,2.71,0,0,0,.32-.57h0l-.34,1.89-.14.47h.05v.08h-1a7.93,7.93,0,0,0-5.76,3,8.29,8.29,0,0,0-1.74,5.68c0,3.52,0,6.68,0,9.39v.78a.86.86,0,0,0,0,.09h-.89a.81.81,0,0,0-.82.81h0c0,.93,0,1.58,0,2.43a2.11,2.11,0,0,0,2.08,1.89h5.13v0a.52.52,0,0,0,0,.19l1.42,4.73L30.95,79c3.64.84,8.33,1.87,10.56,2.18l.91.13a6.92,6.92,0,0,1-.54,1.63c-.3.68-.83,1.2-1,1.18-8.09-.84-8.9-.2-8.9-.2l8.81,1.57h.09a2.3,2.3,0,0,0,1.71-.91,5.93,5.93,0,0,0,.83-1.31,6.93,6.93,0,0,0,.72-2.67.77.77,0,0,0-.64-.79h0l-1.7-.26c-1.53-.22-4.27-.53-7-.82,13.12-.05,31.89-.18,46.71-.3a.5.5,0,0,0-.18.33.52.52,0,0,0,0,.19l1.42,4.73L81.91,79c3.64.84,8.33,1.87,10.56,2.18l.92.13a6.93,6.93,0,0,1-.54,1.63c-.3.68-.83,1.2-1,1.18-8.09-.84-8.9-.2-8.9-.2l8.8,1.57h.09a2.3,2.3,0,0,0,1.71-.91,6,6,0,0,0,.83-1.31,6.93,6.93,0,0,0,.72-2.67.77.77,0,0,0-.64-.79h0l-1.7-.26c-2.08-.3-6.39-.76-10-1.13l18.45-.15a.34.34,0,0,0,.34-.34q0-1.05,0-1.84A1.91,1.91,0,0,0,101.09,74.65ZM83,57.38a.08.08,0,0,1,.09.05.07.07,0,0,1-.05.09h0a14.92,14.92,0,0,0-6.47,3.11A13.45,13.45,0,0,1,83,57.38Zm16.8-6.77ZM25.62,47.11h0Zm9.16,7.63,0-.14,2.37-7.77.3-1c.11-.35.19-.7.3-1a8.68,8.68,0,0,1,.81-1.65,13.41,13.41,0,0,1,2.35-2.79,22.05,22.05,0,0,1,10.82-5.29A13.94,13.94,0,0,1,53.17,35a20,20,0,0,0-3.26,2.32,23.51,23.51,0,0,0-5.48,7.19,31.88,31.88,0,0,0-2.55,7c-.45,1.87-.61,3-.61,3s.25-1.16.82-3a32.43,32.43,0,0,1,3-6.68,23.31,23.31,0,0,1,5.63-6.56,20.14,20.14,0,0,1,3.75-2.33A36.74,36.74,0,0,0,49.5,46.37a26.83,26.83,0,0,0-1,7.85,55.59,55.59,0,0,0-6.13.55ZM61.66,35l12.91-.06a14.54,14.54,0,0,1,11.35,6.71,13.35,13.35,0,0,1,1.51,3.13l1,3.47,2.06,6.73H88.39l-28.91-.12-10.17,0s.05-.08.06-.13v0a29.8,29.8,0,0,1,2.55-10.8,40.88,40.88,0,0,1,4.72-8.07c.17-.23.38-.5.62-.8Zm-12.22-1.4L52,33.47l-.49.06a23.23,23.23,0,0,0-7.88,2.94A19.52,19.52,0,0,0,38,41.31a17,17,0,0,1,1.12-1.65A16,16,0,0,1,49.44,33.55Zm4,37.3a20.2,20.2,0,0,1,.36,2.67v.07a.55.55,0,0,0,.11.24H53.4a.76.76,0,0,0,.06-.24h0A22.36,22.36,0,0,0,53.43,70.86Z"/><path class="cls-1" d="M88.4,59.61l-.94.22c-.34.1-.69.3-1.08.46a12.91,12.91,0,0,0-1.12.77,6.5,6.5,0,0,0-1.75,2.58,6.26,6.26,0,0,0-.39,1.63A7.92,7.92,0,0,0,83.2,67a6.76,6.76,0,0,0,6.54,5.55,7.18,7.18,0,0,0,5.82-3.14c.24-.44.47-.86.66-1.3s.28-.94.37-1.37.05-.74.08-1.13a9.92,9.92,0,0,0-.13-1.21,6.31,6.31,0,0,0-1.72-3.3,5.68,5.68,0,0,0-2.13-1.41,4.32,4.32,0,0,0-2.48-.3,1.57,1.57,0,0,0-.51.13h0l-.6,0A4.85,4.85,0,0,0,88.4,59.61Zm0,.15a2,2,0,0,1,.38-.08l-.47.11Zm.36,11.1-.13,0a2.77,2.77,0,0,0,.51.06l.55,0a6.7,6.7,0,0,1-1.94-.56c-.27-.13-.54-.34-.83-.53a10.93,10.93,0,0,1-.8-.76,5.12,5.12,0,0,1-1-2.15,4.65,4.65,0,0,1,1.36-4.43,4.2,4.2,0,0,1,1.72-1A4.66,4.66,0,0,1,89,61.3l.75-.07a4.6,4.6,0,0,1,3.58,1.85c.15.27.31.53.44.78l.26.74.13.91q0,.33,0,.68a5.05,5.05,0,0,1-2.19,3.61,7,7,0,0,1-1.78.9,1.13,1.13,0,0,0-.38.22l.52,0a2.7,2.7,0,0,0,.47,0,6.87,6.87,0,0,1-1,.11Zm2.35-11.06-.42-.1a1.9,1.9,0,0,1,.34.07Zm-.51-.11h0Zm-.52-.07-.38,0-.37,0,.35,0Z"/><path class="cls-1" d="M68.84,64.48a1.33,1.33,0,0,0,0-.63,1.29,1.29,0,0,0-.42-.64,1.24,1.24,0,0,0-.34-.21,1.84,1.84,0,0,0-.35-.09l-.41,0c-.44,0-.82,0-1.14-.05a.82.82,0,0,0-.76.5,1.09,1.09,0,0,0-.1-.11A1.27,1.27,0,0,0,65,63a1.84,1.84,0,0,0-.35-.09l-.41,0c-.44,0-.82,0-1.14-.05a.82.82,0,0,0-.76.5,1,1,0,0,0-.1-.12,1.29,1.29,0,0,0-.34-.21,1.8,1.8,0,0,0-.35-.09l-.41,0c-.44,0-.83,0-1.14-.05a.82.82,0,0,0-.76.5,1.22,1.22,0,0,0-.11-.12,1.29,1.29,0,0,0-.34-.21,1.85,1.85,0,0,0-.34-.09l-.41,0c-.44,0-.83,0-1.14-.05a.82.82,0,0,0-.82.82h0v0c0,2.52.08,4.39.21,5.79.06.7.13,1.28.21,1.76l0,.18a1,1,0,0,0,.07.26.88.88,0,0,0,.27.37.82.82,0,0,0,.67.17h0a4.18,4.18,0,0,0,.75-.52v0a1,1,0,0,0,.22-.26l-.18,0L59,67.73l.17-1c0,1.07.09,2,.16,2.75s.13,1.28.21,1.76l0,.17a1.08,1.08,0,0,0,.06.25.92.92,0,0,0,.27.38.82.82,0,0,0,.67.18h0a4.25,4.25,0,0,0,.75-.52v0a.93.93,0,0,0,.22-.25l-.18,0,.69-3.72.17-1c0,1.07.09,2,.16,2.75s.13,1.28.21,1.76a2.39,2.39,0,0,0,.09.43A.91.91,0,0,0,63,72a.81.81,0,0,0,.67.18h0a4.19,4.19,0,0,0,.75-.52v0a.93.93,0,0,0,.22-.25l-.18,0,.69-3.71.16-1c0,1.06.09,2,.16,2.72s.13,1.28.21,1.76l0,.18a1.12,1.12,0,0,0,.07.26.9.9,0,0,0,.27.37.81.81,0,0,0,.67.18h0a4.2,4.2,0,0,0,.75-.52v0a1,1,0,0,0,.22-.26l-.18,0,.69-3.72Zm-10.67-.15h0S58.17,64.26,58.17,64.33Zm-.68,7.3a.21.21,0,0,1-.17-.22c0-.33,0-.68.07-1,0-.81.1-1.67.14-2.46.07-1.27.13-2.52.15-3.46h.49c0,.92,0,2.09,0,3.25,0,1.62.07,3.2.08,3.76Zm3.78-7.29h0S61.27,64.26,61.27,64.33Zm-.68,7.29a.21.21,0,0,1-.17-.22c0-.33,0-.68.07-1,0-.81.1-1.67.14-2.46.07-1.27.13-2.52.15-3.46h.49c0,.92,0,2.09,0,3.25,0,1.62.07,3.2.08,3.76Zm3.78-7.29h0S64.36,64.26,64.37,64.33Zm-.69,7.29a.21.21,0,0,1-.16-.22l.06-1c0-.81.1-1.67.14-2.46.07-1.27.13-2.52.15-3.45h.49c0,.92,0,2.09,0,3.25,0,1.62.07,3.19.08,3.76Zm3.78-7.29h0S67.46,64.26,67.46,64.33Zm-.68,7.29a.21.21,0,0,1-.17-.22c0-.33,0-.68.07-1,0-.81.1-1.67.14-2.46.07-1.27.13-2.52.15-3.46h.49c0,.92,0,2.09,0,3.25,0,1.62.07,3.2.08,3.76Z"/><path class="cls-1" d="M41.24,64.06,41,63.12c-.1-.34-.3-.68-.46-1.08a12.4,12.4,0,0,0-.77-1.12,6.52,6.52,0,0,0-2.58-1.75,6.3,6.3,0,0,0-1.63-.39,7.82,7.82,0,0,0-1.78.07,6.88,6.88,0,0,0-3.15,1.48,8.72,8.72,0,0,0-1.14,1.22,8.55,8.55,0,0,0-.74,1.37,7.45,7.45,0,0,0-.39,1.36l-.11,1a7.12,7.12,0,0,0,3.13,5.91c.44.24.86.47,1.3.66s.94.28,1.37.37l1.13.08a10,10,0,0,0,1.21-.13,6.31,6.31,0,0,0,3.3-1.72,5.67,5.67,0,0,0,1.42-2.12,4.33,4.33,0,0,0,.3-2.48,1.56,1.56,0,0,0-.13-.51h0s0-.23,0-.6A4.86,4.86,0,0,0,41.24,64.06Zm0,1.94a5.23,5.23,0,0,1-.12.73l-.3.85c-.13.31-.35.62-.54,1,0,.07-.11.14-.16.2a6,6,0,0,0,.85-2,6.52,6.52,0,0,0,.1-1.55,5.68,5.68,0,0,0-3.65-4.86A5.13,5.13,0,0,0,35.89,60l-.55,0a6.7,6.7,0,0,1,1.94.56,9.79,9.79,0,0,1,.83.53,10.5,10.5,0,0,1,.8.76,5.13,5.13,0,0,1,1,2.15,4.65,4.65,0,0,1-1.36,4.43,6.55,6.55,0,0,1-.85.64,6.65,6.65,0,0,1-.87.37,4.83,4.83,0,0,1-.78.18l-.84.07a4.67,4.67,0,0,1-3.49-1.86L31.32,67l-.26-.73-.13-.91c0-.22,0-.45,0-.68a5.05,5.05,0,0,1,2.18-3.6,7,7,0,0,1,1.78-.9,1.12,1.12,0,0,0,.38-.22l-.52,0a5.07,5.07,0,0,0-1.48.29,7.54,7.54,0,0,0-.81.38A5.91,5.91,0,0,1,34.06,60a7.47,7.47,0,0,1,1.43-.19A5.5,5.5,0,0,1,37,60a6,6,0,0,1,2.41,1.31c.28.34.59.63.81,1s.41.65.54,1l.31.88a4.86,4.86,0,0,1,.12.7l.08.6Z"/><path class="cls-1" d="M17.29,20c0-1,0-2,0-2.77q0-.62,0-1.15A2.08,2.08,0,0,0,16.95,15a2,2,0,0,0-1.22-.89A1.77,1.77,0,0,0,15.2,14a1.78,1.78,0,0,1,.52.08A2,2,0,0,1,17.19,16q0,.52,0,1.14c0,.81,0,1.73-.05,2.76-.07,4.15-.17,9.91-.29,16.36-.2,13.35-.44,29.41-.61,41.18l-13.67-.1A.9.9,0,0,1,1.83,77c-.18-.27-.19-.37-.18-1q0-1.57,0-3.09,0-3,0-5.93c0-3.83,0-7.44,0-10.88,0-6.69-.08-12.67-.11-18.11C1.4,27.63,1.27,20.1,1.14,14.64,13.66,14.34,15.2,14,15.2,14L.82,13.91a.42.42,0,0,0-.43.42h0C.33,23.66.23,36.48.14,48.55.1,54.69.07,60.63,0,65.86,0,68.51,0,71,0,73.21c0,1.12,0,2.18,0,3.18a2.58,2.58,0,0,0,.76,1.89A2.56,2.56,0,0,0,2.55,79l14.38,0a.77.77,0,0,0,.78-.77h0c-.08-12.32-.19-28.59-.28-41.82C17.37,29.85,17.33,24.09,17.29,20Z"/><path class="cls-1" d="M13.78,82.85a6.33,6.33,0,0,0-1-.66,11.81,11.81,0,0,0-1.89-.78l-.64-.18.65-1.49a4.71,4.71,0,0,0-1.81-.46l-.9-.17.21.27a1,1,0,0,0-.46.3,21.55,21.55,0,0,0,2.23,1.53c-.26-.06-.49-.11-.68-.14a3,3,0,0,0-.58,0,2.69,2.69,0,0,1,.56.13,8.59,8.59,0,0,1,1.3.56,11.9,11.9,0,0,1,1.66,1,5.86,5.86,0,0,1,.8.72,1.81,1.81,0,0,1,.23.32c-2-.08-4-.13-5.09-.06-1.48.09-2.76.19-3.88.29,0-.12,0-.22,0-.35s0-.17.19-.37a5.85,5.85,0,0,1,1.26-.83c.83-.43,1.46-.69,1.9-.9s.71-.33.87-.42A.56.56,0,0,0,8.87,81a4.76,4.76,0,0,0-.67,0,12.12,12.12,0,0,0-1.68.28,8.83,8.83,0,0,0-2.27.83,2,2,0,0,0-1.09,1.35l-.07,1.33a.65.65,0,0,0,.61.68h.11c1.85,0,3.61-.07,4.64-.13,1.21-.07,3.41-.29,5.57-.52h.09a.57.57,0,0,0,.5-.62A2,2,0,0,0,13.78,82.85Z"/><path class="cls-1" d="M121.83,82.85a6.31,6.31,0,0,0-1-.66,11.84,11.84,0,0,0-1.89-.78l-.63-.18.54-1.24.11-.26h0a4.7,4.7,0,0,0-1.81-.46l-.9-.17.21.27a1,1,0,0,0-.46.3,21.31,21.31,0,0,0,2.23,1.53c-.26-.06-.5-.11-.69-.14a3,3,0,0,0-.58,0,2.7,2.7,0,0,1,.56.13,8.53,8.53,0,0,1,1.3.56,11.83,11.83,0,0,1,1.67,1,5.87,5.87,0,0,1,.8.72,1.84,1.84,0,0,1,.23.32c-2-.08-4-.13-5.08-.06-1.48.09-2.76.19-3.88.29,0-.12,0-.22,0-.35s0-.17.19-.37a5.91,5.91,0,0,1,1.26-.83c.83-.43,1.47-.69,1.9-.9a5,5,0,0,0,1.06-.55,9.8,9.8,0,0,0-2.34.3,8.86,8.86,0,0,0-2.27.83,2,2,0,0,0-1.09,1.35l-.07,1.33a.65.65,0,0,0,.61.68h.11c1.85,0,3.61-.07,4.64-.13,1.21-.07,3.41-.29,5.57-.52h.09a.57.57,0,0,0,.5-.62A2,2,0,0,0,121.83,82.85Z"/><path class="cls-1" d="M9.85,12.79a20.7,20.7,0,0,0-2.28-1.71l-.74,1.47a4.92,4.92,0,0,0,1.82.57l.91.22-.2-.28A1,1,0,0,0,9.85,12.79Z"/><path class="cls-1" d="M4.75,7.14a.43.43,0,0,0,.08.24l2.43,3.3L5.45,7.06l.28-2.75c1.71.16,3.3.27,4.27.27h.65c0-.07,0,0,0,0s0,0,0,0a1.21,1.21,0,0,1,.38.37,4,4,0,0,1,.59,1.31,8,8,0,0,1,.11,1.39L11.83,9v.08h0a1.3,1.3,0,0,1-.28.2,6,6,0,0,1-.83.36c-.54.2-1,.33-1.4.46a5.45,5.45,0,0,0-1.79.71s.6,0,1.51,0c.46,0,1-.07,1.61-.16a4.39,4.39,0,0,0,2-.72A1.15,1.15,0,0,0,13,9.52,1.28,1.28,0,0,0,13.07,9l0-.51c0-.35,0-.69,0-1s0-.65,0-1a4.79,4.79,0,0,0-.22-1.17,4.19,4.19,0,0,0-1.11-1.87,1.85,1.85,0,0,0-1.2-.49H10c-1.05,0-2.83.06-4.72.14H5.22a.65.65,0,0,0-.62.68h0c0,1,.1,2.22.16,3.33Zm7.33,2Z"/><path class="cls-1" d="M125.74,76q0-1.5,0-3.06c-.06-8.2-.12-17.39-.18-26,0-2.14,0-4.25-.05-6.29s-.17-4-.25-5.89l-.42-10.09-.4-9.43s.06,3.69.14,9.43c0,2.91.1,6.35.16,10.09,0,1.89.06,3.87.1,5.89s-.07,4.14-.1,6.26c-.13,8.79-.27,18-.39,26q0,1.56,0,3.06c0,.59,0,.82-.18,1.07a1,1,0,0,1-.69.45l-5.45,0-8.28,0c0-32.51-.23-51.59-.48-62.68,13.28.44,14.91.2,14.91.2l-15.24-1a.43.43,0,0,0-.46.4v0c-.12,18.92-.31,50.54-.39,63.48v.37a.82.82,0,0,0,.82.82h0L118,79c1.79,0,3.52,0,5.63-.05a2.48,2.48,0,0,0,1.75-1.12A3.07,3.07,0,0,0,125.74,76Z"/><path class="cls-1" d="M107,1.9a2.05,2.05,0,0,0-.85-1.1A2,2,0,0,0,105,.48a2,2,0,0,1,1.1.34,2,2,0,0,1,.81,1.11A7.37,7.37,0,0,1,107,3.64c0,2.47-.09,6-.15,10.29a.11.11,0,0,1-.11.11c-22.91-.33-68-.93-86.29-.93h-.53c0-4,0-7.87,0-11.5C98.88,1.49,105,.48,105,.48L19.08,0a.79.79,0,0,0-.79.78h0c0,5.17,0,9.59,0,13.14a.82.82,0,0,0,.82.82h1.36l86.29-.42a.4.4,0,0,0,.4-.4h0c0-4.33,0-7.86-.07-10.31A7.2,7.2,0,0,0,107,1.9Z"/><path class="cls-1" d="M17.77,6.42l-.06,0-.55-.27c-.57-.26-1.67-.64-2.74-1l-.12,0a.57.57,0,0,0-.72.36.58.58,0,0,0,0,.24l.31,2.85s.27-1,.54-2.24a15,15,0,0,0,2.08,1.33l.09,0c0,.22,0,.43,0,.63-2.18,0-2.48.55-2.48.55l3.16.84A.59.59,0,0,0,18,9.26l0-.09V9c.06-.69.12-1.37.15-1.9A.74.74,0,0,0,17.77,6.42Z"/><path class="cls-1" d="M110.42,7.7c.36-.53.64-1,.64-1l-.38.16a1,1,0,0,0-.07-.59,31.12,31.12,0,0,0-2.77,2.15h0L109,9.6A7.41,7.41,0,0,0,110.42,7.7Z"/><path class="cls-1" d="M117.91,12.79a20.71,20.71,0,0,0-2.28-1.71l-.74,1.47a4.9,4.9,0,0,0,1.83.57l.91.22-.2-.28A1,1,0,0,0,117.91,12.79Z"/><path class="cls-1" d="M115.09,4.45h0Z"/><path class="cls-1" d="M112.84,7.77a5.2,5.2,0,0,0,1.27,1.77,9.7,9.7,0,0,0,1.27,1.07,4.62,4.62,0,0,0,1,.56,1.66,1.66,0,0,0,.51.1,1.52,1.52,0,0,1-.48-.16,4.32,4.32,0,0,1-.91-.7,7.56,7.56,0,0,1-1.9-2.81,4.05,4.05,0,0,1,.49-1.8,3.21,3.21,0,0,1,1-1.34h0c-.08.07.2-.2.07,0l.46,0,.86.06c.54,0,1,0,1.41,0l1.86,0c0,1.83.12,3.31.22,4.47.15.22-.32.64-.66.88a9.87,9.87,0,0,1-1,.6,8.14,8.14,0,0,0-1.37.76,4.77,4.77,0,0,0,1-.09,6.31,6.31,0,0,0,2.41-.92,1.67,1.67,0,0,0,.64-.83,2.51,2.51,0,0,0,.06-.52l0-.39c0-.54,0-1.08.07-1.61l.13-3.15a.73.73,0,0,0-.7-.76h-.06l-2.64-.06-1.41,0-.86,0-.46,0a1.39,1.39,0,0,0-.41.08,1.45,1.45,0,0,0-.46.25,4.24,4.24,0,0,0-1.21,2.1,8.23,8.23,0,0,0-.25,1.1c0,.19,0,.38-.06.58a2.56,2.56,0,0,0,0,.38A1.69,1.69,0,0,0,112.84,7.77Z"/></svg>