<svg id="Layer_1" data-name="Layer 1" xmlns="http://www.w3.org/2000/svg" viewBox="0 0 86.79 83.23"><defs><style>.cls-1{fill:#231f20;}</style></defs><title>gift_cards</title><path class="cls-1" d="M38,30.8h0Z"/><path class="cls-1" d="M3.13,37.91a.61.61,0,0,0-.62.61h0C2.67,61,2.82,82.6,2.82,82.6s.34-21.78.67-43.7c16.44.23,33.37.43,42.95.44,0,17.51.06,31.53.14,42.59-39.81.31-43.45,1-43.45,1l44.13.31a.61.61,0,0,0,.62-.61h0c.08-17.16.16-34.74.2-44.08l-.82-.82Z"/><path class="cls-1" d="M70.72,37.71l-10,0h0a.76.76,0,0,0-.76.77h0c.17,16.51.46,44.08.46,44.08s.72-26,1-43.36l8.49.09c0,22.44.24,35.48.49,43-8.62.3-9.68.62-9.68.62l10,.12a.42.42,0,0,0,.43-.42h0c.15-12.65.39-34.76.39-44.08Z"/><path class="cls-1" d="M60.4,30.26l-.23,5.38a.51.51,0,0,0,.49.53h0c3.36.13,7.46.28,9.44.28h.55a.81.81,0,0,0,.81-.81.82.82,0,0,0-.24-.58c-1-.94-2.39-2.44-4-3.91a24.74,24.74,0,0,0-5-3.5l-.06,0-.06,0a.64.64,0,0,0-.66.34,2.42,2.42,0,0,0-.16.31c-.08.19-.14.36-.19.52l-.27.8a1.71,1.71,0,0,1-.18.39h0a1.4,1.4,0,0,0,.24-.34l.38-.76c.07-.15.16-.31.25-.47S61.75,28,62,28h0a26.38,26.38,0,0,1,4.4,4c.87,1,1.69,2,2.42,2.85-3.28,0-5.77.1-7.66.22C60.9,30.72,60.4,30.26,60.4,30.26Z"/><path class="cls-1" d="M60.79,30s0,0-.1,0h0S60.81,29.95,60.79,30Z"/><path class="cls-1" d="M60.67,30h0S60.66,30,60.67,30Z"/><path class="cls-1" d="M80.68,22.55a20.07,20.07,0,0,0,4.76-5.29,8.74,8.74,0,0,0,1.35-4.38,6,6,0,0,0-2.07-4.31,9.39,9.39,0,0,0-.59-4.05l0-.08h0l-.47-.76c-.2-.29-.37-.51-.57-.75a9.52,9.52,0,0,0-1.42-1.27l-.07,0A13,13,0,0,0,79.72.7,17.1,17.1,0,0,0,77.78.16h-.08a16,16,0,0,0-6.29.41h-.05a25,25,0,0,0-10.71,6.7,29.91,29.91,0,0,0-5.31,7.31A18.22,18.22,0,0,0,55.1,12a13,13,0,0,0-.91-3.06A5.76,5.76,0,0,0,52.06,6.3a.68.68,0,0,0-.94.22h0v0L47.93,12a.72.72,0,0,0,.26,1l.13.06a4.45,4.45,0,0,1,2.15,1.89c.06.1.11.21.17.31a18.67,18.67,0,0,0-4.08-3.33,21.83,21.83,0,0,0-7.5-2.8h-.12a20.73,20.73,0,0,0-2.22.08h-.1A10.68,10.68,0,0,0,33,10.26l-.09,0a8.29,8.29,0,0,0-3.27,3.1l0,.08,0,.05-.3.74c-.11.37-.13.55-.19.81l-.27,1.44-.5,2.83a.76.76,0,0,0,.07.46,4.21,4.21,0,0,0-.36,1.63,6.85,6.85,0,0,0,.47,2.75L28.35,24a.46.46,0,0,0-.32-.18L.87,21.26a.71.71,0,0,0-.77.64V22h0C.06,27.14,0,31.89,0,35.64a.8.8,0,0,0,.8.81H5.3c8.76,0,28.15-.19,42-.33h0a.48.48,0,0,0,.47-.48c0-2.21,0-4.29-.07-6.16a.42.42,0,0,0-.42-.41.44.44,0,0,0-.17,0,20.8,20.8,0,0,1-6.6,1.55c-1.45.13-2.36.14-2.55.14h0c.21,0,1.11,0,2.56,0a20.93,20.93,0,0,0,6.73-1.34.07.07,0,0,1,.09,0v0c0,1.86-.09,3.91-.14,6.08C33.35,35.23,14,34.82,5.3,34.82H1.62c0-4.33,0-8.32,0-12,12.17.94,20.53,1.49,26.25,1.81a18.92,18.92,0,0,0,3,2.83A10.55,10.55,0,0,0,33,28.93a16.31,16.31,0,0,0,3,1.49,4.71,4.71,0,0,0,1.89.38h0a5.65,5.65,0,0,1-.79-.2,11.3,11.3,0,0,1-1.8-.79,16.49,16.49,0,0,0,6.17.37,17.93,17.93,0,0,0,6.39-2.08l.29.6c0,16.68.08,35.28.12,53.9a.63.63,0,0,0,.63.63h0l10.1,0a.61.61,0,0,0,.61-.61h0c-.06-20.45-.11-40.46-.16-57.45,1.82,1.05,3.62,2.09,5.32,3.12A51.42,51.42,0,0,1,70,32.09a40.54,40.54,0,0,1,7.71,8.52.37.37,0,0,0,.52.11h0l6.82-4.77a.35.35,0,0,0,.09-.49v0c-1.35-1.73-2.38-3.46-3.44-4.86a20.08,20.08,0,0,0-3-3.35,15.27,15.27,0,0,0-2.27-1.65l-.3-.18L77,25A23.66,23.66,0,0,0,80.68,22.55Zm-20.24-.18-.7-.86,0,0-2.78-2.79a34.83,34.83,0,0,1,9.93-8,30.8,30.8,0,0,1,6.4-2.61,17.1,17.1,0,0,1,7-.57l1,.22a5,5,0,0,1,.9.31,7.85,7.85,0,0,1,1.6.89,11.17,11.17,0,0,1-2.62,5,19,19,0,0,1-5.43,4.28,36.38,36.38,0,0,1-7.21,2.63A50.09,50.09,0,0,1,60.44,22.37Zm-28.7-4.74a10.39,10.39,0,0,1,1.35-.83,12.38,12.38,0,0,1,1.52-.59,13.21,13.21,0,0,1,3.92-.46,22.39,22.39,0,0,1,10.9,3.8l-2.07,2.83a2.17,2.17,0,0,0-.42.32c-.12.12-.21.22-.31.34v0a3.82,3.82,0,0,1,.12-.46l.09-.29,0-.06a.8.8,0,0,0-.51-1,.84.84,0,0,0-.33,0c-2.13.22-7.3,1.09-7.3,1.09l1.18.13h-.07c-1,.2-1.09.48-1.09.48l.77.11,1.88.3c.74.12,1.55.24,2.33.33a10.88,10.88,0,0,0,2.24.12s.06,0,.1,0l-.09.09-.59.09a20.25,20.25,0,0,1-2.62.18,22.34,22.34,0,0,1-6.27-1,16,16,0,0,1-3.81-2.11,6.71,6.71,0,0,1-1.79-2.44c.13-.16.25-.31.32-.39Zm44.41,7.73-.51-.28.5.28-.52.27.55-.25.31.18a15.32,15.32,0,0,1,2.26,1.68,20.19,20.19,0,0,1,3,3.37c1,1.41,2,3.14,3.39,4.89a.21.21,0,0,1,0,.3h0l-6.87,4.7a.16.16,0,0,1-.22,0h0a40.71,40.71,0,0,0-7.71-8.67A51.91,51.91,0,0,0,65,27.93c-1.77-1.09-3.62-2.18-5.51-3.29,0-.09,0-.18,0-.26l-.22.13L59,24.37h0c0,.09,0,.18,0,.26l-.22.13.22.13c-.1,17-.22,36.95-.34,57.36l-9.34-.05c.09-18.52.19-37,.27-53.67a.69.69,0,0,0-.07-.29l-.7-1.47,0,0a.65.65,0,0,0-.86-.31l-.06,0a16.35,16.35,0,0,1-6.55,2.25,14.29,14.29,0,0,1-6.52-.61,8.4,8.4,0,0,1-4.57-3.82,5.42,5.42,0,0,1-.63-2.68,2.33,2.33,0,0,1,.25-1.16s.09-.12.13-.17c.13.19.25.38.38.56a13,13,0,0,0,1.21,1.3l.09.07c.35.25.68.51,1.05.75a11.79,11.79,0,0,0,1.08.64c.73.38,1.4.65,2.06,1l.13,0c1.06.26,2.13.57,3.18.75.35.06.54.08.82.12l.79.09c.62.07,1,.06,1.56.1h.77c.35,0,.52,0,.78,0l.75-.05.76-.08.69-.1.17,0a1.42,1.42,0,0,0,.41-.14,2,2,0,0,0,.46-.35c.4-.4.66-.77.9-1l.09-.08s0,0-.07-.15a.79.79,0,0,1-.11-.29l.58.14,2.68-3.66a.82.82,0,0,0-.15-1.12h0a23.7,23.7,0,0,0-12.4-4.59h-.1a14.82,14.82,0,0,0-4.39.53h-.08a14.22,14.22,0,0,0-1.7.67,12,12,0,0,0-1.62,1l0,0h0l-.26.22.24-1.25.07-.34,0-.16v0s0,0,0,0-.11-.05-.25-.11l0,0c.19-.18.41-.34.56-.53L31,14.3a7.42,7.42,0,0,1,1.2-1.54,7,7,0,0,1,1.55-1.1,9.09,9.09,0,0,1,1.5-.61,9.41,9.41,0,0,1,1.57-.33c.69-.05,1.37-.09,2-.08,5.05.92,9.86,3.7,12.35,7.79h0a.78.78,0,0,0,1.07.26l.1-.07.58-.48a.78.78,0,0,0,.24-.84,13.67,13.67,0,0,0-1.51-3.26,6.41,6.41,0,0,0-2.06-2l2.29-4a5.78,5.78,0,0,1,1,1.56,11.67,11.67,0,0,1,.8,2.75,19.94,19.94,0,0,1,.09,5.73.73.73,0,0,0,1.42.33A27.77,27.77,0,0,1,61.92,7.91a23.53,23.53,0,0,1,9.8-6.11,14.72,14.72,0,0,1,5.81-.41,14.9,14.9,0,0,1,1.79.49,12.26,12.26,0,0,1,1.62.79l0-.1a4.93,4.93,0,0,0,.65.58,6.65,6.65,0,0,1,.56.55c.18.21.37.45.5.64L83,5a9.08,9.08,0,0,1,.53,2.46,9.12,9.12,0,0,0-1-.49,6.07,6.07,0,0,0-1.08-.36l-1-.22h0C74.85,5.7,70,7.81,65.94,10a35.93,35.93,0,0,0-10,8.4.45.45,0,0,0,0,.6l3.11,3.07.85,1h0a.41.41,0,0,0,.35.14,50.68,50.68,0,0,0,8.91-1.8,32.34,32.34,0,0,0,7.4-3A19.18,19.18,0,0,0,81.83,14a11.45,11.45,0,0,0,2.35-4.85A.52.52,0,0,0,84.47,9a6.2,6.2,0,0,1,1.6,2.35,5.33,5.33,0,0,1,.13,3A12.25,12.25,0,0,1,83.87,19a23.39,23.39,0,0,1-4.93,4.66,24.83,24.83,0,0,1-2.66,1.66Z"/></svg>