<svg id="Layer_1" data-name="Layer 1" xmlns="http://www.w3.org/2000/svg" viewBox="0 0 68 68"><defs><style>.cls-1{fill:#187704;}</style></defs><title>globe</title><path class="cls-1" d="M66.7,28.09a7.85,7.85,0,0,0-.48-2.26,34.53,34.53,0,1,0,.48,2.26Zm-19-9h0a.5.5,0,0,0-.12.16,5,5,0,0,0-.5.42c-.45.43.11.67.63.62.19.89.39,1.79.5,2.69-.58-1.17-1.16-2.34-1.7-3.53a.44.44,0,0,0-.28-.23C46.17,18.8,46.14,18.66,47.72,19.08ZM58.66,46.31c0-.14-.43-.11-.79,0a30.57,30.57,0,0,0,0-3.36s-.07-.07-.15-.08q.09-.36.19-.71A17.27,17.27,0,0,0,59,46.33q.14.83.23,1.66C59,47.44,58.86,46.88,58.66,46.31Zm-11.52-14a2.91,2.91,0,0,1-.65-.73c.32-.09.59-.25.54-.45a22.3,22.3,0,0,1-.41-2.51,1,1,0,0,0,.36,0c.22.42.42.85.64,1.29C47.69,30.79,47.87,32.81,47.14,32.26Zm4.65-7.49a.35.35,0,0,0,0-.08c0-.45-.07-.9-.11-1.34.46,1,.86,2.11,1.43,3.1a.55.55,0,0,0,.56.17q0,.87,0,1.74c-.51-1.14-1-2.3-1.54-3.43C52.1,24.81,52,24.77,51.79,24.76Zm10.36,6.66c0-.07-.14-.1-.3-.09-.05-.36-.1-.71-.16-1.07,0-.12-.37-.11-.72,0-.07-.53-.14-1.07-.21-1.6,0-.18-.76-.06-1.16.14v0l0,0a.51.51,0,0,0,.24-.25,10.21,10.21,0,0,0,.38-2.82,12.56,12.56,0,0,0,1.63,3.42c.18.23.9,0,1.21-.2q0,.23,0,.46c-.31.09-.58.23-.56.37C62.72,32,63.89,34.57,64,37A54,54,0,0,1,62.15,31.42Zm-1.35-8a.94.94,0,0,0,.55-.28c.22,1.1.53,2.19.65,3.29C61.6,25.4,61.27,24.36,60.8,23.39ZM60.08,37a1.74,1.74,0,0,0-1,.21s0-.08,0-.12S59,37,58.9,37c.08-.06.13-.11.11-.16l-.1-.23c.42,0,1-.26,1-.47a7.11,7.11,0,0,0-.19-1.71c.17-.07.3-.16.3-.27s0-.23,0-.34q.23,1.23.52,2.45c-.3.09-.57.22-.56.36S60.07,36.92,60.08,37Zm-2.27-3.68,0,.06c0,.23,0,.46.05.69,0-.13-.08-.27-.12-.4S57.8,33.47,57.81,33.35Zm.69-4.5h0Zm-.12,11.69c.07.28.15.55.22.83a2.2,2.2,0,0,0-.56.19C58.16,41.22,58.27,40.88,58.39,40.55ZM55.1,25.39a.75.75,0,0,0,.77.1c.25.56.49,1.12.69,1.69,0,.61,0,1.21,0,1.81,0-.12-.06-.24-.09-.37-.09-.35-1.25-.07-1.38.29,0-1.19,0-2.37,0-3.57ZM59.9,40c.21-.09.38-.2.39-.32s0-.33,0-.48c.12,1,.25,2.07.46,3.09.13.62.29,1.21.43,1.8q-.25-.49-.47-1C60.5,42.05,60.19,41,59.9,40Zm3-17.07-.08-.38.23.34Zm-5.45.37a.71.71,0,0,0,.25.08c-.06.44-.11.88-.13,1.33a11.22,11.22,0,0,1-1.34-1.83.57.57,0,0,0,.24-.29A7.41,7.41,0,0,0,57.42,23.3Zm-5.49-2.65a7.24,7.24,0,0,0,1.56,1.42c-.24.09-.42.24-.42.43s0,.29,0,.43a10.79,10.79,0,0,0-1.44-2.5Zm-1.77,0c0,.25,0,.5,0,.74q-.43-.9-.88-1.78a3,3,0,0,1,1.9.53C50.75,20.08,50.19,20.29,50.16,20.64Zm-2.33,6.51-.14-.23c-.07-.88-.2-1.74-.35-2.6l.58,1.23C47.87,26.08,47.84,26.62,47.83,27.16Zm1.41,2.35c0-1.11,0-2.2,0-3.29a.86.86,0,0,0,.22-.17c.4,1.23.7,2.49,1,3.76A12.47,12.47,0,0,0,50,30.95C49.75,30.47,49.5,30,49.24,29.51Zm2.68-.8c0-.27,0-.54,0-.81a25,25,0,0,0,1.37,2.79c0,.14-.08.28-.11.42-.29-.75-.58-1.51-.91-2.25C52.22,28.75,52.08,28.71,51.92,28.71Zm3.15.49.1,1L55,29.84C55,29.63,55.06,29.41,55.07,29.2Zm5.67,19.27c.36-.08.72-.26.72-.42,0-.39,0-.78,0-1.17l0,0c.17.2.94,0,1.26-.19a16.39,16.39,0,0,1-1.92,3.16C60.78,49.41,60.76,48.94,60.73,48.47Zm1.92-4.84c.4,0,1-.22,1-.41v-.06h0c0-.1,0-.19.05-.29s0,.07,0,.1a10.65,10.65,0,0,1-.84,3.38A8,8,0,0,0,62.65,43.63Zm1.07-4v-.08h0ZM65.4,31l.23-.18q.08.82.12,1.65l-.25.07A10.66,10.66,0,0,0,65.4,31Zm0-2.2a2.31,2.31,0,0,1-.21.82c-.21-1-.49-1.91-.75-2.87a15.75,15.75,0,0,0-.21-1.92c.23.45.44.89.62,1.33C65,27,65.21,27.93,65.36,28.82Zm-3.27-7.08L62,21.52l.17.22ZM59.81,19.5l.31.82a.68.68,0,0,0-.29.35l0,0a.78.78,0,0,0-.68-.08A2.39,2.39,0,0,0,59.81,19.5Zm-1.28,1.59v.35l-.26-.23a.91.91,0,0,0-1.15.21c-.19-.18-.37-.37-.55-.56a3.25,3.25,0,0,0,2.06,0A.4.4,0,0,0,58.53,21.09Zm-4.06-.56c.08.23.14.46.21.7a4.6,4.6,0,0,0-1.75-1.52.67.67,0,0,0-.27-.06,7.51,7.51,0,0,0-1.34-.74,3.74,3.74,0,0,1,2.23.58c.34.21.69.41,1.06.6A.41.41,0,0,0,54.47,20.53Zm-9.14.68c.08.57.18,1.13.29,1.69a10.38,10.38,0,0,0-.79-1.4Zm-1.88,2.15,0,.16-.09,0Zm.8,6.41c0,.16.08.34.13.53a16,16,0,0,1-1-2.12A5.24,5.24,0,0,1,43,26.57,9.21,9.21,0,0,0,44.25,29.77Zm4.69,2.17c.14.25.29.5.46.74s1.23-.09,1.36-.36c.26-.56.45-1.14.68-1.71.32.81.63,1.62,1,2.42a4.3,4.3,0,0,0-2.64.19,3.2,3.2,0,0,1-2.29.08A1.71,1.71,0,0,0,48.94,31.94Zm5.43,1.92c0-.57,0-1.13.07-1.68a19.91,19.91,0,0,0,1.07,2.4c.07.12.27.16.51.15l.14.4a2,2,0,0,0-.46.15,10.26,10.26,0,0,0-1.36-1.38S54.36,33.88,54.36,33.87Zm2.78,18.28h0c.2.26,1.35-.06,1.41-.38a12.85,12.85,0,0,0,.17-1.39,10.83,10.83,0,0,0,.63,1.07l.06,0c-.24.25-.48.5-.73.73-1.26.49-2,.48-2.24,0A1.76,1.76,0,0,0,57.14,52.14Zm8.47-14.8c-.08.78-.2,1.54-.34,2.3A10.05,10.05,0,0,1,65.61,37.34ZM52,10.91a23.75,23.75,0,0,1,2,3.84A37.78,37.78,0,0,1,52,10.91ZM49.52,9.14l.15.38a1,1,0,0,0-.32,0A4,4,0,0,0,49.52,9.14ZM46.1,16.4c.05-.16.09-.33.14-.5a.64.64,0,0,0,.57.14,1.76,1.76,0,0,1-.82.5A.41.41,0,0,0,46.1,16.4Zm5.68-2.63c.19.36.39.71.59,1.06-.35-.25-.71-.49-1.06-.71A.67.67,0,0,0,51.78,13.77Zm3.69,1c-.07-.24-.16-.48-.25-.72l.22.24c.25.25,1.54,0,1.36-.45-.09-.21-.19-.41-.28-.61l.67.64a.8.8,0,0,0-.52.4C56.58,14.56,55.88,14.59,55.47,14.81ZM34,3.68l-.1-.16.26-.2a.45.45,0,0,0-.09.12C34.09,3.53,34.07,3.61,34,3.68ZM32.74,7.19c0-.06-.07-.12-.1-.18A1.7,1.7,0,0,0,33,6.92Zm.7-.66c0-.27,0-.54,0-.81l.07.16c.18.37.86.25,1.21,0l.06.19h0a3.26,3.26,0,0,0-1.38.56S33.44,6.55,33.44,6.53Zm3.07-1.29.11.14c.25.28.86.12,1.17-.12l0,0a2,2,0,0,1-1.37.63C36.43,5.69,36.47,5.47,36.51,5.24ZM16.66,29.17a10.54,10.54,0,0,1,1.13.7c-.33,0-.72,0-1.12,0A2.78,2.78,0,0,0,16.66,29.17Zm6.46,3.28a.58.58,0,0,0,.38.11c0,.19,0,.38,0,.56l-.5-.49A.52.52,0,0,0,23.12,32.46Zm-.24,17.23c-.21-.85-.4-1.71-.55-2.57a.45.45,0,0,0-.3-.3h0l-.08,0a.68.68,0,0,0,.06-.16c.08-.34.14-.69.21-1a9.1,9.1,0,0,0,.28.91c.35,1,.69,2,1,3.09A1.11,1.11,0,0,0,22.89,49.69Zm7.27-5.43a6.11,6.11,0,0,0-.59-1.07c-.13-.19-.61-.13-1,0l0,0c.25-.09.45-.24.47-.39a7.32,7.32,0,0,0,0-1.15,14.13,14.13,0,0,1,1.06,2.2Q30.15,44,30.16,44.26ZM26.63,50a1.63,1.63,0,0,0-.6.08c.1-1.6.3-2.88-.48-4.39a7.26,7.26,0,0,0-.57-.92.73.73,0,0,0,.18-.17c0,.1.08.21.13.31s.2.12.38.11c.31.8.63,1.6.93,2.41C26.6,48.27,26.62,49.12,26.63,50Zm-2.91-4.32c-.11-.32-1.14-1.48-.31-.63a6.18,6.18,0,0,1,.85,1.25,4.23,4.23,0,0,1,.46,2.46C24.41,47.69,24.07,46.65,23.72,45.66Zm-1.87-5.73c-.05-1.87-.15-3.73-.31-5.59a.37.37,0,0,0-.29-.33.46.46,0,0,0,.12-.24c0-.11,0-.22,0-.33.53,1.33.81,2.79,1.24,4.14a.76.76,0,0,0-.38.45C22.09,38.66,22,39.3,21.84,39.93Zm5.7.51v0Zm-2.9-2.26c.12,1,.38,2,.58,2.94h0a27.1,27.1,0,0,0-1.1-3.72c-.06-.16-.11-.33-.16-.49Q24.27,37.56,24.64,38.18ZM23,41.42a17,17,0,0,0,.53,2.25,1.2,1.2,0,0,0-.43,0,1.51,1.51,0,0,0-.55.27Q22.76,42.7,23,41.42ZM26.26,36a3.29,3.29,0,0,1-.85-.29.78.78,0,0,0,.64-.47c.2.21.39.43.58.65A1.2,1.2,0,0,0,26.26,36Zm-5.79,7a.71.71,0,0,0,.75.34c-.08.44-.16.89-.24,1.33l-.14-.56a.44.44,0,0,0-.34-.33c-.24-.74-.42-1.5-.63-2.25C20.08,42,20.26,42.48,20.47,43Zm-1.25-3c0-.13,0-.25,0-.38l.15.44Zm2,14.21a.5.5,0,0,0-.32-.21c-.18-.83-.33-1.66-.45-2.5a.86.86,0,0,0,.57,0,.5.5,0,0,0,0,.12c.14,1,.27,1.92.4,2.88C21.35,54.36,21.29,54.25,21.23,54.14Zm6.35-8.22c-.26-.67-.52-1.34-.77-2a6.76,6.76,0,0,0,.06-1.07l.86,2.06A7.19,7.19,0,0,0,27.58,45.92ZM20,34.13a.45.45,0,0,0,.27.19.54.54,0,0,0-.15.4c.11,1.26.19,2.51.24,3.76-.4-1.22-.76-2.46-1.12-3.7a.63.63,0,0,0,.43-.48c0-.24,0-.48,0-.72C19.78,33.76,19.89,33.94,20,34.13Zm-2-3.77a.37.37,0,0,0,0,.14c0,.14,0,.28,0,.42-.06-.09-.12-.17-.18-.26a.59.59,0,0,0-.38-.19h.12A1.53,1.53,0,0,0,18,30.36Zm-1.53.81c.12.57.26,1.13.38,1.7-.09-.17-.18-.34-.28-.51-.26-.44-1.36-.15-1.36.36,0,0,0,.09,0,.14a1.11,1.11,0,0,0-.39.07,4.07,4.07,0,0,1,1.87-2.27A.49.49,0,0,0,16.48,31.17Zm-2,3a30.27,30.27,0,0,0,.63,4.19C14.27,37.4,14.12,35.71,14.47,34.12Zm2.15,4.47a5.82,5.82,0,0,0,.3-1.49c.09.27.18.54.28.8a.51.51,0,0,0,.46.33c0,.06,0,.13,0,.19-.41,0-.82.32-.74.73a37.88,37.88,0,0,0,1.24,5,.53.53,0,0,0,.42.34.72.72,0,0,0-.34.39,10.44,10.44,0,0,1-1.34-3.26c-.16-1.4.11-1.89-.85-2.58A.72.72,0,0,0,16.62,38.6Zm7.11,20.9,0-.16q.26.67.54,1.32l-.18.54a4.12,4.12,0,0,1-1.12-1C23.36,60.22,23.83,59.94,23.73,59.5Zm.44-5.22c.12.2.25.39.39.57a.51.51,0,0,0,.16.13c-.08.17-.14.32-.19.47ZM25.86,54c0-.24-.06-.47-.09-.71.39,0,1.16-.23,1.19-.49,0-.07,0-.14,0-.21a1.78,1.78,0,0,0,.78-.28c-.15.41-.54.86-1.79,1.64ZM28,50.39a2.21,2.21,0,0,0,.61-.17l-.24.3a2.94,2.94,0,0,0-.42.77C28,51,28,50.69,28,50.39Zm.93-.5v0h0Zm2.08-1c0-.18,0-.35,0-.53a1.15,1.15,0,0,0,1.1-.5v0a1.72,1.72,0,0,0,.71-.24A2.57,2.57,0,0,1,31,48.86Zm.7-10a3.23,3.23,0,0,1,1.05,1.32c.13,1,.35,1.91.51,2.87,0,.27.73.17,1.13-.06a3.08,3.08,0,0,0-1,1A10.2,10.2,0,0,0,33,47,21.56,21.56,0,0,0,31.74,38.86Zm2.67,1.52a1.26,1.26,0,0,1,.26,1.28A6.42,6.42,0,0,0,34.41,40.38Zm.31,2.3c0-.09,0-.18,0-.27a2.56,2.56,0,0,0,.56-.1,6.43,6.43,0,0,1-.64.54A.28.28,0,0,0,34.71,42.67Zm-.74-4a1.16,1.16,0,0,0-.61,0,3.41,3.41,0,0,0-.71-.52c1.31.28,3.12,1,3.37,2.28A4,4,0,0,0,34,38.64Zm-3.89-.7-.17-.41c.22.07.44.14.67.19A1.25,1.25,0,0,0,30.08,37.94Zm-10.25-7c-.16-.26-.31-.52-.49-.77a.38.38,0,0,0-.09-.08h.54a.55.55,0,0,0,0,.23C19.78,30.49,19.81,30.7,19.83,30.91ZM7.93,22.14q0,.42.09.83H8a.75.75,0,0,0-.34.3A10.85,10.85,0,0,0,7.93,22.14Zm9.48-7.05-.14-.29a.39.39,0,0,0-.3-.19,17.14,17.14,0,0,1,.08-2l.4-.25A16.67,16.67,0,0,1,17.41,15.09Zm-2.69-2c0-.09,0-.18.05-.27a1,1,0,0,0,.87-.29,16.32,16.32,0,0,0-.07,3,18.73,18.73,0,0,0-.51-2,.46.46,0,0,0-.41-.3A.43.43,0,0,0,14.73,13.07Zm-1.34.39a.48.48,0,0,0,.32.15l0,0c-.12.28-.23.56-.34.83A4,4,0,0,1,13.39,13.46Zm-.7,2.73q-.07-.34-.13-.67a2.2,2.2,0,0,0,.43-.11Zm4.17,2.38a5.26,5.26,0,0,1,0,1.38c-.09-.38-.17-.76-.23-1.15Zm-3.39-7.79c0,.43,0,.86,0,1.28-.38,0-.94.14-1,.37A5,5,0,0,0,12,13.7c-.42-.13-1.14.13-1.13.53a13.56,13.56,0,0,1,0,2.4c-.44-.55-.84-1.15-.72-1.51A9.74,9.74,0,0,1,13.47,10.78ZM9.65,23.41c0,.11.08.23.12.34l-.14-.12Zm1,.75.21.48-.55-.43A1.06,1.06,0,0,0,10.69,24.16ZM14.08,17a.44.44,0,0,0-.24-.18l.34-.88c.12.61.24,1.21.34,1.82C14.38,17.52,14.24,17.26,14.08,17ZM22,10.16c0,.6,0,1.2,0,1.8q-.34-1.16-.71-2.31A1.77,1.77,0,0,0,22,10.16ZM21,8.92l0-.12.07,0A1.27,1.27,0,0,0,21,8.92Zm-1.27,1.32.18,1a1.11,1.11,0,0,0-.77.41c0-.19-.09-.38-.14-.57C19.29,10.8,19.54,10.53,19.78,10.24ZM16.69,8.4c-.28-.57-1.26-.29-1.41.25,0,.08,0,.16-.06.24a1.4,1.4,0,0,0-.85.37,1.38,1.38,0,0,0-.35,0,32,32,0,0,1,3-2.13C16.89,7.59,16.79,8,16.69,8.4ZM8.59,16.31a10.76,10.76,0,0,1,1.88,2,.58.58,0,0,0,.43.19c0,.13,0,.27,0,.4-.1-.13-.21-.26-.32-.39a1,1,0,0,0-1.08,0l0-.07a.67.67,0,0,0-.71-.29A7.55,7.55,0,0,0,8,16.31a.43.43,0,0,0-.3-.19c.46-.68,1-1.34,1.47-2a12.43,12.43,0,0,0-.74,1.7A.36.36,0,0,0,8.59,16.31ZM6.71,20.26a14.81,14.81,0,0,1-.24-2,.4.4,0,0,0,0-.1l.26-.46C6.73,18.59,6.75,19.43,6.71,20.26Zm-1.26,1a1.08,1.08,0,0,0-.6,0c.14-.31.27-.62.42-.93C5.33,20.71,5.38,21,5.45,21.31Zm2.17,2.13a.39.39,0,0,0,.15.31l.42.36v0a.4.4,0,0,0,.37.31l.61.49L9,24.85c-.57-.29-1.15.06-1.77-.33A2.16,2.16,0,0,1,6.7,24,1,1,0,0,0,7.62,23.44Zm5.88,2.75a9.28,9.28,0,0,1-1.23-2,12,12,0,0,1,2.08,3.51,2.85,2.85,0,0,0-1-.73l-.17-.06C13.48,26.73,13.73,26.48,13.5,26.19Zm-.7-3.92,0-.17a1,1,0,0,0,.29,0Zm1-.72c0-.62.07-1.24.09-1.85.23.5.46,1,.7,1.51a.46.46,0,0,0,.15.17,6.26,6.26,0,0,0-1,.38A.42.42,0,0,0,13.8,21.56Zm4.52-3.12A4.89,4.89,0,0,0,18,17.19a.82.82,0,0,0,.33-.31,6.22,6.22,0,0,0,.25-.71c.09.57.19,1.14.28,1.71A4.17,4.17,0,0,0,18.32,18.44Zm2.08-1.89v0a.31.31,0,0,0,.25.21l-.29.17C20.38,16.81,20.39,16.68,20.4,16.55Zm1.41-.25c0-.15,0-.29,0-.43a1.28,1.28,0,0,0,1.07-.36.53.53,0,0,0,.51.13,1.92,1.92,0,0,1-1.42.83h-.27A.32.32,0,0,0,21.81,16.3Zm2.7-3.17c.09.41.19.83.3,1.23a2.51,2.51,0,0,0-.47.32C24.41,14.16,24.47,13.65,24.51,13.13Zm2.4-1c.1.4.21.8.35,1.2.06.18.29.24.54.22a2.52,2.52,0,0,1-1.31.6A8.92,8.92,0,0,0,26.91,12.12Zm1.86-.69.13,0a3.69,3.69,0,0,1-.16.69C28.76,11.88,28.77,11.65,28.77,11.43Zm-1.39-2.8c-.23-.46-1.27-.12-1.4.29a12.46,12.46,0,0,0-.4,2.58,7.94,7.94,0,0,0-.84-2c1-.69,2.13-1.53,3-1.08A1,1,0,0,0,27.38,8.63Zm-6-.53a2.15,2.15,0,0,0-.18.27l0,0c.12-.14.24-.29.38-.44ZM18.55,9.94a.8.8,0,0,0-.34,0c.05-.31.1-.62.13-.93l.25-.12a1.32,1.32,0,0,1,.89-.05Zm-.33-3.41-.12,0,.34-.2ZM54.8,58a7.6,7.6,0,0,1-1.28-1.71c-.44-.67-.84-1.37-1.26-2.06-.06-.1-.39,0-.35.09a11.4,11.4,0,0,1-1.76-1.52c-.11-.1-.44,0-.32.15a10.06,10.06,0,0,0,1.94,1.65.3.3,0,0,0,.27-.06c.44.73.87,1.46,1.35,2.17a5.89,5.89,0,0,0,1.19,1.47,31.83,31.83,0,0,1-8,5c.07-.08.06-.21-.11-.2-.63,0-1.23-1-1.53-1.47s-.66-1.08-1-1.61c-.09-.14-.42,0-.32.16.44.7.84,1.42,1.33,2.09.34.46.84,1.13,1.47,1.11l-.82.33A4.33,4.33,0,0,1,44,62.15c-.51-.61-1-1.28-1.49-1.88-.07-.08-.4,0-.33.13.53.6,1,1.26,1.49,1.88a4.49,4.49,0,0,0,1.56,1.44A31.77,31.77,0,0,1,4.39,22.46a5.85,5.85,0,0,0,1.18,2.18c.94.93,1.47.35,2.62.94a2.69,2.69,0,0,0,2,.1l.26.17c.13.51-.2,1.21.73,1.38,1.83.32,2.51,1.78,3.06,3.4a1.31,1.31,0,0,0-.45.88c-.18,2.1-1.31,3.86-1.11,6s3,1.67,2.8,4.49c-.12,1.84,1.85,4.46,2.35,6.27.62,2.27.94,4.63,1.57,6.9s1.68,6.58,4.49,7c.29,0,1.15,0,1.27-.4l0-.1c.39,0,.76-.3.68-.7,0-.17-.07-.34-.11-.51a2.46,2.46,0,0,0,.26-.9c.05-2.14-1.55-4.23,1.48-5.75,1.59-.8,1.77-1.87,2.25-3.46.28-.92,3.22-1.31,4-2.06a2.67,2.67,0,0,0,.72-1.78,4.44,4.44,0,0,1,1.56-3.83c4-3.53-2.06-4.88-4.75-5.57-1.16-.3-3-2.09-3.1-3.21-.1-1.56-2.5-1-3.26-2.32-.1-.18-.49-.13-.84,0a1.12,1.12,0,0,0-1.84-.12c-.38-.5-.7-1-1.13-1.51l0,0A.37.37,0,0,0,21,29.2c-1-.2-2.14.15-2.92-.56a1.67,1.67,0,0,0-1.77-.35,8.3,8.3,0,0,1-1.49-2.57c-.24-.91-.24-1.47-1-2s-.11-.88,1.8-1.28a2.53,2.53,0,0,0,.71.89.93.93,0,0,0,.93,0A4.23,4.23,0,0,0,19.52,21c.15-.61-.87-2.73.22-2.69a1.79,1.79,0,0,0,1.05-.18c.34-.21.39-.89.89-.64a2.26,2.26,0,0,0,1.33.1c1.69-.45,1.3-2.4,3.15-2.53,2.09-.15,6.05-2.65,4.52-5.13-.57-.92-1.8-3-3.15-2.82a3.82,3.82,0,0,0-1.8.65l-.69.52C22.62,10.11,23,7.79,24.13,7c.5-.36.15-.64-.34-.61A5.45,5.45,0,0,0,20.1,8.16a4.81,4.81,0,0,0-1.41.07A1.58,1.58,0,0,1,19.05,7a9.68,9.68,0,0,0,1-1.09c.13-.2,0-.28-.26-.29A31.52,31.52,0,0,1,38.2,2.5c-.46.08-1,.37-.85.55l.19.2a.47.47,0,0,0-.27.32s0,.07,0,.1L37,3.17c-.18-.45-1.19-.16-1.36.17,0,0,0,.1-.06.14,0-.11-.06-.21-.1-.32-.11-.32-.53-.28-.89-.13l.06,0c.25-.14.17-.32-.09-.34a1.79,1.79,0,0,0-1,.27l-.19.12c-.4,0-1,.22-1,.51,0,.12,0,.23-.07.35-1.28,1.23-2,3-.36,4.36.28.23,1.1,0,1.3-.29s.45-.57.67-.86A1.34,1.34,0,0,1,35,6.58c.21.19.69.11,1-.07A6.18,6.18,0,0,0,37.87,6c1.62-.77,2.17-2.05.81-3.42A31.56,31.56,0,0,1,50.83,7.05c-.27.11-.48.27-.43.45s.06.19.09.28c-.2-.24-.84-.13-1.17.09-.42-.08-1,.15-1,.52,0,.82-.68.74-.9,1.34A5.77,5.77,0,0,0,47,11.37c-.34,0-.82.17-.89.53a2.71,2.71,0,0,0,0,1.31,1.28,1.28,0,0,0-.77.34,1.69,1.69,0,0,0-.6.24c-.36.25-.3.67-.75.67A.94.94,0,0,0,43,15a2.5,2.5,0,0,0,1.58,2.85c1.48.43,2.57-.56,3.48-1.6.62-.71,1-2,2.08-1.46a9,9,0,0,1,2.47,2.33,1.14,1.14,0,0,0,1.46.2c.1.12.19.25.3.37a.72.72,0,0,0,.6.09,2,2,0,0,0,1.25,0,.78.78,0,0,0,.6-.49c.19-.71-.88-1.76,0-1.94a1.46,1.46,0,0,0,1.11-.79l.09.09c.2.19.77.07,1.11-.13a31.85,31.85,0,0,1,3.25,5.14,9.54,9.54,0,0,0-1.53-1.37,1.09,1.09,0,0,0-.89,0c-.32-.18-1.24.06-1.29.39-.44,3.38-4.86-1-6.53-1.21-1.35-.19-2.65,1.11-3.88.78A3.88,3.88,0,0,0,46,18.14c-1.14.45-.57,2.31-1.77,2.72l-.18.08c-.34,0-.71.18-.79.42C38.82,24.56,43.58,37,49.76,34a3.72,3.72,0,0,1,3.19.27h0a.34.34,0,0,0,.27.16,2.67,2.67,0,0,1,1.12,1.34c.18.55.13,1.19.76,1.5.8.38,1.67.08,1.17,1.19-.94-.67-1.85-1.4-2.78-2.09-.11-.08-.43.08-.28.19,1,.72,1.92,1.48,2.92,2.18l-.2.36-1.22-1c-.11-.09-.43.07-.27.19l1.33,1.08a6.56,6.56,0,0,0-.39.86,14.13,14.13,0,0,1-1.33-1.12c-.09-.08-.41.06-.33.13a12,12,0,0,0,1.57,1.27,1.63,1.63,0,0,0-.07.66A5.05,5.05,0,0,1,55,43.25a6.29,6.29,0,0,1-.9-1.13c-.05-.09-.4,0-.33.13l.1.14c-.52-.33-1-.69-1.54-1.06-.12-.08-.43.08-.27.19.64.47,1.29.93,2,1.34a.22.22,0,0,0,.17,0,4.94,4.94,0,0,0,.61.67.15.15,0,0,0,.11,0,3.59,3.59,0,0,0-.09.78c0,.2,0,.4,0,.59-.71-.3-1.12-1.23-1.57-1.8,0-.05-.17,0-.26,0l-1.09-.74c-.09-.06-.4.08-.33.13.52.35,1,.73,1.57,1h0c.39.59.8,1.3,1.46,1.51a.43.43,0,0,0,.22,0c.1.88.32,1.68.43,2.54L55,47.3c-.09-.09-.42,0-.33.14s.45.47.66.71a6.71,6.71,0,0,1,0,.85c0,.07,0,.14,0,.21a12,12,0,0,1-1-1h0c.14,0,.42-.18.21-.22a2.75,2.75,0,0,1-1.35-1.08c-.35-.41-.65-.85-1-1.27-.09-.12-.43,0-.32.15.38.49.74,1,1.14,1.46l.24.27v0a18.18,18.18,0,0,0,1.93,2.09c-.09.51-.21,1.1-.26,1.66-.78-.66-1.45-1.47-2.21-2.15-.07-.07-.39.07-.33.12.86.78,1.6,1.7,2.52,2.4,0,.11,0,.22,0,.32l-.11-.18c-.07-.11-.41,0-.33.14a14.88,14.88,0,0,0,1.74,2.44c.09.09.43,0,.33-.14a8.09,8.09,0,0,1-.78-1l.06,0c1.6.56,3.06-.17,4.27-1.25A32,32,0,0,1,54.8,58Z"/><path class="cls-1" d="M33.51,63.37c-.12-.05-.44.12-.28.19A3.8,3.8,0,0,1,34,64c.11.08.43-.07.28-.19A3.82,3.82,0,0,0,33.51,63.37Z"/><path class="cls-1" d="M34.71,63.07c-.06-.09-.38,0-.35.09a2.54,2.54,0,0,0,.77.77c.08.05.38-.09.33-.12A2.43,2.43,0,0,1,34.71,63.07Z"/><path class="cls-1" d="M35.69,62.87c-.1-.08-.42.06-.33.14a8.52,8.52,0,0,1,1,1c.08.09.42,0,.33-.14A8.64,8.64,0,0,0,35.69,62.87Z"/><path class="cls-1" d="M36.79,62.65c-.09-.07-.41.07-.33.13A12.42,12.42,0,0,0,39,64.65c.09,0,.41-.1.28-.15A12.28,12.28,0,0,1,36.79,62.65Z"/><path class="cls-1" d="M39.31,62.94c-.29-.29-.55-.6-.83-.88-.11-.11-.44,0-.32.15.36.36.69.75,1.06,1.1a2.06,2.06,0,0,0,1,.63c.17,0,.36-.21.12-.25A2.28,2.28,0,0,1,39.31,62.94Z"/><path class="cls-1" d="M42.48,63.63a12.09,12.09,0,0,1-2-1.49c-.14-.1-.44.09-.27.21a12.36,12.36,0,0,0,2.07,1.53C42.44,64,42.69,63.72,42.48,63.63Z"/><path class="cls-1" d="M41.52,61.39c.64.84,1.22,2,2.23,2.4.11,0,.43-.11.28-.17-1-.44-1.56-1.54-2.18-2.37C41.77,61.15,41.43,61.27,41.52,61.39Z"/><path class="cls-1" d="M45.39,59.57c-.05-.07-.39,0-.33.13A8.06,8.06,0,0,0,47,61.9c.09.06.39-.09.33-.12A8,8,0,0,1,45.39,59.57Z"/><path class="cls-1" d="M47.17,60.32c-.35-.52-.62-1.08-.95-1.61-.06-.09-.39,0-.35.1.56.93,1.18,2.63,2.36,2.93.09,0,.4-.11.29-.14C47.9,61.44,47.49,60.81,47.17,60.32Z"/><path class="cls-1" d="M47.49,58.4c-.07-.09-.41,0-.33.13a11.19,11.19,0,0,0,2.15,2.56c.1.07.41-.07.33-.13A11.19,11.19,0,0,1,47.49,58.4Z"/><path class="cls-1" d="M47.89,57.23c-.11-.11-.44,0-.32.15A42.22,42.22,0,0,0,51,60.14c.12.09.43-.07.27-.2A41.51,41.51,0,0,1,47.89,57.23Z"/><path class="cls-1" d="M50.86,57.85A9.07,9.07,0,0,1,49.76,56c0-.09-.38,0-.35.09a9.77,9.77,0,0,0,1.2,2,3.37,3.37,0,0,0,1.56,1.32c.08,0,.39-.11.29-.14A3.58,3.58,0,0,1,50.86,57.85Z"/><path class="cls-1" d="M51.46,57.2c-.44-.74-.8-1.52-1.22-2.26-.07-.12-.41,0-.35.09.47.82.87,1.68,1.36,2.49S52.17,59,53,59.26c.11,0,.41-.14.22-.19C52.38,58.85,51.85,57.86,51.46,57.2Z"/><path class="cls-1" d="M53.18,57.46A20,20,0,0,1,51.44,55c-.08-.13-.41,0-.32.15a19.7,19.7,0,0,0,1.74,2.44C53,57.73,53.29,57.59,53.18,57.46Z"/><path class="cls-1" d="M53.3,53.28c-.07-.12-.41,0-.32.15l.16.27c-.61-.5-1.14-1.1-1.75-1.62-.07-.06-.39.07-.33.12a23.8,23.8,0,0,0,2.21,2,.2.2,0,0,0,.14,0,15.22,15.22,0,0,0,1.84,2.69c.1.1.43,0,.32-.15A20.34,20.34,0,0,1,53.3,53.28Z"/><path class="cls-1" d="M54.07,53.59c.66.79,1.31,1.59,2,2.32.06.06.38-.07.33-.12-.72-.73-1.37-1.54-2-2.33C54.35,53.4,54,53.53,54.07,53.59Z"/><path class="cls-1" d="M47.06,57.28A17.43,17.43,0,0,1,45,55.9c-.09-.08-.42.05-.33.14a17.83,17.83,0,0,0,2.12,1.41C46.87,57.51,47.19,57.37,47.06,57.28Z"/><path class="cls-1" d="M46.23,56c.38.32.76.64,1.16.93.1.07.43-.07.33-.14-.4-.29-.78-.61-1.16-.93C46.46,55.76,46.13,55.9,46.23,56Z"/><path class="cls-1" d="M48.48,56c-.54-.3-1.06-.64-1.57-1-.09-.06-.4.08-.33.13.51.34,1,.68,1.57,1C48.24,56.15,48.55,56,48.48,56Z"/><path class="cls-1" d="M49.28,55.71c.11.08.43-.08.27-.19L47.81,54.3c-.11-.08-.43.08-.27.19Z"/><path class="cls-1" d="M48.79,53.77c.47.36.92.74,1.42,1.06.09.06.42-.08.28-.17-.48-.31-.92-.68-1.37-1C49,53.56,48.69,53.7,48.79,53.77Z"/><path class="cls-1" d="M51.92,50.68a19.55,19.55,0,0,0,3.26,2.91c.09.05.39-.09.33-.13a19.52,19.52,0,0,1-3.26-2.91C52.18,50.49,51.86,50.62,51.92,50.68Z"/><path class="cls-1" d="M49.39,52.11c.12.07.44-.1.27-.19a14.44,14.44,0,0,1-1.51-1c-.12-.09-.43.08-.27.19A14.34,14.34,0,0,0,49.39,52.11Z"/><path class="cls-1" d="M49.41,50c-.07-.06-.38.08-.33.12a3.75,3.75,0,0,0,1.42.94c.08,0,.39-.11.29-.13A3.69,3.69,0,0,1,49.41,50Z"/><path class="cls-1" d="M51.64,50.57c.16.06.41-.17.2-.25a7,7,0,0,1-1.65-1.2c-.13-.1-.43.08-.27.21A7.26,7.26,0,0,0,51.64,50.57Z"/><path class="cls-1" d="M50.82,48.54a18.39,18.39,0,0,0,1.65,1.23c.09.06.42-.08.28-.16a17.77,17.77,0,0,1-1.6-1.21C51.06,48.33,50.73,48.47,50.82,48.54Z"/><path class="cls-1" d="M51.29,47.1a13.16,13.16,0,0,0,1.59,1.48c.14.1.44-.09.27-.21a12.74,12.74,0,0,1-1.54-1.43C51.49,46.82,51.16,47,51.29,47.1Z"/><path class="cls-1" d="M54.74,47c.14.09.44-.1.27-.21a10,10,0,0,1-2-2.3c-.11-.13-.44,0-.32.16A10.21,10.21,0,0,0,54.74,47Z"/><path class="cls-1" d="M54.29,41.6c-.08-.11-.42,0-.32.15s.28.34.41.52.42,0,.32-.15S54.41,41.78,54.29,41.6Z"/><path class="cls-1" d="M16.92,56.13c0-.18-.34-.12-.36,0a2.83,2.83,0,0,0,.06,1.37c.06.16.41.06.35-.09A2.69,2.69,0,0,1,16.92,56.13Z"/><path class="cls-1" d="M16.17,54.7s-.33,0-.35.09a4,4,0,0,0,.12,2c0,.08.37,0,.35-.09A4,4,0,0,1,16.17,54.7Z"/><path class="cls-1" d="M14.95,54.18c0-.11-.35,0-.35.09a10.21,10.21,0,0,0,.06,1.86c0,.12.37,0,.35-.09A10.21,10.21,0,0,1,14.95,54.18Z"/><path class="cls-1" d="M13.26,52.88v2.62c0,.1.35,0,.35-.09V52.78C13.61,52.68,13.26,52.75,13.26,52.88Z"/><path class="cls-1" d="M12.09,52.56c0,.65,0,1.3.06,1.95,0,.14.37.06.35-.09-.05-.63-.06-1.26-.06-1.89C12.45,52.35,12.09,52.41,12.09,52.56Z"/><path class="cls-1" d="M10.93,50.46a12.43,12.43,0,0,0,.23,2.82c0,.16.39.07.35-.09a12.09,12.09,0,0,1-.23-2.76C11.29,50.25,10.93,50.31,10.93,50.46Z"/><path class="cls-1" d="M9.83,48.48c0-.08-.35,0-.35.09-.05,1.09,0,2.17.06,3.26,0,.09.36,0,.35-.09C9.83,50.65,9.78,49.57,9.83,48.48Z"/><path class="cls-1" d="M8.9,46.11a7.45,7.45,0,0,0-.06,4c0,.12.39,0,.35-.09a7.36,7.36,0,0,1,.06-4C9.27,45.93,8.92,46,8.9,46.11Z"/><path class="cls-1" d="M6.8,43.78c0,1.83.12,3.66.23,5.49,0,.13.36.06.35-.09-.12-1.81-.22-3.62-.23-5.44C7.16,43.58,6.8,43.65,6.8,43.78Z"/><path class="cls-1" d="M6.11,41.57a21.88,21.88,0,0,0-.23,5c0,.18.36.12.36,0a21.87,21.87,0,0,1,.23-5C6.5,41.37,6.14,41.42,6.11,41.57Z"/><path class="cls-1" d="M5.41,39.08a25,25,0,0,0-.64,4.49s.34,0,.35-.09A24.83,24.83,0,0,1,5.76,39C5.78,39,5.44,39,5.41,39.08Z"/><path class="cls-1" d="M5.54,36.73a6.92,6.92,0,0,0-1.47,4.05c0,.09.35,0,.35-.09a6.84,6.84,0,0,1,1.44-4C5.95,36.61,5.6,36.66,5.54,36.73Z"/><path class="cls-1" d="M4.19,37.79c0-1.28.11-2.73,1.32-3.47.2-.12-.12-.12-.21-.07C4,35,3.85,36.48,3.84,37.88,3.84,38,4.19,37.9,4.19,37.79Z"/><path class="cls-1" d="M4.26,32.61a5.55,5.55,0,0,0-1.12,3.18c0,.07.34,0,.35-.09a5.42,5.42,0,0,1,1.09-3.1C4.67,32.49,4.32,32.54,4.26,32.61Z"/><path class="cls-1" d="M3.5,33.17a3.32,3.32,0,0,1,1.13-1.91c.15-.17-.19-.23-.3-.11a3.54,3.54,0,0,0-1.19,2C3.13,33.38,3.49,33.33,3.5,33.17Z"/><path class="cls-1" d="M3.73,31a3.79,3.79,0,0,1,.8-1.43c.08-.09-.26,0-.32,0a3.9,3.9,0,0,0-.83,1.47C3.35,31.14,3.69,31.1,3.73,31Z"/><path class="cls-1" d="M4.22,28.76l.35-.52c.12-.19-.21-.24-.3-.11l-.35.52C3.8,28.84,4.13,28.9,4.22,28.76Z"/><path class="cls-1" d="M4.35,27.73c.2,0,.27-.25,0-.25S4.11,27.73,4.35,27.73Z"/><path class="cls-1" d="M51.69,44.93c.09,0,.39-.09.33-.12a9.12,9.12,0,0,0-1-.53c-.08,0-.4.1-.29.15A8.72,8.72,0,0,1,51.69,44.93Z"/><path class="cls-1" d="M52.66,44c-.3-.23-.63-.41-.93-.64-.09-.07-.41.07-.33.13.3.23.63.41.93.64C52.42,44.19,52.74,44.05,52.66,44Z"/><path class="cls-1" d="M54.73,41.36a16.21,16.21,0,0,1-1.9-1.5c-.09-.07-.41.06-.33.13a16.55,16.55,0,0,0,1.94,1.53C54.54,41.57,54.86,41.44,54.73,41.36Z"/><path class="cls-1" d="M27.23,17.56c-.12-.1-.43.07-.27.2.33.27.66.55,1,.85.11.11.45,0,.32-.15C27.92,18.14,27.58,17.85,27.23,17.56Z"/><path class="cls-1" d="M28.48,16.66c-.08-.12-.42,0-.32.15a9.27,9.27,0,0,0,.64.87c.09.12.43,0,.32-.15A9.29,9.29,0,0,1,28.48,16.66Z"/><path class="cls-1" d="M29.25,16.44a11.81,11.81,0,0,1,1,1.21c.06.09.38-.06.35-.09a12.31,12.31,0,0,0-1-1.23C29.52,16.26,29.2,16.39,29.25,16.44Z"/><path class="cls-1" d="M30.36,16.1c.28.34.56.68.81,1,.06.09.4,0,.33-.13-.25-.37-.53-.71-.81-1C30.61,15.88,30.28,16,30.36,16.1Z"/><path class="cls-1" d="M31.29,15.76c.3.42.6.84.87,1.28.07.11.41,0,.33-.15-.28-.44-.57-.86-.87-1.28C31.54,15.5,31.2,15.63,31.29,15.76Z"/><path class="cls-1" d="M32.32,14.92c-.08-.07-.4.06-.33.13a10.15,10.15,0,0,1,2.43,3.12c0,.1.39,0,.35-.09A10.28,10.28,0,0,0,32.32,14.92Z"/><path class="cls-1" d="M33.44,14.18A14.76,14.76,0,0,1,35.93,18c0,.1.38,0,.35-.09a14.88,14.88,0,0,0-2.51-3.85C33.71,14,33.37,14.09,33.44,14.18Z"/><path class="cls-1" d="M38.2,17a12.15,12.15,0,0,0-2.63-3.73c-.05-.06-.38.06-.33.12a12.06,12.06,0,0,1,2.61,3.71C37.87,17.15,38.22,17,38.2,17Z"/><path class="cls-1" d="M39.65,15.44c.06.15.41,0,.35-.09A21.74,21.74,0,0,0,37,11c-.09-.12-.43,0-.32.15A21.55,21.55,0,0,1,39.65,15.44Z"/><path class="cls-1" d="M41.8,14.71a24.09,24.09,0,0,0-2.69-4.38c-.06-.08-.4,0-.33.13a23.93,23.93,0,0,1,2.66,4.34C41.5,14.91,41.84,14.79,41.8,14.71Z"/><path class="cls-1" d="M43.2,12.56q-1-2-2.28-3.86c-.07-.11-.41,0-.33.14a43.94,43.94,0,0,1,2.25,3.81C42.91,12.78,43.26,12.67,43.2,12.56Z"/><path class="cls-1" d="M44.77,12.15c-.52-1.25-1.18-2.43-1.82-3.63-.07-.13-.41,0-.32.15.62,1.18,1.27,2.34,1.79,3.57C44.48,12.4,44.83,12.3,44.77,12.15Z"/><path class="cls-1" d="M45.39,10.56c-.42-.71-.88-1.4-1.34-2.09-.07-.11-.41,0-.33.14.46.69.92,1.38,1.34,2.09C45.13,10.81,45.47,10.69,45.39,10.56Z"/><path class="cls-1" d="M46.57,9.59c-.28-.51-.52-1-.76-1.57-.06-.13-.4,0-.35.09.24.53.48,1.06.76,1.57C46.29,9.82,46.63,9.7,46.57,9.59Z"/><path class="cls-1" d="M35.41,47.37c0-.15-.35-.09-.35,0a6.12,6.12,0,0,1-.82,2.79A4.67,4.67,0,0,1,31.73,52c-1,.44-1.84,1-1.82,2.22,0,.16.36.08.35,0,0-1.85,2.12-2,3.33-2.89A5.07,5.07,0,0,0,35.41,47.37Z"/><path class="cls-1" d="M33.46,53.45c1-1,2.42-1.72,2.56-3.28,0-.16-.34-.09-.35,0-.14,1.51-1.55,2.18-2.49,3.17C33,53.53,33.37,53.54,33.46,53.45Z"/><path class="cls-1" d="M13.52,40.9A5,5,0,0,0,12,39.34a3.1,3.1,0,0,1-.78-3.12c0-.14-.33-.08-.35,0a3.72,3.72,0,0,0,.32,2.7c.51.82,1.5,1.13,1.95,2C13.23,41.12,13.58,41,13.52,40.9Z"/><path class="cls-1" d="M11.13,40.5A2.77,2.77,0,0,1,10,38.63c0-.13-.37,0-.35.09a2.89,2.89,0,0,0,1.17,2C11,40.76,11.28,40.61,11.13,40.5Z"/><path class="cls-1" d="M9.67,40.95a3.79,3.79,0,0,1-.77-1.19c-.07-.17-.42-.07-.35.09a4,4,0,0,0,.8,1.25C9.47,41.23,9.8,41.08,9.67,40.95Z"/><path class="cls-1" d="M23,28.92c-.93-.44-1.4-1.26-2.48-1.4-.1,0-.41.15-.22.17,1,.14,1.45.84,2.27,1.3s1.67.49,2.12,1.2c.05.09.4,0,.33-.13C24.59,29.39,23.68,29.24,23,28.92Z"/><path class="cls-1" d="M24.36,27.47a7.26,7.26,0,0,1-2.21-1.33c-.09-.07-.41.06-.33.13a8.89,8.89,0,0,0,1.8,1.2c.61.27,1.49.32,1.85,1,.06.11.4,0,.35-.09A2.34,2.34,0,0,0,24.36,27.47Z"/><path class="cls-1" d="M24.5,25c-.08-.07-.4.06-.33.13.59.52,1,1.19,1.66,1.66.09.06.4-.08.33-.13C25.52,26.2,25.08,25.53,24.5,25Z"/><path class="cls-1" d="M21.72,20.61c0-.18-.34-.13-.36,0-.16,2.07-3,2.14-3,4.27,0,.18.36.13.36,0,0-1.19.87-1.67,1.75-2.27A2.58,2.58,0,0,0,21.72,20.61Z"/><path class="cls-1" d="M20.32,24.49c0,.11.34,0,.35-.05.15-1.6,2.46-1.56,2.53-3.25,0-.07-.35,0-.35.09C22.78,22.92,20.48,22.88,20.32,24.49Z"/><path class="cls-1" d="M46.43,36.14c.19,0,.28-.24,0-.23-1.1.06-2.1-.88-2.76-1.65-.09-.11-.43,0-.32.15A4.08,4.08,0,0,0,46.43,36.14Z"/><path class="cls-1" d="M47.27,36.91c.22-.11,0-.2-.13-.13-1,.47-2.45-.34-3.2-1-.09-.08-.41.06-.33.13C44.52,36.71,46.09,37.47,47.27,36.91Z"/><path class="cls-1" d="M46.8,38.06a5.29,5.29,0,0,1-2.48-.62c-.12-.07-.44.09-.27.19a5.61,5.61,0,0,0,2.63.66C46.84,38.31,47,38.08,46.8,38.06Z"/><path class="cls-1" d="M40.29,24.63a6.23,6.23,0,0,0,.64,3.55c.05.09.38,0,.35-.09a6.23,6.23,0,0,1-.64-3.55C40.64,24.48,40.3,24.52,40.29,24.63Z"/><path class="cls-1" d="M38.54,25.12a4.06,4.06,0,0,0,1,2.87c.11.1.42-.06.27-.2a3.92,3.92,0,0,1-.95-2.71C38.89,24.91,38.54,25,38.54,25.12Z"/><path class="cls-1" d="M38.42,27.87a9,9,0,0,1-.8-1.83c-.06-.17-.41-.07-.35.09A9.33,9.33,0,0,0,38.09,28C38.18,28.17,38.52,28,38.42,27.87Z"/></svg>