<svg id="Layer_1" data-name="Layer 1" xmlns="http://www.w3.org/2000/svg" viewBox="0 0 72.08 72.27"><defs><style>.cls-1{fill:#231f20;}</style></defs><title>like</title><path class="cls-1" d="M14,54.4a9.16,9.16,0,0,0-.86.35,9.71,9.71,0,0,0-.9.6,5.16,5.16,0,0,0-1.42,2,5.09,5.09,0,0,0-.33,1.3,6.2,6.2,0,0,0,0,1.44,5.43,5.43,0,0,0,5.26,4.51,5.81,5.81,0,0,0,4.72-2.55c.19-.36.38-.7.53-1.06s.23-.77.3-1.12,0-.59.06-.9a7.58,7.58,0,0,0-.11-1,5.05,5.05,0,0,0-1.41-2.65,4.49,4.49,0,0,0-1.72-1.11,3.31,3.31,0,0,0-2-.18,1.11,1.11,0,0,0-.41.13h-.45A4.4,4.4,0,0,0,14,54.4Zm1.79-.18.49.07a4,4,0,0,1,.57.1l.66.24c.24.1.48.28.75.43s.48.42.74.64a4.65,4.65,0,0,1,1,1.91,4.45,4.45,0,0,1,0,2.33A4.61,4.61,0,0,1,19,61.78a4.45,4.45,0,0,1-3.11,1.29L15.1,63a4.28,4.28,0,0,1-.76-.19,6.48,6.48,0,0,1-.83-.39,6.3,6.3,0,0,1-.79-.64,4.48,4.48,0,0,1-1.1-1.9,6,6,0,0,1-.16-1.1,4.37,4.37,0,0,1,.16-1.2,4.66,4.66,0,0,1,1-1.88c.26-.22.49-.46.74-.64s.51-.32.75-.43a4.32,4.32,0,0,1,1.23-.34Z"/><path class="cls-1" d="M.67,23.05h0a.67.67,0,0,0-.67.67H0c.17,21.69.38,48,.38,48s.46-26.58.83-47.49c9.17.13,17.6.23,23.13.24,0,21.28.11,36.27.26,46.75-21.69.32-23.92.8-23.92.8l24.44.2a.49.49,0,0,0,.5-.49h0c.1-17,.23-38.23.29-48l-.79-.78Z"/><path class="cls-1" d="M14.87,58.47c.23.58.42,1.1.53,1.48a3.7,3.7,0,0,1,.14.62,5,5,0,0,0,.13-1.39,3.94,3.94,0,0,0,0,.5,1.53,1.53,0,0,0,.28.75.49.49,0,0,0,.16.15,9.05,9.05,0,0,1,.67-2.11,8.07,8.07,0,0,0,.57-2,1.65,1.65,0,0,0-.4-1.35,1.57,1.57,0,0,0-1.13-.44,1.59,1.59,0,0,0-1.13.44,1.65,1.65,0,0,0-.4,1.35A8.07,8.07,0,0,0,14.87,58.47Zm.75-2a.76.76,0,0,1,.08-.23l0,.05h0s0,0,0,0h.15a1.69,1.69,0,0,1,0,.37c0,.42-.11.87-.15,1.24s-.08.68-.09,1c0-.2,0-.4,0-.62A9.2,9.2,0,0,1,15.63,56.47Z"/><path class="cls-1" d="M64.69,38.71a.92.92,0,0,0,0-.18h-.13Z"/><path class="cls-1" d="M72.08,33a5.59,5.59,0,0,0-.77-2.83,5.66,5.66,0,0,0-1.61-1.78,4.72,4.72,0,0,0-2.83-.9l-15.36-.12,4.21-23.1a.62.62,0,0,0,0-.09,3.92,3.92,0,0,0-2-3.21,6.8,6.8,0,0,0-3.53-1,6.3,6.3,0,0,0-3.6.93,5.18,5.18,0,0,0-2.1,3L35.07,21.38l-7.14,7.88a.73.73,0,0,0-.19.49c0,9.51,0,17.79-.05,23.68,0,4.3,0,9.86,0,16.47a.75.75,0,0,0,.75.76h0l23.27-.09,6.3,0h1.59a7.42,7.42,0,0,0,1.72-.21A10.61,10.61,0,0,0,64.47,69,6.28,6.28,0,0,0,66.9,66.5a3.72,3.72,0,0,0-.37-3.61,6.78,6.78,0,0,0-2.59-2.27,7.48,7.48,0,0,0-2.82-.82.93.93,0,0,0-.09-.15l0,0h1.54a8.12,8.12,0,0,0,2.67-.27,5.32,5.32,0,0,0,3.52-3.91,5.39,5.39,0,0,0,.11-1.34,3.77,3.77,0,0,0-.35-1.35,5.64,5.64,0,0,0-1.65-2,7.78,7.78,0,0,0-4.19-1.63,1.15,1.15,0,0,0-.17-.26l-.15-.15h1.91c.47,0,.9,0,1.4,0a5,5,0,0,0,1.45-.32,5.17,5.17,0,0,0,3.31-4.15A4.25,4.25,0,0,0,70,41.64a5.58,5.58,0,0,0-1.52-1.85,6.49,6.49,0,0,0-3.7-1.41,2.32,2.32,0,0,0-.16-.24l-.26-.3a1.53,1.53,0,0,1-.12-.16l4.84-1H69a.4.4,0,0,0,.22,0l0,0,.05,0,.1-.06.2-.11.37-.2.61-.34.4-.22s0,0,0,0a.1.1,0,0,0,.14.05l0,0,.17-.28h0s0,0,0,0a5,5,0,0,0,.29-.55c-.06.13-.16.31-.3.55L71,35.5h0s0,0,0,.07l-.18.1-.47.25-.55.29-.3.16-.16.08-.08,0,0,0,0,0a.34.34,0,0,1-.17,0h.09l-4.91,1a.38.38,0,0,1-.06-.13l-.1.13v0h0l-.14.18.24-.05a2.54,2.54,0,0,0,.17.24c.09.14.22.24.32.41h-.06l.11.13,0,.06h0l.17.19a1,1,0,0,0,0-.18A6.31,6.31,0,0,1,68.36,40a4.42,4.42,0,0,1,1.72,4.18A4.81,4.81,0,0,1,66.92,48a7.1,7.1,0,0,1-2.7.26l-2.82,0h0a0,0,0,0,0,0,0h0a.67.67,0,0,0,.14.39l-.1.07h.16c.26.29.67.46.63.8h0a.06.06,0,0,0,.06.07h0c.13,0,.27,0,.4,0l0,0s0,0,0,0a7.26,7.26,0,0,1,3.78,1.56A5,5,0,0,1,67.91,53a3.48,3.48,0,0,1,.16,2.28A4.61,4.61,0,0,1,65,58.62a7.44,7.44,0,0,1-2.43.2l-2.55,0a.27.27,0,0,0-.25.17.64.64,0,0,0,.11.62,2.66,2.66,0,0,0,.28.32,1.15,1.15,0,0,1,.26.33l.27.41a6.51,6.51,0,0,1,5.09,2.77A2.75,2.75,0,0,1,66,66.08a5.32,5.32,0,0,1-2.08,2.05,9.59,9.59,0,0,1-2.82,1.13,6.3,6.3,0,0,1-1.47.16H58.05l-6.29-.06-22.57-.17c0-6.29,0-11.63.06-15.75,0-8.38,0-16.16,0-23.39l7-7.76a.76.76,0,0,0,.1-.14L45.68,4.54h0a.67.67,0,0,0,.06-.15,4,4,0,0,1,1.71-2.5,5.28,5.28,0,0,1,3-.67,5.42,5.42,0,0,1,2.83.86A2.71,2.71,0,0,1,54.58,4.2L50.65,27.78h0a.36.36,0,0,0,.29.41H51c7.6-.06,13-.23,16.68-.21a5.05,5.05,0,0,1,3.54,2.53A5.59,5.59,0,0,1,72,33h0v0a7.17,7.17,0,0,1-.29,1.48,5.64,5.64,0,0,0,.39-1.46ZM71,35.49a.21.21,0,0,0,.12,0h0l0,0H71Z"/><path class="cls-1" d="M71.63,34.71l0,.11c.07-.15.11-.24.11-.24Z"/><path class="cls-1" d="M64,37.42l-.15.19.17,0,0,0A.44.44,0,0,1,64,37.42Z"/><path class="cls-1" d="M71.69,34.57s0,0,0,0S71.68,34.57,71.69,34.57Z"/></svg>