<svg id="Layer_1" data-name="Layer 1" xmlns="http://www.w3.org/2000/svg" viewBox="0 0 89.76 84.29"><defs><style>.cls-1{fill:#231f20;}</style></defs><title>tokenize_our_credit_card</title><path class="cls-1" d="M8.76,47.73h0l.22,0,1.23.24c2,.36,6.63,1,9.6,1.35h0a.43.43,0,0,0,.48-.37v-.08c0-.28,0-.54,0-.79a.76.76,0,0,0,.34.15h.05l.11,0h0l1.67.24c1.91.25,6.08.61,9.18.86h0a.48.48,0,0,0,.51-.44v-.06L32.08,45s-.18,1.72-.41,3.78c-1.92-.45-4.23-1-6.14-1.36L27,46.88c1.46-.56,2.44-1,3.14-1.32,1.39-.63,1.55-.9,1.55-.9s-.44.05-1.18.2-1.74.38-2.86.67A27.44,27.44,0,0,1,21,46.69H20.8a.78.78,0,0,0-.55.2l0-.83-.12,1a.76.76,0,0,0-.11.35.78.78,0,0,0,0,.26l-.13,1.17c-1.54-.46-3.53-1-5.35-1.52l.51-.12c1.48-.37,2.48-.67,3.2-.87a13.8,13.8,0,0,0,1.37-.44.77.77,0,0,0,.28-.17h-.32c-.2,0-.5,0-.88,0-.75,0-1.79.1-2.92.25s-2.38.31-3.55.38A13.58,13.58,0,0,1,10,46.31l-1-.17H9a.81.81,0,0,0-.28,1.6Z"/><path class="cls-1" d="M31.71,53.69C30.24,53.24,28.57,52.56,27,52l-1.16-.41c5.48-.93,5.92-1.64,5.92-1.64s-6.69.4-10.77.74h-.16v0h-.09a.77.77,0,0,0-.47.23l0-.69-.1.87a.76.76,0,0,0-.1.43.73.73,0,0,0,0,.14l-.12,1,0,0a38.89,38.89,0,0,1-5-1.06c4.61-1.08,5-1.74,5-1.74S14,50.54,10.16,51H10a12.2,12.2,0,0,0-1.28.17A.81.81,0,0,0,9,52.82h0l.29-.05c.31,0,.59-.08.83-.09a23,23,0,0,1,4.42.16,33.4,33.4,0,0,0,5.3.31h0a.41.41,0,0,0,.38-.43c0-.22,0-.43,0-.63a.77.77,0,0,0,.44.18h.2c.65,0,1.21.1,1.63.16a38.92,38.92,0,0,1,4.07.78c1.65.39,3.47.85,5,1.07h0a.46.46,0,0,0,.53-.39.55.55,0,0,0,0-.09l-.18-3.57Z"/><path class="cls-1" d="M29.54,55.77c1.45.1,1.69-.13,1.69-.13s-1.58-.41-3.62-1.14a23.39,23.39,0,0,0-6.81-1.58.77.77,0,0,0-.79.76v0c0,.55,0,1,0,1.35h-.17v0h-.09c-.59,0-1.1-.08-1.5-.12-.93-.09-2.52-.36-4.28-.61a13.57,13.57,0,0,0-5.11.11H8.78a.41.41,0,0,0-.29.51.42.42,0,0,0,.06.13l1.31,1.83-1-2a0,0,0,0,1,0,0h0a16.14,16.14,0,0,1,5.69.92c-4.09.71-4.44,1.32-4.44,1.32s5.88-.2,9.54-.42h.2v0H20c0,.37,0,.81,0,1.35v0a.76.76,0,0,0,.77.74l.15,0c3.92-.87,10.28-2.45,10.28-2.45s-5.63.41-9.66.86c0-.51,0-1,0-1.34s0-.82,0-1.23a30.93,30.93,0,0,1,4.75.72A24.59,24.59,0,0,0,29.54,55.77Z"/><path class="cls-1" d="M20,45.1a.77.77,0,0,0,.79.76,23.33,23.33,0,0,0,6.81-1.59c2-.73,3.61-1.14,3.61-1.14s-1.64.14-3.77.55a30.74,30.74,0,0,1-5.89.68c0-.51,0-1,0-1.36s0-.81,0-1.21c8.72,1.49,9.62.73,9.62.73S24.87,41,20.95,40.08a.76.76,0,0,0-.92.72v0c0,1,0,1.72,0,2.16s0,1.09,0,2.08Z"/><path class="cls-1" d="M67.23,64.6l0,.11.11.15h.11Z"/><path class="cls-1" d="M67.2,64.7l-.11-.14-.08.29-29.55-.61L20.25,64l-7.38-.09-3.16,0H8.29a2.9,2.9,0,0,0-1.68.5,3.81,3.81,0,0,0-.35,6.06,3,3,0,0,0,1.67.75c.58,0,.92,0,1.38,0l2.56-.06,9.48-.24,15.53-.46c8.94-.29,15.17-.57,19.51-.8l1-.06,8.72-.09a.35.35,0,0,0,.34-.35c0-.64,0-1.2,0-1.68,0-.12,0-.19,0-.32L67.11,65h.32l-.11-.15h-.16Zm-.78,2.75c0,.48,0,1,0,1.64h0a.21.21,0,0,1-.22.21l-3.88-.09c2.28-.17,3.27-.3,3.66-.36l0,.18.05-.18.24,0H66l.46-1.52C66.42,67.35,66.42,67.4,66.42,67.45Zm0-.53a1,1,0,0,0,0-.25,1.52,1.52,0,0,0-.35-.6A1.5,1.5,0,0,0,65,65.61a1.49,1.49,0,0,1,1.1.52,1.39,1.39,0,0,1,.32.61,1.37,1.37,0,0,1,0,.32L66,68.82,51.8,69c-14.73-.32-34.5-.71-43.6-.71a.38.38,0,0,1-.28-.13.43.43,0,0,1-.06-.1c0,.13-.05-.33,0-.27,0-.36,0-.69,0-1C60.94,66.67,65,65.61,65,65.61L32,65.32l5.75,0L67,65Z"/><path class="cls-1" d="M67.23,72.51l0,.1.11.15h.11Z"/><path class="cls-1" d="M67.2,72.61l-.11-.14-.08.29-29.55-.61-17.21-.28-7.38-.09-3.16,0H8.29a2.91,2.91,0,0,0-1.68.5,3.81,3.81,0,0,0-.35,6.06,3,3,0,0,0,1.67.75c.58,0,.92,0,1.38,0L11.87,79l9.48-.24,15.53-.46c8.94-.3,15.17-.57,19.51-.8l1.06-.06,8.71-.09a.35.35,0,0,0,.34-.35c0-.64,0-1.2,0-1.68,0-.12,0-.19,0-.32l.62-2.08h.32l-.11-.15h-.16Zm-.78,2.75c0,.48,0,1,0,1.64h0a.21.21,0,0,1-.22.21l-3.87-.09c2.28-.17,3.26-.3,3.65-.36l0,.18.05-.18.24,0H66l.46-1.52C66.42,75.25,66.42,75.3,66.42,75.36Zm0-.53a1,1,0,0,0,0-.25,1.52,1.52,0,0,0-.35-.6A1.5,1.5,0,0,0,65,73.52a1.48,1.48,0,0,1,1.1.52,1.41,1.41,0,0,1,.32.61,1.36,1.36,0,0,1,0,.32L66,76.73l-14.15.16c-14.73-.32-34.51-.71-43.61-.71A.38.38,0,0,1,7.92,76a.42.42,0,0,1-.06-.1c0,.13-.05-.33,0-.27,0-.36,0-.69,0-1C60.94,74.58,65,73.52,65,73.52l-32.85-.29,5.67,0L67,72.91Z"/><path class="cls-1" d="M7,54.19a6.75,6.75,0,0,0,.38,3.29,4.46,4.46,0,0,0,2.68,2.36A3.38,3.38,0,0,0,11,60l.22,0h.71l1.83.05,3.68.1,7.18.18,3.34.07c.55,0,1,0,1.6,0a8.42,8.42,0,0,0,.89-.1l.84-.25a5.18,5.18,0,0,0,2.4-2.06c.12-.22.24-.43.35-.65l.23-.72a6.44,6.44,0,0,0,.17-1.14c0-2.56,0-5,0-7.27q0-1.68,0-3.28c0-.53,0-1,0-1.56a5.61,5.61,0,0,0-.26-1.72,5.1,5.1,0,0,0-2-2.66,5.3,5.3,0,0,0-1.52-.65,5.69,5.69,0,0,0-1.45-.17l-4.84.07c-6,.11-10.17.23-13.1.4a4.33,4.33,0,0,0-3.1,1.66,3.7,3.7,0,0,0-.76,1.79,3.47,3.47,0,0,0,0,1.09h0c0,.14-.07,2.17-.17,5.26C7.16,50.18,7.1,52.11,7,54.19Zm.4-11.26.05-.45c0-.16.11-.32.17-.52a4.34,4.34,0,0,1,.48-.87c0,.53,0,1,0,1.25l0,1.61h0a.79.79,0,0,0,.63.77c2.19.45,5-.25,7.21-.8a27.09,27.09,0,0,1,2.78-.56,11.15,11.15,0,0,1,1.14-.11,10.4,10.4,0,0,0-1.15-.09,24.39,24.39,0,0,0-2.88.11,23.84,23.84,0,0,1-6.14.07c0-.38,0-.73,0-1s0-.36,0-.54C19,43.45,20,42.66,20,42.66s-7-1.73-10.83-2.59a3.56,3.56,0,0,1,1-.46,7.05,7.05,0,0,1,2.48-.19l3,0,6.79.09c2.36,0,4.92,0,7.24.12a2.39,2.39,0,0,1,.81.16l.33.11.33.19a3.44,3.44,0,0,1,1.12,1,3.82,3.82,0,0,1,.6,1.35c0,.24,0,.49.07.73s0,.58,0,.86c0,4.72-.06,8.73-.08,11.34a5.13,5.13,0,0,1-.14,1c0,.13-.09.26-.12.4l-.23.44a3.64,3.64,0,0,1-1.62,1.44l-.57.18c-.2,0-.41,0-.61.08-.45,0-1,0-1.54,0l-3.34,0-7.18.08-3.68,0-1.83,0h-.62l-.22,0a2.64,2.64,0,0,1-.81-.14A3.75,3.75,0,0,1,8,57.18a6.2,6.2,0,0,1-.46-3c0-2.1-.06-4-.08-5.65,0-3.15-.08-5.18-.08-5.27Z"/><path class="cls-1" d="M74.75,74c-.11-3.12-.22-6.14-.33-9l-.57-15.48C73.53,40.64,73.32,35,73.32,35s.11,5.64.28,14.5c.09,4.46.19,9.72.31,15.49.06,2.9.12,5.92.18,9q0,2.34.1,4.75a4.08,4.08,0,0,1-4.28,4.4l-2.48,0-5-.05L52.32,83l-19.7-.18L15,82.7l-7.46,0H5.06a4.21,4.21,0,0,1-.64-.07,3.56,3.56,0,0,1-2-1.24,3.51,3.51,0,0,1-.71-1.53,13.52,13.52,0,0,1-.06-1.94q0-2.08,0-4.11,0-4.06,0-7.92,0-7.72,0-14.71t0-13.25a3.6,3.6,0,0,1,2.85-3.71,23.33,23.33,0,0,1,2.78-.08H10l35.2-.29c8.79-.11,14.9-.23,19.13-.34l5-.15a5.6,5.6,0,0,1,2.84.41h0l0,0,.35.2s.16.15.13.14l0,.07.08.13.24.38.12.17h0s0,0,0,0l-.1-.18L73,34.27l-.07-.14,0-.08s0,0-.15-.18l-.36-.23h0l0,0a5.3,5.3,0,0,0-2.18-.56l-3.73,0L54.9,33,21.25,32.8l-9.53,0-4.8,0c-.83,0-1.53-.06-2.46,0A5,5,0,0,0,.4,36.09a4.79,4.79,0,0,0-.26,1.35c0,.46,0,.81,0,1.22q0,2.37,0,4.7c0,3.11,0,6.17,0,9.15,0,6,0,11.57-.05,16.57,0,2.51,0,4.87,0,7q0,1.66,0,3.17a5.12,5.12,0,0,0,4.09,4.9,5.82,5.82,0,0,0,.94.1H7.55l7.46,0,17.6-.06,19.7-.08,10.09,0,5,0h2.48c.2,0,.47,0,.65,0a5.08,5.08,0,0,0,.71-.13,4.68,4.68,0,0,0,1.28-.53,4.9,4.9,0,0,0,2.37-4.6Z"/><path class="cls-1" d="M20.47,25.69h0a.77.77,0,0,0,.77.77h0L83.57,26S46.1,25.25,22,25c0-4.2.06-7.78.08-10.63l.55,0c31.49-1.31,49.93-2.3,60.64-3,.31,12.81.64,14.36.64,14.36s0-5.88.12-14.72a.43.43,0,0,0-.42-.43h0c-17.82.59-48.15,1.62-61,2.15l-1.32.06a.82.82,0,0,0-.78.82C20.44,16.73,20.46,20.83,20.47,25.69Z"/><path class="cls-1" d="M18.32,8.86c0,6.91,0,13.26,0,18.94a.79.79,0,0,0,.79.79h0c54.18-.14,64.52-.88,66.23-1.06,0,.16,0,.27,0,.27s0-.1,0-.27l.3,0h-.3c0-1.51.14-8.63.3-18.18h0c0-.15,0-.3,0-.45h0C65.1,8.52,33.06,8,19.14,8Zm67,18.63L19.9,27c0-7,0-13,.06-17.38l65.28-.36C85.31,19,85.36,26,85.37,27.49Z"/><path class="cls-1" d="M89.75,44.35q0-2.89,0-5.71c0-7.49-.07-14.49-.1-20.48,0-3,0-5.74,0-8.18,0-1.22,0-2.36,0-3.41a10.83,10.83,0,0,0-.22-3A4.63,4.63,0,0,0,85.29.35l-.39,0,.39,0a4.59,4.59,0,0,1,4,3.26,10.63,10.63,0,0,1,.16,2.94l0,3.41c0,2.44-.06,5.18-.1,8.17-.07,6-.15,13-.23,20.48q0,2.82-.06,5.71a24.21,24.21,0,0,1-.11,2.86,4.06,4.06,0,0,1-1.39,2.31c-1.44,1.3-3.55.81-5.53.88l-5.58-.06c0-2.75.05-5.49.08-8.2q0-2.15,0-4.27a6.75,6.75,0,0,0-1.4-4.25h0L75,33.54a9.27,9.27,0,0,0-1.34-1.19,7,7,0,0,0-1.63-.82l-.1,0-.65-.15a6.11,6.11,0,0,0-.76-.07l-1.33-.05c-.87,0-1.76,0-2.62,0l-5.08,0L52,31.07,36.64,31H16.41q0-8.11,0-15.38,0-3.8,0-7.39,0-1.77,0-3.49a3.58,3.58,0,0,1,2.35-3.21,3.87,3.87,0,0,1,1.37-.22l3.19,0,6.07,0,10.93-.08C53.81,1.1,63.28,1,69.89.84c13.22-.26,15-.51,15-.51L49.77.14,34.1.07,25.91,0,21.78,0c-.7,0-1.35,0-2.1,0a4.86,4.86,0,0,0-2.26.66A5,5,0,0,0,15,4.53c0,1.48,0,2.77,0,4.15,0,2.72,0,5.41,0,8,0,5.29,0,10.38-.06,15.1a.77.77,0,0,0,.77.77h0l21,0,15.34,0,9.51,0,5.09,0c.87,0,1.72,0,2.6,0l1.31,0,.55,0,.59.13a5.88,5.88,0,0,1,1.28.61,7.74,7.74,0,0,1,1.17,1c.18.27.34.48.51.78A5,5,0,0,1,75,36a5.08,5.08,0,0,1,.3,1.85q0,2.12,0,4.27c0,2.85,0,5.73,0,8.61a.63.63,0,0,0,.63.64h0l6,0,3,0a4.88,4.88,0,0,0,4.72-4,7.74,7.74,0,0,0,.08-1.56Z"/></svg>