<svg id="Layer_1" data-name="Layer 1" xmlns="http://www.w3.org/2000/svg" viewBox="0 0 73.49 105.39"><defs><style>.cls-1{fill:#231f20;}</style></defs><title>train_rail</title><path class="cls-1" d="M21.67,65.27a7.62,7.62,0,0,0-1.89-3.08,14.68,14.68,0,0,0-1.27-1c-.45-.22-.85-.47-1.25-.61l-1.11-.32a6.23,6.23,0,0,0-.86-.1l-.74-.05.74.11a5.93,5.93,0,0,1,.84.16l1.05.39c.38.17.74.44,1.15.68a14.88,14.88,0,0,1,1.13,1A7.13,7.13,0,0,1,21,65.44a6.54,6.54,0,0,1,.21,1.76,8.45,8.45,0,0,1-.26,1.71,6.79,6.79,0,0,1-1.7,2.86,9.33,9.33,0,0,1-1.2,1,9.54,9.54,0,0,1-1.26.58,6.85,6.85,0,0,1-1.16.29l-1.07.1A6.64,6.64,0,0,1,9.32,71c-.22-.39-.45-.77-.63-1.14l-.37-1.12-.16-1.25c0-.27,0-.7.06-1a6.53,6.53,0,0,1,1.36-3.28,6.7,6.7,0,0,1,1.9-1.72,8.11,8.11,0,0,1,2.51-1,2.09,2.09,0,0,0,.54-.21l-.72.05a6.06,6.06,0,0,0-.84.09l-1.13.32a13.17,13.17,0,0,0-1.25.61,14.56,14.56,0,0,0-1.27,1,7.64,7.64,0,0,0-1.89,3.05,7.47,7.47,0,0,0-.23,3.84,7.58,7.58,0,0,0,7.34,6,7.59,7.59,0,0,0,7.33-6,5,5,0,0,0,.13-1l0-.5c0-.11,0-.11,0-.3l0-.23A7.19,7.19,0,0,0,21.67,65.27Z"/><path class="cls-1" d="M66.22,65.27a7.62,7.62,0,0,0-1.89-3.08,14.71,14.71,0,0,0-1.27-1c-.45-.22-.85-.47-1.25-.61l-1.11-.32a6.23,6.23,0,0,0-.86-.1l-.74-.05.74.11a5.93,5.93,0,0,1,.84.16l1.05.39c.38.17.74.44,1.15.68s.74.65,1.13,1a7.13,7.13,0,0,1,1.52,2.93,6.52,6.52,0,0,1,.21,1.76,8.47,8.47,0,0,1-.26,1.71,6.79,6.79,0,0,1-1.7,2.86,9.46,9.46,0,0,1-1.2,1,9.51,9.51,0,0,1-1.26.58,6.85,6.85,0,0,1-1.16.29l-1.07.1A6.64,6.64,0,0,1,53.87,71c-.22-.39-.45-.77-.63-1.14l-.37-1.12-.15-1.25c0-.27,0-.7.06-1a6.53,6.53,0,0,1,1.36-3.28A6.73,6.73,0,0,1,56,61.41a8.08,8.08,0,0,1,2.51-1,2.08,2.08,0,0,0,.54-.21l-.71.05a5.92,5.92,0,0,0-.84.09l-1.13.32a13.12,13.12,0,0,0-1.25.61,14.53,14.53,0,0,0-1.27,1A7.64,7.64,0,0,0,52,65.25a7.49,7.49,0,0,0-.23,3.84,7.73,7.73,0,0,0,1.77,3.49,7.41,7.41,0,0,0,11.13,0,7.73,7.73,0,0,0,1.76-3.44,5,5,0,0,0,.13-1l0-.5c0-.11,0-.11,0-.3l0-.23A7.17,7.17,0,0,0,66.22,65.27Z"/><path class="cls-1" d="M19.07,86.14a.39.39,0,0,0-.16-.53.4.4,0,0,0-.19,0l-6.59.13,6.55.29C15.27,91.59,10.23,99.93,8,104l-5,0c8.89-16.46,9-18.16,9-18.16L1.23,104.37a.64.64,0,0,0,.55,1h0l6.59.06L9,105c2.16-3.92,6.93-12.92,10.07-18.87Z"/><path class="cls-1" d="M18,89.75h-.09a.7.7,0,0,0,0,1.39H18l2.72.12c7.82.33,28,.92,36,1.14h0a.31.31,0,0,0,.28-.47l-1.87-3.28L56.78,92h0a.15.15,0,0,1-.06.2h-.08c-5.56-.41-16.43-1.2-25.31-1.77,21.63-1.2,23.47-1.94,23.47-1.94Z"/><path class="cls-1" d="M61.21,98.89l-1.36-2.45h0a.69.69,0,0,0-.63-.35L13.48,98.17s31-.3,45.35-.69l1,1.86c-43.09-1.46-46.37-.64-46.37-.64s34.81,1.63,47.55,2.09a.7.7,0,0,0,.73-.68.71.71,0,0,0-.09-.37Z"/><path class="cls-1" d="M61.86,85.77h0a.38.38,0,0,0-.34-.19l-6.59.13L61.5,86c2.77,5.56,6.86,13.69,9.17,18l-5,0c-9.52-16.92-11-17.91-11-17.91l10,18.9a.63.63,0,0,0,.55.33h0l6.59.06a.7.7,0,0,0,.62-1C70.31,100.43,65.22,91.59,61.86,85.77Z"/><path class="cls-1" d="M68.95,44.28v-.06h0S68.94,44.24,68.95,44.28Z"/><path class="cls-1" d="M8.35,51.27a6.5,6.5,0,0,0,1.71.27h1.55l21.29-.11c12.25-.09,20.8-.21,26.76-.33l4-.1a5.1,5.1,0,0,0,2.87-1.25,7,7,0,0,0,2.16-3.36,4.92,4.92,0,0,0,.24-2.11,6.15,6.15,0,0,1-.05.66,6.8,6.8,0,0,1-.58,2,7,7,0,0,1-2,2.55,5,5,0,0,1-1.76.91,7.78,7.78,0,0,1-2.26.15l-25.42-.15L22,50.31l-7.45,0-3.65,0a7.46,7.46,0,0,1-1.66-.11,5.1,5.1,0,0,1-1.37-.51H9.39l49.74-.22,3.4,0h.84a3.06,3.06,0,0,0,1-.15,4,4,0,0,0,1.55-1,6.62,6.62,0,0,0,1.65-3,5.77,5.77,0,0,0,.17-1.66V42.06c0-4-.05-7.72-.07-10.83,0-1.56,0-3,0-4.22a4.13,4.13,0,0,0-1.45-3,4.08,4.08,0,0,0-1.94-.92,3.25,3.25,0,0,0-.75-.07,3.29,3.29,0,0,1,.75.08A4.07,4.07,0,0,1,67.44,27c0,1.25,0,2.66-.05,4.22,0,3.13-.1,6.81-.16,10.83a13.87,13.87,0,0,1-.2,3.07,6.1,6.1,0,0,1-1.56,2.71,3.4,3.4,0,0,1-1.33.83,5.4,5.4,0,0,1-1.61.09l-3.4,0c-18.32-.24-39.26-.48-49.74-.48H7.08q0-6.64,0-12.59,0-3.12,0-6.06c0-.49,0-1,0-1.46a12,12,0,0,1,0-1.31A3.13,3.13,0,0,1,8.37,25a5.56,5.56,0,0,1,2.19-1,17.78,17.78,0,0,1,2.49-.09l5,0,9-.06c11.09-.09,18.84-.21,24.23-.33C62,23.25,63.42,23,63.42,23l-31.83-.21-13.36-.08-6.74,0a6.32,6.32,0,0,0-3.47,1A4.58,4.58,0,0,0,5.8,26.62a3.33,3.33,0,0,0,0,.5v1.21c0,.53,0,1.06,0,1.59q0,1.58,0,3.11c0,2,0,4,0,5.9,0,3.16,0,6,0,8.53l-.05-.08a5.75,5.75,0,0,1-.53-3c0-2.2,0-4.3,0-6.28,0-4,0-7.46,0-10.24a5.28,5.28,0,0,1,.61-3,6,6,0,0,1,2.69-2.52A5.83,5.83,0,0,1,10.71,22h2.72l5.84,0,12.81-.06,26.76-.14,3.15,0a10,10,0,0,1,2.92.2,5.42,5.42,0,0,1,3.69,3.62,8,8,0,0,1,.24,2.56q0,1.31,0,2.54c0,1.63,0,3.16,0,4.55,0,5.53.06,9,.06,9h0s0-3.44.13-9c0-1.39,0-2.9.06-4.53q0-1.22,0-2.53A8.87,8.87,0,0,0,69,25.56a5.86,5.86,0,0,0-3.84-4,9.68,9.68,0,0,0-3-.3l-3.15,0L32.2,20.87l-12.85-.13-5.87,0-2.75,0A7.4,7.4,0,0,0,8,21.07l-.1,0a7.32,7.32,0,0,0-3.34,3,6.65,6.65,0,0,0-.83,3.75c0,5.19,0,10.07,0,14.69q0,.86,0,1.71a11.65,11.65,0,0,0,.08,1.79,6.5,6.5,0,0,0,4.53,5.18Z"/><path class="cls-1" d="M67.8,66.54a5.92,5.92,0,0,0-.12-1.16,8.45,8.45,0,0,0-.77-2.19,8.09,8.09,0,0,0-1.25-1.89,9,9,0,0,0-6.57-3,9.33,9.33,0,0,0-7.53,4c-.31.57-.62,1.12-.87,1.67s-.37,1.19-.49,1.74l-.12,1.52a14.79,14.79,0,0,0,.16,1.55,8.37,8.37,0,0,0,2.18,4.35,7.71,7.71,0,0,0,2.75,1.94l.58.26.56.13.92.19a7.42,7.42,0,0,0,1.21,0,2.91,2.91,0,0,0,.68-.08h0l.82,0a7,7,0,0,0,1-.08l1.27-.33c.46-.15.92-.43,1.44-.66a17.64,17.64,0,0,0,1.48-1.07,8.75,8.75,0,0,0,2.25-3.49,8.22,8.22,0,0,0,.47-2.18l0-.28,0-.32ZM67,67.63a7.62,7.62,0,0,1-.32,2.1,8.3,8.3,0,0,1-1.88,3.35c-.47.38-.88.81-1.34,1.11s-.91.55-1.35.73l-1.21.41a6.78,6.78,0,0,1-1,.15l-.82.1-.85-.1a6.65,6.65,0,0,1-1-.15l-1.19-.4c-.43-.17-.86-.47-1.34-.73s-.87-.72-1.34-1.11a8.28,8.28,0,0,1-1.89-3.37,7.48,7.48,0,0,1-.31-2l0-.26s0-.15,0-.22l.07-.55a5.18,5.18,0,0,1,.18-1.07,8.2,8.2,0,0,1,1.94-3.45,8,8,0,0,1,5.7-2.44l1.31.13a8,8,0,0,1,1.43.38,10.88,10.88,0,0,1,1.53.74,10.88,10.88,0,0,1,1.43,1.2A7.18,7.18,0,0,1,66,63.71a7.5,7.5,0,0,1,.78,1.9,5,5,0,0,1,.17,1l.06.52c0,.06,0,.23,0,.21Z"/><path class="cls-1" d="M23.26,66.54a5.92,5.92,0,0,0-.12-1.16,8.5,8.5,0,0,0-.76-2.19,8.15,8.15,0,0,0-1.25-1.89,9,9,0,0,0-6.57-3A9.33,9.33,0,0,0,7,62.3c-.31.57-.62,1.12-.87,1.67s-.37,1.19-.49,1.74l-.12,1.52a15.07,15.07,0,0,0,.15,1.55,8.38,8.38,0,0,0,2.18,4.35,7.7,7.7,0,0,0,2.75,1.94l.58.26.56.13.92.19a7.42,7.42,0,0,0,1.21,0,2.91,2.91,0,0,0,.68-.08h0l.82,0a7,7,0,0,0,1-.08l1.27-.33c.46-.15.92-.43,1.44-.66a17.45,17.45,0,0,0,1.48-1.07,8.77,8.77,0,0,0,2.25-3.5,8.23,8.23,0,0,0,.47-2.18l0-.28v-.32Zm-.82,1.09a7.61,7.61,0,0,1-.32,2.1,8.3,8.3,0,0,1-1.88,3.35c-.47.38-.88.81-1.34,1.11s-.91.55-1.35.73l-1.21.41a6.78,6.78,0,0,1-1,.15l-.82.1-.85-.1a6.64,6.64,0,0,1-1-.15l-1.19-.4c-.43-.17-.86-.47-1.34-.73s-.87-.72-1.34-1.11A8.28,8.28,0,0,1,7,69.71a7.48,7.48,0,0,1-.31-2l0-.26s0-.15,0-.22l.07-.55a5.27,5.27,0,0,1,.17-1.08,8.19,8.19,0,0,1,1.94-3.44,8,8,0,0,1,5.7-2.44l1.31.13a8,8,0,0,1,1.43.38,11,11,0,0,1,1.53.74,10.89,10.89,0,0,1,1.43,1.2,7.19,7.19,0,0,1,1.17,1.6,7.52,7.52,0,0,1,.78,1.9,5,5,0,0,1,.17,1l.06.52c0,.06,0,.23,0,.21Z"/><path class="cls-1" d="M31.73,15.24a6.92,6.92,0,0,0,5.09,2.39,7.23,7.23,0,0,0,5.86-3.15c.24-.45.48-.87.67-1.3s.28-.94.38-1.37l.09-1.15a10.65,10.65,0,0,0-.13-1.21A6.42,6.42,0,0,0,42,6.09a5.84,5.84,0,0,0-2.14-1.46,4.6,4.6,0,0,0-2.52-.37,1.79,1.79,0,0,0-.52.1h0l-.61,0a5.21,5.21,0,0,0-.74.05l-1,.23c-.35.11-.7.31-1.1.49a13.09,13.09,0,0,0-1.14.8A6.67,6.67,0,0,0,30.5,8.6a6.3,6.3,0,0,0-.38,1.66,8,8,0,0,0,.08,1.8A7,7,0,0,0,31.73,15.24Zm-.63-3.6a3.36,3.36,0,0,0,.12.46c0-.08-.06-.17-.09-.25S31.12,11.71,31.11,11.64Zm.59,1.57.06.11Zm-.39-.86c0,.1.07.2.11.29C31.38,12.55,31.35,12.45,31.31,12.35ZM32,13.67a9.34,9.34,0,0,0,.65.8l-.05,0A5.59,5.59,0,0,1,32,13.67Zm3.85,2.45a5.75,5.75,0,0,1-1-.27,8.35,8.35,0,0,1-1.13-.54c-.23-.18-.48-.37-.72-.57a7,7,0,0,0,.79.58,10.08,10.08,0,0,0,1,.47,5.26,5.26,0,0,0,1.54.31l.58,0-.57-.1a5.2,5.2,0,0,1-1.46-.45c-.29-.13-.57-.35-.88-.54a11.28,11.28,0,0,1-.85-.78A5.41,5.41,0,0,1,31.93,12a5,5,0,0,1,1.38-4.76,7.34,7.34,0,0,1,.91-.7,7.24,7.24,0,0,1,.94-.41,4.9,4.9,0,0,1,.86-.2l.81-.07a5,5,0,0,1,3.89,2c.16.29.34.57.47.85l.28.82.13,1c0,.25,0,.5,0,.75a5.3,5.3,0,0,1-2.4,3.82,6.73,6.73,0,0,1-1.9.87,1.3,1.3,0,0,0-.41.19l.55,0a5.27,5.27,0,0,0,1.53-.31,10.11,10.11,0,0,0,1-.47,8.15,8.15,0,0,0,.88-.65,6.08,6.08,0,0,1-4,1.55Zm-4.5-7.84a4.72,4.72,0,0,1,.22-.5C31.47,7.94,31.4,8.11,31.34,8.28Zm.31-.68.22-.37C31.79,7.35,31.71,7.47,31.65,7.6Zm10,6.07c-.1.14-.19.27-.3.4C41.45,13.95,41.55,13.81,41.65,13.67Zm-.66.81.34-.38c-.09.11-.18.23-.28.33Zm.9-1.18,0-.08Zm.33-.66c0-.08.07-.17.1-.25C42.29,12.47,42.26,12.55,42.22,12.63Zm.19-.5a3.92,3.92,0,0,0,.11-.4c0,.05,0,.11,0,.16S42.44,12.05,42.41,12.13Zm.27-1.73c0-.08,0-.16,0-.24C42.68,10.25,42.68,10.33,42.68,10.4Zm-.06-.94c0,.08,0,.15,0,.23C42.64,9.62,42.63,9.54,42.62,9.46ZM42,7.59c-.07-.13-.14-.25-.22-.37C41.85,7.34,41.93,7.47,42,7.59Zm.31.68c-.06-.17-.13-.33-.21-.49A4.56,4.56,0,0,1,42.3,8.28Zm-.74-1.37c-.12-.16-.23-.32-.37-.47a5.42,5.42,0,0,0-.48-.49l.36.32C41.24,6.47,41.41,6.69,41.57,6.91Zm-8-1.48c.36-.19.68-.42,1-.56l.91-.31a5.15,5.15,0,0,1,.72-.12l.61-.08.64.08a5.07,5.07,0,0,1,.75.12l.88.31c.32.13.64.36,1,.56a5.22,5.22,0,0,1,.56.45,6.15,6.15,0,0,0-3.82-1.43,6.28,6.28,0,0,0-3.75,1.37A4.42,4.42,0,0,1,33.56,5.43Zm-1,.84.3-.26a4.59,4.59,0,0,0-.42.44c-.13.15-.25.3-.36.46C32.24,6.68,32.4,6.46,32.57,6.27ZM31,10.15c0,.11,0,.23,0,.35,0,0,0-.11,0-.15S31,10.22,31,10.15Zm.06-.7,0,.17C31,9.56,31,9.51,31,9.45Z"/><path class="cls-1" d="M4.5,82.68A8.78,8.78,0,0,0,8.2,83.82c1.38.06,2.63,0,4,0l9,0,21.26,0,11.72,0,6,0h3a15.62,15.62,0,0,0,3.14-.18,8.8,8.8,0,0,0,5.36-3.43A9.2,9.2,0,0,0,73.47,74c0-4.05,0-8.08,0-12-.06-15.8-.11-30.5-.15-41.25,0-1.34,0-2.62,0-3.83a9.4,9.4,0,0,0-.48-3.48A8.62,8.62,0,0,0,65.92,7.8a9.8,9.8,0,0,0-1-.09c0-.22,0-.58-.06-1.11a6.54,6.54,0,0,0-1.31-3.79A6.65,6.65,0,0,0,58,.16l-8,0L29.45.06,17.58,0a27.55,27.55,0,0,0-3.16.07,6.41,6.41,0,0,0-3,1.4A7.82,7.82,0,0,0,8.57,7.3l-.05.2A7.71,7.71,0,0,0,3.57,10a12.59,12.59,0,0,0-3,5.1,10.64,10.64,0,0,0-.47,3V20.9q0,2.85,0,5.69c0,7.57,0,15-.06,22S0,62.28,0,68.19q0,2.22,0,4.31a24.71,24.71,0,0,0,.16,4.14A8.92,8.92,0,0,0,4.5,82.68ZM1.4,74.25q0-1.52,0-3,0-6,0-11.62c0-7.5,0-14.55,0-21.17s0-12.75,0-18.53a15,15,0,0,1,.28-4.07A11.65,11.65,0,0,1,3.14,12.3c1.36-2.12,3.5-3.77,5.77-3.77a.55.55,0,0,0,.53-.41l.15-.6a.51.51,0,0,0,0-.14C9.6,4,12.42.88,15.47,1L24.7.91,39.91.78c8.78-.05,15-.26,19.35-.19a6.38,6.38,0,0,1,4.36,2.7,6.51,6.51,0,0,1,1.11,2.9c.07.83.12,1.29.16,1.53h0c0,.18,0,.25,0,.25s0-.1,0-.24a9.26,9.26,0,0,1,1,.1,8.55,8.55,0,0,1,6.75,5.66,9.24,9.24,0,0,1,.43,3.44c0,1.21,0,2.49,0,3.83C73,31.55,72.85,46.28,72.72,62c0,4-.06,8-.09,12a8.3,8.3,0,0,1-1.56,5.54,7.86,7.86,0,0,1-4.82,3,14.86,14.86,0,0,1-3,.13l-3,0-6,0-11.72-.07-21.26-.11-9,0c-1.37,0-2.78,0-3.93,0a7.42,7.42,0,0,1-3.12-1,7.53,7.53,0,0,1-3.48-4.37A8.6,8.6,0,0,1,1.4,74.25Z"/></svg>