<svg id="Слой_1" data-name="Слой 1" xmlns="http://www.w3.org/2000/svg" viewBox="0 0 1920 104"><defs><style>.cls-1{fill:#fff;}.cls-2{opacity:0.5;}.cls-3{fill:#7ef2e7;}.cls-4{fill:#07c7f2;opacity:0.4;}</style></defs><title>turquoise_blue_waves4</title><path class="cls-1" d="M1920,0H0V100.14c23,.28,57,4.32,98,3.82C570.63,98.21,674.53,33.34,960,32.1c328.82-1.43,364.49,66.5,775,51.22,144-5.36,185,12.1,185,12.1Z"/><g class="cls-2"><path class="cls-3" d="M1920,81.8c-54-55-259-11-417-25.23C1391.57,46.5,1199.37,1,957,0,718.79-.91,537.68,51.85,321,73.38,194.22,86,83,78.73,0,68.8v31.34c23,.28,57,4.31,98,3.82,472.63-5.74,576.53-70.61,862-71.85,328.82-1.43,364.49,66.5,775,51.22,144-5.36,185,12.1,185,12.1Z"/></g><path class="cls-4" d="M3,100.14S30,64.21,155,64.21c137,0,324,17.58,324,17.58-87,10.7-182,16.05-281,19.87C126,103.19,102,106.25,3,100.14Z"/><path class="cls-4" d="M783,41.28a1825.15,1825.15,0,0,1,195-9.17c82.78.53,149,3.78,248,17.58,159,22.17,199,30.57,335,35.16a1862.5,1862.5,0,0,0-451-65C982,17.15,884,19.11,783,41.28Z"/><path class="cls-4" d="M1920,95.41l0-25.85c-17,13-52,15.29-62,15.29,6.57.62,24,2.29,34,3.82C1898.08,89.6,1915,93.26,1920,95.41Z"/></svg>