<svg id="Слой_1" data-name="Слой 1" xmlns="http://www.w3.org/2000/svg" viewBox="0 0 1920 104"><defs><style>.cls-1{fill:#fff;}.cls-2{fill:#7ef2e7;opacity:0.5;}.cls-3{fill:#07c7f2;opacity:0.4;}</style></defs><title>turquoise_blue_waves3</title><path class="cls-1" d="M1920,104H0V0C18.28,4.83,76,28.22,130,28.22c46,0,217-26.91,306-26.91,91,0,266,94.17,492,94.17,212,0,595-81.09,807-82.4C1902.2,12,1920,34,1920,34Z"/><path class="cls-2" d="M0,25.72S49,102.85,210,104c186,1.31,288-75.21,367-71.28C520,15.7,465,1.31,440,1.31c-65,0-135,9.16-211,18.31-41,4.94-61.2,7.73-94,9.16C105,30.08,56,19.62,0,0Z"/><path class="cls-2" d="M1224,69.32s175,25,336,26.16c186,1.31,310-75.86,310-75.86a1190,1190,0,0,0-129-6.54c-26.78.1-58.38,1.11-121,6.54-77.88,6.75-137.8,14.88-233,27.47C1326.22,55.12,1224,69.32,1224,69.32Z"/><path class="cls-3" d="M1843,17s-107.95,58.86-245,60.17-213-30.08-213-30.08c80-9.16,170-23.54,268-30.08C1721,13.08,1750,10.46,1843,17Z"/><path class="cls-3" d="M157,27.47s.95,26.16,138,27.47,245-32.7,245-32.7C507,13.08,477.7,2.51,432,1.31,394.16.31,241,19.62,157,27.47Z"/></svg>