<svg id="Слой_1" data-name="Слой 1" xmlns="http://www.w3.org/2000/svg" viewBox="0 0 1920 104"><defs><style>.cls-1{fill:#7ef2e7;opacity:0.5;}.cls-2{fill:#07c7f2;opacity:0.4;}</style></defs><title>turquoise_blue_waves_footer</title><path class="cls-1" d="M66.67,104H1920V89c-46.67-41.76-169.56-89-300.67-89-224.67,0-304,70.12-515.33,70.12-255.33,0-348.9-62.61-652.71-59.86C280,11.82,115.33,59.09,66.67,104Z"/><path class="cls-2" d="M0,104v-3.19C31,78.56,63.88,60.07,107.81,47.62,250.78,7.11,379,13.09,379,13.09c142.48,7.11,176.28,35.5,318,56.64,40.38,6,211.5,20.09,433.5-17.73,136.87-23.32,257.08-29.59,352.5-33.09,56.83-2.08,120.49,5,193.7,23.64,64.43,16.43,121,37,163,61.45Z"/></svg>