<svg id="Слой_1" data-name="Слой 1" xmlns="http://www.w3.org/2000/svg" viewBox="0 0 1920 104"><defs><style>.cls-1{fill:#fff;}.cls-2{fill:#07c7f2;opacity:0.4;}.cls-3{fill:#7ef2e7;opacity:0.5;}</style></defs><title>turquoise_blue_waves5</title><path class="cls-1" d="M1920,0H0v88C29.23,93.59,55,97,76,99.17a887.84,887.84,0,0,0,103.07,4.73s12.63.07,25.17-.71c32.67-2,65.43-8.87,175.5-25.66C564,49.42,601.08,47,643.83,47.63c57.23.83,109.65,6.87,129.76,9.23,62.68,7.37,83.47,14.07,151.48,25.09,29.75,4.82,108.55,22,187.47,22,34.58,0,85.22,1.4,207.33-6.32,154.24-9.75,235.17-30.76,414.29-34.26,101.42-2,163.66,24.13,185.84,36.58Z"/><path class="cls-2" d="M1864.34,78.23c-71.77-21.69-171.68-15.1-243.38-9.43C1504.32,78,1395.05,94.62,1296.28,99.33c-100.86,4.81-190.76,4.52-190.76,4.52,0-.6,30.22-3.38,68.58-6.17,83.51-6.07,142-16.44,194.9-25.11,170.19-27.89,255.06-37.05,319.69-36.41C1765.8,36.93,1834.5,50.16,1864.34,78.23Z"/><path class="cls-3" d="M1106,103.51c85.5,1.82,154.74-3.14,201.2-4.68C1408,95.5,1549.35,68.34,1697.83,64.19c23.8-.67,93.66-4.52,157.56,11.58,18.59,4.68,35.69,9.88,55.62,19.12-18.52-33.57-46.76-54.73-84.89-70.74A307.9,307.9,0,0,0,1689.35.53c-160.46,8.21-287.66,46.57-444,78.15C1186.29,90.61,1137.63,98.63,1106,103.51Z"/><path class="cls-2" d="M410.85,73.08C352.57,81.79,305.28,89.42,264,96c-15,2.37-45.51,7.85-71,7.85s-43.83,0-58.46-.43c-20.47-.67-44.66-2-63.07-4.89,39-15.08,92.78-41.11,153.68-41.45C296.8,56.66,359.77,65.67,410.85,73.08Z"/><path class="cls-3" d="M468.9,64.4C388.27,76.45,323.43,86.13,266.55,95.1c-20.31,3.2-49.94,8.89-90,8.89-34.72,0-63.52-1.55-83.89-3.27-28.24-2.39-53.36-5.9-78.83-10,54-20.87,118-48.13,202.21-48.59C315.13,41.64,398.22,54.15,468.9,64.4Z"/></svg>