<svg id="Layer_1" data-name="Layer 1" xmlns="http://www.w3.org/2000/svg" viewBox="0 0 87.74 87.65"><defs><style>.cls-1{fill:#231f20;}</style></defs><title>working_hours</title><path class="cls-1" d="M57.63,78a37.94,37.94,0,0,0,12.6-8.13,38.4,38.4,0,0,0,9.43-15.43,38.53,38.53,0,0,0,1.11-4.73c.13-.81.27-1.62.38-2.44l.15-2.44.07-1.23,0-1.25-.1-2.48c-.09-.82-.23-1.64-.34-2.46A16.22,16.22,0,0,0,80.41,35l-.6-2.41c-.25-.79-.54-1.56-.81-2.33a41,41,0,0,0-2-4.5A38.59,38.59,0,0,0,71.48,18,36.91,36.91,0,0,0,57.21,8.26a38.94,38.94,0,0,0-13.3-2.5,38.18,38.18,0,0,0-18.75,5,38.74,38.74,0,0,0-12.6,11.66A37.84,37.84,0,0,0,6.81,36.32L6.3,39.79q-.08,1.68-.15,3.3a37.39,37.39,0,0,0,.5,6.33,35.17,35.17,0,0,0,3.43,10.71,39.52,39.52,0,0,0,2.49,4.32c.45.66.95,1.26,1.4,1.88a17.52,17.52,0,0,0,1.41,1.74,37.65,37.65,0,0,0,11.45,8.82,35,35,0,0,0,14.1,3.68c2.45,0,3,0,3,0l-3.81-.21a38.69,38.69,0,0,1-9.88-2.51A37.66,37.66,0,0,1,17.8,69.61,38,38,0,0,1,8.72,54.29a38,38,0,0,1-1-4.65c-.11-.79-.25-1.58-.34-2.38l-.11-2.41-.06-1.21.06-1.2L7.37,40c.1-.8.25-1.59.36-2.39a15.57,15.57,0,0,1,.48-2.37l.61-2.34c.25-.77.55-1.51.82-2.27a40,40,0,0,1,2-4.35,37.59,37.59,0,0,1,5.46-7.51A35.91,35.91,0,0,1,31,9.45,38.43,38.43,0,0,1,43.84,7.09,38.25,38.25,0,0,1,56.76,9.45a35.91,35.91,0,0,1,13.9,9.29,37.5,37.5,0,0,1,5.46,7.51,40,40,0,0,1,2,4.35c.27.75.57,1.5.82,2.26l.61,2.34A15.78,15.78,0,0,1,80,37.59c.12.8.26,1.6.36,2.4l.13,2.42.06,1.19-.06,1.23-.11,2.45c-.1.8-.23,1.58-.34,2.37a38.23,38.23,0,0,1-1,4.64,38,38,0,0,1-9.09,15.32,37.71,37.71,0,0,1-12.38,8.23,38.74,38.74,0,0,1-9.9,2.51l-3.79.21,3.79-.15A38.66,38.66,0,0,0,57.63,78Z"/><path class="cls-1" d="M87.66,42.15l-.15-2.85c-.12-1-.29-1.91-.43-2.86a45.38,45.38,0,0,0-1.27-5.55,45.13,45.13,0,0,0-11-18.16A44.58,44.58,0,0,0,60.08,3.08,45.48,45.48,0,0,0,48.34.21L43.87,0l4.47.27A45.64,45.64,0,0,1,60,3.27,44.34,44.34,0,0,1,74.55,13,44.63,44.63,0,0,1,85.16,31.08a44.78,44.78,0,0,1,1.19,5.46c.13.93.28,1.85.39,2.79l.12,2.86.06,1.43L86.85,45l-.16,2.84c-.12.94-.29,1.88-.44,2.82L86,52.09c-.08.47-.23.92-.34,1.38L85,56.21c-.29.9-.65,1.77-1,2.65l-.49,1.32c-.18.44-.4.85-.6,1.27L81.66,64c-.47.8-1,1.58-1.45,2.36l-.72,1.17c-.26.38-.55.73-.82,1.1L77,70.76c-.58.68-1.21,1.32-1.8,2A42.1,42.1,0,0,1,58.94,83.58a45,45,0,0,1-15.1,2.75,43.34,43.34,0,0,1-21.08-5.61A44,44,0,0,1,8.49,67.6,42.75,42.75,0,0,1,1.58,37a23.26,23.26,0,0,1,.63-3.34c.29-1.08.5-2.15.83-3.17l1.07-3A29.91,29.91,0,0,1,5.34,24.8a45.3,45.3,0,0,1,2.77-5c.5-.76,1.06-1.46,1.57-2.17a19.9,19.9,0,0,1,1.58-2A44,44,0,0,1,40.42.32C43.27.09,43.85,0,43.85,0L39.4.21A45.53,45.53,0,0,0,27.66,3.08a44.62,44.62,0,0,0-14.77,9.65,45.11,45.11,0,0,0-11,18.16A45.23,45.23,0,0,0,.66,36.43c-.14.95-.31,1.89-.43,2.84L.08,42.16,0,43.61l.07,1.46L.2,47.93c.11,1,.28,1.93.41,2.89l.22,1.45c.08.48.23.94.34,1.41l.71,2.81c.29.92.65,1.82,1,2.72l.49,1.35c.18.45.4.87.6,1.3l1.23,2.58c.47.82,1,1.63,1.45,2.43l.73,1.21c.26.39.55.75.83,1.13l1.66,2.23c.59.7,1.23,1.37,1.83,2A43.06,43.06,0,0,0,28.35,84.77,45.56,45.56,0,0,0,43.9,87.65a45.72,45.72,0,0,0,15.49-2.89A43,43,0,0,0,76.06,73.5c.61-.68,1.24-1.35,1.83-2l1.66-2.23c.27-.38.57-.74.83-1.13l.73-1.21c.48-.81,1-1.61,1.45-2.43l1.23-2.58c.2-.43.43-.86.6-1.3l.49-1.35c.32-.91.67-1.81,1-2.72l.71-2.81c.11-.47.26-.93.34-1.41l.21-1.44c.14-1,.3-1.92.41-2.88l.14-2.9.07-1.47Z"/><path class="cls-1" d="M44.25,11.24c.21-.63.37-1.14.37-1.14l-.29.3a.87.87,0,0,0-.16-.52s-1.57,2.26-2,3.08l1.2.58A9.79,9.79,0,0,0,44.25,11.24Z"/><path class="cls-1" d="M43.4,76.83a.89.89,0,0,0,.16.52s1.57-2.27,2-3.08l-1.2-.58A9.83,9.83,0,0,0,43.48,76c-.21.63-.37,1.14-.37,1.14Z"/><path class="cls-1" d="M78.29,45.28l.58-1.2a9.78,9.78,0,0,0-2.31-.85l-1.14-.37.3.29a.89.89,0,0,0-.52.16S77.48,44.88,78.29,45.28Z"/><path class="cls-1" d="M10.35,44.37s2.63-.82,3.45-1.22L13.22,42a9.9,9.9,0,0,0-2.09,1.29l-1,.67.42-.06A.88.88,0,0,0,10.35,44.37Z"/><path class="cls-1" d="M42.43,39.51h.1a7.32,7.32,0,0,1,1.5-.15h.56l-.57,0a7.25,7.25,0,0,0-1.53,0h0a.13.13,0,0,1-.15-.11v0c.31-2.63.86-7.35,1.34-11.77.6,10.7,1.2,11.65,1.2,11.65s-.13-15.14-.3-21.48a.66.66,0,0,0-.68-.64.67.67,0,0,0-.64.62c0,.5-.06.84-.08,1.16-.3,4.44-.8,15.88-1,20.45A.3.3,0,0,0,42.43,39.51Z"/><path class="cls-1" d="M42.37,49.08s1.74.81,2.76,1.19a.62.62,0,0,0,.79-.8l0-.1c-.07-.18-.13-.33-.19-.45s-.33-.59-.57-1l.33-.11a5.42,5.42,0,0,0,.89-.47,5.62,5.62,0,0,0,.8-.72,4.5,4.5,0,0,0,1-2,6.12,6.12,0,0,0,.07-.73c1.15.26,9,2,13.81,3a.63.63,0,0,0,.74-.49.71.71,0,0,0,0-.12v0c0-1.19,0-2.05,0-2.66s0-1.47,0-2.66v0a.63.63,0,0,0-.63-.62H62c-4.85,1-12.7,2.76-13.82,3a3.58,3.58,0,0,0-.21-1,4.16,4.16,0,0,0-2.58-2.65,5.16,5.16,0,0,0-1.55-.24,5,5,0,0,1,1.47.43,7,7,0,0,1,.63.4,8.08,8.08,0,0,1,.61.58,3.9,3.9,0,0,1,.77,1.63,3.52,3.52,0,0,1-1,3.34,4.88,4.88,0,0,1-.64.47,4.94,4.94,0,0,1-.65.28,3.64,3.64,0,0,1-.58.13l-.63.05a3.5,3.5,0,0,1-2.62-1.39l-.33-.58-.2-.55-.1-.69,0-.51a3.82,3.82,0,0,1,1.63-2.73,5.44,5.44,0,0,1,1.35-.7.8.8,0,0,0,.29-.17l-.4,0a3.73,3.73,0,0,0-1.13.21,4.18,4.18,0,0,0-2.57,2.63,3.24,3.24,0,0,0-.19.81c-.19-.36-.36-.7-.5-1a2.66,2.66,0,0,1-.26-.84.68.68,0,0,1,0-.24.51.51,0,0,0-.14.23,2.43,2.43,0,0,0,0,1c.06.41.18.88.29,1.35a7.61,7.61,0,0,1,.18,1l-1,.41c.78-3.67.22-4.15.22-4.15s-1.23,3.37-1.82,5.23a.63.63,0,0,0,.42.8.62.62,0,0,0,.48,0l0,0,.66-.34c.41-.22,1-.61,1.74-1a4.45,4.45,0,0,0,.71,1.18,5.47,5.47,0,0,0,.8.72,5.74,5.74,0,0,0,.88.46,4.4,4.4,0,0,0,1.15.27l-.41.26a1.86,1.86,0,0,1-.51.24s0,0,.11.07a1.62,1.62,0,0,0,.53,0c.23,0,.5-.05.76-.09l.3,0,0,.22C42.68,48.6,42.37,49.08,42.37,49.08Zm19.15-7.43c0,.76,0,1.43,0,2s0,1.27,0,1.88c-10.16-1.82-12.7-1.75-13.27-1.67,0-.13,0-.25,0-.39v-.08C49.29,43.23,56.56,42.37,61.52,41.65Z"/></svg>