<svg id="Layer_1" data-name="Layer 1" xmlns="http://www.w3.org/2000/svg" viewBox="0 0 89.46 65.04"><defs><style>.cls-1{fill:#231f20;}</style></defs><title>cupons</title><path class="cls-1" d="M36.32,28.35a11.61,11.61,0,0,0-.07-4.82A4.1,4.1,0,0,0,35,21.44a3.79,3.79,0,0,0-1.11-.57l-.38-.06-.18,0h-.29a3.34,3.34,0,0,0-2.58,1.36,6,6,0,0,0-.92,2.14,9,9,0,0,0-.24,1.92c0,.26,0,.53,0,.81s0,.55.07.81a6,6,0,0,0,1.69,4.07l.57.38a3.15,3.15,0,0,0,.51.15,1.24,1.24,0,0,0,.64,0,1,1,0,0,0,.37-.12h0a2.2,2.2,0,0,0,1.44-.38A5.37,5.37,0,0,0,36.32,28.35Zm-3.36-6h0Zm.18,9.94a2.26,2.26,0,0,1-1.34-.57,5.1,5.1,0,0,1-1.22-3.36,13.92,13.92,0,0,1,.06-2.26c0-.38.12-.71.18-1.06a10.12,10.12,0,0,1,.31-1c.5-1.25,1.3-1.75,1.92-1.7h.06l.18,0,.38.05.43.23A3,3,0,0,1,35,24,8.5,8.5,0,0,1,35.47,26l.08,1.11v1.16a5.06,5.06,0,0,1-1.11,3.38A2.17,2.17,0,0,1,33.14,32.25Z"/><path class="cls-1" d="M40.47,22.63A14.75,14.75,0,0,1,41.56,26a2.89,2.89,0,0,0,.19.71s0-.33,0-.93a11.86,11.86,0,0,0-.4-2.55,8.9,8.9,0,0,0-1.76-3.39,7.8,7.8,0,0,0-3.93-2.45,10,10,0,0,0-2.5-.34,9.64,9.64,0,0,0-2.5.3A8.5,8.5,0,0,0,26.41,20a10.24,10.24,0,0,0-2.09,3.93,12.54,12.54,0,0,0-.45,3.48,10.74,10.74,0,0,0,2.79,7.22,9.1,9.1,0,0,0,4.42,2.32c.42.07.85.08,1.27.12.24,0,.37,0,.69,0l.59-.07a10.87,10.87,0,0,0,1.19-.16l1.23-.39a8.23,8.23,0,0,0,3.67-2.81c.21-.29.44-.57.62-.86l.41-.9c.13-.29.27-.57.38-.85l.2-.83a9.32,9.32,0,0,0,.3-1.43c0-.43,0-.8.07-1.11,0-.61.05-.95.05-.95s0,.34-.12.94c0,.3-.09.67-.14,1.09a9.45,9.45,0,0,1-.39,1.39l-.25.79c-.12.26-.28.52-.42.79l-.46.83c-.19.26-.42.51-.64.77a7.66,7.66,0,0,1-3.54,2.38L34.72,36a10.55,10.55,0,0,1-1.17.09l-.59,0c-.12,0-.36-.05-.53-.08-.38-.06-.76-.09-1.12-.17a8,8,0,0,1-3.69-2.19,8.4,8.4,0,0,1-1.76-3.35,13.71,13.71,0,0,1-.41-3.08,11.09,11.09,0,0,1,.79-4.18,7.84,7.84,0,0,1,2.17-3,7.94,7.94,0,0,1,5.8-1.73A7.45,7.45,0,0,1,38.47,20,8.27,8.27,0,0,1,40.47,22.63Z"/><path class="cls-1" d="M58.36,41.07a11.88,11.88,0,0,0-.05-4.82,4.09,4.09,0,0,0-1.23-2.1A3.68,3.68,0,0,0,56,33.58l-.38-.06-.18,0h-.29a3.34,3.34,0,0,0-2.57,1.35A4.63,4.63,0,0,0,52,35.91,4.53,4.53,0,0,0,51.63,37a9.08,9.08,0,0,0-.23,1.92v.81c0,.26,0,.53.05.8a5.94,5.94,0,0,0,1.66,4.08l.57.38a3.11,3.11,0,0,0,.5.15,1.23,1.23,0,0,0,.64,0,1,1,0,0,0,.38-.12h0a2.19,2.19,0,0,0,1.44-.38A5.36,5.36,0,0,0,58.36,41.07ZM55.18,45a2.28,2.28,0,0,1-1.34-.57A5,5,0,0,1,52.65,41a17.11,17.11,0,0,1,.08-2.27c0-.37.12-.71.18-1.06a9.28,9.28,0,0,1,.31-1c.5-1.26,1.3-1.75,1.94-1.69l.6.08c.19.09.24.13.43.23a2.9,2.9,0,0,1,.89,1.33,8.86,8.86,0,0,1,.46,2.08l.07,1.12V41a5.06,5.06,0,0,1-1.11,3.38A2.17,2.17,0,0,1,55.18,45Z"/><path class="cls-1" d="M51.77,30.66a8.3,8.3,0,0,0-3.13,2.19,10.24,10.24,0,0,0-2.14,4.07,13,13,0,0,0-.38,2.43c0,.23,0,.36,0,.67l0,.6.08,1.19a14.56,14.56,0,0,0,.62,2.47A9.15,9.15,0,0,0,48,46.44a8.65,8.65,0,0,0,3.5,2.83,18.3,18.3,0,0,0,1.85.54L55,50c.6,0,1-.09,1.56-.14a16.49,16.49,0,0,0,1.91-.54A8.81,8.81,0,0,0,62,46.5a11.83,11.83,0,0,0,1.82-9.44l-.3-1.2A7.82,7.82,0,0,0,63,34.77a8.25,8.25,0,0,0-1.19-1.91,11,11,0,0,0-1.51-1.4,16.1,16.1,0,0,0-1.6-.83l-1.43-.41a10.41,10.41,0,0,0-1.11-.11l-1-.07.95.13a10.66,10.66,0,0,1,1.09.18l1.36.49a15.91,15.91,0,0,1,1.48.9,10.72,10.72,0,0,1,1.34,1.41,7.7,7.7,0,0,1,1,1.86,7,7,0,0,1,.36,1l.21,1.1a10.94,10.94,0,0,1-2.09,8.52,7.64,7.64,0,0,1-3,2.21c-.54.12-1,.31-1.49.39l-1.4.12a8,8,0,0,1-4-1.15,4.42,4.42,0,0,1-.77-.59,3.69,3.69,0,0,1-.69-.64,7.23,7.23,0,0,1-1-1.49,6.15,6.15,0,0,1-.65-1.57,6.68,6.68,0,0,1-.36-1.59c-.05-.53-.14-1.17-.16-1.55a12.4,12.4,0,0,1,.07-1.44,9.92,9.92,0,0,1,1.51-4.44,8.23,8.23,0,0,1,2.35-2.35,10.06,10.06,0,0,1,3.26-1.33,2.93,2.93,0,0,0,.71-.2l-.93,0A9,9,0,0,0,51.77,30.66Z"/><path class="cls-1" d="M48.48,58a23.77,23.77,0,0,0,8.88-3.23,29,29,0,0,0,9.54-9.55,29.51,29.51,0,0,0,4.5-15V30.2h0q-.24-1.41-.47-2.81c-.15-1-.42-1.89-.65-2.81s-.62-1.83-1-2.71A27.8,27.8,0,0,0,68,19.26,26.58,26.58,0,0,0,60.89,11c-.68-.55-1.43-1-2.1-1.47l-1.1-.64c-.36-.21-.74-.41-1.1-.58a27.75,27.75,0,0,0-4.32-1.7,27.38,27.38,0,0,0-7.68-1.06A26.37,26.37,0,0,0,22.67,17.68a27.68,27.68,0,0,0-4,9.84,25.61,25.61,0,0,0-.09,9.24,26.24,26.24,0,0,0,6.29,13.08A26,26,0,0,0,33,55.94a24.69,24.69,0,0,0,6.22,2,22.62,22.62,0,0,0,3.69.38,10.57,10.57,0,0,0,2.06-.09,23.21,23.21,0,0,1-2.64-.15A25.7,25.7,0,0,1,20.5,40a25,25,0,0,1-.38-13.19,27.15,27.15,0,0,1,6.1-11.45,24.23,24.23,0,0,1,9.49-6.53,25.94,25.94,0,0,1,8.9-1.72,27,27,0,0,1,7.21.95A26.46,26.46,0,0,1,56,9.68c.36.17.68.33,1,.52l1,.57c.71.46,1.38.86,2,1.38A25.5,25.5,0,0,1,67,19.87a26.49,26.49,0,0,1,1.22,2.42c.36.85.71,1.74,1,2.57s.53,1.8.68,2.7l.52,2.74a28.83,28.83,0,0,1-4.07,14.63,28.6,28.6,0,0,1-9.16,9.6A23.61,23.61,0,0,1,48.46,58a21.31,21.31,0,0,1-2.62.29l-.93,0h.93A21.33,21.33,0,0,0,48.48,58Z"/><path class="cls-1" d="M89.45,41c0-3,0-5.71,0-8.2v0c-1.05-9.24-1.71-14.95-1.71-14.95l1.49,15v0c0,2.5-.05,5.26-.08,8.23q0,2.23-.05,4.61a3.27,3.27,0,0,1-3.22,3,9.07,9.07,0,0,0-4.89,1.45A14.74,14.74,0,0,0,77,53.81a18.7,18.7,0,0,0-3.78,10.25l-44.7-.37-5.29,0-2.58,0c-.4,0-.9,0-1.22,0a2.58,2.58,0,0,1-2.22-1.7,2.77,2.77,0,0,1-.16-1,9.9,9.9,0,0,0-.1-1.31,10.58,10.58,0,0,0-2-4.56,17.92,17.92,0,0,0-6.92-5.43A18.12,18.12,0,0,0,1.57,48q0-13.63,0-25.49,0-1.49,0-3a2.52,2.52,0,0,1,.88-2,2.46,2.46,0,0,1,1-.51,5.26,5.26,0,0,1,1.25-.11,12,12,0,0,0,2.93-.53A14.26,14.26,0,0,0,15.91,9.3h0l0,0c.15-.38.29-.71.43-1.12s.23-.72.34-1.17a21.58,21.58,0,0,0,.36-2.29.63.63,0,0,0,0-.08c0-1.4,1.11-3,2.25-3.23a2.13,2.13,0,0,1,.29,0h4.63l9.35,0,16.23-.1L73.21.92a17.08,17.08,0,0,0,1.89,6.63,24.35,24.35,0,0,0,3,4.68,16.58,16.58,0,0,0,5.53,4.52,7.93,7.93,0,0,0,3,.81,4.13,4.13,0,0,0,.72,0l-.42,0a6.78,6.78,0,0,1-1.18-.19,10.88,10.88,0,0,1-4.11-2.12,21.25,21.25,0,0,1-4.83-5.56,23,23,0,0,1-2-4.11,14.48,14.48,0,0,1-1-4.93.4.4,0,0,0-.4-.4L45.73.1,30,0,22,0H19.46a3.06,3.06,0,0,0-.61.1,3.57,3.57,0,0,0-1.1.53,5.09,5.09,0,0,0-2,3.95V4.51a13.18,13.18,0,0,1-1.05,4.18A12.39,12.39,0,0,1,4,15.5,4,4,0,0,0,.06,19.37q0,.84,0,1.66c0,2.17,0,4.29,0,6.34,0,8.22,0,15.38,0,20.8v.56a.78.78,0,0,0,.78.78,16.44,16.44,0,0,1,6.62,1.56A16.5,16.5,0,0,1,13.77,56a9.1,9.1,0,0,1,1.75,3.9,8.07,8.07,0,0,1,.1,1.09,4.41,4.41,0,0,0,.25,1.44A4,4,0,0,0,19.32,65c.54,0,.88,0,1.33,0h2.58l5.29,0,44.94-.17a.54.54,0,0,0,.54-.54,17.94,17.94,0,0,1,3.54-10.14c2.07-2.84,5.07-5,8.35-5a3.71,3.71,0,0,0,3.57-3.54Q89.45,43.23,89.45,41Z"/><path class="cls-1" d="M34.91,50a.79.79,0,0,0,1-.29C41.36,40.83,53.77,20,53.77,20s-6.41,9.46-12.26,18.27C47,26.94,49.7,20.92,51,17.8a16.83,16.83,0,0,0,2.75,1.87l-2.56-2.31a.35.35,0,0,0-.49,0l-.05.07h0C47.22,24,38.69,40.58,35.49,47.06l-.92,1.87A.78.78,0,0,0,34.91,50Z"/></svg>