<svg id="Layer_1" data-name="Layer 1" xmlns="http://www.w3.org/2000/svg" viewBox="0 0 87.3 58.75"><defs><style>.cls-1{fill:#231f20;}</style></defs><title>delivery</title><path class="cls-1" d="M2.47,39.63h0l51-.3a.44.44,0,0,0,.45-.44h0c-.09-12.68-.15-21.75-.15-21.75s-.14,9.21-.33,21.71L3.17,38.21c0-6.41.07-11.8.09-15.7,0-7.5,0-14.36,0-20.65,24.58-.41,40.17-.8,50-1.13.29,14.62.6,16.4.6,16.4s0-6.63.12-16.73a.41.41,0,0,0-.4-.41h0L2.47.39a.72.72,0,0,0-.71.72c0,8.71-.05,16.26-.07,21.39,0,4.07,0,9.66,0,16.38A.74.74,0,0,0,2.47,39.63Z"/><path class="cls-1" d="M67.43,46.57c-.19.36-.38.7-.53,1s-.23.77-.29,1.11l-.06.89a7.74,7.74,0,0,0,.11,1,5,5,0,0,0,1.4,2.63,4.46,4.46,0,0,0,1.71,1.1,3.27,3.27,0,0,0,2,.18l.2,0h.17a4.15,4.15,0,0,0,.92-.12,7.43,7.43,0,0,0,.86-.16c.27-.08.54-.22.85-.35a9.84,9.84,0,0,0,.89-.59,5.16,5.16,0,0,0,1.41-2,5,5,0,0,0,.32-1.29,6.29,6.29,0,0,0,0-1.43A5.4,5.4,0,0,0,72.12,44,5.78,5.78,0,0,0,67.43,46.57Zm5.42-.89h0a4.12,4.12,0,0,1,.75.29c.21.11.41.28.64.42a8.31,8.31,0,0,1,.61.6,3.92,3.92,0,0,1,.76,1.67A3.52,3.52,0,0,1,74.55,52a5.18,5.18,0,0,1-.64.46,5,5,0,0,1-.64.26,3.49,3.49,0,0,1-.57.13l-.57,0a3.42,3.42,0,0,1-2.65-1.36L69.14,51c-.06-.19-.13-.34-.2-.53l-.1-.7c0-.16,0-.33,0-.5a3.9,3.9,0,0,1,1.59-2.76,6.14,6.14,0,0,1,1.36-.76l.15-.09.17,0Z"/><path class="cls-1" d="M80.47,47.24a8.89,8.89,0,0,0-2.21-3.61,17.16,17.16,0,0,0-1.48-1.13,15.72,15.72,0,0,0-1.47-.71L74,41.42a7.64,7.64,0,0,0-1-.11l-.87-.07.86.13a7.1,7.1,0,0,1,1,.19l1.24.46c.44.2.88.51,1.36.79s.87.77,1.33,1.17a8.37,8.37,0,0,1,1.8,3.45A7.7,7.7,0,0,1,80,49.51v.27a1.25,1.25,0,0,0,0,.22l-.08.51a5,5,0,0,1-.19,1,7.48,7.48,0,0,1-.82,1.85,7.06,7.06,0,0,1-1.18,1.53A10.88,10.88,0,0,1,76.25,56a10.66,10.66,0,0,1-1.49.68,7.7,7.7,0,0,1-1.38.34l-1.27.12a7.84,7.84,0,0,1-6.19-3.24c-.25-.46-.53-.91-.75-1.35s-.31-.88-.44-1.33l-.18-1.47c0-.32.06-.83.08-1.21a7.73,7.73,0,0,1,1.61-3.87,7.86,7.86,0,0,1,2.25-2l.5-.33.49-.2.83-.36c.5-.18.88-.23,1.14-.32a2.55,2.55,0,0,0,.63-.23l-.84.06a6.8,6.8,0,0,0-1,.11l-1.33.38a15.68,15.68,0,0,0-1.47.72A16.66,16.66,0,0,0,66,43.63a8.94,8.94,0,0,0-2.21,3.58,8.33,8.33,0,0,0-.43,2.24l0,.29,0,.33,0,.54a5.67,5.67,0,0,0,.13,1.1,8.4,8.4,0,0,0,.81,2.23A8.15,8.15,0,0,0,65.6,55.8a8.7,8.7,0,0,0,13,0,8.09,8.09,0,0,0,1.27-1.86,8.56,8.56,0,0,0,.8-2.17,5.92,5.92,0,0,0,.15-1.16l0-.58a3.13,3.13,0,0,0,0-.35l0-.27A8.33,8.33,0,0,0,80.47,47.24Z"/><path class="cls-1" d="M12.25,46.57c-.19.36-.38.7-.53,1s-.23.77-.29,1.11,0,.58-.06.89a7.29,7.29,0,0,0,.11,1,5,5,0,0,0,1.4,2.64,4.45,4.45,0,0,0,1.71,1.1,3.28,3.28,0,0,0,2,.18l.24-.06.21,0,.65-.07.19,0a6.56,6.56,0,0,0,.87-.16,8.94,8.94,0,0,0,.85-.35,9.44,9.44,0,0,0,.89-.59,5.29,5.29,0,0,0,1.73-3.32,6.24,6.24,0,0,0,0-1.43A5.4,5.4,0,0,0,16.94,44,5.76,5.76,0,0,0,12.25,46.57Zm5.42-.89h0a3.92,3.92,0,0,1,.75.29,7.58,7.58,0,0,1,.64.42,8.12,8.12,0,0,1,.61.6,4,4,0,0,1,.76,1.67A3.52,3.52,0,0,1,19.37,52a5.32,5.32,0,0,1-.64.46,5.14,5.14,0,0,1-.65.26,3.5,3.5,0,0,1-.57.13l-.65.05a3.61,3.61,0,0,1-1.48-.42,3.56,3.56,0,0,1-1.09-.94L14,51c-.06-.19-.13-.34-.2-.53l-.1-.7c0-.16,0-.33,0-.5a3.9,3.9,0,0,1,1.6-2.77,6,6,0,0,1,1.35-.76l.15-.09.17,0Z"/><path class="cls-1" d="M87.23,46.35a3.33,3.33,0,0,0-1.34-1.55,1.67,1.67,0,0,0-.9-.29,1.05,1.05,0,0,1,.27.09,1.63,1.63,0,0,1,.48.39,3,3,0,0,1,.72,1.54,2.15,2.15,0,0,1-.84,1.37l-.07,0v0h-.13l-.21,0a7,7,0,0,0-.71,0H84A16.81,16.81,0,0,0,83.79,46c-.07,0,0-.28.16-.43a3.55,3.55,0,0,1,.39-.41c.5-.44.67-.6.64-.62h-.13a2.61,2.61,0,0,0-.43,0l-.36.09.17-.29-.18.29a2.36,2.36,0,0,0-.93.52,1.23,1.23,0,0,0-.32.49,1.19,1.19,0,0,0-.07.34l0,.2c0,.25,0,.51-.07.75l-.35.58s0,0,0,0a.27.27,0,0,1-.32.17.34.34,0,0,1-.16-.1l-.09-.12-.14-.21-.25-.42-.25-.45L81,46.17h0a.28.28,0,0,1-.16-.13h0l0,.06.06.12.13.23.25.45.26.42.14.21.1.12a.38.38,0,0,0,.21.12.32.32,0,0,0,.35-.19h0l0,0h0l.28-.48c0,.58-.09,1.12-.12,1.53a.68.68,0,0,0,.62.73h.11c.52,0,1,.05,1.27.05l.71,0h.52a1.43,1.43,0,0,0,.81-.46,2.86,2.86,0,0,0,.61-1.15A2.38,2.38,0,0,0,87.23,46.35Zm-1.69,1.58Zm.06.11-.05,0,0,0h0l0-.15h0S85.66,48,85.6,48Z"/><path class="cls-1" d="M58.17,27.33a1.91,1.91,0,0,0,.07.29s0-.11,0-.29l24.26.81a.52.52,0,0,0,.54-.5.51.51,0,0,0,0-.22v0c-2.09-4.8-4-9.22-5.31-11.9l-2-4.14a.78.78,0,0,0-.7-.45c-7.13,0-12.73.09-17.07.18h0a.58.58,0,0,0-.57.59c.25,11.52.66,14.78.82,15.64h0Zm.31-15.09,16,.2,1.73,3.72L81.45,27l-23.2.36C58.27,25.89,58.37,19.41,58.49,12.24Z"/><path class="cls-1" d="M82.27,47.54l0,0a.4.4,0,0,0,0-.1Z"/><path class="cls-1" d="M78.76,42a10.06,10.06,0,0,0-5.5-1.53,9.71,9.71,0,0,0-6.5,1.6,9.45,9.45,0,0,0-4,6.31L26.69,48a9.87,9.87,0,0,0-3.34-5.86L23.21,42,56.38,41a.74.74,0,0,0,.72-.74C57.06,29,57,19.28,57,10.7l12.85-.09,3,0h2.5l.2,0a.7.7,0,0,1,.31.21,3.89,3.89,0,0,1,.28.54l.58,1.2,1.12,2.31,7,14.38c.11,6,.22,9.69.31,11.88v0h0c-.76,2.6-.86,3.13-.86,3.13l1-3.07a.44.44,0,0,0,0-.1c0-2.38,0-6.38.06-11.92a.38.38,0,0,0,0-.16L77.67,12.5l-.55-1.18-.28-.6a2,2,0,0,0-.48-.7,1.59,1.59,0,0,0-.85-.39c-.34,0-.48,0-.73,0H73.43l-5.53,0L56.36,9.52a.56.56,0,0,0-.57.56h0c0,9.81-.08,19.94-.12,29.46l-35,1a9.81,9.81,0,0,0-8.13.27l-10.13.34a.75.75,0,0,0-.73.77.79.79,0,0,0,0,.22l.58,1.69,0,.05a.68.68,0,0,0,.69.46c.43,0,1.08.57,1.38,1.31a3.41,3.41,0,0,1,.14.43,3.49,3.49,0,0,0-1.2-1.3,1.68,1.68,0,0,0-.9-.29,1.08,1.08,0,0,1,.27.09,1.58,1.58,0,0,1,.48.4,3,3,0,0,1,.72,1.54,2.16,2.16,0,0,1-.84,1.37l-.07,0v0H2.92l-.21,0a6.91,6.91,0,0,0-.7,0H1.46A17.44,17.44,0,0,0,1.28,46c-.07,0,0-.28.16-.43a3.4,3.4,0,0,1,.39-.41c.5-.44.67-.6.64-.62H2.33a2.64,2.64,0,0,0-.43,0,2.56,2.56,0,0,0-1.3.62,1.24,1.24,0,0,0-.32.49A1.23,1.23,0,0,0,.21,46l0,.2L.12,47,0,48.58a.68.68,0,0,0,.62.73H.73c.52,0,1,.05,1.27.05l.7,0h.52A1.44,1.44,0,0,0,4,48.85a2.61,2.61,0,0,0,.51-.91,1.56,1.56,0,0,1,0,.17.69.69,0,0,0,.24,1,.67.67,0,0,0,.35.1H7.73a.71.71,0,0,0,.49-.2c0,.17,0,.34-.06.5l0,.29,0,.33,0,.54a5.75,5.75,0,0,0,.14,1.1,8.47,8.47,0,0,0,.81,2.23,8.17,8.17,0,0,0,1.27,1.86,9,9,0,0,0,6.52,2.94,9,9,0,0,0,6.52-2.94,8.1,8.1,0,0,0,1.27-1.86,8.45,8.45,0,0,0,.8-2.17,5.92,5.92,0,0,0,.15-1.16l0-.58c0-.12,0-.13,0-.35l0-.27a8.41,8.41,0,0,0-.42-2.17,8.91,8.91,0,0,0-2.21-3.61,17.51,17.51,0,0,0-1.49-1.13l-.74-.38.44,0a8.82,8.82,0,0,1,4.44,6.41.62.62,0,0,0,.61.53l36.48-.17a.45.45,0,0,0,.45-.39A9,9,0,0,1,67,42.38a9.4,9.4,0,0,1,6.28-1.63,9.82,9.82,0,0,1,5.41,1.41,5.45,5.45,0,0,1,2.07,3.78l.09,0A5.56,5.56,0,0,0,78.76,42ZM3.08,48l-.05,0,0,0H3c0-.09,0,.14,0-.15H3S3.14,48,3.08,48Zm9.5-5.69-.29.15a6.23,6.23,0,0,0-.63.45,8.71,8.71,0,0,1,.81-.6Zm-1.44,1h0ZM7.22,47.78H6c0-.28.06-.54.08-.81a4,4,0,0,0-.31-1.77,4.44,4.44,0,0,0-1-1.47A2.77,2.77,0,0,0,3.59,43l-.12-.37,6.78-.19A10,10,0,0,0,7.22,47.78Zm14.17-5A17.36,17.36,0,0,1,22.72,44a8.37,8.37,0,0,1,1.8,3.45,7.68,7.68,0,0,1,.26,2.08v.27a1.37,1.37,0,0,0,0,.22l-.08.51a5,5,0,0,1-.19,1,7.47,7.47,0,0,1-.82,1.85,7,7,0,0,1-1.18,1.53A10.93,10.93,0,0,1,21.07,56a10.82,10.82,0,0,1-1.49.68,7.67,7.67,0,0,1-1.38.34l-1.27.12a7.84,7.84,0,0,1-6.19-3.24c-.25-.46-.53-.91-.75-1.35s-.31-.88-.44-1.33l-.18-1.47c0-.32.06-.83.08-1.21a7.71,7.71,0,0,1,1.61-3.87,7.85,7.85,0,0,1,2.25-2l.5-.33.1,0,6.18-.17h.15C20.62,42.33,21,42.57,21.39,42.81Z"/><path class="cls-1" d="M81.35,46c.07-.24,0-.28,0-.26h0l-.52.16h0l.43-.13s0,.05,0,.15a.23.23,0,0,1-.23.16.22.22,0,0,1-.17-.09h0l0,.06.06.11A.33.33,0,0,0,81.35,46Z"/></svg>