<svg id="Layer_1" data-name="Layer 1" xmlns="http://www.w3.org/2000/svg" viewBox="0 0 99.05 78.47"><defs><style>.cls-1{fill:#231f20;}</style></defs><title>email</title><path class="cls-1" d="M1.76.2A.75.75,0,0,0,1,.95a.77.77,0,0,0,.32.62l48.39,34.1L3.33,1.48c18.37.24,36.36.43,46.59.43l45.6-.12C53.45,32.28,50.12,35.67,50.12,35.67L98.51,1.57a.75.75,0,0,0,.18-1A.77.77,0,0,0,98.08.2L49.92,0"/><path class="cls-1" d="M99,70.63C99,63.21,99,56.08,99,49.45c-.05-13.24-.1-34.43-.13-41.68a.36.36,0,0,0-.36-.36.37.37,0,0,0-.21.07l-8.48,6.11,8.56-6a.23.23,0,0,1,.36.18c-.07,7.65-.17,29.06-.29,42.35-.06,6.68-.12,13.84-.18,21.24A5.83,5.83,0,0,1,96,76a5.77,5.77,0,0,1-2.42,1.13,14.35,14.35,0,0,1-2.77.11l-11.5-.09-44.73-.31L15.4,76.79l-8.22,0a5.22,5.22,0,0,1-5.44-4.6c-.06-.51,0-1.25,0-1.89V66.34q0-3.9,0-7.68,0-7.55,0-14.6c0-8.82,0-27,0-34.76L49.37,43.08a.52.52,0,0,0,.6,0C86.23,16.73,89.78,13.58,89.78,13.58L49.67,42,1.28,7.17a.73.73,0,0,0-1.16.6C.09,19.13.06,40,0,49.69c0,4.84,0,9.38,0,13.5,0,2.07,0,4,0,5.88q0,1.4,0,2.71a6.88,6.88,0,0,0,.68,2.77,7,7,0,0,0,2.56,2.85,7,7,0,0,0,4,1.05h8.3l19.4,0L80,78.27l11.54,0a8.28,8.28,0,0,0,3-.37,6.68,6.68,0,0,0,4.17-4.29A8.66,8.66,0,0,0,99,70.63Z"/></svg>