<svg id="Layer_1" data-name="Layer 1" xmlns="http://www.w3.org/2000/svg" viewBox="0 0 70.4 89.15"><defs><style>.cls-1{fill:#231f20;}</style></defs><title>employee</title><path class="cls-1" d="M70.22,54.32c0-2.24,0-4.29,0-6.09a12.88,12.88,0,0,0-2.24-7.34c-.4-.57-.64-.85-.64-.85s.23.29.62.86A12.79,12.79,0,0,1,70,48.23c0,1.8,0,3.85-.08,6.09-.11,9-.25,21.11-.4,33.79L58,88c.06-6.17.12-12.28.18-18,0-3,0-5.89.07-8.66,0-.7,0-1.39,0-2.07v-1c0-.37,0-.6,0-1.09a3.51,3.51,0,0,0-3.46-3,.73.73,0,0,0-.73.72h0c-.06,5.7-.11,10.54-.15,14.3,0,6.53-.07,12.66-.1,18.44l-17.59,0c6-22.76,10-38,12.51-48.24C51,38,53.45,37.27,55,35.71a29.65,29.65,0,0,1,4.68.12A13.09,13.09,0,0,1,66.17,39c.47.41.76.7.92.86l.22.21a12,12,0,0,0-1.58-1.65,12.8,12.8,0,0,0-5.94-3h0a11.85,11.85,0,0,0-2.17-.21l-2.65,0a.35.35,0,0,0-.26.11l0,0A10.08,10.08,0,0,1,51.82,37a34.65,34.65,0,0,0-3.64,1.84.36.36,0,0,0-.16.21v0L35.13,86.24,18,36.35,34.68,87.87l0,.16-18.15-.19c.09-13.33.17-25.16.23-33a.78.78,0,0,0-.78-.79h-3a.79.79,0,0,0-.79.79h0c0,12.24,0,23.1,0,32.78l-10.87,0L1.06,54.19c0-2.11-.05-4.1-.08-6a7.52,7.52,0,0,1,1.47-4.59,16.31,16.31,0,0,1,5.94-4.8A25.21,25.21,0,0,1,16,36.35c1.38-.19,1.7-.2,1.7-.2s-.51,0-1.46.06a21.93,21.93,0,0,0-4,.72,23.75,23.75,0,0,0-5.87,2.44,12.93,12.93,0,0,0-5.64,6,7.64,7.64,0,0,0-.51,2.33c0,.81,0,1.57,0,2.37q0,2.4,0,4.94c0,3.38,0,6.94-.06,10.61C.08,72.94,0,80.72,0,88.4A.64.64,0,0,0,.63,89h0l12.31.05a.69.69,0,0,0,.69-.69h0c0-13,.08-24.8.1-32.72h1.4c0,8,.06,19.77.1,32.72a.69.69,0,0,0,.68.69h0L35,89l.1.05.18,0,19.31.08a.75.75,0,0,0,.75-.75c.06-7.68.12-14.32.16-19.21,0-3.58,0-8.11.06-13.39a2,2,0,0,1,1.25,1.47c0,1.3,0,2.64,0,4,0,2.78,0,5.68,0,8.66,0,5.93.05,12.18.08,18.47a.62.62,0,0,0,.62.63h0L69.84,89a.56.56,0,0,0,.56-.56h0C70.33,75.52,70.27,63.31,70.22,54.32Z"/><path class="cls-1" d="M40.32,49.85l.72-.77a3.49,3.49,0,0,0,.7-.9,3,3,0,0,0,0-2.06,6.5,6.5,0,0,0-.61-1.36,4.58,4.58,0,0,0-.82-1.07A4.45,4.45,0,0,1,41,44.84a6.45,6.45,0,0,1,.44,1.37A2.76,2.76,0,0,1,41.31,48c-1.68,1.64-4,3.57-6,5.38-1.17-1.3-2.22-2.43-3-3.17l-1.7-1.68c-.25-.25-.58-.57-.74-.74a.8.8,0,0,1-.13-.49,5,5,0,0,1,1-2.66,6.38,6.38,0,0,0,1.37-.19c.51-.12,1-.26,1.39-.38a6.88,6.88,0,0,1,2.12-.42c1.27.08,2.25.28,2.92.29,1.37,0,1.48-.31,1.5-.28h-.22a3.65,3.65,0,0,1-.56,0,18.74,18.74,0,0,1-2.12-.51,11.94,11.94,0,0,0-1.51-.33,5.64,5.64,0,0,0-1.79.11,12.61,12.61,0,0,1-3.33.45h0a.62.62,0,0,0-.52.18,6.25,6.25,0,0,0-1.39,2.3,5.07,5.07,0,0,0-.29,1.31,2.36,2.36,0,0,0,.35,1.52,3.91,3.91,0,0,0,.43.49l.35.37.67.69,1.12,1.14c.65.66,1.6,1.57,2.68,2.6a1.49,1.49,0,0,1-.56-.16A1.45,1.45,0,0,0,34,54l.78.75,0,0a.69.69,0,0,0,1,0h0l.53-.56h0a.13.13,0,0,1,.12.08l3.36,8.21c-1.68,5.33-3.5,11.25-4.53,14.91-1.84-6.74-3.25-11.54-4.3-14.93,2.11-7.6,1.93-8.54,1.93-8.54L30,62.29a.45.45,0,0,0,0,.25v0c1.45,5.9,3.35,13.53,4.52,18a.78.78,0,0,0,1.52,0h0L36.42,79c.93-3.45,2.65-10.33,4.15-16.43v0a.53.53,0,0,0,0-.35l-3.93-8.06v0a.33.33,0,0,0-.16-.15l2.37-2.5Z"/><path class="cls-1" d="M15.49,22.55l-.12-1.08h0v0a21.35,21.35,0,0,1,2.71-9.85,21.86,21.86,0,0,1,5.08-6.16,19,19,0,0,1,7.94-4,18.44,18.44,0,0,1,9.12.33A19.17,19.17,0,0,1,52.34,12.31a19.28,19.28,0,0,1,1.58,5.85,18.85,18.85,0,0,1-1.44,9.49,19,19,0,0,1-18,11.5,19.28,19.28,0,0,1-9.93-3.08A20,20,0,0,1,19.17,31a21.26,21.26,0,0,1-3.27-6.9l-.33-1.23-.09-.28a17.86,17.86,0,0,0,.32,2,19.85,19.85,0,0,0,1.88,5.17,20.07,20.07,0,0,0,24.36,9.52A20.27,20.27,0,0,0,55.5,18,20.26,20.26,0,0,0,40,.52a19.11,19.11,0,0,0-9.79.25,20,20,0,0,0-8,4.73,22.37,22.37,0,0,0-4.73,6.57,21.35,21.35,0,0,0-2.09,9.37v0Z"/></svg>