<svg id="Layer_1" data-name="Layer 1" xmlns="http://www.w3.org/2000/svg" viewBox="0 0 114.73 126.14"><defs><style>.cls-1{fill:#231f20;}</style></defs><title>exceptional_client_service</title><path class="cls-1" d="M100.75,78.8l.35-3.44c0-.5,0-1-.06-1.6l7.13-.32,1.76-.1.83-.05a.63.63,0,0,1,.35.08.6.6,0,0,1,.2.22c0,.06,0,0,0,.08l0,.14s0,.1,0,.11c.05.54.09.89.11,1.17.17,1.37.32,2.65.48,4-4.23.89-7,1.59-8.88,2.12a1.12,1.12,0,0,1-1.27-.8v0c-.78-1.3-1-1.43-1-1.43l.58,1.56A1.72,1.72,0,0,0,103.2,82h0L113,80.41a.72.72,0,0,0,.61-.78v0c-.21-2.19-.37-3.77-.46-4.68,0-.33-.09-.71-.14-1.17a2,2,0,0,0,0-.24l0-.17a2.38,2.38,0,0,0-.24-.57,2.14,2.14,0,0,0-.88-.79,2.17,2.17,0,0,0-1.2-.18l-.83.11-1.74.24-7.13,1h0a.48.48,0,0,0-.4.54h0c.09.58.17,1.14.25,1.66C100.74,77.38,100.75,78.8,100.75,78.8Z"/><path class="cls-1" d="M114.71,113.48a3.8,3.8,0,0,0-.08-1.07,2,2,0,0,0-.47-.83,1.94,1.94,0,0,0-1.5-.66,1.94,1.94,0,0,1,1.51.71,2,2,0,0,1,.43.84,4.35,4.35,0,0,1,0,1.05c0,.72,0,1.55,0,2.48a.23.23,0,0,1-.23.23h0c-18.84-.25-81.08-1.06-104.27-1.06a.93.93,0,0,1-.7-.33.87.87,0,0,1-.18-.35,1.72,1.72,0,0,1,0-.51c0-.68,0-1.32,0-2,96.23,0,103.45-1.13,103.45-1.13l-64.33-.31a.75.75,0,0,0,.33-.57h0a28.81,28.81,0,0,0-.59-7.65,28.45,28.45,0,0,1,1.56,7.6V110a.6.6,0,0,0,.59.55l22.35-.07a.52.52,0,0,0,.52-.49v0a27.64,27.64,0,0,1,3.31-11.7A23.79,23.79,0,0,0,75.2,102a27.89,27.89,0,0,0-.69,5.89c0,.69,0,1.21,0,1.56s0,.52,0,.52,0-.18,0-.52,0-.88,0-1.57A27.93,27.93,0,0,1,75.3,102a22.13,22.13,0,0,1,1.88-5.07c.32-.49.65-1,1-1.42a19.6,19.6,0,0,1,11.39-7.21.42.42,0,0,0,.32-.5.42.42,0,0,0-.5-.32,18.11,18.11,0,0,0-10.26,6.15l0,.06a18.35,18.35,0,0,0-1.33,1.54,27.12,27.12,0,0,0-5.32,14.57l-21.92-.16a27.67,27.67,0,0,0-4.65-13.95A19.14,19.14,0,0,0,43,92.48a16.77,16.77,0,0,0-2.49-2.18,19.79,19.79,0,0,0-7.12-3.07h0a.69.69,0,0,0-.3,1.34h0a19.74,19.74,0,0,1,6.74,2.83,16.17,16.17,0,0,1,4.59,5.2,24.2,24.2,0,0,1,2.73,12.68l-35.69-.13v-.25q0-6.8,0-13.25a9,9,0,0,1,8.61-9.6H29l11.29,0,39.19-.1,16.23-.07c2.51,0,5-.06,7.29,0a9.27,9.27,0,0,1,8.48,7.84,21.68,21.68,0,0,1,.12,2.93q0,1.47,0,2.89c0,3.6.06,7,.09,10.11-32.94.31-36.83.67-36.83.67l37.19.13a.45.45,0,0,0,.45-.44h0c0-2.65,0-5.4,0-8.24q0-2.13,0-4.33a22.35,22.35,0,0,0-.22-4.54,10.35,10.35,0,0,0-5.86-7.28,10.76,10.76,0,0,0-4.83-.92h-.69a.52.52,0,0,0,.12-.41l-1.55-8.85-.76-4.32a21.84,21.84,0,0,0-1.47-4.19,26.87,26.87,0,0,0-8-10l.4.09.79.46.11-.26h.06a.06.06,0,0,0,.08,0,.07.07,0,0,0,0-.07l-.05,0,.11-.26-1-.24-4-2.26-.17-.23,7.2,2.11a.41.41,0,0,0,.33-.74L87.2,51.86l.19-.46a.3.3,0,0,0-.16-.39A.31.31,0,0,0,87,51a1.12,1.12,0,0,0-.38.29l0-.21a4.33,4.33,0,0,0-.56.06h0l2.26-7.75a.36.36,0,0,0-.24-.45.36.36,0,0,0-.41.16l-4.18,7.15L75.5,47.93l7.9,2.39-.09.16.12,0,.05-.08.09,0,.12,0-.17,0,4.23-7.09A.2.2,0,0,1,88,43.1a.2.2,0,0,1,.09.23L85.8,51l0,0,0,.08-.05.17h0l-.09-.06,0,.11a1.35,1.35,0,0,0-.19.18l.17.21-.29,0a.4.4,0,0,0,0,.78l.78.16a.74.74,0,0,0,.42,0,1.2,1.2,0,0,0,.55-.56l5.83,3.63a.1.1,0,0,1-.08.17L85,53.51h0l-.27-.08-.14.23-1.79-1-1-.6a.37.37,0,0,0-.11,0c-5.32-3-6.4-3.52-6.4-3.52l6.05,3.58L77.6,54l-23.09-.08-6.4,0c-1.09,0-2.16,0-3.31,0a21.25,21.25,0,0,0-3.37.5,24.89,24.89,0,0,0-8.92,4.08h-.13a.75.75,0,0,0-.58.37l-.18.33a22.52,22.52,0,0,0-2.11,1.91.52.52,0,0,0-.17.09,23.48,23.48,0,0,0-3,4.11l-.33.09a.55.55,0,0,0-.35.27,16.75,16.75,0,0,0-1.52,4.58c-.37,1.58-.57,3.1-.87,4.67l-.46,2.6c-.14-.82-.27-1.54-.37-2.13.08-.59.14-1.06.19-1.44,0,0,0-.07,0-.12v0a.81.81,0,0,0-.71-.9h0l-4.74-.45-3-.25L12.71,72l-.38,0a1.62,1.62,0,0,0-.6,0,1.61,1.61,0,0,0-.83.79,10.55,10.55,0,0,0-1,2.78A7.08,7.08,0,0,0,10,78a6,6,0,0,0,.46,1.62,1.21,1.21,0,0,0,.37.46.65.65,0,0,0,.27.1l9.61,2.18a.63.63,0,0,0,.75-.47v-.09c.09-.61.18-1.19.26-1.76l.89-1.89-1,5.48-.14.48h.05a.57.57,0,0,1,0,.08.61.61,0,0,0,0,.21H19.88a10.6,10.6,0,0,0-9.59,7.67A12.72,12.72,0,0,0,9.88,96c0,4.83,0,9.16,0,12.88V110a.79.79,0,0,0,.14.43H8.37a.81.81,0,0,0-.82.81h0c0,1.24,0,2.31,0,3.26a2.57,2.57,0,0,0,2.55,2.35l7.57,0a.47.47,0,0,0-.34.38.49.49,0,0,0,0,.19l1.87,6.51L18,117.41c5,1,11.51,2.32,14.57,2.76l1.56.22a9.33,9.33,0,0,1-.83,2.62c-.44,1-1.17,1.76-1.63,1.76-11.11-1.25-12.19-.65-12.19-.65l12.1,2h.09A2.9,2.9,0,0,0,33.81,125a7.85,7.85,0,0,0,1.09-1.74,9.35,9.35,0,0,0,.94-3.54.77.77,0,0,0-.66-.79h0l-2.33-.35c-3-.43-9.42-1.17-14.44-1.74l96-.44a.34.34,0,0,0,.34-.34h0C114.72,115,114.72,114.2,114.71,113.48ZM89.45,87.83a.07.07,0,1,1,0,.14h0a20.56,20.56,0,0,0-7.75,3.42A18.72,18.72,0,0,1,89.45,87.83Zm-8,3.77-.26.21ZM11.13,80.23a.58.58,0,0,1-.25-.12,1.09,1.09,0,0,1-.32-.48A5.77,5.77,0,0,1,10.28,78a7,7,0,0,1,.15-2.31,10.15,10.15,0,0,1,1.16-2.47c.12-.17.32-.37.39-.37s0,0,0,0h0s0-.06,0,0H12l.18,0,.37.07,1.49.27,2.92.52c1.48.25,2.82.47,3.89.61l-.1.87h0a.82.82,0,0,0,0,.25l.43,2.1-.83,2v0a.65.65,0,0,0,0,.19L20.24,81C12.07,79.71,11.14,80.22,11.13,80.23Zm11.76,4.25L23,84l3.79-12.56a59.55,59.55,0,0,1,3-6l.64-1.16.12.13A2.39,2.39,0,0,1,31,65v0l-.18.09.2,0c.11.32.16.45.18.45a1.28,1.28,0,0,0,.14-.21,1,1,0,0,0,0-.18l.18.27c.12.17.29.38.5.64l.08.09a.77.77,0,0,0,.22.18c0,.53.09,1,.13,1.57l-.16.07a1.09,1.09,0,0,0,0-.66s-2.75,1.84-3.55,2.58l1.11,1.21a11.61,11.61,0,0,0,2-2.21l.62-.76c.17,2.12.34,4.24.51,6.33l0,.24h0l0,.15-.06.11,0,.08a.68.68,0,0,0,0,.14.71.71,0,0,0,.23.53.72.72,0,0,0,.83.1.77.77,0,0,0,.17-.13l.06-.08,0,0,0,0a49.43,49.43,0,0,0-2.3,8.35.76.76,0,0,0,.13.58Zm24.37-4.18a1,1,0,0,0-.56.08l.31.54-.34.18-.52-1.59a.8.8,0,0,0-.22-.33,3,3,0,0,0,.59-1s0,0,0-.07l.33-.78h0l0,.51c0,.34,0,.62.05.9a.65.65,0,0,0,.53-.34l.25-.22-.1-.16a1.31,1.31,0,0,0,0-.18L50,79.33l-2.1,1.12-.71-.5ZM43,77l1,.89a.8.8,0,0,0-.12.48.84.84,0,0,0,.15.41l.19.26a.82.82,0,0,0,.33.27l-2.13,1.63-8.79,2a45,45,0,0,1,4.45-12.51.78.78,0,0,0,.07-.2s.06-.06.08-.09l.05-.1a1,1,0,0,0,.05-.13.72.72,0,0,0,0-.2,83,83,0,0,1,6.29-6.61,43,43,0,0,1,6.18-4.91,54,54,0,0,0-5.8,10.53,46.17,46.17,0,0,0-2.34,7.44A.83.83,0,0,0,43,77ZM32.11,63.45c-.28-.35-.54-.66-.78-.92l.62-1.08C32,62.12,32.06,62.78,32.11,63.45Zm3.58,1,.09,0a1.7,1.7,0,0,0-.07.33C35.71,64.6,35.7,64.51,35.69,64.41Zm8-2.5a84.26,84.26,0,0,0-6.17,6.52L36,66.3a.69.69,0,0,0-.17-.16c0-.37-.06-.75-.09-1.12h0s2.75-1.84,3.55-2.58l-1.12-1.21a11.49,11.49,0,0,0-1.94,2.2l-.56.69c-.11-1.36-.23-2.75-.35-4.21a18.3,18.3,0,0,1,9.91-3.23h5.09A42.58,42.58,0,0,0,43.7,61.91ZM36.22,70l-.06.07V70ZM96.83,84.67l-39.64-.12-23.06,0,8.88-2a.8.8,0,0,0,.31-.14l1.58-1.2.12.06.43,1.33a.8.8,0,0,0,1,.52l.13-.06,1.3-.69a5.16,5.16,0,0,0,.43.58l1.21-1.11c-.08-.09-.15-.14-.23-.22L52,80.1A.81.81,0,0,0,52.31,79a.86.86,0,0,0-.28-.3L46.89,75.4a.81.81,0,0,0-1.12.24l-.07.13-.42,1-.81-.69a44.81,44.81,0,0,1,2.13-6.71,51.64,51.64,0,0,1,7.48-12.7h3l23.77-.05-1.15,3.94a.65.65,0,0,0,.44.81.66.66,0,0,0,.75-.29L84,55.73l.44.09,1.81,3.27a.61.61,0,0,0,.59.32,20.67,20.67,0,0,1,8.89,10.92L100,84.52a.51.51,0,0,0,.09.16Zm-15.27-32,.76.44L79,54Zm1.52.92a.39.39,0,0,0,.27-.35l.82.49s-.07,0-.11,0a.4.4,0,0,0-.15.15L83.26,55c-.95-.22-1.93-.46-3-.67Zm2.85,1.72h0c.31.16.6.35.9.52l-1.36-.33-.55-1c0-.11,0-.21,0-.32l.35.21Zm-1,0,0,0v0Zm11.8,11.84a21.59,21.59,0,0,1,1.38,4l.72,4.33c.31,1.84.62,3.72.93,5.59L96.56,70a21.55,21.55,0,0,0-9.16-11.43l0-.14-.08.06L87,58.31l-1.19-2.2,2.27.52A26,26,0,0,1,96.76,67.17Zm-8.5-11L88,56l.41.24Zm-.91-.57c-.37-.22-.74-.45-1.12-.64l0,0Zm-44.41-.49a42.25,42.25,0,0,1,6.73-.3l6.41,0,21.62-.14a.3.3,0,0,0,.14,0l.4-.21s0,0,0,0a.2.2,0,0,0,.17.15h0l.09,0,0,.15.34-.09c1.45.26,2.8.53,4.1.8l-1.18,2,.42-1.4a.46.46,0,0,0-.31-.57l-.13,0-24.56-.12h-3l0-.05a.81.81,0,0,0-.8-.13l-.4.17-7.65,0A19.8,19.8,0,0,0,34.13,59a.68.68,0,0,0-.29.62c.22,2.81.43,5.53.64,8.21l0,.22a.72.72,0,0,0,.09.45c.09,1.22.19,2.46.29,3.65l-.47.65q-.35-4.17-.69-8.19s0,0,0-.08a.27.27,0,0,0,0-.09c-.14-1.71-.29-3.42-.43-5.09A23.63,23.63,0,0,1,42.94,55.16ZM25.34,70.31a16.07,16.07,0,0,1,1.23-3.89l.26-.07a.63.63,0,0,0,.38-.29,23.24,23.24,0,0,1,2.53-3.59Q29,63.81,28.3,65.14a42.82,42.82,0,0,0-3,6.41l-.53,1.79C24.94,72.3,25.11,71.27,25.34,70.31ZM22.84,84.46h0Z"/><path class="cls-1" d="M112.66,110.92h0Z"/><path class="cls-1" d="M105.07,118.89h0l-2.33-.35c-3.11-.44-9.82-1.22-14.89-1.79h0a.5.5,0,0,0-.55.44.43.43,0,0,0,0,.19l1.87,6.51-1.22-6.47c5,1,11.51,2.32,14.58,2.76l1.56.22a9.36,9.36,0,0,1-.83,2.62c-.45,1-1.18,1.77-1.64,1.76-11.11-1.26-12.19-.65-12.19-.65l12.09,2h.09A2.9,2.9,0,0,0,103.7,125a7.85,7.85,0,0,0,1.09-1.74,9.35,9.35,0,0,0,.94-3.54A.77.77,0,0,0,105.07,118.89Z"/><path class="cls-1" d="M31.29,96.64a7.65,7.65,0,0,0-1.92-3.11,14.25,14.25,0,0,0-1.28-1A13.13,13.13,0,0,0,26.82,92l-1.12-.31a5.88,5.88,0,0,0-.87-.09l-.75-.05.74.12a6.14,6.14,0,0,1,.84.17l1.05.4c.38.17.74.45,1.15.69a14.54,14.54,0,0,1,1.12,1,7.09,7.09,0,0,1,1.49,2.94,6.49,6.49,0,0,1,.2,1.76,8.75,8.75,0,0,1-.27,1.69,6.75,6.75,0,0,1-1.7,2.81,9.46,9.46,0,0,1-1.19.93,9.08,9.08,0,0,1-1.24.56,6.4,6.4,0,0,1-1.14.28l-1.06.1a6.56,6.56,0,0,1-5.14-2.68c-.21-.39-.44-.76-.63-1.12l-.37-1.09-.16-1.25c0-.24,0-.68.06-1a6.53,6.53,0,0,1,1.32-3.25A6.77,6.77,0,0,1,21,92.83a8.44,8.44,0,0,1,2.49-1.1,1.87,1.87,0,0,0,.53-.23l-.71.05a5.9,5.9,0,0,0-.84.09L21.35,92c-.41.15-.81.39-1.26.61a14.6,14.6,0,0,0-1.28,1,7.69,7.69,0,0,0-1.92,3.08,7.54,7.54,0,0,0-.25,3.88,7.7,7.7,0,0,0,7.44,6.12,7.69,7.69,0,0,0,7.43-6.06,5.34,5.34,0,0,0,.12-1,4.54,4.54,0,0,0,0-1A7.34,7.34,0,0,0,31.29,96.64Z"/><path class="cls-1" d="M96.83,90.79l-1.29.33a16,16,0,0,0-1.47.66,17.67,17.67,0,0,0-1.51,1.08,8.91,8.91,0,0,0-2.31,3.55,8.29,8.29,0,0,0-.49,2.22,5.3,5.3,0,0,0,0,1.21,5.94,5.94,0,0,0,.12,1.19,8.7,8.7,0,0,0,.77,2.25,8.22,8.22,0,0,0,1.27,1.95,9.19,9.19,0,0,0,6.75,3.14,9.59,9.59,0,0,0,7.75-4.16c.32-.59.63-1.15.89-1.72s.38-1.23.5-1.8.08-1,.12-1.55a14.13,14.13,0,0,0-.16-1.6,8.55,8.55,0,0,0-2.26-4.45,7.81,7.81,0,0,0-2.83-2l-.6-.26-.58-.13-.94-.18a7,7,0,0,0-1.23,0,2.7,2.7,0,0,0-.7.11h0l-.84,0A6.87,6.87,0,0,0,96.83,90.79Zm1.84-.11.85.11a6.79,6.79,0,0,1,1,.16l1.2.41c.43.18.87.48,1.35.75s.88.73,1.35,1.12a8.35,8.35,0,0,1,1.9,3.41,7.47,7.47,0,0,1,.31,2.05l0,.26s0,.15,0,.22l-.07.56a5.14,5.14,0,0,1-.18,1.09,8.25,8.25,0,0,1-2,3.45,8.09,8.09,0,0,1-5.73,2.45l-1.33-.13a7.83,7.83,0,0,1-1.43-.37,11.07,11.07,0,0,1-1.53-.74,10.89,10.89,0,0,1-1.44-1.2,7.22,7.22,0,0,1-1.18-1.6,7.59,7.59,0,0,1-.79-1.91,5.15,5.15,0,0,1-.17-1,4.77,4.77,0,0,1-.08-1,7.72,7.72,0,0,1,.32-2.13,8.33,8.33,0,0,1,1.88-3.38c.47-.39.89-.82,1.35-1.13s.92-.56,1.36-.75l1.23-.42a6.67,6.67,0,0,1,1-.15Z"/><path class="cls-1" d="M69.79,97.54a1.69,1.69,0,0,0,0-.76,1.5,1.5,0,0,0-.5-.76,1.44,1.44,0,0,0-.4-.24,2,2,0,0,0-.41-.11l-.54,0c-.6,0-1.13,0-1.56,0a.82.82,0,0,0-.82.82h0v0c0,.16,0,.3,0,.46a.8.8,0,0,0,0-.12A1.52,1.52,0,0,0,65,96a1.5,1.5,0,0,0-.4-.24,1.93,1.93,0,0,0-.41-.11l-.54,0c-.6,0-1.13,0-1.56,0a.82.82,0,0,0-.82.82h0v0c0,.17,0,.31,0,.48a1.05,1.05,0,0,0,0-.14,1.53,1.53,0,0,0-.5-.76,1.48,1.48,0,0,0-.4-.24,2,2,0,0,0-.41-.11l-.54,0c-.6,0-1.13,0-1.56,0a.82.82,0,0,0-.82.82h0v0c0,.16,0,.3,0,.46a.8.8,0,0,0,0-.12,1.52,1.52,0,0,0-.5-.76,1.6,1.6,0,0,0-.4-.24,2,2,0,0,0-.41-.11l-.54,0c-.6,0-1.13,0-1.56,0a.82.82,0,0,0-.82.82h0v0c0,3.45.08,6,.21,7.94.06,1,.13,1.75.21,2.41l0,.24a1.38,1.38,0,0,0,.07.31,1.14,1.14,0,0,0,.33.47,1.05,1.05,0,0,0,.84.25h0a7,7,0,0,0,1.16-.68v0a.8.8,0,0,0,.22-.21l-.19,0c.1-.7.43-2.93.76-5.2L57,97.66c0,2.82.09,5,.2,6.71.06,1,.13,1.75.21,2.41l0,.24a1.4,1.4,0,0,0,.07.31,1.15,1.15,0,0,0,.33.47,1,1,0,0,0,.84.25h0a7,7,0,0,0,1.16-.68v0a.8.8,0,0,0,.22-.21l-.19,0c.1-.7.43-2.93.76-5.2l.56-4.36c0,2.83.09,5,.2,6.73.06,1,.13,1.75.21,2.41l0,.24a1.38,1.38,0,0,0,.07.31,1.14,1.14,0,0,0,.32.47,1,1,0,0,0,.84.25h0a7.17,7.17,0,0,0,1.16-.68v0c.18-.15.21-.21.21-.21l-.19,0c.1-.7.43-2.93.76-5.2.2-1.56.41-3.12.56-4.34,0,2.82.09,5,.2,6.71.06,1,.13,1.75.21,2.41l0,.24a1.33,1.33,0,0,0,.07.31,1.17,1.17,0,0,0,.32.47,1.06,1.06,0,0,0,.84.25h0a6.84,6.84,0,0,0,1.16-.68v0c.19-.15.22-.21.22-.21l-.19,0,.76-5.2ZM55.61,97.2h0Zm-1.16,10.29a.44.44,0,0,1-.39-.42c0-.46,0-.95.06-1.45,0-1.11.1-2.28.14-3.37.08-1.89.14-3.72.16-5h1.19l0,0s0,0,0,.24c0,1.28,0,2.9,0,4.48,0,2.33,0,4.56,0,5.25Zm4.25,0a.45.45,0,0,1-.39-.43c0-.46,0-.94.06-1.45,0-1.11.1-2.28.14-3.37.08-1.89.14-3.72.16-5h1.18s0,0,0,0,0,0,0,.24c0,1.28,0,2.9,0,4.48,0,2.33,0,4.56,0,5.25Zm4.25,0a.44.44,0,0,1-.39-.42c0-.46,0-.95.06-1.45,0-1.11.1-2.28.14-3.37.08-1.89.14-3.72.16-5H64.1s0,0,0,0,0,0,0,.24c0,1.28,0,2.9,0,4.48,0,2.33,0,4.56,0,5.25Zm4.25,0a.45.45,0,0,1-.39-.42c0-.46,0-.95.06-1.45,0-1.1.1-2.28.14-3.37.08-1.9.14-3.72.16-5h1.18s0,0,0,0,0,0,0,.25c0,1.28,0,2.9,0,4.48,0,2.33,0,4.56,0,5.25Z"/><path class="cls-1" d="M32.36,98.78s0-.33,0-.84a7.2,7.2,0,0,0-.08-1l-.33-1.29c-.15-.47-.43-.94-.66-1.47a18.09,18.09,0,0,0-1.08-1.51,8.94,8.94,0,0,0-3.55-2.31,8.48,8.48,0,0,0-2.22-.49l-.28,0h-.33l-.59,0A6.08,6.08,0,0,0,22,90a8.75,8.75,0,0,0-2.25.77A8.31,8.31,0,0,0,17.82,92a11.89,11.89,0,0,0-1.5,1.64,11.74,11.74,0,0,0-1,1.83,9.79,9.79,0,0,0-.51,1.79c-.06.57-.11,1-.16,1.41a9.52,9.52,0,0,0,4.15,7.83c.59.32,1.15.64,1.72.89s1.23.38,1.8.5l1.54.12a14.76,14.76,0,0,0,1.6-.16A8.57,8.57,0,0,0,30,105.64a7.79,7.79,0,0,0,2-2.82l.26-.6.12-.58.18-.94a7.11,7.11,0,0,0,0-1.23,2.55,2.55,0,0,0-.11-.7Zm-.11.86a7.09,7.09,0,0,1-.16,1l-.41,1.2c-.18.43-.48.87-.75,1.35s-.74.88-1.12,1.35a8.35,8.35,0,0,1-3.41,1.89,7.53,7.53,0,0,1-2.05.31l-.26,0-.22,0-.56-.07a5.16,5.16,0,0,1-1.09-.18,8.27,8.27,0,0,1-3.45-2,8.17,8.17,0,0,1-2.44-5.65l.13-1.41A7.89,7.89,0,0,1,16.83,96a11.05,11.05,0,0,1,.74-1.53,11.23,11.23,0,0,1,1.2-1.44,7.2,7.2,0,0,1,1.6-1.18,7.66,7.66,0,0,1,1.91-.79,5.05,5.05,0,0,1,1-.17l.52-.07c.06,0,.24,0,.2,0l.28,0a7.66,7.66,0,0,1,2.12.32,8.4,8.4,0,0,1,3.38,1.88c.39.47.82.89,1.12,1.35s.56.92.75,1.36L32.1,97a7.47,7.47,0,0,1,.16,1c.07.52.1.81.1.83S32.32,99.13,32.25,99.64Z"/><path class="cls-1" d="M93,93.71a7.84,7.84,0,0,0-1.78,3.5,5,5,0,0,0-.12,1l0,.5a2.1,2.1,0,0,0,0,.31l0,.23a7.23,7.23,0,0,0,.37,1.86,7.71,7.71,0,0,0,1.92,3.11,15.38,15.38,0,0,0,1.28,1c.46.22.86.47,1.26.61l1.12.31a6,6,0,0,0,.87.09l.75.05-.74-.12a6,6,0,0,1-.84-.17L96,105.56c-.37-.17-.74-.45-1.15-.69a14.89,14.89,0,0,1-1.12-1,7.1,7.1,0,0,1-1.49-2.94,6.48,6.48,0,0,1-.2-1.76,8.26,8.26,0,0,1,.27-1.69A6.73,6.73,0,0,1,94,94.66a9.14,9.14,0,0,1,1.19-.93,9,9,0,0,1,1.24-.56,6.57,6.57,0,0,1,1.14-.28l1.06-.1a6.55,6.55,0,0,1,5.14,2.68c.21.38.45.76.63,1.12l.37,1.09c.05.41.11.83.16,1.25,0,.24,0,.68-.06,1a6.94,6.94,0,0,1-3.19,5,8.43,8.43,0,0,1-2.49,1.1,1.88,1.88,0,0,0-.54.23l.72-.05a5.78,5.78,0,0,0,.84-.09l1.15-.32c.41-.15.81-.39,1.26-.61a14.43,14.43,0,0,0,1.28-1,7.71,7.71,0,0,0,1.92-3.08,7.55,7.55,0,0,0,.24-3.88A7.56,7.56,0,0,0,93,93.71Z"/><path class="cls-1" d="M13.52,44.43,12,45.17l.58,0c-.38.4-.37.62-.37.62s3.87-.82,5.11-1.26l-.35-1-.2-.56A16.49,16.49,0,0,0,13.52,44.43Z"/><path class="cls-1" d="M10.58,48.29l-.85,1.4h0a1.53,1.53,0,0,0,1,.25l.51.07-.05-.22a1.42,1.42,0,0,0,.37-.31,6.67,6.67,0,0,0-1-1.19l8.17,2.57-8.39-3.19a0,0,0,0,0-.06,0L6.93,52.61,9,47a.63.63,0,0,0-.24-.74l0,0L6.47,44.7l2.61.86h0a.78.78,0,0,0,.91-.33l1.93-3.12c-.39,1.3-.74,2.46-1,3.5v0a.41.41,0,0,0,.18.46c7,4.07,8,4.2,8,4.2l-7.16-4.75,2.75-7.77.11-.18,0,0,.05-.15a.62.62,0,0,0-1.1-.55v0l-.09.13,0,0,0,.13L9.26,43.56c-.2-.92-.83-3.75-1.19-4.79l-.95.33-.61.21h0A16.37,16.37,0,0,0,8,42.61l.57,1.15L1.09,41.18a.82.82,0,0,0-.7,1.47h0l6.71,4.2c-1,.21-3.73.82-4.75,1.18l.36,1,.18.52A16.54,16.54,0,0,0,6.19,48.1l1.18-.58L5,55.1v0a.62.62,0,0,0,1.12.51l4.51-7.34ZM8.71,43.5a1.68,1.68,0,0,0,.39.3L9,43.91l-.3-.1C8.72,43.72,8.72,43.62,8.71,43.5ZM7.08,47.41A1.7,1.7,0,0,0,7.37,47l.13.08-.09.28Z"/><path class="cls-1" d="M64.3,74.83a6.58,6.58,0,0,0,1.22,1l.36-1,.2-.55a1.55,1.55,0,0,0-1,0l-.53,0,.1.21A1.41,1.41,0,0,0,64.3,74.83Z"/><path class="cls-1" d="M77.77,77.31h0l-.16-.1v0l-.07,0L71,72.93a1.23,1.23,0,0,0,.26-.06l.53,0-.1-.21a1.41,1.41,0,0,0,.31-.38,10,10,0,0,0-1-.84l2.23-6.83v0a.75.75,0,0,0-1.35-.63L67.55,71a1.29,1.29,0,0,0-.06-.6c0-.29,0-.53,0-.53l-.21.1a1.38,1.38,0,0,0-.38-.31,7.17,7.17,0,0,0-1,1.18L59.11,68.7h0a.47.47,0,0,0-.39.85L66.3,74.2l-3,8.39a.47.47,0,0,0,.83.42h0l4.62-7a1.41,1.41,0,0,0,0,.67c0,.29,0,.53,0,.53l.21-.1a1.37,1.37,0,0,0,.37.31,7.78,7.78,0,0,0,.93-1.13l6.47,2.27.09.06v0l.18.06a.75.75,0,0,0,.66-1.33ZM68.9,74.38h0a.66.66,0,0,0-.77.29c-1.16,1.9-2.15,3.54-3,5a45.19,45.19,0,0,0,1.28-5.43l.15.09-.15-.1a1.84,1.84,0,0,0,0-.26l-.08.22-7-4.86,8.22,3.09a.36.36,0,0,0,.42-.13l0,0L70.17,69c-.51,1.43-1,2.7-1.3,3.73h0a.82.82,0,0,0,.34,1l2.46,1.56Z"/><path class="cls-1" d="M20.45,49.57,26.89,49c-.45.49-2.16,2.36-2.67,3.12l1.37.91a10.91,10.91,0,0,0,1.34-2.55c.26-.54.46-1,.55-1.16l2.18,6.14-1.94-7a0,0,0,0,0,0,0l-4.29.12,4.15-1.19a.62.62,0,0,0,.45-.63v0c0-.41,0-.79,0-1.18l.38,1.14h0a.78.78,0,0,0,.81.53l2.06-.18-1.91.73,0,0a.4.4,0,0,0-.25.42c.82,6.51,1.28,7.2,1.28,7.2l-.34-6.43a1,1,0,0,0,.26.21l.31.3.11-.17a1.62,1.62,0,0,0,.48,0,5.67,5.67,0,0,0,.15-1.2l4.92-1.51.21,0v0l.15,0a.62.62,0,0,0-.22-1.21h-.18v0l-.12,0-5.92.34a36.9,36.9,0,0,0,2.44-2.86l-1.37-.92a11,11,0,0,0-1.34,2.55l-.36.75-1.87-5.89h0a.82.82,0,0,0-1.6.33l.52,6.16c-.72-.65-2.18-2-2.83-2.4l-.61.91-.31.46a10.81,10.81,0,0,0,2.55,1.33l.79.38-5.87,2.05h0a.62.62,0,0,0,.26,1.2Zm9.14-4.31a1.55,1.55,0,0,0,0,.29h0l-.07-.23Zm-2.46,4.22a1.28,1.28,0,0,0-.07-.53l.28,0,.11.31Zm-.88-3.34h.27a.07.07,0,0,0,0,0l-.2.07Z"/><path class="cls-1" d="M42.57,44.5a5.89,5.89,0,0,0,1.16.91l.5-1.57a1.39,1.39,0,0,0-1,0l-.5.06.1.2A1.45,1.45,0,0,0,42.57,44.5Z"/><path class="cls-1" d="M42.2,52.34a.48.48,0,0,0,.55-.21v0l4-6.52a1.3,1.3,0,0,0,.08.42c0,.27.06.5.06.5l.2-.1a1.47,1.47,0,0,0,.39.28,7.81,7.81,0,0,0,.83-1l6.34,2a.76.76,0,0,0,.78-1.25h0l-4.32-4.51c.84-.23,1.67-.48,2.12-.65l-.61-1.53a17.93,17.93,0,0,0-2.49,1.18l-1-1c.42-1.46.91-3.23,1.49-5.26v0A.74.74,0,0,0,49.28,34l-2.76,4.88-9.1,0h0a.48.48,0,0,0-.24.89l7.24,4.06-2.5,7.91A.48.48,0,0,0,42.2,52.34Zm2.26-8.48a1.57,1.57,0,0,0,0-.26l-.07.22-6.76-4.38,7,.43a1.41,1.41,0,0,0-.3.29,6,6,0,0,0,1,1.13l.31-.55.44-.78.79,0a.41.41,0,0,0,.37-.19l0,0,.46-.73-.27.83a.77.77,0,0,0,.17.76l0,0,1,1.05-.5.28.55-.05c-.34.4-.33.63-.33.63l.88-.22.17.18,2.74,2.79-5.31-1.5h0a.69.69,0,0,0-.78.32c-.94,1.68-1.76,3.16-2.49,4.49a36.38,36.38,0,0,0,.89-4.77l.14.08Z"/><path class="cls-1" d="M30.46,27.69a1.36,1.36,0,0,0-.83,0l-.5.06.1.2a1.44,1.44,0,0,0-.28.39,5.85,5.85,0,0,0,1.17.91l.26-.82.23-.71.06,0-1,5.86,1.5-6.07L26.18,24.4l5.61,1.88A.61.61,0,0,0,32.5,26l0,0,1.27-2-.67,2.31h0a.77.77,0,0,0,.36.89l3.06,1.74c-1.3-.33-2.43-.61-3.4-.83h0a.31.31,0,0,0-.35.16c-2.53,4.91-2.56,5.65-2.56,5.65L32.59,30c.45,1.07,1.18,2.77,1.59,3.46l.19.31,0,.05a.75.75,0,0,0,.68.35.82.82,0,0,0,.77-.6.82.82,0,0,0,0-.42v0l0-.06,0-.12-.08-.25,0-.06c-.52-1.17-1.38-2.88-1.66-3.43l6.72,2.12.17.09,0,0,.15,0a.6.6,0,0,0,.49-1.08h0l-.13-.08v0l-.11,0-6.19-3.77c.92-.23,3.52-.9,4.47-1.27l-.32-.8h0L39,23.58h0a15.05,15.05,0,0,0-3.07,1.55l-1,.56,2.19-7.17a.82.82,0,0,0-1.49-.66h0l0,0-3.71,6.45c-.24-1-.88-3.5-1.25-4.43l-1.53.61a14.86,14.86,0,0,0,1.55,3.07l.58,1.05-7.24-2h0a.6.6,0,0,0-.45,1.1Zm2.78,1.22h0l0,0Zm1,4.59a1,1,0,0,1,0-.17s0,.06,0,.09v.08ZM34,30.26a6.41,6.41,0,0,0-.71-.73,1.45,1.45,0,0,0,.18-.55l.48.15C33.94,29.34,34,29.75,34,30.26Zm1.11-4.42a1.76,1.76,0,0,0-.25.37l-.09-.06.09-.29Zm-3.78-1.4a1.69,1.69,0,0,0,.35.24l-.06.11-.26-.07Z"/><path class="cls-1" d="M31.12,27.57v0h0Z"/><path class="cls-1" d="M83.38,50.51l.29-.12-.1,0-.14.06Z"/><path class="cls-1" d="M84.67,53.42h0l0,0Z"/><path class="cls-1" d="M66.18,36.86c0,1.7-.06,3.59-.09,5.54a1,1,0,0,0-.58.27l-.39.2.13.16a1.61,1.61,0,0,0-.13.46s.24.14.51.28l-6.17,1.45h0a.47.47,0,0,0,.1.93l6.65.08a1,1,0,0,0-.44.35l-.34.28.16.13a1.6,1.6,0,0,0,0,.48,4.59,4.59,0,0,0,1.25.28c-.13-.68-.21-1.11-.29-1.52h.09c.14.77.66,3.48,1.31,6.91a.47.47,0,0,0,.93-.06v0c.11-2,.23-4.15.34-6.35a39.2,39.2,0,0,0,2.71,2.87h0l.5-.6.56-.67a10.9,10.9,0,0,0-2.39-1.6l-.87-.53L75.59,45h.11v0l.18,0a.75.75,0,0,0-.11-1.48h-.21v0l-.07,0-5.82-.26.2-.17-.16-.13a1.59,1.59,0,0,0,0-.47,8.49,8.49,0,0,0-.86-.24l-1.23-5.49v0a.75.75,0,0,0-1.48.15Zm3.43,9.56a1.62,1.62,0,0,0-.42,0,1.1,1.1,0,0,0,0-.11l.3-.06Zm-1.19-1.59,1.11,0-1.07.25h0a.66.66,0,0,0-.52.64c0,1.51,0,2.86,0,4.07a27.14,27.14,0,0,0-1.23-3.58h0a1.23,1.23,0,0,0-.13-.23l0,.22H66.5v-.07a1.38,1.38,0,0,0-.18.06l-6.36-.53,6.82-1.14a.35.35,0,0,0,.29-.32v0c.05-.72.11-1.43.16-2.14.15.79.3,1.53.43,2.14h0A.82.82,0,0,0,68.42,44.83Z"/><path class="cls-1" d="M55.83,26l-.05-.55a1.12,1.12,0,0,0,.61.33l-.19.34-7.87-2.16,8.09,2.76a0,0,0,0,0,.05,0l3-4.66L57.7,27.29A.63.63,0,0,0,58,28l0,0,2,1.23-2.24-.65h0a.78.78,0,0,0-.89.36l-1.62,2.83c.3-1.15.57-2.2.8-3.13v0a.4.4,0,0,0-.2-.46C49,24.58,48.08,24.5,48.08,24.5l7,4.27-.12.39-.54,0c.34-.4.32-.63.32-.63s-3.66.89-4.83,1.35l.61,1.53a15.08,15.08,0,0,0,3.07-1.55l1.36-.75L52.7,36.23l-.1.18,0,0,0,.15a.62.62,0,0,0,1.12.51v0l.08-.14,0,0,0-.13,3.29-5.41a1.35,1.35,0,0,0,.76.11l.5,0s0-.09-.05-.21a1.46,1.46,0,0,0,.36-.33s-.21-.31-.45-.61l7.2,2.19a.82.82,0,0,0,.65-1.5h0l-6.49-3.73c1-.24,3.49-.89,4.42-1.25l-.61-1.53a15,15,0,0,0-3.07,1.55l-1.05.58,2-7.24v0A.62.62,0,0,0,60.22,19L56.4,25.74c0-.12-.9-3.66-1.35-4.8l-1.53.61a15,15,0,0,0,1.55,3.07C55.49,25.38,55.83,26,55.83,26Zm3.73.84a1.8,1.8,0,0,0-.24.35l-.1-.06.07-.26Z"/><path class="cls-1" d="M41.17,10.13c-.11,0-3.66.9-4.8,1.35L37,13A15.2,15.2,0,0,0,40,11.46l1.38-.76-.55.05a1.13,1.13,0,0,0,.33-.61l.35.2-2.16,7.88,2.76-8.09a.05.05,0,0,0,0-.06l-4.67-3,5.28,1.75a.63.63,0,0,0,.73-.26l0,0,1.23-2L44.06,8.8h0a.78.78,0,0,0,.36.89l2.83,1.62-3.14-.8h0a.4.4,0,0,0-.46.2c-3.61,6.8-3.69,7.74-3.69,7.74l4.27-7h0l-.77,1.37a1.4,1.4,0,0,0,1,.19l.5,0s0-.09-.05-.21a1.46,1.46,0,0,0,.36-.33,8,8,0,0,0-.82-1l7.27,2.28.18.1,0,0,.15,0a.62.62,0,0,0,.51-1.12h0l-.14-.08,0,0-.13,0L46.08,8.91C47,8.68,49.59,8,50.54,7.64h0l-.61-1.53a15,15,0,0,0-3.07,1.56l-1,.56L48,1.06h0a.82.82,0,0,0-.55-1,.83.83,0,0,0-1,.38L42.79,6.9c-.24-1-.89-3.49-1.26-4.42L40,3.08a15,15,0,0,0,1.55,3.07l.58,1-7.23-2h0a.62.62,0,0,0-.47,1.14ZM46,8.37a1.71,1.71,0,0,0-.25.37l-.09-.06.09-.29ZM42.26,7a1.73,1.73,0,0,0,.35.24l-.06.11-.26-.07C42.28,7.16,42.27,7.08,42.26,7Z"/><path class="cls-1" d="M83,50s0-.22-.05-.55c.4.35.63.33.63.33s-.9-3.66-1.35-4.82l-1.53.6a15,15,0,0,0,1.54,3.06C82.66,49.36,83,50,83,50Z"/></svg>