<svg id="Layer_1" data-name="Layer 1" xmlns="http://www.w3.org/2000/svg" viewBox="0 0 89.76 64.29"><defs><style>.cls-1{fill:#231f20;}</style></defs><title>loyalty_points</title><path class="cls-1" d="M89.75,44.35c0-1.93,0-23.84,0-25.71,0-7.49-.07-4.49-.1-10.48,0-3,0,4.26,0,1.82,0-1.22,0-2.36,0-3.41a10.83,10.83,0,0,0-.22-3A4.63,4.63,0,0,0,85.29.35l-.39,0,.39,0a4.59,4.59,0,0,1,4,3.26,10.63,10.63,0,0,1,.16,2.94l0,3.41c0,2.44-.06-4.82-.1-1.83-.07,6-.15,3-.23,10.48,0,1.88,0,23.78-.06,25.71a24.21,24.21,0,0,1-.11,2.86,4.06,4.06,0,0,1-1.39,2.31c-1.44,1.3-3.55.81-5.53.88l-5.58-.06c0-2.75.05-25.49.08-28.2q0-2.15,0-4.27a6.75,6.75,0,0,0-1.4-4.25h0L75,13.54a9.27,9.27,0,0,0-1.34-1.19,7,7,0,0,0-1.63-.82l-.1,0-.65-.15a6.11,6.11,0,0,0-.76-.07l-1.33-.05c-.87,0-1.76,0-2.62,0l-5.08,0L52,11.07,36.64,11H16.41c0-5.41,0-.53,0-5.38,0-2.53,0,5,0,2.61q0-1.77,0-3.49a3.58,3.58,0,0,1,2.35-3.21,3.87,3.87,0,0,1,1.37-.22l3.19,0,6.07,0,10.93-.08C53.81,1.1,63.28,1,69.89.84c13.22-.26,15-.51,15-.51L49.77.14,34.1.07,25.91,0,21.78,0c-.7,0-1.35,0-2.1,0a4.86,4.86,0,0,0-2.26.66A5,5,0,0,0,15,4.53c0,1.48,0,2.77,0,4.15,0,2.72,0-4.59,0-2,0,5.29,0,.38-.06,5.1a.77.77,0,0,0,.77.77h0l21,0,15.34,0,9.51,0,5.09,0c.87,0,1.72,0,2.6,0l1.31,0,.55,0,.59.13a5.88,5.88,0,0,1,1.28.61,7.74,7.74,0,0,1,1.17,1c.18.27.34.48.51.78A5,5,0,0,1,75,16a5.08,5.08,0,0,1,.3,1.85q0,2.12,0,4.27c0,2.86,0,25.73,0,28.61a.63.63,0,0,0,.63.64h0l6,0,3,0a4.88,4.88,0,0,0,4.72-4,7.74,7.74,0,0,0,.08-1.56Z"/><path class="cls-1" d="M67.23,44.6l0,.11.11.15h.11Z"/><path class="cls-1" d="M67.23,52.51l0,.1.11.15h.11Z"/><path class="cls-1" d="M74.75,54c-.11-3.12-.22-6.14-.33-9l-.57-15.48C73.53,20.64,73.32,15,73.32,15s.11,5.64.28,14.5c.09,4.46.19,9.72.31,15.49.06,2.9.12,5.92.18,9q0,2.34.1,4.75a4.08,4.08,0,0,1-4.28,4.4l-2.48,0-5-.05L52.32,63l-19.7-.18L15,62.7l-7.46,0H5.06a4.21,4.21,0,0,1-.64-.07,3.56,3.56,0,0,1-2-1.24,3.51,3.51,0,0,1-.71-1.53,13.52,13.52,0,0,1-.06-1.94q0-2.08,0-4.11,0-4.06,0-7.92,0-7.72,0-14.71t0-13.25a3.6,3.6,0,0,1,2.85-3.71,23.33,23.33,0,0,1,2.78-.08H10l35.2-.29c8.79-.11,14.9-.23,19.13-.34l5-.15a5.6,5.6,0,0,1,2.84.41h0l0,0,.35.2s.16.15.13.14l0,.07.08.13.24.38.12.17h0s0,0,0,0l-.1-.18L73,14.27l-.07-.14,0-.08s0,0-.15-.18l-.36-.23h0l0,0a5.3,5.3,0,0,0-2.18-.56l-3.73,0L54.9,13,21.25,12.8l-9.53,0-4.8,0c-.83,0-1.53-.06-2.46,0A5,5,0,0,0,.4,16.09a4.79,4.79,0,0,0-.26,1.35c0,.46,0,.81,0,1.22q0,2.37,0,4.7c0,3.11,0,6.17,0,9.15,0,6,0,11.57-.05,16.57,0,2.51,0,4.87,0,7q0,1.66,0,3.17a5.12,5.12,0,0,0,4.09,4.9,5.82,5.82,0,0,0,.94.1H7.55l7.46,0,17.6-.06,19.7-.08,10.09,0,5,0h2.48c.2,0,.47,0,.65,0a5.08,5.08,0,0,0,.71-.13,4.68,4.68,0,0,0,1.28-.53,4.9,4.9,0,0,0,2.37-4.6Z"/><path d="M24.13,26.6,21,29.54l.46,3,.12.79a3.23,3.23,0,0,1,.08.72.87.87,0,0,1-.81.78h0c-.36.05-.51-.08-.92-.3l-1.07-.58-2.38-1.29-3,1.51-.67.34a1.43,1.43,0,0,1-.52.21.75.75,0,0,1-.73-.37c-.16-.26-.11-.47,0-1l.24-1.3.46-2.6L11.1,28.25,9.74,26.94l-.39-.37-.2-.19L9,26.24A.74.74,0,0,1,9,25.58a.72.72,0,0,1,.53-.46l1.31-.21,3.07-.48,1.34-2.81c.2-.41.43-.92.6-1.24a.86.86,0,0,1,.83-.38.92.92,0,0,1,.75.62L18,21.84l1.26,2.45,2.94.39,1.18.15a1.09,1.09,0,0,1,.76.32,1,1,0,0,1,.22,1.09.93.93,0,0,1-.23.36.93.93,0,0,0,.26-.35,1.1,1.1,0,0,0-.17-1.18c-.34-.46-1.17-.42-2-.62L19.51,24l-1.06-2.35-.57-1.25A1.49,1.49,0,0,0,15.25,20c-.28.47-.47.86-.7,1.29l-1.25,2.35L10.67,24l-1.36.17A1.76,1.76,0,0,0,8,25.2a1.81,1.81,0,0,0,.14,1.63,1.91,1.91,0,0,0,.25.32l.2.2.38.38,1.35,1.33.8.78-.48,2.82-.12.74a2.18,2.18,0,0,0,0,.94,1.81,1.81,0,0,0,2.32,1.31,5,5,0,0,0,.68-.33l1.14-.61,1.88-1,2.1,1.06,1.06.53a3.81,3.81,0,0,0,.58.26,1.58,1.58,0,0,0,.68,0h0a1.61,1.61,0,0,0,1.42-1.72c-.11-.67-.23-1.14-.33-1.66l-.3-1.39-.14-.62-.11-.48,1.4-1.57c.37-.42.63-.73.81-1A3.74,3.74,0,0,0,24.13,26.6Z"/><path d="M45.45,26.6l-3.11,2.94.46,3,.12.79A3.29,3.29,0,0,1,43,34a.88.88,0,0,1-.82.78h0c-.36.05-.51-.08-.92-.3l-1.07-.58-2.38-1.29-3,1.51-.67.34a1.39,1.39,0,0,1-.52.21.76.76,0,0,1-.73-.37c-.16-.26-.1-.47,0-1l.23-1.3.46-2.59-1.22-1.19L31,26.94l-.39-.38-.2-.19-.11-.13a.72.72,0,0,1-.08-.65.74.74,0,0,1,.54-.47l1.31-.21,3.07-.48,1.35-2.81c.2-.41.43-.92.6-1.25A.86.86,0,0,1,38,20a.93.93,0,0,1,.75.63l.62,1.22,1.25,2.45,2.94.39,1.18.15a1.09,1.09,0,0,1,.76.32,1,1,0,0,1,.22,1.09,1,1,0,0,1-.23.36,1,1,0,0,0,.26-.35,1.11,1.11,0,0,0-.17-1.18c-.34-.46-1.17-.42-2-.62L40.82,24l-1.06-2.35-.57-1.25A1.49,1.49,0,0,0,36.56,20c-.28.47-.46.86-.7,1.29L34.6,23.64,32,24l-1.36.17a1.78,1.78,0,0,0-1.19,2.71,1.92,1.92,0,0,0,.25.32l.2.2.38.38,1.35,1.33.8.78-.47,2.82-.12.74a2.22,2.22,0,0,0,0,.94,1.81,1.81,0,0,0,2.32,1.32,5.12,5.12,0,0,0,.69-.34l1.14-.61,1.88-1,2.1,1.06,1.06.53a4,4,0,0,0,.58.26,1.58,1.58,0,0,0,.68,0h0a1.61,1.61,0,0,0,1.42-1.72c-.11-.67-.23-1.14-.33-1.66l-.3-1.39-.13-.62-.11-.48,1.4-1.57c.37-.42.63-.73.81-1A3.74,3.74,0,0,0,45.45,26.6Z"/><path d="M24.13,47.6,21,50.54l.46,3,.12.79a3.23,3.23,0,0,1,.08.72.87.87,0,0,1-.81.78h0c-.36.05-.51-.08-.92-.3l-1.07-.58-2.38-1.29-3,1.51-.67.34a1.43,1.43,0,0,1-.52.21.75.75,0,0,1-.73-.37c-.16-.26-.11-.47,0-1l.24-1.3.46-2.6L11.1,49.25,9.74,47.94l-.39-.37-.2-.19L9,47.24A.74.74,0,0,1,9,46.58a.72.72,0,0,1,.53-.46l1.31-.21,3.07-.48,1.34-2.81c.2-.41.43-.92.6-1.24a.86.86,0,0,1,.83-.38.92.92,0,0,1,.75.62L18,42.84l1.26,2.45,2.94.39,1.18.15a1.09,1.09,0,0,1,.76.32,1,1,0,0,1,.22,1.09.93.93,0,0,1-.23.36.93.93,0,0,0,.26-.35,1.1,1.1,0,0,0-.17-1.18c-.34-.46-1.17-.42-2-.62L19.51,45l-1.06-2.35-.57-1.25A1.49,1.49,0,0,0,15.25,41c-.28.47-.47.86-.7,1.29l-1.25,2.35L10.67,45l-1.36.17A1.76,1.76,0,0,0,8,46.2a1.81,1.81,0,0,0,.14,1.63,1.91,1.91,0,0,0,.25.32l.2.2.38.38,1.35,1.33.8.78-.48,2.82-.12.74a2.18,2.18,0,0,0,0,.94,1.81,1.81,0,0,0,2.32,1.31,5,5,0,0,0,.68-.33l1.14-.61,1.88-1,2.1,1.06,1.06.53a3.81,3.81,0,0,0,.58.26,1.58,1.58,0,0,0,.68,0h0a1.61,1.61,0,0,0,1.42-1.72c-.11-.67-.23-1.14-.33-1.66l-.3-1.39-.14-.62-.11-.48,1.4-1.57c.37-.42.63-.73.81-1A3.74,3.74,0,0,0,24.13,47.6Z"/><path d="M45.45,47.6l-3.11,2.94.46,3,.12.79A3.29,3.29,0,0,1,43,55a.88.88,0,0,1-.82.78h0c-.36.05-.51-.08-.92-.3l-1.07-.58-2.38-1.29-3,1.51-.67.34a1.39,1.39,0,0,1-.52.21.76.76,0,0,1-.73-.37c-.16-.26-.1-.47,0-1l.23-1.3.46-2.59-1.22-1.19L31,47.94l-.39-.38-.2-.19-.11-.13a.72.72,0,0,1-.08-.65.74.74,0,0,1,.54-.47l1.31-.21,3.07-.48,1.35-2.81c.2-.41.43-.92.6-1.25A.86.86,0,0,1,38,41a.93.93,0,0,1,.75.63l.62,1.22,1.25,2.45,2.94.39,1.18.15a1.09,1.09,0,0,1,.76.32,1,1,0,0,1,.22,1.09,1,1,0,0,1-.23.36,1,1,0,0,0,.26-.35,1.11,1.11,0,0,0-.17-1.18c-.34-.46-1.17-.42-2-.62L40.82,45l-1.06-2.35-.57-1.25A1.49,1.49,0,0,0,36.56,41c-.28.47-.46.86-.7,1.29L34.6,44.64,32,45l-1.36.17a1.78,1.78,0,0,0-1.19,2.71,1.92,1.92,0,0,0,.25.32l.2.2.38.38,1.35,1.33.8.78-.47,2.82-.12.74a2.22,2.22,0,0,0,0,.94,1.81,1.81,0,0,0,2.32,1.32,5.12,5.12,0,0,0,.69-.34l1.14-.61,1.88-1,2.1,1.06,1.06.53a4,4,0,0,0,.58.26,1.58,1.58,0,0,0,.68,0h0a1.61,1.61,0,0,0,1.42-1.72c-.11-.67-.23-1.14-.33-1.66l-.3-1.39-.13-.62-.11-.48,1.4-1.57c.37-.42.63-.73.81-1A3.74,3.74,0,0,0,45.45,47.6Z"/><path d="M67.45,26.6l-3.11,2.94.46,3,.12.79A3.29,3.29,0,0,1,65,34a.88.88,0,0,1-.82.78h0c-.36.05-.51-.08-.92-.3l-1.07-.58-2.38-1.29-3,1.51-.67.34a1.39,1.39,0,0,1-.52.21.76.76,0,0,1-.73-.37c-.16-.26-.1-.47,0-1l.23-1.3.46-2.59-1.22-1.19L53,26.94l-.39-.38-.2-.19-.11-.13a.72.72,0,0,1-.08-.65.74.74,0,0,1,.54-.47l1.31-.21,3.07-.48,1.35-2.81c.2-.41.43-.92.6-1.25A.86.86,0,0,1,60,20a.93.93,0,0,1,.75.63l.62,1.22,1.25,2.45,2.94.39,1.18.15a1.09,1.09,0,0,1,.76.32,1,1,0,0,1,.22,1.09,1,1,0,0,1-.23.36,1,1,0,0,0,.26-.35,1.11,1.11,0,0,0-.17-1.18c-.34-.46-1.17-.42-2-.62L62.82,24l-1.06-2.35-.57-1.25A1.49,1.49,0,0,0,58.56,20c-.28.47-.46.86-.7,1.29L56.6,23.64,54,24l-1.36.17a1.78,1.78,0,0,0-1.19,2.71,1.92,1.92,0,0,0,.25.32l.2.2.38.38,1.35,1.33.8.78-.47,2.82-.12.74a2.22,2.22,0,0,0,0,.94,1.81,1.81,0,0,0,2.32,1.32,5.12,5.12,0,0,0,.69-.34l1.14-.61,1.88-1,2.1,1.06,1.06.53a4,4,0,0,0,.58.26,1.58,1.58,0,0,0,.68,0h0a1.61,1.61,0,0,0,1.42-1.72c-.11-.67-.23-1.14-.33-1.66l-.3-1.39-.13-.62-.11-.48,1.4-1.57c.37-.42.63-.73.81-1A3.74,3.74,0,0,0,67.45,26.6Z"/></svg>