<svg id="Layer_1" data-name="Layer 1" xmlns="http://www.w3.org/2000/svg" viewBox="0 0 51.61 86.26"><defs><style>.cls-1{fill:#231f20;}</style></defs><title>mobile_phone</title><path class="cls-1" d="M5.41,4.92c0,28.65.08,52.09.2,67.93h0a.59.59,0,0,0,.59.59c37.53-.28,38.58-.75,40-.87,0,.16,0,.27,0,.27s0-.11,0-.27l.29,0h-.29c0-3.33.41-37.8.75-67.63a.45.45,0,0,0-.44-.45h0C27.8,4.28,16.65,4.13,6.2,4.13ZM6.75,72.31c.09-24,.19-52.68.24-66.59l38.92-.15c.15,30.06.32,63.71.34,67C43.59,72.54,30.12,72.43,6.75,72.31Z"/><path class="cls-1" d="M31.76,75.31h-.09l-5.6-.38L23.6,74.8l-.55,0a2.64,2.64,0,0,0-.72.09,3,3,0,0,0-1,.54,5.59,5.59,0,0,0-1.77,2.8,4.59,4.59,0,0,0,.1,2.94,5.75,5.75,0,0,0,1.3,2.12,3,3,0,0,0,2.14,1h.12c2.43-.63,4-1.12,5-1.49l.38,0h.21l.13,0a1.31,1.31,0,0,0,.48-.23,2,2,0,0,0,.39-.4l.08,0v.07l0-.07a.81.81,0,0,0,.21-.16l-.17,0c.09-.15.17-.3.25-.45a4.94,4.94,0,0,0,.34-1.05,4,4,0,0,0,.08-.56v-.08l1.29-4.14A.23.23,0,0,0,31.76,75.31Zm-11,4.37a4.35,4.35,0,0,1,1.47-3,1.69,1.69,0,0,1,.51-.29,1.07,1.07,0,0,1,.28,0h.54l2.48-.05L31,76.1l-.56,3L30.39,79a5.29,5.29,0,0,0-1.64-1.15,14.16,14.16,0,0,0-1.41-.62,4.45,4.45,0,0,0-1.47-.37,3.94,3.94,0,0,1,1.37.6,14.72,14.72,0,0,1,1.26.83,5.09,5.09,0,0,1,1.25,1.18c.1.07,0,.43-.12.69a4,4,0,0,1-.4.79,1.43,1.43,0,0,1-.48.51l-.6,0c-1.21-.1-2.29-.17-3-.17-1,0-1.89,0-2.73,0,0-.62,0-1.2-.08-1.72l0-.53,0-.25v-.17a1.59,1.59,0,0,1,.26-.18,21.11,21.11,0,0,1,2.15-1,4.86,4.86,0,0,0,1.19-.59,6.24,6.24,0,0,0-.8,0,14.41,14.41,0,0,0-2,.31,5.55,5.55,0,0,0-1.3.44,1.7,1.7,0,0,0-.39.28.93.93,0,0,0-.21.29,1,1,0,0,0-.08.37l0,.69c0,.56,0,1.1-.07,1.63A4,4,0,0,1,20.8,79.68ZM23,83.06a1.45,1.45,0,0,1-.76-.32l2.23.06Z"/><path class="cls-1" d="M51.6,77.28c0-7.85-.06-15.77-.09-23.42-.06-15.28-.12-29.49-.17-39.88,0-2.59,0-4.95,0-7a15.05,15.05,0,0,0-.12-1.53A10.78,10.78,0,0,0,50.73,4a6.93,6.93,0,0,0-1.49-2.07A6.59,6.59,0,0,0,46.1.33L44.87.21,46.1.35A6.55,6.55,0,0,1,49.19,2,6.83,6.83,0,0,1,50.64,4a11,11,0,0,1,.42,1.39A15,15,0,0,1,51.16,7c0,2.07,0,4.43-.07,7-.1,10.43-.23,24.67-.37,39.88-.07,7.68-.13,15.6-.2,23.42a23,23,0,0,1-.11,2.87,5.73,5.73,0,0,1-.34,1.3,7.88,7.88,0,0,1-.66,1.17,5.39,5.39,0,0,1-.92,1L48,84l-.59.31a5.51,5.51,0,0,1-1.19.45,11.77,11.77,0,0,1-1.36.16L34.5,84.85c-15-.07-19-.13-27.62-.17a5.5,5.5,0,0,1-4.43-2.39,5.81,5.81,0,0,1-.55-1.13l-.19-.56a5,5,0,0,1-.09-.71c0-.21-.07-.56-.06-.65V77.07q0-5.76,0-11.18c0-7.22,0-14,0-20.37,0-12.65-.09-23.7-.12-33.4q0-1.8,0-3.54,0-.87,0-1.72a8.87,8.87,0,0,1,.16-1.54A5.85,5.85,0,0,1,2.92,2.75,5.61,5.61,0,0,1,5.31,1.3a5.27,5.27,0,0,1,1.43-.25c.4,0,1,0,1.44,0l2.89,0L15.5,1C22.21.88,23.91.81,28.78.76,47.47.48,44.87.21,44.87.21L30.93.13,14.84.05c-3.38,0-1.92,0-5.56,0C7.49,0,5.49-.22,3.62.88a6.88,6.88,0,0,0-2.25,2A6.82,6.82,0,0,0,.32,5.81l-.08.78V8.75q0,1.45,0,2.9,0,2.91,0,5.85c0,3.92,0,7.86,0,11.79,0,7.86-.05,15.65-.08,23S0,66.67,0,72.88c0,1.55,0,3.06,0,4.52,0,.76,0,1.36,0,2.22l.1,1c.1.39.22.78.34,1.17a7.17,7.17,0,0,0,2.7,3.33,7.37,7.37,0,0,0,3.72,1.11c8.72,0,12.82,0,27.62-.08l10.33,0A12,12,0,0,0,46.36,86a6.39,6.39,0,0,0,1.56-.58l.71-.39.62-.51a6.48,6.48,0,0,0,1.09-1.18,8.94,8.94,0,0,0,.78-1.42,6.79,6.79,0,0,0,.4-1.57A23.63,23.63,0,0,0,51.6,77.28Z"/><path class="cls-1" d="M44.13,7.95a.59.59,0,0,0-.59-.6h0c-16,.09-24.6.18-34.3.24a.36.36,0,0,0-.36.36h0c0,6.28.06,12.1.06,12.1s.05-5.86.14-12.1a.16.16,0,0,1,.16-.16c9.77.13,18.31.32,33.93.53-.22,19.14-.42,40.76-.42,51.42,0,3.21,0,6.31,0,9.32-15.87.05-22,.1-32.87.13C9.57,24.18,8.93,20,8.93,20s-.14,24.25-.29,49.79a.59.59,0,0,0,.58.59h0c14.8.07,23,.13,34.3.18a.77.77,0,0,0,.77-.77h0c0-3.89,0-7.3,0-10.1C44.28,49.12,44.2,27.33,44.13,7.95Z"/></svg>