<svg id="Layer_1" data-name="Layer 1" xmlns="http://www.w3.org/2000/svg" viewBox="0 0 81.51 52.86"><defs><style>.cls-1{fill:#231f20;}</style></defs><title>municipal_public_works</title><path class="cls-1" d="M10.43,41.11a5.41,5.41,0,0,0-.8,4A5.16,5.16,0,0,0,11,47.72a4.79,4.79,0,0,0,1.69,1.13,3.69,3.69,0,0,0,2,.25A1.54,1.54,0,0,0,15,49h.08l.38,0a4.82,4.82,0,0,0,1.4-.23,5,5,0,0,0,3.14-3,5.32,5.32,0,0,0-5-7.12A5.53,5.53,0,0,0,10.43,41.11Zm4.93-1.2a4.22,4.22,0,0,1,1.26.4A4.14,4.14,0,0,1,18.8,43.1a3.84,3.84,0,0,1-1.11,3.61,3.66,3.66,0,0,1-1.41.83,4.24,4.24,0,0,1-1.28.19,3.64,3.64,0,0,1-2.89-1.51,3.73,3.73,0,0,1-.58-1.29l-.06-.3,0-.36a3.61,3.61,0,0,1,0-.59,4.1,4.1,0,0,1,1.79-2.94A6.38,6.38,0,0,1,14.71,40a1.58,1.58,0,0,0,.27-.12h.37Z"/><path class="cls-1" d="M21,38.35a8.37,8.37,0,0,0-2.83-1.8A8.12,8.12,0,0,0,15,36a8.11,8.11,0,0,1,5.62,2.61A7.93,7.93,0,0,1,22.49,42a7.79,7.79,0,0,1,0,4,7.61,7.61,0,0,1-4.81,5.16,7.92,7.92,0,0,1-2.62.44,7.46,7.46,0,0,1-6.09-3.2,7.58,7.58,0,0,1-1.28-5.29,7.74,7.74,0,0,1,1.61-3.81,8.18,8.18,0,0,1,2.23-2,9.77,9.77,0,0,1,2.91-1.13A3.61,3.61,0,0,0,15,36a8.11,8.11,0,0,0-3.07.53A8.34,8.34,0,0,0,7,41.8a8.46,8.46,0,1,0,16.11,0A8.4,8.4,0,0,0,21,38.35Z"/><path class="cls-1" d="M14.46,41.73a1,1,0,0,0-.46.53A1.47,1.47,0,0,0,14,43a3.52,3.52,0,0,0,.29.85,4.54,4.54,0,0,0,.22.4l0,0a2.55,2.55,0,0,0-.29.8.87.87,0,0,0,.62,1l.27,0h.19a.89.89,0,0,0,.46-.25.88.88,0,0,0,.23-.75,2.56,2.56,0,0,0-.29-.8L15.46,44l0-.05A3.81,3.81,0,0,0,16,42.83a1,1,0,0,0-.22-.91,1.08,1.08,0,0,0-.78-.33A1.23,1.23,0,0,0,14.46,41.73Z"/><path class="cls-1" d="M61.83,41.11a5.4,5.4,0,0,0-.8,4,5.14,5.14,0,0,0,1.36,2.63,4.79,4.79,0,0,0,1.69,1.13,3.69,3.69,0,0,0,2,.25,1.56,1.56,0,0,0,.33-.09h.05l.4,0a4.8,4.8,0,0,0,1.41-.23,5,5,0,0,0,3.14-3,5.32,5.32,0,0,0-4.94-7.12A5.53,5.53,0,0,0,61.83,41.11Zm4.6-1.21h.33a4.27,4.27,0,0,1,1.25.4,4.14,4.14,0,0,1,2.19,2.79,3.84,3.84,0,0,1-1.11,3.61,3.64,3.64,0,0,1-1.41.83,4.23,4.23,0,0,1-1.24.19,3.63,3.63,0,0,1-2.92-1.51,3.7,3.7,0,0,1-.58-1.29l-.06-.3,0-.36a3.74,3.74,0,0,1,0-.59,4.1,4.1,0,0,1,1.79-2.94A6.36,6.36,0,0,1,66.12,40a1.48,1.48,0,0,0,.27-.12Z"/><path class="cls-1" d="M72.36,38.35a8.36,8.36,0,0,0-2.83-1.8A8.12,8.12,0,0,0,66.45,36a8.11,8.11,0,0,1,5.62,2.61A7.94,7.94,0,0,1,73.89,42a7.82,7.82,0,0,1,0,4,7.61,7.61,0,0,1-4.81,5.16,7.91,7.91,0,0,1-2.62.44,7.47,7.47,0,0,1-6.09-3.2,7.6,7.6,0,0,1-1.28-5.29,7.77,7.77,0,0,1,1.61-3.81,8.17,8.17,0,0,1,2.23-2,9.76,9.76,0,0,1,2.91-1.13,3.8,3.8,0,0,0,.63-.16,8.12,8.12,0,0,0-3.07.53,8.34,8.34,0,0,0-5,5.24,8.46,8.46,0,1,0,16.11,0A8.37,8.37,0,0,0,72.36,38.35Z"/><path class="cls-1" d="M65.41,42.26a1.49,1.49,0,0,0,0,.79,3.62,3.62,0,0,0,.29.85,4.56,4.56,0,0,0,.22.4l0,0a2.51,2.51,0,0,0-.29.8.87.87,0,0,0,.23.75.88.88,0,0,0,.39.23l.14,0h.21l.11,0a.9.9,0,0,0,.46-.25.88.88,0,0,0,.23-.75,2.56,2.56,0,0,0-.3-.8L66.87,44l0-.05a3.76,3.76,0,0,0,.54-1.13,1,1,0,0,0-.21-.91,1,1,0,0,0-.45-.28l-.21,0h-.08a1.21,1.21,0,0,0-.62.14A1,1,0,0,0,65.41,42.26Z"/><path class="cls-1" d="M81.45,42.46a5.22,5.22,0,0,0-1.16-1.94,2,2,0,0,0-.59-.45l.14-.06a.29.29,0,0,0,.17-.25v0l.11-3.47a.41.41,0,0,0-.39-.42h-.31a.64.64,0,0,0,.29-.56l-.31-6.44-.13-2.69-.07-1.46c0-.57-.1-1-.15-1.56l-.75-6.73L76.52.51A.58.58,0,0,0,75.95,0L33.82.17a.41.41,0,0,0-.4.36c-1.05,9.67-1.54,18.4-2,24.65l-.73,10.1.89-10.09C32.13,19,32.75,10.31,33.93.7l41.57.37,1.58,15.46.71,6.74c0,.5.13,1.06.14,1.49L78,26.2l0,.4L73.69,4.55a.59.59,0,0,0-.58-.48l-36.59.21h0a.37.37,0,0,0-.37.32c-1,7-2.05,12.32-2.74,16.52l-1.54,9.26c-.67,4.22-.72,5-.72,5l1.7-8.78,1.88-9.7,1.12-5.8,1-6,35.81.15,5.79,30.22a.63.63,0,0,0,.25.39c-3-.09-6.42-.18-8.23-.19a.64.64,0,0,0-.3,1.2h0l.12.06a12.45,12.45,0,0,1,3.45,2.62,7.56,7.56,0,0,1,2.11,4.72v0a.38.38,0,0,0,.39.38h0l.76-.1c0,.29,0,.58,0,.84a.59.59,0,0,0,.56.61h0l1.11,0,.84,0h.35l.14,0a1.34,1.34,0,0,0,.34-.16,1.85,1.85,0,0,0,.51-.63,4.93,4.93,0,0,0,.45-1.27A3.15,3.15,0,0,0,81.45,42.46Zm-5.08,1.68a8.14,8.14,0,0,0-1.83-5.28,11.51,11.51,0,0,0-1.93-2c2.81,0,5-.08,6.68-.17.08,1.27.16,2.23.25,2.93L79,40a2.27,2.27,0,0,0-.42.08,2.59,2.59,0,0,0-.73.34,1.38,1.38,0,0,0-.64,1c-.06.88-.12,1.84-.17,2.74Zm3.41.88h0l0-.19a.32.32,0,0,1,.05.08C79.87,45,79.81,45,79.78,45Zm0-.19,0,0Zm.24-.22a.93.93,0,0,1-.19.19h-.24c-.33,0-.61,0-.84,0h-.5c0-1.13-.09-2-.16-2.76l0-.41.11-.54a2.17,2.17,0,0,1,.35-.41l1.13-.52h0a1.76,1.76,0,0,1,.47.53,5,5,0,0,1,.68,1.94A4.2,4.2,0,0,1,80,44.61Z"/><path class="cls-1" d="M45.57,34.49a.36.36,0,0,0,.37-.35.39.39,0,0,0,0-.13l-.37-1-.12.94c-.43-.22-.9-.44-1.31-.6,1.06-.15,1.22-.53,1.22-.53l-.38-.1.46-.51h0a2.53,2.53,0,0,0-1-.61l-.53-.26.06.22a.86.86,0,0,0-.38.14s.24.4.51.79l-.58-.14h-.06a.83.83,0,0,0-.67.38,1.78,1.78,0,0,0-.19.33,1.81,1.81,0,0,0-.18.66.56.56,0,0,0,.42.59l.09,0,.33.07-.12.12-.11.12a.35.35,0,0,0-.1.27.52.52,0,0,0,.25.43.66.66,0,0,0,.17.08,1.32,1.32,0,0,0,.24,0,2.58,2.58,0,0,0,.36,0,3.19,3.19,0,0,0,.36,0,1.3,1.3,0,0,1-.31-.2L43.75,35l.41-.09.24.14h0a.87.87,0,0,0-.14.3,2.52,2.52,0,0,0,.35,0,2.66,2.66,0,0,0,.36,0,1.3,1.3,0,0,0,.24,0,.63.63,0,0,0,.17-.08.52.52,0,0,0,.25-.43.34.34,0,0,0-.09-.27l-.08-.09h.13Z"/><path class="cls-1" d="M67.61,34.49a.36.36,0,0,0,.37-.35A.38.38,0,0,0,68,34l-.37-1-.12.94c-.43-.22-.9-.44-1.31-.6,1.06-.15,1.22-.53,1.22-.53l-.38-.1.46-.51h0a2.53,2.53,0,0,0-1-.61l-.53-.26.06.22a.86.86,0,0,0-.38.14s.24.4.51.79l-.58-.14h-.06a.82.82,0,0,0-.67.38,1.75,1.75,0,0,0-.19.33,1.83,1.83,0,0,0-.18.66.56.56,0,0,0,.43.59l.09,0,.33.07-.12.12-.11.12a.35.35,0,0,0-.1.27.52.52,0,0,0,.25.43.61.61,0,0,0,.17.08,1.27,1.27,0,0,0,.24,0h.36a3.22,3.22,0,0,0,.35,0,1.26,1.26,0,0,1-.31-.2L65.8,35l.41-.09.23.14h0a.89.89,0,0,0-.14.3,2.51,2.51,0,0,0,.34,0,2.58,2.58,0,0,0,.36,0,1.31,1.31,0,0,0,.24,0,.64.64,0,0,0,.17-.08.52.52,0,0,0,.25-.43.35.35,0,0,0-.09-.27l-.08-.09h.13Z"/><path class="cls-1" d="M54.95,21l-.21-.12a.84.84,0,0,0,.19-.36,11.66,11.66,0,0,0-1.84-.33l0,1.28a2.74,2.74,0,0,0,1.22-.28Z"/><path class="cls-1" d="M57.46,24.68l.13.26a.8.8,0,0,0-.43.11,19.42,19.42,0,0,0,1.62,1.83l.8-1A4.63,4.63,0,0,0,58.17,25Z"/><path class="cls-1" d="M57.54,26l0,0-.07,0-1.22-.37,0-.15a.22.22,0,0,0,0-.16l0,0L56,25a.26.26,0,0,0-.34-.1l0,0-2,.95,0,0-.53-1a3.28,3.28,0,0,0-1.07.86l-.5.46h.25a.81.81,0,0,0,0,.42s1-.24,1.59-.46a.43.43,0,0,0,0,.49l0,.05,1.14,1.8a.5.5,0,0,0,.22.18l.06,0,.34.15a.6.6,0,0,0,.79-.31l0-.09v0l0-.19c.68-.07,1.64-.2,2.61-.34h.07a.47.47,0,0,0,.4-.53.47.47,0,0,0-.18-.3Zm-3.08.47a9.46,9.46,0,0,0,1.36-1.18l.14.09h0a1.11,1.11,0,0,0,0,.13h0a.65.65,0,0,0,.14.25l0-.14,1.1.67h0l.65.8A20.45,20.45,0,0,0,55.52,27h-.05a.62.62,0,0,0-.39.18Z"/><path class="cls-1" d="M38.45,12.53a34.78,34.78,0,0,0,.22,13.69c.14.63.29,1.26.47,1.88.09.31.18.63.28.94l.15.47a2.81,2.81,0,0,0,.21.53,2.34,2.34,0,0,0,2,1.22l1.94,0c2.59,0,5.15-.13,7.59-.23l12.49-.48L69,30.41s-2-.05-5.17-.06-7.62,0-12.51.09c-2.44,0-5,0-7.58,0l-1.94,0a1.51,1.51,0,0,1-1.25-.79A28.77,28.77,0,0,1,39.64,26a34.68,34.68,0,0,1-.17-12L41,15.7l1.61,1.76a.64.64,0,0,0,.47.21l11,0a7.31,7.31,0,0,0-4.31,2.79,5.76,5.76,0,0,0-1,4.57,6,6,0,0,0,1.58,3.05,5.66,5.66,0,0,0,2,1.33,4.48,4.48,0,0,0,2.3.34,1.38,1.38,0,0,0,.46-.12h0a5.53,5.53,0,0,0,2-.23,5.9,5.9,0,0,0,3.64-3.24,6.17,6.17,0,0,0-2.74-7.91,5.91,5.91,0,0,0-1.59-.61c4,0,7.47,0,10.58-.08h0a.5.5,0,0,0,.37-.17l3.37-3.78a35.16,35.16,0,0,1,.51,8.66,13,13,0,0,1-.5,3.08c-.23.86-.46,1.56-.64,2.15a16.34,16.34,0,0,0-.76,2.76l.49-1.32c.32-.85.84-2.06,1.34-3.63a12.51,12.51,0,0,0,.58-2.65c.1-.95.2-2,.21-3.07a33.9,33.9,0,0,0-.55-7,.41.41,0,0,0-.7-.21.48.48,0,0,0-.1-.13l-.06,0,.61-.23h0a.29.29,0,0,0,.17-.35A22.72,22.72,0,0,0,69.8,8a14,14,0,0,1-.53-1.3s.13.48.47,1.32a23.1,23.1,0,0,1,1.3,3.6.07.07,0,0,1,0,.09,46.58,46.58,0,0,1-15.66,2.44,46.16,46.16,0,0,1-8.13-.89,56.49,56.49,0,0,1-6-1.6c-.52-.17-1-.36-1.54-.55A26.71,26.71,0,0,1,41.75,7l.16-.2,0,0h1.63l2.35,0,8,.13C58.5,7,61.72,7,64,6.92A27.1,27.1,0,0,0,69,6.57s-5.73-.11-12.78-.49c-3.52-.17-7.38-.36-11-.47l-2.68-.06h-.92a1.08,1.08,0,0,0-.39.18,2.1,2.1,0,0,0-.32.32,8.77,8.77,0,0,0-.75,1.12,34,34,0,0,0-2,4.13.6.6,0,0,0,.33.77h0l0,0,.14.05,0,0A.64.64,0,0,0,38.45,12.53Zm19,9.73q-.19.48-.34.9a9.45,9.45,0,0,0-1.71-.59c0-.06,0-.12,0-.17h0l.08-.1h0a.64.64,0,0,0,.15-.25l-.14,0,0-1.29h0l.37-1A20.67,20.67,0,0,0,57.07,22l0,0A.63.63,0,0,0,57.45,22.26Zm1.79-1.45a5.41,5.41,0,0,1,.84,5.12A5.56,5.56,0,0,1,55,29.62a5.5,5.5,0,0,1-2.06-.46A5.6,5.6,0,0,1,50,26.27a.64.64,0,0,0,.32,0h0c.39-.13,1-.34,1.61-.59l.06,0a.4.4,0,0,0,.12-.07l.84-.77h0a.37.37,0,0,0,.27.05l.27,0h.06a.4.4,0,0,0,.32-.42l-.18-2.18v0a.2.2,0,0,0-.06-.12l-.17-.18.12.22,0,.06a.1.1,0,0,1,0,.06l-.34,2h0L53.15,24a.22.22,0,0,0-.27,0l-.07,0-1.15.68-.35.07c.27-.61.5-1.16.68-1.63L52,23a.46.46,0,0,0-.16-.53h0c1.35-.37,1.49-.7,1.49-.7l-2.08,0a.3.3,0,0,0-.17.05l-.05,0-.3.21a.4.4,0,0,0-.1.56l0,0,0,0,.19.2c-.47.83-.92,1.64-1.2,2.2a4.93,4.93,0,0,1,.08-2.32,5.29,5.29,0,0,1,1.43-2.3,6.41,6.41,0,0,1,3.91-1.76l.36,0h0a.47.47,0,0,0-.12.24l-.24,1.73v.05a.24.24,0,0,0,0,.07l.29,1.25-.14,0a.21.21,0,0,0-.12.1l0,0-.13.23a.26.26,0,0,0,.08.35l0,0L57,24.13l.12,0h.07l.25,0a.43.43,0,0,0,.45-.22l0-.06,1-1.89a.47.47,0,0,0,.05-.28v-.06l0-.37a.6.6,0,0,0-.66-.52l-.1,0h0l-.18.05c-.38-.53-.94-1.24-1.51-2a4.48,4.48,0,0,1,1,.37A5.2,5.2,0,0,1,59.25,20.81ZM41.8,6.27c0,.08,0,.14,0,.2v0C41.74,6.36,41.8,6.33,41.8,6.27Zm13.36,8.8c.79,0,1.68,0,2.68,0A52.74,52.74,0,0,0,69,13.32L66.44,16c-3.25-.08-6.13-.13-8.07-.13-6,0-10.84,0-14.8.09l-2.22-2.34.55.09,1.69.4c1.06.24,2,.45,2.83.55a29,29,0,0,0,3.65.31H51C52.36,15,53.76,15.09,55.16,15.07Z"/><path class="cls-1" d="M62.52,36.48a8.52,8.52,0,0,0-2.11,1.46,8.74,8.74,0,0,0-2.78,6.31.13.13,0,0,1-.13.13l-5.08-.06a.07.07,0,0,1-.07-.07l.06-5.3h0v-.32h-.34l-12.33-.13-6.9-.07-3.54,0a2.52,2.52,0,0,0-1.83.53,2.35,2.35,0,0,0-.83,1.69l-1,2.39a9.34,9.34,0,0,0-3.55-5.59,11.78,11.78,0,0,0-7.33-2.59,10.76,10.76,0,0,0-7,2.87,9.35,9.35,0,0,0-2.92,5.25l-.48-2.38L3.95,27.38H4c7-.19,9.2-.51,9.82-.65v.18s0-.07,0-.18l.23-.07h-.23c0-1,.17-4.94.3-9.54,0,3.89.07,7.13.13,9.79v0a.47.47,0,0,0,.49.47c9-.2,11.61-.53,12.3-.67v0l.23-.06H27.1l.59-16.52a.35.35,0,0,0-.33-.36h0l-1.4,0h1.81l.15,26.52h0a.42.42,0,0,0,.42.42h0c31-.26,34.1-.67,34.1-.67l-33.68-.17.12-26.69a.53.53,0,0,0-.53-.53h0l-11.18,0H14.45c-.43,0-.9,0-1.34,0a11.45,11.45,0,0,0-1.39.16,11.24,11.24,0,0,0-9.29,10.4c0,.75,0,1.45,0,2.09l.07,1.92.12,3.46.51,13.8a1.87,1.87,0,0,0-.5-.36A.88.88,0,0,0,2.32,40a.79.79,0,0,1,.32.13,1.76,1.76,0,0,1,.47.53l.08.15.5,2.36A4.88,4.88,0,0,1,3,44.61a.93.93,0,0,1-.19.19H2.56c-.33,0-.61,0-.84,0h-.5c0-1.13-.09-2-.16-2.76L1,41.42a.47.47,0,0,1,.06-.29,1.88,1.88,0,0,1,.43-.52c.63-.51.85-.6.82-.63a2.13,2.13,0,0,0-.71.1,2.58,2.58,0,0,0-.73.34,1.37,1.37,0,0,0-.64,1c-.09,1.31-.18,2.82-.22,4A.59.59,0,0,0,.56,46h0l1.11,0,.84,0,.35,0,.14,0a1.32,1.32,0,0,0,.34-.16,1.84,1.84,0,0,0,.52-.63,4.16,4.16,0,0,0,.23-.54.61.61,0,0,0,.31.14l.75.08h0a.6.6,0,0,0,.66-.53v-.07a8,8,0,0,1,2.64-5.78,9.74,9.74,0,0,1,6.3-2.67,10.86,10.86,0,0,1,6.75,2.31A8,8,0,0,1,25,44.24a.49.49,0,0,0,.94.18l1.38-3.49,0,3.43v2.05A1.71,1.71,0,0,0,29,48.09c4.68,0,15-.15,22.47-.26h0a.37.37,0,0,0,.37-.38l-.1-6.06a5.36,5.36,0,0,0-.07-1.08,1.34,1.34,0,0,0-.55-.74,1.32,1.32,0,0,0-.74-.22,1.31,1.31,0,0,1,.72.25,1.29,1.29,0,0,1,.5.73,5.08,5.08,0,0,1,0,1.06l-.21,6c-7.44-.25-17.74-.57-22.41-.57a.45.45,0,0,1-.39-.23.47.47,0,0,1,0-.11s0,0,0,0,0-.13,0-.11V43.6l0-3.41c20.19-.16,21.86-.85,21.86-.85l-20.12-.3h2.6l6.9,0,12.33-.06,0,5.3a.31.31,0,0,0,.31.32h0l5.08,0a.29.29,0,0,0,.29-.29A8.65,8.65,0,0,1,60.45,38,8.53,8.53,0,0,1,62.52,36.48ZM2.77,44.81l0,0Zm0,.21h0a1.59,1.59,0,1,1,0-.19.3.3,0,0,1,.06.08S2.79,45,2.75,45ZM4.48,26.49l.06-3.68c0-1.37,0-2.77.12-4a9.16,9.16,0,0,1,2.63-5.28A9.74,9.74,0,0,1,9.87,11.7a9.43,9.43,0,0,1,3.48-.94l.49,15.92Zm10.76,0c.09-5.78.17-12.09.18-15.69l11.41-.11.26,16ZM14.52,9.78l-.2.2a.43.43,0,0,0-.16-.2Z"/><polygon class="cls-1" points="52.42 38.6 52.42 38.61 52.43 38.61 52.42 38.6"/><path class="cls-1" d="M55,7.24h0l-.52.11a2.7,2.7,0,0,0-.47.2h0a3.71,3.71,0,0,0-.64.48l0,0L53,8.38a.88.88,0,0,0-.11.31,2.64,2.64,0,0,0-.05.41,1.17,1.17,0,0,0,0,.2,6.19,6.19,0,0,0-.36.76.3.3,0,0,0,.17.39l.08,0h.14c0,.15,0,.3.06.46a4.36,4.36,0,0,0,.64,1.65,2.13,2.13,0,0,0,.79.72,1.74,1.74,0,0,0,.56.17,5.13,5.13,0,0,0,.53,0h0l.38,0a3.31,3.31,0,0,0,.39-.09l0,0c.14-.06.26-.1.44-.19a4.79,4.79,0,0,0,.41-.28l0,0a3.57,3.57,0,0,0,.61-.66l0,0a2.5,2.5,0,0,0,.29-.56,3.28,3.28,0,0,0,.08-2,3.21,3.21,0,0,0-.88-1.46A3.12,3.12,0,0,0,55,7.24Zm-2.05,2L53,9.05V9a2.45,2.45,0,0,1,.33-.27h0a2.41,2.41,0,0,1,1.16-.36h0a1.93,1.93,0,0,1,1.52.68,1.76,1.76,0,0,1,.27.45A15.86,15.86,0,0,0,53,9.88,2.34,2.34,0,0,0,52.91,9.27Zm3.85,2.21a2.82,2.82,0,0,1-.39.5l-.22.19-.34.2-.22.08-.3.08h.05c-1,.39-1.74-.8-2.08-1.69,0-.11-.09-.23-.12-.33,1.19.11,2.94.25,3.88.28a2.71,2.71,0,0,1-.1.35A1.94,1.94,0,0,1,56.76,11.48Z"/></svg>