<svg id="Layer_1" data-name="Layer 1" xmlns="http://www.w3.org/2000/svg" viewBox="0 0 79.67 90.62"><defs><style>.cls-1{fill:#231f20;}</style></defs><title>phone</title><path class="cls-1" d="M2.14,15.27h0S2.14,15.28,2.14,15.27Z"/><path class="cls-1" d="M76,70.93h0l-2.59-1.07c-1.6-.67-3.82-1.69-6.27-2.95-1.23-.62-2.51-1.32-3.8-2.07-.65-.36-1.3-.76-1.95-1.15a5.93,5.93,0,0,0-1.16-.61,4.17,4.17,0,0,0-1.44-.17A12.31,12.31,0,0,0,54,64.41,14.18,14.18,0,0,0,50.34,67a.61.61,0,0,0-.1.74c-.71-.5-1.42-1-2.11-1.5A95.46,95.46,0,0,1,26.61,44,86.66,86.66,0,0,1,16.2,23.83c-.94-2.64-1.55-4.78-1.94-6.26l-.57-2.28.53,2.29c.37,1.48.93,3.63,1.82,6.28A86.25,86.25,0,0,0,26.1,44.26,95.26,95.26,0,0,0,47.41,66.9,98.69,98.69,0,0,0,76.36,82.16l-1.45,3.47c-.27.63-.55,1.37-.81,1.9a2.79,2.79,0,0,1-1.27,1.17,6,6,0,0,1-3.81.38,29.69,29.69,0,0,1-3.81-1.37,118,118,0,0,1-12.57-6,107.74,107.74,0,0,1-23.26-17A98.42,98.42,0,0,1,14.57,46.56,89.85,89.85,0,0,1,2.14,15.3l-.52.07c0-.17.27-.35.47-.21l0,.11v-.14l0-.09V15s0,0,0,0c-.38-2.08-.66-4-.89-5.89A23.54,23.54,0,0,1,.92,6.38L.87,5.1A4.91,4.91,0,0,1,1,3.95a9.28,9.28,0,0,1,.52-1.2A6.07,6.07,0,0,1,2,2.1l.55-.56A7.39,7.39,0,0,1,3.45,1,3,3,0,0,1,4.65.66a8.6,8.6,0,0,1,3.77.92,9.82,9.82,0,0,0,3.31.88,60.41,60.41,0,0,0,1.39,10.65c.43,1.8.56,2.19.56,2.19l-.6-3.43a74.63,74.63,0,0,1-.8-9.57A.36.36,0,0,0,11.91,2h0a8.78,8.78,0,0,1-3.18-.9C8.14.84,7.55.58,6.88.35A5.62,5.62,0,0,0,4.64,0H4.58c-.2,0-.4,0-.7.08a6.2,6.2,0,0,0-.76.27l0,0A7.66,7.66,0,0,0,2,1H2l0,0-.58.57a5.54,5.54,0,0,0-.55.77v0h0A9.66,9.66,0,0,0,.21,3.76v0l-.14.64A2.76,2.76,0,0,0,0,5.18q0,.67,0,1.36c0,.46,0,.89.07,1.4L.27,9.32c.2,1.86.45,3.81.78,5.78l.51.39a.54.54,0,0,1-.44-.21.41.41,0,0,1-.07-.15h0v.29s0,0,0,0A87.83,87.83,0,0,0,7.83,37,94.29,94.29,0,0,0,20.55,57.31,102.72,102.72,0,0,0,36.72,73.13a109.21,109.21,0,0,0,15,9.89A113.39,113.39,0,0,0,64.5,89l1.94.75a13.28,13.28,0,0,0,2.18.69,7.74,7.74,0,0,0,5-.54,4.27,4.27,0,0,0,1.9-1.78c.36-.76.55-1.34.84-2L78,82h0a.66.66,0,0,0-.47-.87h0c-8.08-2.49-20.78-8.36-27.26-13.43.52.41,2.89,1.22,3.35,1.48,2.07,1.2,7.93,4.29,11.76,6a106.52,106.52,0,0,0,12,4.4h0a.55.55,0,0,0,.68-.29h0c.52-1.39,1.06-1.66,1.47-2.91a4.08,4.08,0,0,0-.8-3.46A6.09,6.09,0,0,0,76,70.93Zm3.18,5.34c-.46,1.13-1.06,1.35-1.65,2.65A113.9,113.9,0,0,1,66,74.08c-3.68-1.79-6.85-3.6-8.88-4.78-1.77-1-2.86-1.45-4.34-2.41A9.93,9.93,0,0,1,55,65.47a11.46,11.46,0,0,1,3.52-1.29,2.77,2.77,0,0,1,1.37.08c.44.22,1,.54,1.46.8,1,.53,1.88,1,2.73,1.43a70.2,70.2,0,0,0,7.73,3.29,33.35,33.35,0,0,0,3.43,1,4,4,0,0,0,.74.13A5.91,5.91,0,0,1,78.58,73,3.82,3.82,0,0,1,79.13,76.27Z"/><path class="cls-1" d="M15,1.7h0l3.42.12A4.6,4.6,0,0,1,20.19,2a4.21,4.21,0,0,1,1.38,1A8.6,8.6,0,0,1,23.3,6a7.89,7.89,0,0,1,.4,1.62l.15,1.71a62.65,62.65,0,0,0,1.93,11.39,7,7,0,0,1,.29,1.42,4.06,4.06,0,0,1-.12,1.31,3.87,3.87,0,0,1-1.32,2.09,6.44,6.44,0,0,1-2.43,1L20.28,27a96.33,96.33,0,0,1-3-9.83c-.66-2.68-1.06-4.57-1.36-5.9a14.36,14.36,0,0,0-.77-3l.14,1.82c.08,1.17.28,2.79.56,4.72A76.44,76.44,0,0,0,19.08,28.1a.74.74,0,0,0,.89.42h0l3.58-.94a5.64,5.64,0,0,0,1.84-.75,5.16,5.16,0,0,0,1.33-1.26,5.66,5.66,0,0,0,.72-5.2A82.15,82.15,0,0,1,25.11,9.15l-.26-1.74a8.86,8.86,0,0,0-.56-1.78,9.45,9.45,0,0,0-2.12-3.12,5,5,0,0,0-1.73-1.09,3.32,3.32,0,0,0-1.1-.19h-.91L15,1.3h0a.42.42,0,0,0-.44.4v0l.54,6.54S15.08,5.48,15,1.7Z"/></svg>