<svg id="Layer_1" data-name="Layer 1" xmlns="http://www.w3.org/2000/svg" viewBox="0 0 108.9 100.79"><defs><style>.cls-1{fill:#231f20;}</style></defs><title>public_transportation</title><path class="cls-1" d="M11.71,32.78,8.25,16.45,10.67,32.9a1.64,1.64,0,0,1-1.33,1.52,9,9,0,0,1-1.24,0l-1.3,0c-1.68,0-3.15-.07-4.25-.07H1.39c0-5.37-.08-9.56-.17-12.8q0-1.16-.07-2.35l0-1c-.08,0,.12-.2.37-.3A13.64,13.64,0,0,1,4.31,17l3-.6A4,4,0,0,0,8,16.24s-1.08,0-2.79.13a22.76,22.76,0,0,0-3,.43,6.88,6.88,0,0,0-.88.26,1.7,1.7,0,0,0-1,.71,1.54,1.54,0,0,0-.09.63v.47l0,1C.15,25.45.05,31.73,0,35a.69.69,0,0,0,.67.7H2.56l4.24,0,1.3,0a8.56,8.56,0,0,0,1.5-.09,2.76,2.76,0,0,0,2.12-2.7v-.11Z"/><path class="cls-1" d="M35.38,15.71l-6.81,0h-3a3.93,3.93,0,0,0-2.91,1.09l-.09.09-.17.2a6.85,6.85,0,0,0-.82,1.55.53.53,0,0,0,0,.23v0c0,12.09,0,22.68,0,31.91h0a.65.65,0,0,0,.48.62,106.87,106.87,0,0,0,19.91,3c5.9.4,11,.41,15.51.3A135.35,135.35,0,0,0,77,52.9a69,69,0,0,0,8.09-1.84c.8-.24,1.22-.39,1.44-.46,0,.12,0,.18,0,.18s0-.06,0-.18l.19-.08-.19.05c0-1.86.2-16.63.42-34.2a.15.15,0,0,0-.15-.15h0l-35.35-.37Zm50.94,1.11c.1,17.62.18,31.93.18,33.75-.58.16-2.54.67-5.62,1.24a126.57,126.57,0,0,1-15.24,1.77,173.75,173.75,0,0,1-20.91,0,114.24,114.24,0,0,1-21.9-3.26c0-12.5.07-23.84.1-31.29a5,5,0,0,1,.56-1.07l.12-.14a2.55,2.55,0,0,1,2-.72h3l6.82,0L51.47,17Z"/><path class="cls-1" d="M86.8,76.83h-.05c-4.8.44-10.92,1-13.78,1.46l-.32,0h.1a1.9,1.9,0,0,0-1.24.52,3.45,3.45,0,0,0-.66.83,4.56,4.56,0,0,0-.6,1.84,3.81,3.81,0,0,0,.35,1.78,3.76,3.76,0,0,0,1,1.4A2.15,2.15,0,0,0,72,85a1.65,1.65,0,0,0,.54.16H73l.32,0L74.58,85l2.23-.22c2.76-.28,4.69-.54,6-.75a17.56,17.56,0,0,0,2.78-.59v.13l0-.13a1.06,1.06,0,0,0,.22-.1h-.2l1.17-5.91h0l0,0,.08-.4A.12.12,0,0,0,86.8,76.83Zm-1.18,6.48-7.88.34-3.36.15-1.58.08c-.27,0-.55-.3-.78-.69A3.34,3.34,0,0,1,71.6,82a2.32,2.32,0,0,1,.19-1.09c.26-.73.85-1.23,1-1.16h.1l.32,0c2.76-.41,8.48-1.38,13.09-2.18Z"/><path class="cls-1" d="M64.79,68.31a3.58,3.58,0,0,0-1.41-.19h-1a.69.69,0,0,0-.7.69h0v0c0,5.38.09,9.2.23,11.9.06,1.35.14,2.42.21,3.27a1.51,1.51,0,0,0,.43,1.15,1.06,1.06,0,0,0,.84.26h0a7.47,7.47,0,0,0,.89-.63v0a.94.94,0,0,0,.15-.15l-.14.06c.08-.77.39-4,.71-7.24l.54-6.07c0-.51.08-1,.11-1.4A1.68,1.68,0,0,0,64.79,68.31Zm-.38,3c0,1.79,0,4-.05,6.09,0,3.34,0,6.51,0,7.27l-.94.38a.69.69,0,0,1-.62-.67c0-.6,0-1.27.05-2,0-1.52.09-3.21.13-4.84.08-3,.15-6.12.16-8.09h.27a4.64,4.64,0,0,1,.84,0c.12.08.22.11.21.42S64.41,70.86,64.4,71.35Z"/><path class="cls-1" d="M60.17,68.31a3.59,3.59,0,0,0-1.42-.19h-1a.69.69,0,0,0-.7.69h0v0c0,5.38.09,9.2.23,11.9.07,1.35.14,2.42.21,3.27a1.5,1.5,0,0,0,.43,1.15,1.06,1.06,0,0,0,.84.26h0a7.56,7.56,0,0,0,.9-.63v0a.94.94,0,0,0,.15-.15l-.14.06.71-7.24L61,71.4c0-.51.08-1,.11-1.41A1.68,1.68,0,0,0,60.17,68.31Zm-.38,3c0,1.79,0,4-.05,6.09,0,3.34,0,6.51,0,7.27l-.95.38a.69.69,0,0,1-.62-.67l.05-2,.13-4.84c.08-3,.15-6.11.16-8.08h.27a4.66,4.66,0,0,1,.84,0c.12.08.22.11.21.42S59.79,70.85,59.78,71.35Z"/><path class="cls-1" d="M55.54,68.31a3.59,3.59,0,0,0-1.42-.19h-1a.69.69,0,0,0-.7.69h0v0c0,5.38.09,9.2.23,11.9.07,1.35.14,2.42.22,3.27a1.5,1.5,0,0,0,.43,1.15,1.06,1.06,0,0,0,.84.26h0a7.56,7.56,0,0,0,.89-.63v0a.94.94,0,0,0,.15-.15l-.14.06.71-7.24.54-6.07c0-.51.08-1,.11-1.41A1.68,1.68,0,0,0,55.54,68.31Zm-.38,3c0,1.79,0,4-.05,6.09,0,3.34,0,6.51,0,7.27l-.95.38a.69.69,0,0,1-.62-.67c0-.6,0-1.28.05-2,0-1.52.09-3.21.13-4.84.08-3,.15-6.11.16-8.08h.27a4.75,4.75,0,0,1,.84,0c.12.09.22.11.21.42S55.17,70.86,55.16,71.35Z"/><path class="cls-1" d="M50.92,68.31a3.56,3.56,0,0,0-1.41-.19h-1a.69.69,0,0,0-.7.69h0v0c0,5.38.09,9.19.23,11.9.06,1.35.14,2.42.21,3.28a1.51,1.51,0,0,0,.43,1.15,1.05,1.05,0,0,0,.84.26h0a7.58,7.58,0,0,0,.9-.62v0a1,1,0,0,0,.15-.15l-.14.06.71-7.24c.19-2.18.39-4.37.54-6.08l.11-1.4A1.67,1.67,0,0,0,50.92,68.31Zm-.38,3c0,1.79,0,4-.05,6.09,0,3.34,0,6.51,0,7.27l-.95.38a.69.69,0,0,1-.62-.67c0-.6,0-1.28.05-2,0-1.52.09-3.21.13-4.84.08-3,.14-6.11.16-8.08h.27a4.7,4.7,0,0,1,.85,0c.12.08.22.11.21.42S50.55,70.85,50.54,71.35Z"/><path class="cls-1" d="M46.3,68.31a3.59,3.59,0,0,0-1.41-.19h-1a.69.69,0,0,0-.7.69h0v0c0,5.38.09,9.2.23,11.9.07,1.35.14,2.42.21,3.27a1.5,1.5,0,0,0,.43,1.15,1.06,1.06,0,0,0,.84.26h0a7.62,7.62,0,0,0,.9-.63v0a1,1,0,0,0,.15-.15l-.14.06.71-7.24.54-6.08.11-1.4A1.68,1.68,0,0,0,46.3,68.31Zm-.38,3c0,1.79,0,4-.05,6.09,0,3.34,0,6.51,0,7.27l-.95.38a.69.69,0,0,1-.62-.67l.05-2,.13-4.84c.08-3,.15-6.11.16-8.08h.27a4.81,4.81,0,0,1,.85,0c.12.08.22.11.21.42S45.93,70.85,45.92,71.35Z"/><path class="cls-1" d="M38.08,79.3l-.38-.08h0c-4.1-.85-10-2-13.54-2.66h-.1a1.68,1.68,0,0,0-1.25.66,4,4,0,0,0-.48.74,7.79,7.79,0,0,0-.63,1.76,6,6,0,0,0-.15.92,3.69,3.69,0,0,0,.07,1,6.39,6.39,0,0,0,1.32,3,1.6,1.6,0,0,0,1,.53h.42l.32,0L25.93,85l2.22-.22c2.75-.28,4.67-.54,6-.75a17.09,17.09,0,0,0,2.77-.59l0,.11,0-.12a1,1,0,0,0,.21-.09H37l1-3.64h0l0,0,.09-.33Zm-1.13,4-8,.34-3.37.15c-.52,0-1.21.07-1.59.07.09,0-.13-.08-.22-.25a3.23,3.23,0,0,1-.33-.58,5.17,5.17,0,0,1-.52-2.49,6.9,6.9,0,0,1,.63-2,2.88,2.88,0,0,1,.3-.48.84.84,0,0,1,.19-.19c3.56.48,9.42,1.2,13.55,1.7Z"/><path class="cls-1" d="M25.91,11.83,26,12l0-.14,0,0Z"/><path class="cls-1" d="M37,5.39l-9.85.09a.32.32,0,0,0-.32.32c0,.91,0,1.72,0,2.43,0,.1,0,.2,0,.3l-.73,3.12h-.22l.15.18h0v0l.14.18,0-.2,27.89.51,15.52.23,6.63.07,2.84,0h1.28a2.44,2.44,0,0,0,1.51-.54,5.19,5.19,0,0,0,1.64-2.58,4.4,4.4,0,0,0-.14-3A4.73,4.73,0,0,0,81.7,4.23a2.4,2.4,0,0,0-.85-.34l-.4,0h-.31l-1.21,0-9,.25-14.78.47C46.91,4.92,41.12,5.18,37,5.39ZM27,5.8a.14.14,0,0,1,.14-.15h0l4.08.08c-2.41.17-3.42.29-3.8.35l0-.17,0,.17-.21,0h.2l-.47,2Q27,7.09,27,5.8Zm27,5.61-27.73.23.56-2.74a2.3,2.3,0,0,0,.21,1.22,1.6,1.6,0,0,0,1,.8,2.09,2.09,0,0,0,.44.06,2,2,0,0,1-.45-.08,1.59,1.59,0,0,1-1-.84A3.34,3.34,0,0,1,27,8.47l.48-2.34,12.83-.2c13.88.27,31.81.58,40.21.58a.68.68,0,0,1,.59.36c.1,0,.08.68.08,1.11,0,.71,0,1.38,0,2.05-48.88.07-52.62,1-52.62,1L69,11.31Z"/><path class="cls-1" d="M108.9,32.86v-.08l-3.46-16.32,2.43,16.45a1.64,1.64,0,0,1-1.33,1.52,9.35,9.35,0,0,1-1.24,0l-1.3,0c-1.68,0-3.15-.07-4.25-.07H98.57c0-5.37-.08-9.56-.17-12.8,0-.77,0-1.55-.07-2.35l0-1c-.08,0,.13-.2.37-.3a13.58,13.58,0,0,1,2.83-.83l3-.6a4,4,0,0,0,.63-.16s-1.08,0-2.79.13a22.69,22.69,0,0,0-3,.43,7,7,0,0,0-.88.26,1.71,1.71,0,0,0-1,.71,1.5,1.5,0,0,0-.09.64v.47l0,1c0,.17,0,.34,0,.51a.68.68,0,0,0-.24-.08H95a.67.67,0,0,0-.43.17c0-2.17,0-4.24,0-6.19,0-1.52,0-3-.07-4.37A10.86,10.86,0,0,0,89,1.54,10.62,10.62,0,0,0,85.12.29,9.33,9.33,0,0,0,83.7.2,9.41,9.41,0,0,1,85.11.3,10.59,10.59,0,0,1,88.93,1.6a10.73,10.73,0,0,1,5.4,8.3c.1,1.39,0,2.83,0,4.35-.09,12.19-.21,28.82-.33,46.61,0,4.48-.06,9-.09,13.6q0,3.44,0,6.88a29.12,29.12,0,0,1-.11,3.39,10.13,10.13,0,0,1-5.6,7.7,10,10,0,0,1-3.11.93,27.53,27.53,0,0,1-3.32.07L68.5,93.36l-42.79-.15a9.87,9.87,0,0,1-9.82-7,10.09,10.09,0,0,1-.42-3.09q0-1.66,0-3.29,0-3.27,0-6.43c0-8.44,0-16.36,0-23.81s0-14.37,0-20.89q0-4.86,0-9.41,0-2.26,0-4.45a14.22,14.22,0,0,1,.38-4.12,15.69,15.69,0,0,1,3.67-6.83A8.32,8.32,0,0,1,25.6.94L38.86.86,59.06.68C80.89.44,83.7.2,83.7.2L63.91.13,42.76.06,30.42,0H27.2a18.17,18.17,0,0,0-3.34.14,10.46,10.46,0,0,0-5.75,3.68,16.79,16.79,0,0,0-3.26,6.1,13.86,13.86,0,0,0-.58,3.48l0,3.44c0,1.16,0,2.32,0,3.47a.75.75,0,0,0-.17-.06H11.91a.68.68,0,0,0-.67.69V21c.41,3.15,1.43,9.38,1.43,9.38s.08-5.42,0-8.76h.55c-.75,8,0,8.75,0,8.75s.55-3.38,1-6.43q0,3.33,0,6.65c0,9.19,0,18.29-.07,26.9s0,16.78,0,24c0,.91,0,1.79,0,2.73A11,11,0,0,0,14.68,87a11.25,11.25,0,0,0,9.92,7.6A11.57,11.57,0,0,1,19.19,93a11.32,11.32,0,0,1-1.68-1.23c-.38-.33-.58-.54-.58-.54s.18.22.53.59A11.2,11.2,0,0,0,19,93.25a11.75,11.75,0,0,0,6.19,2.21l4.42,1.61a5.61,5.61,0,0,1-.73,1.83,1.87,1.87,0,0,1-.42.47c.06,0,0,0-.1,0h-.68c-4.41,0-7.82.06-10.46.14-.28-7.37-.79-8.09-.79-8.09s-.12,4.29-.24,8.65a.49.49,0,0,0,.47.5h0c4.12.1,8.65.2,11,.2h.8a1.53,1.53,0,0,0,.34-.07,2.36,2.36,0,0,0,1.21-1.1,6.31,6.31,0,0,0,.86-2.92.6.6,0,0,0-.44-.61h0l-5-1.43h0l-.13,0c-.17,0-.34,0-.5,0,.31,0,.61,0,.91,0l42.79-.07,13.24,0a27.81,27.81,0,0,0,3.46-.11,10.63,10.63,0,0,0,1-.23c-.69.26-1.37.49-2,.68a22.49,22.49,0,0,1-3.06.7,9.28,9.28,0,0,1-1.21.12,8.84,8.84,0,0,0,1.23,0,21.47,21.47,0,0,0,3.15-.42,28.9,28.9,0,0,0,4.17-1.17,15.5,15.5,0,0,0,3.2-1.55c-.08,1.87-.14,3.53-.14,4.65,0,.77,0,1.5,0,2.22-3.4,0-6.08.1-8.15.19l-2.84.15c-.07.08-.28-.22-.35-.52a6,6,0,0,1-.17-.85c-.13-1.06-.17-1.7-.24-2a1.12,1.12,0,0,0-.12-.41l-.12,1.67a7.51,7.51,0,0,0,.08,1.94,1.53,1.53,0,0,0,.3.65c.15.27.7.33.8.31l1.19,0,10.33.24a.66.66,0,0,0,.67-.64h0v0c0-1.29,0-2.24,0-2.91,0-1.1,0-3.09-.08-5.75h0a.62.62,0,0,0-.63-.61.62.62,0,0,0-.44.2,6.9,6.9,0,0,1-1,.85,10.83,10.83,0,0,0,3.87-7,28.81,28.81,0,0,0,.09-3.52q0-3.45,0-6.88c0-4.58,0-9.13,0-13.6,0-14-.09-27.2-.12-38.1.47,3.27,1.19,7.66,1.19,7.66s.08-5.42,0-8.76h.55c-.75,8,0,8.75,0,8.75s.58-3.51,1-6.59c-.07,4.39-.13,8.68-.17,11.21a.69.69,0,0,0,.67.7h1.89l4.24,0,1.3,0a8.54,8.54,0,0,0,1.5-.09,2.76,2.76,0,0,0,2.12-2.7ZM28.43,99.39Z"/></svg>