<svg id="Layer_1" data-name="Layer 1" xmlns="http://www.w3.org/2000/svg" viewBox="0 0 81.58 68.91"><defs><style>.cls-1{fill:#231f20;}</style></defs><title>safe_shopping</title><path class="cls-1" d="M50.16,16.61s8.68.09,12.14,0a.78.78,0,0,0,0-1.56h0l-.5,0c-2.55-.11-9.25-.06-11.64,0h0a.33.33,0,0,0-.32.33h0c0,.63,0,1,0,1s0-.38.11-1v0a.17.17,0,0,1,.18-.15h0l3.79.55C50.52,16.15,50.16,16.61,50.16,16.61Z"/><path class="cls-1" d="M74.2,52.52l-.05-.07-.08.32-30.52-.59L24.1,51.88l-8.41-.1-3.59,0H9.56a1.65,1.65,0,0,0-.94.3,2.3,2.3,0,0,0-.95,2,2.27,2.27,0,0,0,1.14,1.83,1.62,1.62,0,0,0,.32.13l.22,0H12L17.4,56l9.86-.12,16.15-.26c9.3-.18,15.78-.37,20.3-.54,7.08-.27,9.32-.5,10-.59l0,.18.05-.19.23,0h-.22l.43-1.55h.35l-.05-.07h-.27Zm-.53,1.88H46.42L24,54.41l-9.95,0-4.22,0H9.55a.31.31,0,0,1-.09-.07.84.84,0,0,1-.21-.4.38.38,0,0,1,0-.09h0a.42.42,0,0,1,0-.08.85.85,0,0,1,.05-.17.71.71,0,0,1,.22-.3l64.54-.49Z"/><path class="cls-1" d="M74.22,52.47v0l.2.26h.05Z"/><path class="cls-1" d="M74.22,58.36v0l.2.26h.05Z"/><path class="cls-1" d="M74.2,58.41l-.05-.07-.08.32-30.52-.59L24.1,57.77l-8.41-.1-3.59,0H9.56a1.68,1.68,0,0,0-.35,0,1.65,1.65,0,0,0-.59.27,2.3,2.3,0,0,0-.95,2,2.27,2.27,0,0,0,1.14,1.83,1.6,1.6,0,0,0,.32.13l.22,0H12l5.41-.06,9.85-.12,16.16-.26c9.3-.18,15.78-.37,20.3-.54,7.08-.27,9.32-.5,10-.59l0,.19.05-.19.23,0h-.22l.43-1.55h.35l-.05-.07h-.27Zm-.53,1.88H46.42L24,60.31l-9.94,0-4.22,0H9.55a.32.32,0,0,1-.09-.07.84.84,0,0,1-.21-.4.45.45,0,0,1,0-.2.85.85,0,0,1,.05-.17.71.71,0,0,1,.22-.3l64.54-.49Z"/><path class="cls-1" d="M8.95,36.4h0a3.26,3.26,0,0,0,1.35,2.75,3.31,3.31,0,0,0,1.59.6c.56,0,1.08,0,1.62.07l6.48.22c4.23.13,8.09.23,10.51.23h0a.78.78,0,0,0,.79-.78h0c0-3.16,0-6,0-8.71,0-.64,0-1.27,0-1.9a3.93,3.93,0,0,0-.51-2.07,3.78,3.78,0,0,0-3.31-1.88h-.06c-12.46,1.37-15.72,2.15-16.52,2.41l0-.16,0,.16a1.39,1.39,0,0,0-.23.09l.22,0-1.88,9Zm18.5-10.2a2.48,2.48,0,0,1,2.4,2.23c0,1.49,0,2.91,0,4.23,0,2.45,0,4.49,0,6.05l-9.78.1-6.48.1c-.53,0-1.11,0-1.58,0a2.59,2.59,0,0,1-1.21-.4,2.62,2.62,0,0,1-1.19-2.11l1.33-9Z"/><path class="cls-1" d="M81.56,57.81q0-3.09,0-6.05c0-7.89-.06-15.07-.08-21.14,0-3,0-5.78,0-8.2a6.19,6.19,0,0,0-.87-3.4,7.87,7.87,0,0,0-2-2.2,8.84,8.84,0,0,0-3.71-1.67A6.65,6.65,0,0,0,73.44,15a6.64,6.64,0,0,1,1.43.15,8.79,8.79,0,0,1,3.67,1.7,7.75,7.75,0,0,1,1.93,2.2,6,6,0,0,1,.82,3.35c0,2.42,0,5.18-.07,8.2-.05,6.07-.11,13.25-.17,21.14q0,3,0,6.05,0,1.54,0,3.11a7.13,7.13,0,0,1-.53,3,6.62,6.62,0,0,1-4.69,3.86A16.32,16.32,0,0,1,72.5,68l-3.33,0-54.24-.37-6.37,0a8.32,8.32,0,0,1-2.87-.31A6.11,6.11,0,0,1,1.5,61q0-2.88,0-5.6c0-7.31,0-13.67,0-18.75V28.52q0-2,0-4a23.85,23.85,0,0,1,.13-3.72,6,6,0,0,1,4.42-4.57,6.31,6.31,0,0,1,1.65-.18h5.46L39,16a8.45,8.45,0,0,0-2.68,1.58l0,0,0,0c-.24.26-.43.43-.74.81s-.39.6-.57.89l-1,1.73a.65.65,0,0,0-.09.33v0q0,6.75,0,12.91,0,3.09,0,6a7.58,7.58,0,0,0,2.74,5.4,7.75,7.75,0,0,0,5.45,1.72l5.16,0,9.51-.06,8.49-.06,3.88,0,1.86,0a7.18,7.18,0,0,0,1.87-.3,7.31,7.31,0,0,0,4.81-4.64,8.21,8.21,0,0,0,.37-3q0-1.44,0-2.79c0-3.48-.09-6.54-.13-9.24,0-1.27,0-2.46-.06-3.57a7.39,7.39,0,0,0-.5-2.89,6.8,6.8,0,0,0-2.65-3.2,6.53,6.53,0,0,0-2.22-.9.22.22,0,0,1-.16-.26.22.22,0,0,1,0-.07h0l.83-1.25-.89,1.21a.3.3,0,0,0,.06.41l.09,0h0a6.63,6.63,0,0,1,5,5.79c0,.61,0,1.31,0,2,0,2.86,0,6.21,0,10,0,1.86,0,3.87,0,5.89a6.54,6.54,0,0,1-3,5,6.43,6.43,0,0,1-3,1c-1.08,0-2.31,0-3.48,0l-7.31,0L45,46.41c-1.32,0-2.72,0-4,0A6.39,6.39,0,0,1,35.47,42a6.28,6.28,0,0,1-.31-1.86V38.07c0-5.47,0-11,.05-16.44l.93-1.56c.17-.27.36-.57.51-.78s.38-.41.59-.63A7,7,0,0,1,40,17.17a.67.67,0,0,0,.5-.64c0-.41,0-.81,0-1.21a.66.66,0,0,0-.66-.67h0L7.33,14.57A7.52,7.52,0,0,0,0,22.17q0,1.65,0,3.23c0,4.2,0,8,0,11.25,0,5.1,0,11.48,0,18.75Q0,58.12,0,61a7.59,7.59,0,0,0,2.35,5.85,7.5,7.5,0,0,0,2.88,1.7,9.67,9.67,0,0,0,3.29.35l6.37,0,54.24-.17h5a7.58,7.58,0,0,0,1.75-.18A7.28,7.28,0,0,0,81,64.21a7.72,7.72,0,0,0,.55-3.29Q81.57,59.35,81.56,57.81Z"/><path class="cls-1" d="M42.4,15.75l5.07.88h0a.32.32,0,0,0,.37-.26v-.06c0-1.21,0-1.89,0-1.9s0-.25,0-.65a8.28,8.28,0,0,1,4.25-6.5,7.54,7.54,0,0,1,8,.26,9.69,9.69,0,0,1,4.09,7.84.66.66,0,0,0,.53.65h0l5.05,1a.71.71,0,0,0,.84-.56.58.58,0,0,0,0-.13h0c0-1,0-2,0-2.92a14.18,14.18,0,0,0-2.29-6.92A14.43,14.43,0,0,0,62.53,1.4,13.92,13.92,0,0,0,52.64.55a14.88,14.88,0,0,0-8.09,6.32,15.55,15.55,0,0,0-2.47,8.49h0A.39.39,0,0,0,42.4,15.75Zm2.78-8.55A14,14,0,0,1,53,1.61a12.83,12.83,0,0,1,8.91,1.1A13.57,13.57,0,0,1,67,7.34a13,13,0,0,1,1.85,4.45,16.5,16.5,0,0,1,.28,3.61l-3.62-.66a10.92,10.92,0,0,0-3.77-7.42,9,9,0,0,0-3.3-1.79,7.87,7.87,0,0,0-3.26-.21,8.83,8.83,0,0,0-4.62,2.09,8.6,8.6,0,0,0-2.13,2.81,7.29,7.29,0,0,0-.73,3.46,2.7,2.7,0,0,0,.09.73s0,.71-.06,1.9h0a.22.22,0,0,1-.23.22h0l-5-1.11a.07.07,0,0,1-.06-.07A15.1,15.1,0,0,1,45.18,7.21Z"/><path class="cls-1" d="M60.71,30a10.8,10.8,0,0,0-.51-2.76A6.46,6.46,0,0,0,58,23.93a3.49,3.49,0,0,0-2.29-.6,6.42,6.42,0,0,0-2.36.57l-.06,0a7.06,7.06,0,0,0-1.29.9,6.24,6.24,0,0,0-1,1.24A6.12,6.12,0,0,0,50,29a15.48,15.48,0,0,0,.6,4.62,6.15,6.15,0,0,0,.87,1.89A9.59,9.59,0,0,0,53,40a5.75,5.75,0,0,0,1.61,1.67,3,3,0,0,0,1.13.46,3.48,3.48,0,0,0,1.11,0,4.58,4.58,0,0,0,3.06-1.9,4.42,4.42,0,0,0,.8-2.73c.38-5.72,0-6.4,0-6.4A8.29,8.29,0,0,0,60.71,30Zm-.94,7.34v.06a3.5,3.5,0,0,1-2.87,3.36,3.63,3.63,0,0,1-.8,0,1.52,1.52,0,0,1-.62-.22A5.58,5.58,0,0,1,53.59,38a7.66,7.66,0,0,1-.64-2.81.75.75,0,0,0-.18-.49l0,0a4.8,4.8,0,0,1-.67-1.52A17.15,17.15,0,0,1,51.37,29,4.92,4.92,0,0,1,52,26.7a5.28,5.28,0,0,1,.75-1,6.14,6.14,0,0,1,1-.85,5.46,5.46,0,0,1,2-.63,2.73,2.73,0,0,1,1.84.33,6,6,0,0,1,2.25,2.88A10.77,10.77,0,0,1,60.62,30a7.64,7.64,0,0,1,.09,1C60.69,31.17,60.29,33.89,59.77,37.37Z"/><path class="cls-1" d="M39.77,19s0,0,0,0Z"/><path class="cls-1" d="M41,18.67h.06l26.74.59,2.28,0a5.66,5.66,0,0,1,2.12.27,3.88,3.88,0,0,1,2.46,3,16.89,16.89,0,0,1,0,2.17c0,.75,0,1.49,0,2.22l-.07,4.31c0,2.89-.07,5.52-.1,7.79,0,.3,0,.59,0,.87a4.08,4.08,0,0,1-.07.7,3.58,3.58,0,0,1-2.24,2.66,3.64,3.64,0,0,1-1.35.24H66l-6,0-10.62.06-4.66,0-2.17,0h-1a3.92,3.92,0,0,1-.87-.1,3.72,3.72,0,0,1-2.51-2,7.18,7.18,0,0,1-.41-3.18c-.15-8.81-.34-13.85-.5-16.71l.7-.92h0a5,5,0,0,1,1.5-1.54l.36-.23a4.31,4.31,0,0,0-2.09,1.62l0,0-.77.89a.27.27,0,0,0-.06.17v0c0,2.6-.07,6.63-.12,11.37,0,1.19,0,2.43,0,3.7q0,1,0,1.94a15.72,15.72,0,0,0,0,2.05,4.85,4.85,0,0,0,2.58,3.59,5,5,0,0,0,2.25.55l2.09,0,16.26.13,7,0H71l.32,0a5.09,5.09,0,0,0,4.63-4.27A12.55,12.55,0,0,0,76,38.94c0-2.39,0-5.08,0-8,0-1.42,0-2.9,0-4.4q0-1.12,0-2.27a8.53,8.53,0,0,0-.22-2.46,5,5,0,0,0-3.72-3.42,13,13,0,0,0-2.44-.09l-2.3,0-26.14.26H41L39.84,19Z"/></svg>