<svg id="Layer_1" data-name="Layer 1" xmlns="http://www.w3.org/2000/svg" viewBox="0 0 96.18 90.86"><defs><style>.cls-1{fill:#231f20;}</style></defs><title>schools_motor_coach</title><path class="cls-1" d="M28.28,83.32c-3.19-.54-9.51-1.49-13.9-2.14h0a.37.37,0,0,0-.42.31v.06c.07,2.74.13,4.83.13,4.83l.28-4.79c4.07,1,9.78,2.26,13.12,2.91h0a8,8,0,0,1-2.38,4.85,1.93,1.93,0,0,1-.43.24,1.23,1.23,0,0,1-.44.09l-1.17,0-2.17.06L19,89.85a8.25,8.25,0,0,1-1.5,0,3.84,3.84,0,0,1-2-.94,4.55,4.55,0,0,1-1.28-2,2.65,2.65,0,0,0-.18-.49,4.21,4.21,0,0,0,.68,2.39,4.29,4.29,0,0,0,2.12,1.68,4.76,4.76,0,0,0,1.57.26l1.57,0,3.27.08a5.11,5.11,0,0,0,1.82-.13,3.84,3.84,0,0,0,1.5-1.08,9.83,9.83,0,0,0,2.19-5,5.78,5.78,0,0,0,0-.71A.66.66,0,0,0,28.28,83.32Z"/><path class="cls-1" d="M82,83.32c-3.19-.54-9.51-1.49-13.89-2.14h0a.37.37,0,0,0-.42.31v.06c.07,2.74.13,4.83.13,4.83l.28-4.79c4.07,1,9.78,2.26,13.11,2.91h0a8,8,0,0,1-2.38,4.85,1.94,1.94,0,0,1-.43.24,1.21,1.21,0,0,1-.44.09l-1.17,0-2.17.06-1.86.07a8.42,8.42,0,0,1-1.5,0,3.83,3.83,0,0,1-2-.94,4.55,4.55,0,0,1-1.28-2,2.65,2.65,0,0,0-.18-.49,4.2,4.2,0,0,0,.68,2.39,4.28,4.28,0,0,0,2.12,1.68,4.72,4.72,0,0,0,1.57.26l1.57,0,3.27.08a5.12,5.12,0,0,0,1.82-.13,3.87,3.87,0,0,0,1.5-1.08,9.84,9.84,0,0,0,2.19-5,5.84,5.84,0,0,0,0-.71A.66.66,0,0,0,82,83.32Z"/><path class="cls-1" d="M41.68,72.66l-.13-2.06c-.18-2.71-.39-5.89-.59-8.94l-.76-10.93s0,5.38.09,11c0,3.17.1,6.39.13,9,0,.74,0,1.43,0,2.07,0,.34,0,.67,0,1s0,.32,0,.47a.4.4,0,0,1,0,.19.53.53,0,0,1-.28.26,1,1,0,0,1-.5.06H38.32c0-11.83-.24-18.25-.46-21.7l-.08-1.18c-.09-.36.13-.53.37-.67a5.41,5.41,0,0,1,1.13-.43l.67-.19a5.34,5.34,0,0,0-.87.06,4.47,4.47,0,0,0-1,.25,1.16,1.16,0,0,0-.63.5.73.73,0,0,0-.08.29v.17c0,.11,0,.23,0,.35,0,1.95-.08,4.59-.14,7.39-.1,5.7-.21,12.28-.21,15.85a.66.66,0,0,0,.66.67h2a2.28,2.28,0,0,0,1.08-.21,1.8,1.8,0,0,0,.9-1,1.73,1.73,0,0,0,.1-.71l0-.47Q41.71,73.16,41.68,72.66Z"/><path class="cls-1" d="M47.5,72.66c0-.65-.08-1.34-.13-2.06-.18-2.71-.39-5.89-.59-8.94L46,50.73s0,5.38.09,11c0,3.17.1,6.39.13,9,0,.74,0,1.43,0,2.07q0,.51,0,1v.47a.39.39,0,0,1,0,.19.54.54,0,0,1-.28.26,1,1,0,0,1-.51.06H44.13c0-11.83-.24-18.25-.46-21.7l-.08-1.18c-.09-.36.13-.53.37-.67a5.44,5.44,0,0,1,1.13-.43l.68-.19a5.36,5.36,0,0,0-.87.06,4.46,4.46,0,0,0-1,.25,1.16,1.16,0,0,0-.63.5.71.71,0,0,0-.08.29v.17c0,.11,0,.23,0,.35,0,1.95-.08,4.59-.14,7.39-.1,5.7-.21,12.28-.21,15.85a.66.66,0,0,0,.66.67h2a2.29,2.29,0,0,0,1.08-.21,1.81,1.81,0,0,0,.9-1,1.73,1.73,0,0,0,.11-.71l0-.47C47.54,73.32,47.52,73,47.5,72.66Z"/><path class="cls-1" d="M53.31,72.66c0-.65-.08-1.34-.13-2.06l-.59-8.94c-.39-5.72-.76-10.93-.76-10.93s0,5.38.09,11c0,3.17.1,6.39.13,9,0,.74,0,1.43,0,2.07q0,.51,0,1,0,.24,0,.47a.41.41,0,0,1,0,.19.55.55,0,0,1-.28.26,1,1,0,0,1-.51.06H49.94c0-11.83-.24-18.25-.46-21.71,0-.4-.06-.8-.08-1.18s.13-.53.37-.67a5.45,5.45,0,0,1,1.13-.43l.68-.19a5.46,5.46,0,0,0-.87.06,4.39,4.39,0,0,0-1,.25,1.15,1.15,0,0,0-.63.5.71.71,0,0,0-.08.29v.17c0,.11,0,.23,0,.35,0,1.95-.08,4.59-.14,7.39-.1,5.7-.21,12.28-.21,15.85a.66.66,0,0,0,.66.67h2a2.28,2.28,0,0,0,1.08-.21,1.8,1.8,0,0,0,.9-1,1.72,1.72,0,0,0,.11-.71l0-.47C53.35,73.32,53.33,73,53.31,72.66Z"/><path class="cls-1" d="M59.12,72.66c0-.65-.08-1.34-.13-2.06l-.59-8.94c-.39-5.72-.76-10.93-.76-10.93s0,5.38.09,11c0,3.17.1,6.39.13,9,0,.74,0,1.43,0,2.07,0,.34,0,.67,0,1s0,.32,0,.47a.39.39,0,0,1,0,.19.52.52,0,0,1-.28.26,1,1,0,0,1-.51.06H55.76c0-11.83-.24-18.25-.46-21.7l-.08-1.18c-.09-.36.13-.53.37-.67a5.45,5.45,0,0,1,1.13-.43l.68-.19a5.36,5.36,0,0,0-.87.06,4.47,4.47,0,0,0-1,.25,1.16,1.16,0,0,0-.63.5.7.7,0,0,0-.08.29v.17c0,.11,0,.23,0,.35,0,1.95-.08,4.59-.14,7.39-.1,5.7-.21,12.28-.21,15.85a.66.66,0,0,0,.66.67h2a2.3,2.3,0,0,0,1.08-.21,1.8,1.8,0,0,0,.9-1,1.73,1.73,0,0,0,.1-.71l0-.47Q59.15,73.16,59.12,72.66Z"/><path class="cls-1" d="M96,26.19c0-.23,0-.45,0-.67a2.11,2.11,0,0,0-.1-.77,2.31,2.31,0,0,0-1-1,8,8,0,0,0-1.95-.8,6.92,6.92,0,0,0-1.87-.3,6.89,6.89,0,0,1,1.83.43,7.87,7.87,0,0,1,1.83.91,2.08,2.08,0,0,1,.8.9,5.71,5.71,0,0,1,0,1.3c-.17,3.44-.36,7.68-.48,11.2-1.58,0-3-.08-4-.08H89.18c-.13,0-.34,0-.4,0a.53.53,0,0,1-.18,0,1.44,1.44,0,0,1-.45-.37,4.59,4.59,0,0,1-1-2.5v0a.62.62,0,0,0-.28-.49L85.2,32.76c.25-1.58.51-3.19.78-4.88l.85-2.61v0a.22.22,0,0,0,0-.08c0-.35.41-.76.76-1a7.38,7.38,0,0,1,1.06-.61,14.38,14.38,0,0,1,1.49-.62l.71-.23.16-.06a3.44,3.44,0,0,0-.42,0,7.85,7.85,0,0,0-1.13.2,9.44,9.44,0,0,0-1.65.56,5,5,0,0,0-1,.55,1.64,1.64,0,0,0-.73,1.2l0-.13-1,2.6,0,.05v0l-1,4.7c-.11-4.48-.24-9.74-.39-15.58a.37.37,0,0,0-.37-.36l-70.53-.23a.6.6,0,0,0-.6.58c-.16,5.27-.31,10.31-.46,15.06l-.69-4.18v-.07L10.17,25a1.68,1.68,0,0,0-.49-1,4,4,0,0,0-.79-.61,8.54,8.54,0,0,0-1.69-.75,8.14,8.14,0,0,0-1.79-.39,6.08,6.08,0,0,0-1.81.22,7.06,7.06,0,0,0-3,1.39,2,2,0,0,0-.54.8,1.67,1.67,0,0,0-.08.51c0,.1,0,.2,0,.3,0,.4,0,.76,0,1.08C0,29,.08,33.58.17,38v0a.49.49,0,0,0,.5.48l4.22-.09,1.91,0H7.5l.22,0a1.87,1.87,0,0,0,.88-.52,5.11,5.11,0,0,0,1.22-2.37,3.88,3.88,0,0,0,.12-.87l1.8-1.13c-.16,5.18-.3,10-.43,14.17A6.37,6.37,0,0,0,8,49a4.89,4.89,0,0,0-1.26,1.62,3.7,3.7,0,0,0-.31,1,3.48,3.48,0,0,0,0,.52v.41c0,4.39,0,9.87,0,16.13q0,2.34,0,4.82c0,.84,0,1.63,0,2.54A4.62,4.62,0,0,0,10,80.29a15.87,15.87,0,0,0,2.8.11h5.47L65,80.24l11.27,0,5.4,0h2.63c.42,0,.89,0,1.31,0a4.62,4.62,0,0,0,1.37-.36,4.46,4.46,0,0,0,2.59-4.36q0-2.42,0-4.71c0-3,0-5.89,0-8.5s0-5,0-7.06c0-1,0-2,0-2.91a3.57,3.57,0,0,0-.93-2.41,5.94,5.94,0,0,0-3-1.81,5.26,5.26,0,0,0-1-.16c0-1.11-.16-6.41-.36-14.48,0,0,0,.07.08.09h0L86,34.69a5.88,5.88,0,0,0,.49,1.85,4.14,4.14,0,0,0,1.3,1.71,2,2,0,0,0,1.15.35H91l4.53,0h0a.61.61,0,0,0,.61-.62h0C96.12,34.68,96,30,96,26.19ZM10,34.43s0-.06,0-.06,0,0,0,.07a1,1,0,0,0-.11.14l.1-.06a3.86,3.86,0,0,1-.19.85,5,5,0,0,1-1.33,2.2,1.67,1.67,0,0,1-.74.39,5.35,5.35,0,0,1-.88,0l-1.91-.09L1,37.66c.19-4.29.35-8.68.35-11.07q0-.48,0-.94v-.46a.2.2,0,0,1,0-.12,2.63,2.63,0,0,1,1.06-.79,7.86,7.86,0,0,1,2.79-.77,8,8,0,0,1,2.51.59,4.91,4.91,0,0,1,1,.53,1,1,0,0,1,.44.52.46.46,0,0,0,0,.19l1.06,2.57c.54,2.38,1,4,1.28,5.1A14.59,14.59,0,0,0,10,34.43ZM84.5,47.88c0,.17,0,.24,0,.24s0-.1,0-.24a5.12,5.12,0,0,1,1,.17,5.93,5.93,0,0,1,3,1.83,3.5,3.5,0,0,1,.89,2.37c0,.89,0,1.87,0,2.91,0,2.08,0,4.45-.06,7.06s0,5.46-.07,8.5q0,2.28,0,4.71a4.06,4.06,0,0,1-2.4,4,5.47,5.47,0,0,1-2.51.32l-2.63,0-5.4,0L65,79.58l-46.64-.32-5.47,0a15.92,15.92,0,0,1-2.54-.1A3.46,3.46,0,0,1,8.43,78a3.42,3.42,0,0,1-.77-2q0-1.25,0-2.47,0-2.48,0-4.82c0-6.3,0-11.76,0-16.13C7.5,50.4,10,48.83,12,48.79h0a.66.66,0,0,0,.65-.64c.31-11.13.59-21.33.84-30.68,32.57-.06,54.69-.18,69.61-.32.9,24,1.32,29.63,1.42,30.73h0Z"/><path class="cls-1" d="M12.16,16.07l71.06-.4h0a.26.26,0,0,0,.26-.26.27.27,0,0,0,0-.07,4.15,4.15,0,0,0-1-1.84c.07.07.16.18.27.33a4.39,4.39,0,0,1,.72,1.52.22.22,0,0,1-.15.27h-.06c-9.69-.16-50.6-.79-69.38-.87l.2-.18a56.85,56.85,0,0,1,20-11.14A46.88,46.88,0,0,1,51.55,1.13,53.23,53.23,0,0,1,64.47,3.47,50.76,50.76,0,0,1,73,7a49.57,49.57,0,0,1,7.86,5.18l1.5,1.19s-.61-.62-1.81-1.68a44.29,44.29,0,0,0-5.35-4A50.32,50.32,0,0,0,55,.48,48,48,0,0,0,42.3.37a53.66,53.66,0,0,0-12.09,3.1,56.15,56.15,0,0,0-17,10.1c-.41.36-.83.75-1.47,1.36a.66.66,0,0,0,.46,1.14Z"/><path class="cls-1" d="M82.45,13.5l-.11-.11S82.37,13.42,82.45,13.5Z"/><path class="cls-1" d="M83.91,68.9a5,5,0,0,1-.08.8,6.72,6.72,0,0,1-.71,2A6.22,6.22,0,0,1,81,74a4,4,0,0,1-1.64.59c-.56,0-1.33,0-2,0l-4.29-.08L71,74.5a3.57,3.57,0,0,1-1.7-.52,5.87,5.87,0,0,1-2.2-2.53,5.65,5.65,0,0,1,0-5.1,5.87,5.87,0,0,1,2.2-2.53A3.57,3.57,0,0,1,71,63.31l2.13,0,4.29-.08c.68,0,1.44-.06,2,0a4,4,0,0,1,1.64.59,6.2,6.2,0,0,1,2.09,2.29,6.7,6.7,0,0,1,.72,2,4.94,4.94,0,0,1,.08.8,4.8,4.8,0,0,0,0-.8A6.77,6.77,0,0,0,83.3,66a6.47,6.47,0,0,0-2-2.55,4.44,4.44,0,0,0-1.8-.77c-.7-.1-1.36-.08-2.07-.12l-4.29-.17-2.15-.08a4.61,4.61,0,0,0-2.23.56,7.23,7.23,0,0,0-3.58,6.05,7.48,7.48,0,0,0,1.49,4.32A5.94,5.94,0,0,0,70,75.57a7.37,7.37,0,0,0,1.83.1l1.58,0,2.85-.06,2.45-.07A4.48,4.48,0,0,0,80.87,75a6,6,0,0,0,2.32-2.34A5.83,5.83,0,0,0,84,69.54,1.74,1.74,0,0,0,83.91,68.9Z"/><path class="cls-1" d="M62,50.76a5.39,5.39,0,0,0-3.39-3,4.52,4.52,0,0,0-1.14-.21,10,10,0,0,0-1.16,0l-2.26,0-8.83-.15-4.11-.06-1.94,0-1,.09a7.84,7.84,0,0,0-1,.27,5.84,5.84,0,0,0-2.87,2.32l-.41.75c-.1.27-.18.55-.26.82a6.75,6.75,0,0,0-.21,1.44c0,6.2,0,11.69,0,16.65,0,1.25,0,2.34.08,3.6A5.48,5.48,0,0,0,35,76.44a5.89,5.89,0,0,0,3,1.66c.26,0,.49,0,.74.08l.42,0h.36l1.41,0c7.37-.09,12.52-.2,16.1-.32a5.2,5.2,0,0,0,3.86-1.82l.46-.62.28-.59a3.6,3.6,0,0,0,.3-1A4.72,4.72,0,0,0,62,72.55h0c0-.09.06-2.61.14-6.48,0-2,.09-4.37.15-6.94,0-1.3.06-2.66.08-4q0-1.05,0-2.13c0-.37-.05-.74-.08-1.12S62.09,51.12,62,50.76ZM61.91,73l-.06.55-.21.66a4.73,4.73,0,0,1-3.15,2.91,5.4,5.4,0,0,1-1.44.21l-1.68,0-3.7,0-8.36-.08c-1.44,0-3,0-4.41-.06A3.79,3.79,0,0,1,37.84,77a3.23,3.23,0,0,1-.9-.38,4.46,4.46,0,0,1-1.5-1.33,8,8,0,0,1-.5-.87c-.1-.32-.21-.64-.28-1s-.08-.64-.08-1V71.29c0-1.48,0-2.94,0-4.35,0-5.78,0-10.77.07-14a5.87,5.87,0,0,1,.18-1.19l.18-.55.31-.58a4.58,4.58,0,0,1,2.2-1.82,7.31,7.31,0,0,1,.76-.22l.81-.09h1.94l4.11,0L54,48.34l2.26,0a9.63,9.63,0,0,1,1.08,0,3.77,3.77,0,0,1,1.05.17,4.69,4.69,0,0,1,3,2.52c.13.31.21.63.31.94l.1,1q0,1.08,0,2.13c0,1.4,0,2.75,0,4,0,2.59,0,4.95.07,6.94,0,3.92.06,6.42.06,6.48Z"/><path class="cls-1" d="M30.18,68.9a5,5,0,0,1-.08.8,6.7,6.7,0,0,1-.71,2A6.22,6.22,0,0,1,27.29,74a4,4,0,0,1-1.64.59c-.56,0-1.33,0-2,0l-4.29-.08-2.12,0a3.57,3.57,0,0,1-1.7-.52,5.87,5.87,0,0,1-2.2-2.53,5.65,5.65,0,0,1,0-5.1,5.87,5.87,0,0,1,2.2-2.53,3.57,3.57,0,0,1,1.69-.52l2.13,0,4.29-.08c.68,0,1.44-.06,2,0a4,4,0,0,1,1.64.59,6.19,6.19,0,0,1,2.09,2.29,6.67,6.67,0,0,1,.72,2,4.91,4.91,0,0,1,.08.8,4.8,4.8,0,0,0,0-.8A6.78,6.78,0,0,0,29.57,66a6.47,6.47,0,0,0-2-2.55,4.45,4.45,0,0,0-1.8-.77c-.7-.1-1.36-.08-2.07-.12l-4.29-.17-2.15-.08a4.61,4.61,0,0,0-2.23.56,7.23,7.23,0,0,0-3.58,6.05,7.48,7.48,0,0,0,1.49,4.32,5.94,5.94,0,0,0,3.36,2.35,7.36,7.36,0,0,0,1.83.1l1.58,0,2.85-.06L25,75.52A4.48,4.48,0,0,0,27.13,75a6,6,0,0,0,2.32-2.34,5.83,5.83,0,0,0,.83-3.12A1.74,1.74,0,0,0,30.18,68.9Z"/><path class="cls-1" d="M18.69,44.87h0c10.65.2,21.9.38,27.86.38l.67-.67c0-10.55,0-19-.11-25.75h0a.56.56,0,0,0-.56-.55c-21.54.2-26.56.64-27.6.77,0-.13,0-.21,0-.21s0,.08,0,.21l-.25,0h.25c0,1.78-.28,13.69-.53,25.5A.28.28,0,0,0,18.69,44.87ZM46,19.35C46,29,45.93,38.51,45.9,43.93l-26.71.17c-.11-12-.22-23.27-.23-25Z"/><path class="cls-1" d="M78.19,44.59c0-10.55,0-19-.11-25.75h0a.56.56,0,0,0-.56-.55c-21.54.2-26.56.64-27.6.77,0-.13,0-.21,0-.21v.21l-.25,0h.25c0,1.78-.28,13.69-.53,25.5a.28.28,0,0,0,.27.28h0c10.65.2,21.9.38,27.86.38ZM77,19.35C77,29,76.9,38.51,76.86,43.93l-26.71.17c-.11-12-.22-23.27-.24-25Z"/></svg>