<svg id="Layer_1" data-name="Layer 1" xmlns="http://www.w3.org/2000/svg" viewBox="0 0 105.23 71.95"><defs><style>.cls-1{fill:#231f20;}</style></defs><title>trucking_fleets</title><path class="cls-1" d="M36.95,49.7h0l65.65-.33A.38.38,0,0,0,103,49h0c0-8.75-.08-14.17-.08-14.17s-.07,5.51-.18,14.17a.13.13,0,0,1-.13.13l-65-.73c.09-13.83.16-25.83.21-33.42,0-4.65,0-9.09,0-13.36,29.29,0,49.94-.16,64.35-.31.33,30.31.79,33.52.79,33.52l.19-34a.5.5,0,0,0-.49-.5h0L37,0a.79.79,0,0,0-.79.79h0c0,5.59,0,10.39,0,14.17,0,7.87.06,20.17.1,34A.72.72,0,0,0,36.95,49.7Z"/><path class="cls-1" d="M3.13,54.61h0Z"/><path class="cls-1" d="M3.11,54.61H3A.19.19,0,0,1,3.11,54.61Z"/><path class="cls-1" d="M105.22,57.34a1.41,1.41,0,0,0,0-.2,2.45,2.45,0,0,0-.39-.74,6.27,6.27,0,0,0-.41-.51,6.88,6.88,0,0,0-.79-.77,3.08,3.08,0,0,0-.67-.44.92.92,0,0,0-.24-.07,4.69,4.69,0,0,1,1.7,2.68,4.27,4.27,0,0,1-.89,1.94h-.13l-.56-.06c-.35,0-.67,0-.91,0h-.72c0-1.11-.12-2-.21-2.73l0-.31.17-.36a4.92,4.92,0,0,1,.54-.44c.71-.49.91-.67.89-.69a3,3,0,0,0-.72.06l-.24.06.11-.24,1.92-3.36a.32.32,0,0,0-.12-.44.33.33,0,0,0-.16,0l-68.22-.3c0-11.9.09-23.92.12-34.83a.74.74,0,0,0-.74-.75h0L12,14.7a.81.81,0,0,0-.77.57L7.72,26.6,1.84,45.76a.84.84,0,0,0,0,.31l.77,7.8h0a.76.76,0,0,0,.76.68A2.61,2.61,0,0,1,5.5,55.81a.82.82,0,0,1,0,.19l0,.46c0,.08,0,.16,0,.25-.07-.11-.14-.2-.21-.31a6.25,6.25,0,0,0-.42-.51,7.25,7.25,0,0,0-.81-.76,3.3,3.3,0,0,0-.68-.44.9.9,0,0,0-.25-.07A4.84,4.84,0,0,1,4.9,57.3,4.23,4.23,0,0,1,4,59.24H4l-.15,0-.57-.06c-.36,0-.67,0-.93,0H1.54c0-1.12-.12-2-.21-2.77-.36-.46.43-.82.73-1.08.73-.49.93-.67.9-.68a3.25,3.25,0,0,0-.73.06,5.19,5.19,0,0,0-.77.19,2.22,2.22,0,0,0-1,.59.87.87,0,0,0-.21.46c0,.2,0,.2,0,.31l0,.53L.13,57.83c0,.81-.09,1.55-.12,2.1a.72.72,0,0,0,.68.76H.77c.64,0,1.17,0,1.56,0l.93,0,.57,0a1.41,1.41,0,0,0,1.1-.41,2.8,2.8,0,0,0,.48-.87.74.74,0,0,0,.65.71l4.77.53h0a.69.69,0,0,0,.18,0l0,.1a8,8,0,0,0-.42,2.17l0,.28,0,.32,0,.52a5.34,5.34,0,0,0,.13,1.07,8.17,8.17,0,0,0,.79,2.17,7.92,7.92,0,0,0,1.23,1.81,11.32,11.32,0,0,0,1.56,1.38,11.11,11.11,0,0,0,1.71.88,8.81,8.81,0,0,0,1.64.46c.56.06.92.11,1.51.14l1.3-.14a9.32,9.32,0,0,0,1.68-.46,11,11,0,0,0,1.72-.89,11.24,11.24,0,0,0,1.56-1.38,7.94,7.94,0,0,0,1.23-1.81,8.27,8.27,0,0,0,.77-2.11A5.76,5.76,0,0,0,27.58,64l0-.56a3.22,3.22,0,0,0,0-.34l0-.26a8.11,8.11,0,0,0-.41-2.1c0-.08-.06-.15-.09-.23a.65.65,0,0,0,.15,0l50.54-.21A.44.44,0,0,0,78,60.3c-.05.15-.12.29-.17.44a8,8,0,0,0-.42,2.17l0,.28,0,.32,0,.52a5.41,5.41,0,0,0,.13,1.07,8.19,8.19,0,0,0,.79,2.17,8,8,0,0,0,1.23,1.81,8.09,8.09,0,0,0,3.27,2.26,8.86,8.86,0,0,0,1.64.46c.56.06.92.11,1.51.14l1.3-.14A9.3,9.3,0,0,0,89,71.36a11,11,0,0,0,1.72-.89,11.29,11.29,0,0,0,1.56-1.38,7.9,7.9,0,0,0,1.23-1.81,8.23,8.23,0,0,0,.77-2.11A5.84,5.84,0,0,0,94.46,64l0-.56c0-.12,0-.13,0-.34l0-.26a8.11,8.11,0,0,0-.41-2.1,8.63,8.63,0,0,0-2.15-3.51,16.84,16.84,0,0,0-1.44-1.09,15.46,15.46,0,0,0-1.42-.69l-1.26-.36a7,7,0,0,0-1-.11L86,55l.84.13a6.81,6.81,0,0,1,1,.19l1.2.45c.43.19.85.5,1.31.77s.84.74,1.28,1.14A8.07,8.07,0,0,1,93.28,61a7.38,7.38,0,0,1,.24,2v.26a1.12,1.12,0,0,0,0,.21l-.08.49a4.82,4.82,0,0,1-.19,1,7.18,7.18,0,0,1-.79,1.77,6.76,6.76,0,0,1-1.14,1.47,10.41,10.41,0,0,1-1.36,1.08,10.79,10.79,0,0,1-1.43.65,7.85,7.85,0,0,1-1.32.33l-1.3.12a7.63,7.63,0,0,1-3.43-1,6.74,6.74,0,0,1-1.37-1A13.71,13.71,0,0,1,80,67.22c-.24-.44-.51-.87-.72-1.3l-.42-1.26-.18-1.42c0-.3.05-.79.07-1.16a7.44,7.44,0,0,1,1.53-3.73,7.57,7.57,0,0,1,2.16-2l.48-.32.47-.2.8-.35c.48-.18.85-.23,1.1-.32a2.3,2.3,0,0,0,.61-.24l-.81.06a6.72,6.72,0,0,0-1,.1l-1.29.36a15.54,15.54,0,0,0-1.42.69,5.88,5.88,0,0,0-.54.38,8.15,8.15,0,0,1,1.78-1.09,9.45,9.45,0,0,1,5.9-.37,16.58,16.58,0,0,1,5,1.92,7,7,0,0,1,3,3l.1,0a7.18,7.18,0,0,0-3-3.16,16.87,16.87,0,0,0-5-2,9.71,9.71,0,0,0-6.08.33,8.84,8.84,0,0,0-4.75,4.77l-50.24-.45a9.31,9.31,0,0,0-17-.21l-3.72-.45c0-.43,0-.86.07-1.28l0-.93,0-.46a2,2,0,0,0-.07-.67A3.12,3.12,0,0,0,5.41,53.7,4.66,4.66,0,0,0,4,53.16l-.64-7.09,5.93-19L12.6,16.32l21.07,0c0,13.05.07,24.54.1,34.66a.68.68,0,0,0,.68.68h0c44.93-.2,62.29-.58,68.84-.81a.12.12,0,0,1,.13.12.13.13,0,0,1,0,.06h0c-1.5,2.88-1.76,3.47-1.76,3.47h0l-.11.24a3.9,3.9,0,0,0-.53.14,2,2,0,0,0-1,.65,1,1,0,0,0-.17.5l0,.25,0,.52-.08,1.08c0,.25,0,.47,0,.69l-.19.4,0-.11c-.09.39-.26.34-.35.43l-.33.13-.65.2-.67.19-.33.11h0a.25.25,0,0,1,0,.14s0,0,0,0l.11-.06.32-.11.67-.2.66-.21.33-.14c.1-.1.28,0,.39-.5l0,.14.11-.25-.07,1.19a.72.72,0,0,0,.68.77h.09c.61,0,1.12,0,1.49,0l.91,0,.56,0h.15l.21,0,.07,0a1.42,1.42,0,0,0,.45-.22,2.44,2.44,0,0,0,.21-.22,3.76,3.76,0,0,0,.62-1.48,6.72,6.72,0,0,0,.13-.73c0-.12,0-.25,0-.39A2.47,2.47,0,0,0,105.22,57.34ZM4.07,59.63v0H4l0-.19C4.14,59.54,4.19,59.62,4.07,59.63Zm22.54,3.82-.08.49a4.9,4.9,0,0,1-.19,1,7.18,7.18,0,0,1-.79,1.77,6.78,6.78,0,0,1-1.14,1.47,10.58,10.58,0,0,1-1.36,1.08,10.51,10.51,0,0,1-1.43.65,7.75,7.75,0,0,1-1.32.33l-1.3.12a7.63,7.63,0,0,1-3.43-1,6.74,6.74,0,0,1-1.37-1,14,14,0,0,1-1.06-1.18c-.24-.45-.51-.87-.72-1.3L12,64.67l-.18-1.42c0-.3.05-.79.07-1.16a7.41,7.41,0,0,1,1.53-3.73,7.56,7.56,0,0,1,2.16-2l.48-.32.47-.2.79-.35c.48-.18.85-.23,1.1-.32l.24-.08.26,0a7.48,7.48,0,0,1,2.1.24l1,.38a15.2,15.2,0,0,1,1.31.77,16.6,16.6,0,0,1,1.28,1.14A8.06,8.06,0,0,1,26.4,61a7.31,7.31,0,0,1,.24,2v.26A1.15,1.15,0,0,0,26.62,63.45ZM100.74,56h0Zm.16,0h0a.62.62,0,0,1,.16-.23h0l-.13.28Zm2.62,3.65h0c0-.16,0,.29,0-.2,0,0,.08.09,0,.13Z"/><path class="cls-1" d="M102.67,54.61h0Z"/><path class="cls-1" d="M102.65,54.61h-.13A.2.2,0,0,1,102.65,54.61Z"/><path class="cls-1" d="M22.67,59.88a6,6,0,0,0-.85-.82,5.91,5.91,0,0,0-1-.55,5.34,5.34,0,0,0-1-.29l-.7-.08a5.05,5.05,0,0,0-4.24,2.25c-.17.32-.34.62-.47.93s-.2.69-.26,1,0,.5,0,.77a6.18,6.18,0,0,0,.1.88,4.38,4.38,0,0,0,1.26,2.31A3.82,3.82,0,0,0,17,67.2a2.69,2.69,0,0,0,1.73.09.9.9,0,0,0,.35-.14h0A4.59,4.59,0,0,0,20.62,67a4.18,4.18,0,0,0,2.77-2.53,4.5,4.5,0,0,0,.3-1.11,5.45,5.45,0,0,0,0-1.26A4.78,4.78,0,0,0,22.67,59.88ZM19.1,67.15l-.21,0h.38A.48.48,0,0,0,19.1,67.15Zm0-1.9c0-.38.09-.79.12-1.14,0-.1,0-.17,0-.27a7.78,7.78,0,0,1,0,1.59l0,.1a.23.23,0,0,1,0,0s0,0,0,0h-.05A.81.81,0,0,1,19.11,65.26Zm3.49-1a3.89,3.89,0,0,1-.83,1.58c-.22.19-.41.39-.62.54s-.42.28-.63.37a3.89,3.89,0,0,1-1.25.33l.29-.05a1.42,1.42,0,0,0,.64-.37,1.6,1.6,0,0,0,.39-1.31A7.28,7.28,0,0,0,20,63.57c-.21-.53-.4-1-.51-1.36a3.46,3.46,0,0,1-.13-.57,3.24,3.24,0,0,0-.14.91s0-.06,0-.08a1.37,1.37,0,0,0-.3-.7.49.49,0,0,0-.17-.14,8.44,8.44,0,0,1-.65,1.93,7.36,7.36,0,0,0-.55,1.82A1.61,1.61,0,0,0,18,66.7a1.41,1.41,0,0,0,.64.37l.21,0-.14,0a3.46,3.46,0,0,1-1-.3c-.2-.09-.4-.24-.63-.37s-.4-.36-.62-.54a3.9,3.9,0,0,1-.83-1.61,3.73,3.73,0,0,1,0-1.95,3.89,3.89,0,0,1,.92-1.51A3.78,3.78,0,0,1,19,59.76l.7.06a3.55,3.55,0,0,1,.62.16,5.45,5.45,0,0,1,.68.31,5.36,5.36,0,0,1,.66.52,3.72,3.72,0,0,1,.93,1.56,5.19,5.19,0,0,1,.14.9A3.7,3.7,0,0,1,22.6,64.3Z"/><path class="cls-1" d="M87.5,67a4.19,4.19,0,0,0,2.78-2.53,4.46,4.46,0,0,0,.3-1.11,5.4,5.4,0,0,0,0-1.26,4.81,4.81,0,0,0-1-2.25,4.48,4.48,0,0,0-1.82-1.37,5.38,5.38,0,0,0-1-.29l-.7-.08a5,5,0,0,0-4.24,2.25c-.17.32-.33.62-.47.93s-.2.69-.26,1l0,.77a6,6,0,0,0,.1.88,4.38,4.38,0,0,0,1.26,2.31,3.83,3.83,0,0,0,1.52.94,2.69,2.69,0,0,0,1.73.09.9.9,0,0,0,.35-.14h0A4.59,4.59,0,0,0,87.5,67Zm-1.41-1.59,0,.1a.21.21,0,0,1,0,0s0,0,0,0H86a.8.8,0,0,1,0-.24c0-.38.09-.79.13-1.14,0-.1,0-.18,0-.27A7.66,7.66,0,0,1,86.09,65.44Zm-.52,1.65a3.45,3.45,0,0,1-1-.3c-.2-.09-.4-.24-.63-.37s-.4-.36-.62-.54a3.88,3.88,0,0,1-.83-1.61,3.72,3.72,0,0,1,0-1.95,3.85,3.85,0,0,1,.91-1.51,3.79,3.79,0,0,1,2.49-1.06l.7.06a3.55,3.55,0,0,1,.62.16,3.27,3.27,0,0,1,1.34.84,3.71,3.71,0,0,1,.92,1.56,5.25,5.25,0,0,1,.14.9,3.73,3.73,0,0,1-.13,1,3.9,3.9,0,0,1-.83,1.58c-.22.19-.4.39-.62.54s-.42.28-.63.37a3.91,3.91,0,0,1-1.25.33l.28-.05a1.4,1.4,0,0,0,.64-.37,1.6,1.6,0,0,0,.39-1.31,7.36,7.36,0,0,0-.55-1.82c-.22-.53-.41-1-.51-1.36a3.54,3.54,0,0,1-.13-.57,3.12,3.12,0,0,0-.14.91s0-.06,0-.08a1.37,1.37,0,0,0-.3-.7.49.49,0,0,0-.17-.14A8.41,8.41,0,0,1,85,63.57a7.28,7.28,0,0,0-.55,1.82,1.59,1.59,0,0,0,.39,1.31,1.42,1.42,0,0,0,.64.37l.21,0Zm.2,0h.38a.49.49,0,0,0-.17,0Z"/><path class="cls-1" d="M32.26,17.36h0c-6.7-.18-13.59-.35-18.6-.41a.77.77,0,0,0-.75.54v0l-1.21,3.82C9.37,28.77,7.5,35,6,40.08v0a.71.71,0,0,0,.48.88.75.75,0,0,0,.21,0c19.31-.23,24.14-.77,25.25-1,0,.14,0,.24,0,.24V40l.3-.06h-.3c.05-1.83.37-12.31.67-22.25A.36.36,0,0,0,32.26,17.36ZM7.56,39.65,13.23,21.8l1-3.27,17.4-.17c.14,10,.27,19.85.3,21.63Z"/><path class="cls-1" d="M96.64,60h0l.41-.2a.16.16,0,0,1,0,.17h0l.12-.06a.23.23,0,0,0,0-.16Z"/></svg>