<svg id="Слой_1" data-name="Слой 1" xmlns="http://www.w3.org/2000/svg" viewBox="0 0 1920 104"><defs><style>.cls-1{fill:#fff;}.cls-2{fill:#07c7f2;opacity:0.4;}.cls-3{fill:#7ef2e7;opacity:0.5;}</style></defs><title>turquoise_blue_waves6</title><path class="cls-1" d="M0,104H1920V16c-29.23-5.54-55-8.95-76-11.12A887.79,887.79,0,0,0,1740.93.1S1728.3,0,1715.76.81c-32.67,2-65.43,8.87-175.5,25.66C1356,54.58,1318.92,57,1276.17,56.38c-57.23-.83-109.65-6.87-129.76-9.23-62.68-7.37-83.47-14.07-151.48-25.09C965.18,17.24,886.38.1,807.46.1c-34.58,0-85.22-1.4-207.33,6.32C445.89,16.17,365,37.18,185.84,40.68,84.43,42.66,22.18,16.54,0,4.09,0,2.28,0,104.74,0,104Z"/><path class="cls-2" d="M55.66,25.77C127.43,47.47,227.34,40.87,299,35.2,415.68,26,524.95,9.38,623.72,4.67,724.58-.15,814.48.14,814.48.14c0,.6-30.22,3.38-68.58,6.17-83.51,6.07-142,16.44-194.9,25.11C380.8,59.32,295.93,68.48,231.3,67.84,154.2,67.08,85.5,53.84,55.66,25.77Z"/><path class="cls-3" d="M814,.49c-85.5-1.82-154.74,3.14-201.2,4.68C512,8.5,370.65,35.66,222.17,39.81c-23.8.67-93.66,4.52-157.56-11.58C46,23.54,28.92,18.35,9,9.11,27.5,42.68,55.74,63.84,93.87,79.85a307.89,307.89,0,0,0,136.78,23.62c160.46-8.21,287.66-46.57,444-78.16C733.71,13.4,782.37,5.37,814,.49Z"/><path class="cls-2" d="M1509.15,30.92C1567.43,22.21,1614.72,14.58,1656,8c15-2.37,45.51-7.85,71-7.85s43.83,0,58.46.43c20.47.67,44.66,2,63.07,4.89-39,15.08-92.78,41.12-153.68,41.45C1623.2,47.35,1560.23,38.33,1509.15,30.92Z"/><path class="cls-3" d="M1451.1,39.61c80.64-12.05,145.47-21.74,202.35-30.71,20.31-3.2,49.94-8.89,90-8.89,34.72,0,63.52,1.55,83.89,3.27,28.24,2.39,53.36,5.9,78.83,10-54,20.87-118,48.13-202.21,48.59C1604.87,62.37,1521.78,49.85,1451.1,39.61Z"/></svg>