<svg id="Слой_1" data-name="Слой 1" xmlns="http://www.w3.org/2000/svg" viewBox="0 0 1920 104"><defs><style>.cls-1{fill:#fff;}.cls-2{fill:#7ef2e7;opacity:0.5;}.cls-3{fill:#07c7f2;opacity:0.4;}</style></defs><title>turquoise_blue_waves2</title><path class="cls-1" d="M1920,.21H0V84a253.17,253.17,0,0,1,80-8c33.46,2.09,75,11,168.26-8.34,89.6-18.56,163.48-51.46,232-51.46C606,16.23,763.09,106,963,104c279.13-2.83,394-60.85,549-62.5,64-.68,134.9,31.18,265,49.5,60.56,8.53,112,13,143,4Z"/><path class="cls-2" d="M0,84V61.73C11,73,23,72,48,76c-9.08.86-18.78,2.14-29,4C12.36,81.22,6,82.57,0,84Z"/><path class="cls-2" d="M569.85,27.46C635,43.11,705.18,65.25,778,82,843,97,915,104.58,963,104c78-1,153-6,235-18,82.84-12.09,149-26.94,216-36.91C1268.36,70.78,1089.05-4.5,884,.21,768.74,2.86,663.43,12.72,569.85,27.46Z"/><path class="cls-3" d="M1431,47.1c-16.5,2.46-28.22,3.7-58,9C1283,72,1273.19,74.6,1220,83c-82,13-142.71,16.52-166,18-34.27,2.12-61,3-97,3-45.42,0-75-2-137-13C757,79.85,673.84,55,609,37.13,743,74,934.35-4.67,1139,8.93,1254,16.57,1338.15,28.32,1431,47.1Z"/><path class="cls-2" d="M1739,85c12,2,74,12,110,14,28,1.55,44.75.3,44.75.3S1839.49,77,1818,77C1799,77,1754,79,1739,85Z"/><path class="cls-3" d="M1671,71C1759,91,1814,96,1849,99c43.94,3.76,67-3,67-3s-14-84.8-70-66.84C1819.67,37.59,1734,68.05,1671,71Z"/></svg>