<svg id="Layer_1" data-name="Layer 1" xmlns="http://www.w3.org/2000/svg" viewBox="0 0 115.08 114.36"><defs><style>.cls-1{fill:#231f20;}</style></defs><title>unlimited_wash_club</title><path class="cls-1" d="M89.37,91.85a6.41,6.41,0,0,0-2-.76l-1-.32.23.31a1,1,0,0,0-.53.24,27.09,27.09,0,0,0,2.59,2l.39-.72,0-.07Z"/><path class="cls-1" d="M40.58,44.24l-.36-.15a1,1,0,0,0,.34-.47,27.15,27.15,0,0,0-3.23-.43c0,.75,0,1.2,0,1.65a6.34,6.34,0,0,0,2.16-.36Z"/><path class="cls-1" d="M102,77.93a6.37,6.37,0,0,0-2.16.36l-1,.24.36.15a1,1,0,0,0-.34.47,27.1,27.1,0,0,0,3.23.43c0-.75,0-1.2,0-1.65Z"/><path class="cls-1" d="M72.56,96a6.34,6.34,0,0,0-2-1,3,3,0,0,0-.89-.17,2.5,2.5,0,0,1,.91.33,2.11,2.11,0,0,0-.5-.1,2,2,0,0,0-.81.16l-.1.08c.32-.32.41-.42.38-.44a3,3,0,0,1-.42.16,6.77,6.77,0,0,1,.25-.66l.16,0,.17,0h0l.14.08.13,0,.56.15.1,0a.59.59,0,0,0,1.12-.34l0,0,.3,0c0-.07-.05-.13-.08-.2a1.48,1.48,0,0,0,.16-.24.79.79,0,0,0,0-.65.9.9,0,0,0-.24-.33,5.42,5.42,0,0,0-1.33-.83.43.43,0,0,0-.19,0h-.06a7.61,7.61,0,0,0-1.74.16,3.54,3.54,0,0,0-1.71.78,3.42,3.42,0,0,0-.73,1.55A10.26,10.26,0,0,0,66,95.63a12.53,12.53,0,0,0-.1,1.8v0a.74.74,0,0,0,.08.31,9.2,9.2,0,0,0,.63,1,4.07,4.07,0,0,0,1,1.09,4,4,0,0,0,1.52.33,12.85,12.85,0,0,0,1.35,0h.05a.5.5,0,0,0,.24-.07,6.73,6.73,0,0,0,1-.69,3.62,3.62,0,0,0,.45-.44,1.5,1.5,0,0,0,.33-.69,10,10,0,0,0,.14-2v-.06A.33.33,0,0,0,72.56,96ZM69.47,97l.1,0h-.05C69.64,97,69.45,97,69.47,97Zm.15.09,0,0,.19.1c0,.21-.05.44-.08.59s0,.2-.06.27a.93.93,0,0,1-.44-.17c.11.08.1-.28.11-.62Zm.29,1h0a2.78,2.78,0,0,0,.58-.55,1.14,1.14,0,0,1-.24.73.78.78,0,0,1-.61.28h0A.87.87,0,0,0,69.9,98Zm-.2-3.61Zm0,0h0S69.75,94.43,69.72,94.42Zm1,.35s0,0,0,0Zm1.41,2.07a2.18,2.18,0,0,0-.41-1c.16.13.33.28.49.44h0C72.21,96.5,72.18,96.68,72.15,96.85Z"/><path class="cls-1" d="M107.95,60l-.51,0v0a7.67,7.67,0,0,0,.13-1.06.36.36,0,0,0-.13-.29h0a5.71,5.71,0,0,0-1.27-.76,3.35,3.35,0,0,0-1.75-.36A12.2,12.2,0,0,0,101,59a.58.58,0,0,0-.2.79.59.59,0,0,0,.38.27h.08l2.5.53.09,0a.57.57,0,0,0,.64-.35l0,.7h0l-.09,0,0,0s0,0-.2.21a.82.82,0,0,0,0,.76.66.66,0,0,0-.29,0l-2.17.35h0a.61.61,0,0,0-.5.7.6.6,0,0,0,.15.32c.31.34.6.63.92.92l.48.43a2,2,0,0,0,.71.42,12.05,12.05,0,0,0,2.45.14h0a.31.31,0,0,0,.17,0,4.29,4.29,0,0,0,1.66-1.45,4.79,4.79,0,0,0,.26-1.69v0a.2.2,0,0,0,0-.14l-.19-.2.21-.06.13,0,.07,0h.09l.06,0,.12-.06.2-1.21L107.9,60Zm-3,2.85h0Zm-.12.05-.09,0a1.38,1.38,0,0,1-.19-.36.52.52,0,0,0,0-.11l.14,0h.1c.08,0,0,0,0,0l.09,0,.06,0A3.18,3.18,0,0,1,104.81,62.92Zm2.84-2.87h0ZM107,59c0,.36,0,.67,0,.93l-.91-.08a3.8,3.8,0,0,0-.05-.39,2.45,2.45,0,0,0-.09-.31,1.51,1.51,0,0,0-.16-.31l0,0-.1-.11-.08-.07a1.64,1.64,0,0,0-.45-.21A5.64,5.64,0,0,1,107,59Zm-3.47-.1a2.36,2.36,0,0,0-.15.25l-.21,0Zm4.21,3.23a4.66,4.66,0,0,1-.39,1.55,3.92,3.92,0,0,1-1.59,1.1,13,13,0,0,1-2.2-.34,5.54,5.54,0,0,1-1.11-1.12l1-.07a3,3,0,0,0,.55.88.43.43,0,0,0,.33.16h.07a3.17,3.17,0,0,0,.74-.08,1.52,1.52,0,0,0,.45-.16,1.25,1.25,0,0,0,.19-.12.74.74,0,0,0,.18-.21,1,1,0,0,0,.08-.15,4,4,0,0,0,.29-1.36.55.55,0,0,0,0-.14l1.18-.3.18.25A.15.15,0,0,1,107.73,62.14Zm.35-.5h-.23l.23,0Z"/><path class="cls-1" d="M34.72,63.12h0S34.69,63.13,34.72,63.12Z"/><path class="cls-1" d="M31.72,63.09a.41.41,0,0,0,.1.23l0,0c.23.28.46.53.73.81l.42.42.26.22a1.17,1.17,0,0,0,.43.2,19.17,19.17,0,0,0,2.62.26.54.54,0,0,0,.45-.19h0a7.54,7.54,0,0,0,1.78-3.55,5.25,5.25,0,0,0-.2-1.93A9.61,9.61,0,0,0,37.82,58a.72.72,0,0,0-.32-.35h0a7.42,7.42,0,0,0-1.4-.58,5.57,5.57,0,0,0-.71-.17,2.72,2.72,0,0,0-1,0,7.23,7.23,0,0,0-1.87.65h0a.68.68,0,0,0-.32.31,7.67,7.67,0,0,0-.45,1.1,4.24,4.24,0,0,0-.17.64,2,2,0,0,0,0,.47,2.2,2.2,0,0,0,.07.41,5.73,5.73,0,0,0,1.28,2l-.84.07A.42.42,0,0,0,31.72,63.09Zm2.67-.24a1.29,1.29,0,0,0,.29.24s0,0,0,0h0c.16.08.26.06.25.08L34.81,63l.3-.26.29-.07a1.54,1.54,0,0,0,.44-.3,2.21,2.21,0,0,1-.18.65.78.78,0,0,1-.7.46.61.61,0,0,1-.43-.16,1,1,0,0,1-.22-.48Zm.36-2.41c0-.06,0-.21,0-.32s0-.19,0-.28l.22-.13.24.12a5.52,5.52,0,0,1-.09.56c0,.12,0,.2-.07.26a.9.9,0,0,1-.45-.17s.06,0,.1.05S34.74,60.45,34.75,60.45Zm.09-.8.08,0A.1.1,0,0,1,34.85,59.64Zm.43,1h0a2.52,2.52,0,0,0,.6-.54,1.12,1.12,0,0,1-.25.71.83.83,0,0,1-.65.29h0A.89.89,0,0,0,35.28,60.69Zm-.55,2.14.23,0-.18.2a.86.86,0,0,1-.1-.16Z"/><path class="cls-1" d="M69,60.05H68.9s0,.07,0,.1Z"/><path class="cls-1" d="M68.34,40.25v.05c.09,7,.18,14.26.24,19.45l-1.93,0h0a.37.37,0,0,0-.37.38.42.42,0,0,0,0,.08l.58,2.46v0a.19.19,0,0,0,0,.08,4.48,4.48,0,0,0,1.39,1.13,3,3,0,0,0,.58.26,3.08,3.08,0,0,1-.58-.29A4.54,4.54,0,0,1,67,62.75a.2.2,0,0,1,0-.08l-.48-2.48h0a.16.16,0,0,1,.13-.19h0l1.93.06s0,.08,0,.11l.11-.11h.21c0-.07,0-.15,0-.22l.09-.09h-.09c.14-5.36.34-12.67.53-19.41l.08-.65c0,.38.06.76.09,1.13,0,3.4-.06,6-.08,7.77,0,4.18,0,8,0,11.56h0a.79.79,0,0,0,.79.79h0l15.08-.15q0,.63,0,1.24c-8.1.16-12.63.38-15.1.56l0,0h0l0,.34h0c0,.45.08.89.11,1.28a.11.11,0,0,1-.1.12h0a8.68,8.68,0,0,0-1.4-.16l1.35.36a.33.33,0,0,0,.4-.23.44.44,0,0,0,0-.09c0-.33,0-.72,0-1.27l15.36.2a.55.55,0,0,0,.55-.54h0c0-.81,0-1.63,0-2.46a.58.58,0,0,0-.57-.58h0L71.1,59.41c0-4.47,0-8.25.07-10.81,0-1.95,0-4.56,0-7.79h0v-.07l-.74-7.07h0a.72.72,0,0,0-1.44,0l-.61,6.58Z"/><path class="cls-1" d="M43.09,94.3a21.84,21.84,0,0,0,3.4-2.36L48,90.8l-.64.19c.36-.5.32-.73.32-.73s-4.15,1.85-5.45,2.61Z"/><path class="cls-1" d="M27,49.57s.66-1.77,1.56-3.74a54.19,54.19,0,0,1,2.72-5.19.82.82,0,0,0-1.41-.85h0c-.3.53-.8,1.32-1.31,2.3a19.65,19.65,0,0,0-1.22,3.23,31.43,31.43,0,0,0-.92,4s.19-.5.51-1.24C26.85,49.33,27,49.57,27,49.57Z"/><path class="cls-1" d="M12.87,74.51a11.53,11.53,0,0,1,4.7-6.28,12.35,12.35,0,0,1,4.83-1.95,9.63,9.63,0,0,1,1.87-.17,9.65,9.65,0,0,0-1.88.13,12.42,12.42,0,0,0-4.92,1.88,11.72,11.72,0,0,0-4.89,6.33,16.65,16.65,0,0,0-.46,5c0,1.73,0,3.54-.07,5.41A112.47,112.47,0,0,1,5.24,70.38,77.69,77.69,0,0,1,2.5,62.2a40.83,40.83,0,0,1-1.29-8.66A59,59,0,0,1,8.6,21.34L8,21c1,.42.59.26.69.27l0-.05.06-.11.12-.22L9,20.65,9,20.54l0-.06,0,0v0h0a.75.75,0,0,0,.06-.31.74.74,0,0,0-.2-.49l0,0L4.81,14.67l-.08-.08a2,2,0,0,1-.3-.75,7.26,7.26,0,0,1-.14-1.11A9.8,9.8,0,0,1,4.35,11L9.75,9.57,26,5.11,33.4,3.05l3.57-1,1.72-.47A2.14,2.14,0,0,1,39,1.54l.22,0h.11a2.49,2.49,0,0,1,.38,0l.29.08.23.11.06,0h0l0,0c-.08.17-.06.12,0,0l.07.05.52.4.72.58L39.44,23.7q-.49,4.72-.93,9l-.42,4.11a7.06,7.06,0,0,1-.27,1.77A7.11,7.11,0,0,1,37,39.93a5,5,0,0,1-2,.24,2.53,2.53,0,0,1-.92-.25,7.73,7.73,0,0,1-.84-.67l-3.36-2.81h0a.44.44,0,0,0-.62.06.49.49,0,0,0-.07.12A91.57,91.57,0,0,0,24.41,52a22.68,22.68,0,0,0-.53,5.25c0,1.49,0,2.73,0,3.75a17.25,17.25,0,0,0,.46,3.9,6.42,6.42,0,0,0,.25.84l-.12-.57c-.06-.36-.16-.9-.22-1.61a46.05,46.05,0,0,1,.07-6.19A33.94,33.94,0,0,1,26,48.18a102.89,102.89,0,0,1,3.73-10.58l2.89,2.5a5.75,5.75,0,0,0,1,.78,3.88,3.88,0,0,0,1.3.35,5.92,5.92,0,0,0,2.58-.31.47.47,0,0,0,.21-.15A7.19,7.19,0,0,0,39,38.56c.17-.94.2-1.59.31-2.41l.55-4.72c.37-3.18.74-6.4,1.11-9.64.75-6.48,1.5-13,2.22-19.21a.72.72,0,0,0-.25-.63l-1.08-.89L41.29.63,41.12.51a1.66,1.66,0,0,0-.23-.12l-.3-.14L40.45.19A4,4,0,0,0,39,0a4.18,4.18,0,0,0-.72.11l-.59.16L35.45.88,31,2.08,22.73,4.33,9.31,8,3.4,9.61h0a.79.79,0,0,0-.56.61,10.25,10.25,0,0,0-.14,2.47,8.83,8.83,0,0,0,.17,1.39,3.12,3.12,0,0,0,.84,1.71l-.09-.09L7.47,20.2l-.09.17-.07.13,0,.07,0,0,0,0v0A59.82,59.82,0,0,0,.14,53.45a42.27,42.27,0,0,0,1.44,8.89A78.18,78.18,0,0,0,4.5,70.62a112.31,112.31,0,0,0,7.18,14.53.46.46,0,0,0,.63.16.47.47,0,0,0,.23-.4c0-1.92,0-3.76,0-5.53,0-.88,0-1.75,0-2.57A9.73,9.73,0,0,1,12.87,74.51Zm-5-53.9.37.24A.69.69,0,0,1,7.84,20.62Zm-.15-.83h0Z"/><polygon class="cls-1" points="40.3 1.78 40.3 1.78 40.3 1.78 40.3 1.78"/><path class="cls-1" d="M37.44,92.84a.76.76,0,0,0-.18.5c0,1.51,0,3,.05,4.43v0a.72.72,0,0,0,.6.7c4,.68,7.27,1.19,9.83,1.57,1.94.67,3.49,1.18,4.73,1.57h0a.23.23,0,0,0,.29-.15,34.06,34.06,0,0,0,1.28-4.67l0,.07,0-.07a1.37,1.37,0,0,0,0-.2l-.05.13-1.62-3.07h0a.13.13,0,0,1,0-.07l.66-17,0,0h0c0-.14,0-.29,0-.43a.51.51,0,0,0-.89-.36l0,0c-3.46,3.85-6.7,7.49-8.56,9.71l-6.16,7.38Zm7.42-6.33,7-8.56c.1,5.72.21,11.86.27,15.64h0a.33.33,0,0,0,.05.18l1.8,3-1.7,4.12L48,99.11l-.07,0h0l-9.23-1.87c0-1.24,0-2.45.05-3.61Z"/><path class="cls-1" d="M36.11,97c0,.06,0,.11,0,.17h.18Z"/><path class="cls-1" d="M35.63,84a7.68,7.68,0,0,0-2-1.69,17.46,17.46,0,0,0-2.2-1.19.52.52,0,0,0-.2,0h0c-1.45,0-2.84,0-4.19.11-.68,0-1.34.1-2,.21a6.06,6.06,0,0,0-1.08.25,3.12,3.12,0,0,0-1,.66,35.88,35.88,0,0,0-4.18,5,.8.8,0,0,0,.18,1.12.78.78,0,0,0,.4.15h0l.86.07,5.65.46a.82.82,0,0,0,.87-.69v0a5.49,5.49,0,0,1,1.1-2.22,7.72,7.72,0,0,1,.83.1,4,4,0,0,1,.89.25c.05,0,.23.37.3.71a5.53,5.53,0,0,1,.13.8,21.43,21.43,0,0,1-3.39,3.3,26.57,26.57,0,0,0-3.4,3.43,70.41,70.41,0,0,0-4.84,6.3h0a.55.55,0,0,0,.15.77.54.54,0,0,0,.32.09c12.65-.27,16.23-.66,17.16-.81,0,.16,0,.25,0,.25v-.25l.3-.06H36c0-.57.06-1.89.11-3.71h.19l-.18-.18h0L35.92,97c0,.06,0,.11,0,.17l-8-.23c1.37-1.06,2.85-2.06,4.39-3.21a25.91,25.91,0,0,0,4.14-4.45.3.3,0,0,0,.06-.18v0a18.28,18.28,0,0,0-.17-2.53A6.85,6.85,0,0,0,35.63,84Zm-3.8,9.18c-.67.61-1.51,1.14-2.24,1.74l-2.14,1.72a.48.48,0,0,0-.07.67.49.49,0,0,0,.38.18l8.17-.11c0,1.84,0,3.14,0,3.71l-16.1-.2a76.57,76.57,0,0,1,5-5.94,21.4,21.4,0,0,1,3.28-3,22.34,22.34,0,0,0,3.26-3.24.62.62,0,0,0,.14-.4v0a6.64,6.64,0,0,0-.2-1.52,4.13,4.13,0,0,0-.27-.77,2.21,2.21,0,0,0-.26-.43l-.11-.12,0,0-.06,0,0,0-.22-.16a6.87,6.87,0,0,0-2.88-.63.65.65,0,0,0-.52.2l0,0a7.43,7.43,0,0,0-1.14,1.59,7.24,7.24,0,0,0-.45,1.05l-4.4-.38a33.57,33.57,0,0,1,3-3.64,1.87,1.87,0,0,1,.5-.39,5,5,0,0,1,.76-.18c.59-.11,1.23-.18,1.89-.24,1.26-.12,2.6-.2,3.94-.23a17.1,17.1,0,0,1,1.92,1,7.18,7.18,0,0,1,1.73,1.3,6.34,6.34,0,0,1,.62,2.06,17.87,17.87,0,0,1,.23,2.18A25.36,25.36,0,0,1,31.82,93.17Z"/><path class="cls-1" d="M60.37,98.25c0-4.44-.07-8.72-.09-12.66,0-2,0-3.84,0-5.6,0-.88,0-1.73,0-2.55,0-.49-.08-.83-.11-1.24A4,4,0,0,0,59.84,75a7.92,7.92,0,0,0-5-5.27l-1.14-.34-.86-.08-.72-.07.71.08.86.1,1.12.36a7.76,7.76,0,0,1,4.76,5.25A17.52,17.52,0,0,1,59.85,80c0,1.77-.06,3.65-.1,5.6-.06,4-.14,8.26-.21,12.66,0,2.24-.07,4.5-.11,6.76a9.49,9.49,0,0,1-.11,1.66,5.29,5.29,0,0,1-.37,1.57,7.62,7.62,0,0,1-1.71,2.7,7.71,7.71,0,0,1-5.87,2l-6.58-.09-21.29-.18a6.94,6.94,0,0,1-5.34-2.61,6.84,6.84,0,0,1-1.28-2.55,9.54,9.54,0,0,1-.21-1.55c0-.37,0-1,0-1.5,0-4.18,0-8.12,0-11.84s0-7.12-.06-10.39q0-2.4,0-4.68a7.3,7.3,0,0,1,.93-3.84,7.58,7.58,0,0,1,1.11-1.52A7.73,7.73,0,0,1,20,71.14l.77-.43.79-.26a6.76,6.76,0,0,1,1.73-.3c2.27-.08,4.55-.08,6.53-.12l10-.21c10.86-.28,12.26-.57,12.26-.57l-9.84-.08L31.78,69.1l-6.14,0H23.38l-.2,0-.81.08a7.39,7.39,0,0,0-1.72.41,9.79,9.79,0,0,0-1.61.78,8.18,8.18,0,0,0-3.72,6l-.1.92V79.8l0,3.43c0,4.59-.06,9.11-.08,13.38,0,2.15,0,4.23,0,6.23s-.25,3.88.51,5.92A8.64,8.64,0,0,0,19,113.05a8.87,8.87,0,0,0,4.48,1.31l21.29-.08,6.58,0c.31,0,.49,0,.91,0l.84-.09a6.92,6.92,0,0,0,1.78-.42,8,8,0,0,0,1.68-.82A14,14,0,0,0,58,111.74,8.72,8.72,0,0,0,60,108.59a6.3,6.3,0,0,0,.39-1.81l.08-.92V105C60.4,102.73,60.39,100.47,60.37,98.25Z"/><path class="cls-1" d="M50.75,29.46l-.27.5-.51.94a6.44,6.44,0,0,0,2,.77L53,32l-.23-.31a1,1,0,0,0,.53-.24A27.13,27.13,0,0,0,50.75,29.46Z"/><path class="cls-1" d="M100.92,43.68a27.08,27.08,0,0,0-3.21-.6l0,1.65a6.35,6.35,0,0,0,2.17-.25l1.06-.18-.35-.17A1,1,0,0,0,100.92,43.68Z"/><path class="cls-1" d="M88.58,29.46a6.4,6.4,0,0,0-1.76,1.3l-.83.69.39,0a1,1,0,0,0-.09.57,27.31,27.31,0,0,0,3.08-1.09h0l-.4-.73Z"/><path class="cls-1" d="M66.49,31.82a.58.58,0,0,0,.42-.32L68.56,28,66.73,30.3c0-1.23.06-2.46,0-3.36a.76.76,0,0,0-.79-.73l-.09,0c.22-.19.46-.39.66-.59l.15-.15c1.33,2.13,1.88,2.18,1.88,2.18l-1.29-3.52a.54.54,0,0,0-.92-.16l-.13.15a4.57,4.57,0,0,1-.62.52l-.87.62a.52.52,0,0,0-.17.21l0,.08-.83,1.86a.79.79,0,0,0,1,1.07h0a6.28,6.28,0,0,0,.64-.24c.14.93.32,2,.5,3v.08A.57.57,0,0,0,66.49,31.82Z"/><path class="cls-1" d="M70.55,29.62c.26-.46.43-.79.54-1,.22-.5.17-.63.17-.63s-.23.29-.69.8l-.8.92c-.15.18-.31.37-.47.59a2.33,2.33,0,0,0-.47.9.42.42,0,0,0,.3.51.38.38,0,0,0,.15,0h.09l5.29-.51h0v0l.28,0a.68.68,0,0,0,.13-1.33h0l-1.42-.41a13.18,13.18,0,0,0,1-.84,2.34,2.34,0,0,0,.78-1.25,6.32,6.32,0,0,0,.18-1.51v0a.7.7,0,0,0-.13-.42,6.19,6.19,0,0,0-.74-.83,3.63,3.63,0,0,0-.5-.4,1.82,1.82,0,0,0-.78-.27,15.59,15.59,0,0,0-2.28-.09h-.06a.43.43,0,0,0-.2.05,5.08,5.08,0,0,0-1.52,1.08.83.83,0,0,0-.14.22l0,.07a.86.86,0,0,0,0,.27,1,1,0,0,0,.14.46,3.47,3.47,0,0,0,.27.37c.16.18.2.32.2.28l.34,0h0a.21.21,0,0,0,.13.27.21.21,0,0,0,.27-.13v-.08h0l.33,0c-.14.29,0,0,.14,0l.56-.24a1.53,1.53,0,0,0,.36-.22c-.05,0,0,0,.11,0a2.1,2.1,0,0,1,.29-.05,1.82,1.82,0,0,1,.17.24l-.08.11c-.22.29-.44.54-.62.75-.36.42-.57.67-.59.7s.26-.25.68-.62c.21-.19.46-.41.73-.67s.29-.21.19-.42a2.24,2.24,0,0,0-.33-.56,2,2,0,0,0-1.13.22l-.61.17-.26.11a2.52,2.52,0,0,0-.21-.42,2.78,2.78,0,0,1-.17-.29h0a4.74,4.74,0,0,1,1.12-.6,15.86,15.86,0,0,1,2,.29c.2,0,.56.44.82.8a5.71,5.71,0,0,1-.18.89c0,.18-.12.28-.35.49a16.36,16.36,0,0,1-1.46,1.18h0l0,0c-.21.18-.4.35-.61.56h0a.8.8,0,0,0,0,1.13s.06,0,.09,0L70,30.62l.11-.21ZM70,25.41h0l0,0h0S70,25.44,70,25.41Zm.11.08Z"/><polygon class="cls-1" points="72.52 25.68 72.52 25.68 72.53 25.68 72.52 25.68"/><path class="cls-1" d="M114.32,52.8h0s0,0,0,0Z"/><path class="cls-1" d="M114.35,53s0,0,0,0V52.8a.47.47,0,0,1,0,.12.3.3,0,0,1,0,.13l-.16.2c-.11.08-.24.13-.29.1l.49-.61A45.66,45.66,0,0,0,92.63,21.92,44.63,44.63,0,0,0,84.15,18a47.37,47.37,0,0,0-8.44-2c-1.33-.18-2.68-.31-3.93-.36l-.93,0-.51,0h-.45c-.59,0-1.22,0-1.8.05a47.4,47.4,0,0,0-26.77,9.88.76.76,0,0,0-.29.51l-.17,1.54a.76.76,0,0,0,.67.84.77.77,0,0,0,.56-.16c7.52-6.07,18.47-9.78,29-9.85a48.29,48.29,0,0,1,12.47,2.13l-.12,0a53.07,53.07,0,0,1,10,4.62c1.66,1.16,3.25,2.22,4.62,3.37s2.6,2.31,3.73,3.38a50.82,50.82,0,0,1,5.48,6.89c1,1.72,1.6,2.71,1.64,2.79l.74,1.49a47.34,47.34,0,0,1,2,4.55,51.1,51.1,0,0,1,1.73,6.49,54.79,54.79,0,0,1,.82,8.83.45.45,0,0,0,.9,0A62.67,62.67,0,0,0,114.35,53Zm-.61.05,0-.07c.06,0,.13,0,.12,0ZM109.5,42.55c-.48-.81-.62-1-.62-1s-.6-1.12-1.59-2.83a50.66,50.66,0,0,0-5.34-7h0c-1.13-1.11-2.33-2.33-3.71-3.5s-3-2.3-4.58-3.48h0a40.21,40.21,0,0,0-10-4.67l0-.15a48.82,48.82,0,0,0-12.62-2.39h0A50.85,50.85,0,0,0,49.2,22.33,48.39,48.39,0,0,1,62.1,18a43,43,0,0,1,21.73,1.54A44.69,44.69,0,0,1,111,45.41C110.36,44,109.83,43.13,109.5,42.55Z"/></svg>